<svg width="84" height="84" viewBox="0 0 84 84" fill="none" xmlns="http://www.w3.org/2000/svg">
<path d="M53.8125 55.125C69.0348 55.125 81.375 42.7848 81.375 27.5625C81.375 12.3402 69.0348 0 53.8125 0C38.5902 0 26.25 12.3402 26.25 27.5625C26.25 42.7848 38.5902 55.125 53.8125 55.125Z" fill="#FFEC40"/>
<path d="M26.25 84H23.625V74.8125C23.625 64.3125 29.4 62.0812 35.7 59.7187C37.9313 58.8 40.2937 58.0125 42.7875 56.5687L44.1 58.8C41.6062 60.2437 38.9812 61.2937 36.75 62.0812C30.5813 64.4437 26.3813 66.0187 26.3813 74.6812V84H26.25Z" fill="#1E2F4F"/>
<path d="M84 84H81.375V74.8125C81.375 66.15 77.3062 64.575 71.0062 62.2125C68.775 61.2938 66.15 60.375 63.6562 58.9313L64.9688 56.7C67.3312 58.0125 69.6938 58.9313 72.0563 59.85C78.225 62.0813 84 64.3125 84 74.8125V84Z" fill="#1E2F4F"/>
<path d="M59.325 64.575L53.8125 61.8188L48.3 64.575L41.6063 57.8813L45.2813 52.3688L53.8125 53.8125L62.3438 52.3688L66.0188 57.8813L59.325 64.575ZM53.8125 58.9313L58.8 61.425L62.6063 57.6188L61.0313 55.2563L53.8125 56.4375L46.5938 55.2563L45.0188 57.6188L48.825 61.425L53.8125 58.9313Z" fill="#1E2F4F"/>
<path d="M61.6875 48.5625H59.0625V53.8125H61.6875V48.5625Z" fill="#1E2F4F"/>
<path d="M48.5625 48.5625H45.9375V53.8125H48.5625V48.5625Z" fill="#1E2F4F"/>
<path d="M55.125 70.875H52.5V73.5H55.125V70.875Z" fill="#1E2F4F"/>
<path d="M55.125 65.625H52.5V68.25H55.125V65.625Z" fill="#1E2F4F"/>
<path d="M53.8125 51.1875C53.6813 51.1875 49.4813 51.1875 46.725 49.7438L46.5938 49.6125C46.4625 49.4812 42.1313 46.5938 40.8188 36.8813V36.75V31.5C40.8188 22.8375 45.2813 18.375 53.9438 18.375C62.6063 18.375 67.0688 22.8375 67.0688 31.5V36.8813C65.625 46.5938 61.425 49.4812 61.2938 49.6125L61.1625 49.7438C58.1438 51.1875 53.9438 51.1875 53.8125 51.1875ZM47.9063 47.3812C50.2688 48.5625 53.6813 48.5625 53.8125 48.5625C53.9438 48.5625 57.3563 48.5625 59.7188 47.3812C60.1125 46.9875 63.2625 44.3625 64.3125 36.6187V31.5C64.3125 24.2812 61.0313 21 53.8125 21C46.5938 21 43.3125 24.2812 43.3125 31.5V36.6187C44.4938 44.3625 47.5125 47.1187 47.9063 47.3812Z" fill="#1E2F4F"/>
<path d="M60.375 35.5688L47.25 30.3188L42.525 32.6813L41.475 30.3188L47.25 27.4313L60.375 32.6813L65.1 30.3188L66.15 32.6813L60.375 35.5688Z" fill="#1E2F4F"/>
<path d="M20.6062 41.6063L18.7687 39.7687L26.25 32.2875V18.375H28.875V33.3375L20.6062 41.6063Z" fill="#1E2F4F"/>
<path d="M28.875 52.5H26.25V55.125H28.875V52.5Z" fill="#1E2F4F"/>
<path d="M7.875 31.5H5.25V34.125H7.875V31.5Z" fill="#1E2F4F"/>
<path d="M28.875 10.5H26.25V13.125H28.875V10.5Z" fill="#1E2F4F"/>
<path d="M14.4375 45.9375H11.8125V48.5625H14.4375V45.9375Z" fill="#1E2F4F"/>
<path d="M14.4375 17.0625H11.8125V19.6875H14.4375V17.0625Z" fill="#1E2F4F"/>
<path d="M42 17.0625H39.375V19.6875H42V17.0625Z" fill="#1E2F4F"/>
<path d="M28.875 60.375H27.5625C12.3375 60.375 0 48.0375 0 32.8125C0 17.5875 12.3375 5.25 27.5625 5.25C35.5687 5.25 42.9188 8.6625 48.3 14.8313L46.3312 16.5375C41.475 11.025 34.7812 7.875 27.5625 7.875C13.7812 7.875 2.625 19.0312 2.625 32.8125C2.625 46.5938 13.7812 57.75 27.5625 57.75H28.875V60.375Z" fill="#1E2F4F"/>
<path d="M36.75 76.125H34.125V84H36.75V76.125Z" fill="#1E2F4F"/>
<path d="M73.5 76.125H70.875V84H73.5V76.125Z" fill="#1E2F4F"/>
</svg>
