<svg width="84" height="84" viewBox="0 0 84 84" fill="none" xmlns="http://www.w3.org/2000/svg">
<path d="M27.5625 84C42.7848 84 55.125 71.6598 55.125 56.4375C55.125 41.2152 42.7848 28.875 27.5625 28.875C12.3402 28.875 0 41.2152 0 56.4375C0 71.6598 12.3402 84 27.5625 84Z" fill="#FFEC40"/>
<path d="M43.3125 44.625H9.1875C8.4 44.625 7.875 44.1 7.875 43.3125V14.4375C7.875 13.65 8.4 13.125 9.1875 13.125H43.3125C44.1 13.125 44.625 13.65 44.625 14.4375V43.3125C44.625 44.1 44.1 44.625 43.3125 44.625ZM10.5 42H42V15.75H10.5V42Z" fill="#1E2F4F"/>
<path d="M9.1875 36.75H3.9375C3.15 36.75 2.625 36.225 2.625 35.4375V22.3125C2.625 21.525 3.15 21 3.9375 21H9.1875V23.625H5.25V34.125H9.1875V36.75Z" fill="#1E2F4F"/>
<path d="M38.0625 49.875H14.4375C13.65 49.875 13.125 49.35 13.125 48.5625V43.3125H15.75V47.25H36.75V43.3125H39.375V48.5625C39.375 49.35 38.85 49.875 38.0625 49.875Z" fill="#1E2F4F"/>
<path d="M32.8125 76.125H22.3125C21.6562 76.125 21.1312 75.6 21 74.9437L17.0625 48.6937L19.6875 48.3L23.4937 73.5H31.5V48.5625H34.125V74.8125C34.125 75.6 33.6 76.125 32.8125 76.125Z" fill="#1E2F4F"/>
<path d="M82.6875 57.75H77.4375C76.65 57.75 76.125 57.225 76.125 56.4375V1.3125C76.125 0.525 76.65 0 77.4375 0H82.6875C83.475 0 84 0.525 84 1.3125V56.4375C84 57.225 83.475 57.75 82.6875 57.75ZM78.75 55.125H81.375V2.625H78.75V55.125Z" fill="#1E2F4F"/>
<path d="M76.9853 0.0745604L46.7759 13.2158L47.823 15.6229L78.0325 2.48169L76.9853 0.0745604Z" fill="#1E2F4F"/>
<path d="M47.8207 42.1269L46.7741 44.5343L76.9868 57.669L78.0334 55.2616L47.8207 42.1269Z" fill="#1E2F4F"/>
<path d="M3.9375 27.5625H0V30.1875H3.9375V27.5625Z" fill="#1E2F4F"/>
<path d="M38.0625 26.25H14.4375C13.65 26.25 13.125 25.725 13.125 24.9375V19.6875C13.125 18.9 13.65 18.375 14.4375 18.375H38.0625C38.85 18.375 39.375 18.9 39.375 19.6875V24.9375C39.375 25.725 38.85 26.25 38.0625 26.25ZM15.75 23.625H36.75V21H15.75V23.625Z" fill="#1E2F4F"/>
<path d="M22.3125 28.875H19.6875V31.5H22.3125V28.875Z" fill="#1E2F4F"/>
<path d="M27.5625 28.875H24.9375V31.5H27.5625V28.875Z" fill="#1E2F4F"/>
<path d="M32.8125 28.875H30.1875V31.5H32.8125V28.875Z" fill="#1E2F4F"/>
<path d="M38.0625 60.375H32.8125V57.75H36.75V55.125H32.8125V52.5H38.0625C38.85 52.5 39.375 53.025 39.375 53.8125V59.0625C39.375 59.85 38.85 60.375 38.0625 60.375Z" fill="#1E2F4F"/>
<path d="M32.8125 63H28.875V65.625H32.8125V63Z" fill="#1E2F4F"/>
<path d="M32.8125 68.25H28.875V70.875H32.8125V68.25Z" fill="#1E2F4F"/>
<path d="M73.5 27.5625H47.25V30.1875H73.5V27.5625Z" fill="#1E2F4F"/>
</svg>
