<svg width="84" height="84" viewBox="0 0 84 84" fill="none" xmlns="http://www.w3.org/2000/svg">
<path d="M57.75 84C72.2475 84 84 72.2475 84 57.75C84 43.2525 72.2475 31.5 57.75 31.5C43.2525 31.5 31.5 43.2525 31.5 57.75C31.5 72.2475 43.2525 84 57.75 84Z" fill="#FFEC40"/>
<path d="M55.125 18.375H28.875V21H55.125V18.375Z" fill="#1E2F4F"/>
<path d="M63 51.1875C62.6063 51.1875 62.3437 51.0563 62.0812 50.7938C61.5563 50.2688 61.5563 49.4812 62.0812 48.9562L66.9375 44.1V41.475L71.2687 37.1437C71.7937 36.6188 72.5813 36.6188 73.1062 37.1437C73.6313 37.6687 73.6313 38.4563 73.1062 38.9813L69.5625 42.525V45.15L63.9188 50.7938C63.6563 51.0563 63.3938 51.1875 63 51.1875Z" fill="#1E2F4F"/>
<path d="M57.75 66.9375C55.9125 66.9375 54.3375 65.3625 54.2063 65.2313L39.7688 50.7938C39.2438 50.2688 39.2438 49.4813 39.7688 48.9563C40.2938 48.4313 41.0813 48.4313 41.6063 48.9563L56.0438 63.3938C56.4375 63.7875 57.225 64.3125 57.75 64.3125C59.1938 64.3125 60.375 63.1313 60.375 61.6875C60.375 61.1625 59.85 60.375 59.4563 59.9813L45.0188 45.5438C44.4938 45.0188 44.4938 44.2313 45.0188 43.7063C45.5438 43.1813 46.3313 43.1813 46.8563 43.7063L61.2938 58.1438C61.425 58.275 63 59.85 63 61.6875C63 64.575 60.6375 66.9375 57.75 66.9375Z" fill="#1E2F4F"/>
<path d="M51.1875 70.875C49.35 70.875 47.775 69.3 47.6438 69.1688L34.5188 56.0438C33.9938 55.5188 33.9938 54.7312 34.5188 54.2062C35.0438 53.6813 35.8313 53.6813 36.3563 54.2062L49.4813 67.3312C49.875 67.725 50.6625 68.25 51.1875 68.25C52.6313 68.25 53.8125 67.0688 53.8125 65.625C53.8125 65.1 53.2875 64.3125 52.8938 63.9188C52.3687 63.3938 52.3687 62.6062 52.8938 62.0812C53.4188 61.5562 54.2063 61.5562 54.7313 62.0812C54.8625 62.2125 56.4375 63.7875 56.4375 65.625C56.4375 68.5125 54.075 70.875 51.1875 70.875Z" fill="#1E2F4F"/>
<path d="M43.3125 73.5C41.475 73.5 39.9 71.925 39.7687 71.7938L15.75 47.775V43.8375L10.8938 38.9813C10.3688 38.4563 10.3688 37.6688 10.8938 37.1438C11.4188 36.6188 12.2062 36.6188 12.7312 37.1438L18.375 42.7875V46.725L41.6063 69.9562C42 70.35 42.7875 70.875 43.3125 70.875C44.7562 70.875 45.9375 69.6937 45.9375 68.25C45.9375 67.725 45.4125 66.9375 45.0187 66.5438C44.4937 66.0188 44.4937 65.2312 45.0187 64.7062C45.5438 64.1812 46.3312 64.1812 46.8563 64.7062C46.9875 64.8375 48.5625 66.4125 48.5625 68.25C48.5625 71.1375 46.2 73.5 43.3125 73.5Z" fill="#1E2F4F"/>
<path d="M21 57.75C18.1125 57.75 15.75 55.3875 15.75 52.5C15.75 50.6625 17.325 49.0875 17.4563 48.9562C17.9813 48.4313 18.7687 48.4313 19.2937 48.9562C19.8187 49.4812 19.8187 50.2688 19.2937 50.7938C18.9 51.1875 18.375 51.975 18.375 52.5C18.375 53.9438 19.5562 55.125 21 55.125C21.525 55.125 22.3125 54.6 22.7062 54.2062C23.2312 53.6812 24.0188 53.6812 24.5437 54.2062C25.0688 54.7312 25.0688 55.5188 24.5437 56.0438C24.4125 56.175 22.8375 57.75 21 57.75Z" fill="#1E2F4F"/>
<path d="M26.25 63C23.3625 63 21 60.6375 21 57.75C21 55.9125 22.575 54.3375 22.7062 54.2062C23.2312 53.6813 24.0188 53.6813 24.5438 54.2062C25.0688 54.7312 25.0688 55.5188 24.5438 56.0438C24.15 56.4375 23.625 57.225 23.625 57.75C23.625 59.1938 24.8062 60.375 26.25 60.375C26.775 60.375 27.5625 59.85 27.9562 59.4562C28.4812 58.9312 29.2688 58.9312 29.7937 59.4562C30.3188 59.9812 30.3188 60.7688 29.7937 61.2938C29.6625 61.425 28.0875 63 26.25 63Z" fill="#1E2F4F"/>
<path d="M31.5 68.25C28.6125 68.25 26.25 65.8875 26.25 63C26.25 61.1625 27.825 59.5875 27.9562 59.4562C28.4812 58.9313 29.2688 58.9313 29.7938 59.4562C30.3188 59.9812 30.3188 60.7688 29.7938 61.2938C29.4 61.6875 28.875 62.475 28.875 63C28.875 64.4438 30.0562 65.625 31.5 65.625C32.025 65.625 32.8125 65.1 33.2062 64.7062C33.7312 64.1812 34.5188 64.1812 35.0437 64.7062C35.5688 65.2312 35.5688 66.0188 35.0437 66.5438C34.9125 66.675 33.3375 68.25 31.5 68.25Z" fill="#1E2F4F"/>
<path d="M36.75 73.5C33.8625 73.5 31.5 71.1375 31.5 68.25C31.5 66.4125 33.075 64.8375 33.2062 64.7062C33.7312 64.1813 34.5188 64.1813 35.0438 64.7062C35.5688 65.2312 35.5688 66.0188 35.0438 66.5438C34.65 66.9375 34.125 67.725 34.125 68.25C34.125 69.6938 35.3062 70.875 36.75 70.875C37.275 70.875 38.0625 70.35 38.4562 69.9562C38.9812 69.4312 39.7688 69.4312 40.2937 69.9562C40.8188 70.4812 40.8188 71.2688 40.2937 71.7938C40.1625 71.925 38.5875 73.5 36.75 73.5Z" fill="#1E2F4F"/>
<path d="M60.375 59.0625C58.5375 59.0625 56.9625 57.4875 56.8312 57.3563C56.3062 56.8312 56.3062 56.0438 56.8312 55.5187C57.3562 54.9937 58.1438 54.9937 58.6688 55.5187C59.0625 55.9125 59.85 56.4375 60.375 56.4375C61.8187 56.4375 63 55.2562 63 53.8125C63 53.2875 62.475 52.5 62.0812 52.1063L44.625 34.65V27.5625H42.525L36.3563 33.7313C36.225 33.8625 34.65 35.4375 32.8125 35.4375C29.925 35.4375 27.5625 33.075 27.5625 30.1875C27.5625 28.35 29.1375 26.775 29.2687 26.6437L37.1437 18.7688C37.6687 18.2438 38.4563 18.2438 38.9813 18.7688C39.5063 19.2938 39.5063 20.0812 38.9813 20.6062L31.1063 28.4813C30.7125 28.875 30.1875 29.6625 30.1875 30.1875C30.1875 31.6313 31.3687 32.8125 32.8125 32.8125C33.3375 32.8125 34.125 32.2875 34.5187 31.8937L41.475 24.9375H47.25V33.6L63.9188 50.2687C64.05 50.4 65.625 51.975 65.625 53.8125C65.625 56.7 63.2625 59.0625 60.375 59.0625Z" fill="#1E2F4F"/>
<path d="M52.5 38.0625H48.5625V35.4375H52.5C53.9437 35.4375 55.125 34.2563 55.125 32.8125H57.75C57.75 35.7 55.3875 38.0625 52.5 38.0625Z" fill="#1E2F4F"/>
<path d="M76.125 39.375H73.5C73.1063 39.375 72.8437 39.2438 72.5812 38.9813L51.5812 17.9812C51.3187 17.7188 51.1875 17.4562 51.1875 17.0625V14.4375C51.1875 14.0437 51.3187 13.7812 51.5812 13.5188L64.7062 0.39375C65.2312 -0.13125 66.0188 -0.13125 66.5438 0.39375C67.0688 0.91875 67.0688 1.70625 66.5438 2.23125L53.8125 14.9625V16.5375L74.025 36.75H75.6L81.7687 30.5812C82.2937 30.0562 83.0813 30.0562 83.6063 30.5812C84.1313 31.1062 84.1313 31.8938 83.6063 32.4188L77.0438 38.9813C76.7813 39.2438 76.5187 39.375 76.125 39.375Z" fill="#1E2F4F"/>
<path d="M10.5 39.375H7.875C7.48125 39.375 7.21875 39.2438 6.95625 38.9813L0.39375 32.4188C-0.13125 31.8938 -0.13125 31.1062 0.39375 30.5812C0.91875 30.0562 1.70625 30.0562 2.23125 30.5812L8.4 36.75H9.975L30.1875 16.5375V14.9625L17.4563 2.23125C16.9312 1.70625 16.9312 0.91875 17.4563 0.39375C17.9813 -0.13125 18.7687 -0.13125 19.2937 0.39375L32.4188 13.5188C32.6813 13.7812 32.8125 14.0437 32.8125 14.4375V17.0625C32.8125 17.4562 32.6813 17.7188 32.4188 17.9812L11.4187 38.9813C11.1562 39.2438 10.8938 39.375 10.5 39.375Z" fill="#1E2F4F"/>
<path d="M74.8125 30.1875C74.4188 30.1875 74.1562 30.0563 73.8937 29.7938C73.3688 29.2688 73.3688 28.4812 73.8937 27.9562L76.5187 25.3312C77.0437 24.8063 77.8313 24.8063 78.3563 25.3312C78.8812 25.8562 78.8812 26.6438 78.3563 27.1688L75.7313 29.7938C75.4688 30.0563 75.2063 30.1875 74.8125 30.1875Z" fill="#1E2F4F"/>
<path d="M9.1875 30.1875C8.79375 30.1875 8.53125 30.0563 8.26875 29.7938L5.64375 27.1688C5.11875 26.6438 5.11875 25.8562 5.64375 25.3312C6.16875 24.8063 6.95625 24.8063 7.48125 25.3312L10.1062 27.9562C10.6312 28.4812 10.6312 29.2688 10.1062 29.7938C9.84375 30.0563 9.58125 30.1875 9.1875 30.1875Z" fill="#1E2F4F"/>
</svg>
