<svg width="84" height="84" viewBox="0 0 84 84" fill="none" xmlns="http://www.w3.org/2000/svg">
<path d="M26.25 84C40.7475 84 52.5 71.464 52.5 56C52.5 40.536 40.7475 28 26.25 28C11.7525 28 0 40.536 0 56C0 71.464 11.7525 84 26.25 84Z" fill="#FFEC40"/>
<path d="M84 58.5H28.875V55.9H81.375V9.1H26.25V6.5H84V58.5Z" fill="#1E2F4F"/>
<path d="M78.75 50.7H28.875V53.3H78.75V50.7Z" fill="#1E2F4F"/>
<path d="M36.75 48.1H34.125V42.9H31.5V48.1H28.875V40.3H36.75V48.1Z" fill="#1E2F4F"/>
<path d="M57.75 48.1H55.125V33.8H52.5V48.1H49.875V31.2H57.75V48.1Z" fill="#1E2F4F"/>
<path d="M68.25 48.1H65.625V26H63V48.1H60.375V23.4H68.25V48.1Z" fill="#1E2F4F"/>
<path d="M78.75 48.1H76.125V19.5H73.5V48.1H70.875V16.9H78.75V48.1Z" fill="#1E2F4F"/>
<path d="M47.25 48.1H44.625V39H42V48.1H39.375V36.4H47.25V48.1Z" fill="#1E2F4F"/>
<path d="M17.0625 50.7H14.4375V78H17.0625V50.7Z" fill="#1E2F4F"/>
<path d="M15.75 15.6C11.4188 15.6 7.875 12.09 7.875 7.8C7.875 3.51 11.4188 0 15.75 0C20.0813 0 23.625 3.51 23.625 7.8C23.625 12.09 20.0813 15.6 15.75 15.6ZM15.75 2.6C12.8625 2.6 10.5 4.94 10.5 7.8C10.5 10.66 12.8625 13 15.75 13C18.6375 13 21 10.66 21 7.8C21 4.94 18.6375 2.6 15.75 2.6Z" fill="#1E2F4F"/>
<path d="M26.25 78H23.625V26H44.625V20.8H10.5C6.16875 20.8 2.625 24.31 2.625 28.6V45.5H7.875V78H5.25V48.1H0V28.6C0 22.88 4.725 18.2 10.5 18.2H47.25V28.6H26.25V78Z" fill="#1E2F4F"/>
<path d="M17.0625 23.4H14.4375V26H17.0625V23.4Z" fill="#1E2F4F"/>
<path d="M17.0625 28.6H14.4375V31.2H17.0625V28.6Z" fill="#1E2F4F"/>
</svg>
