<svg width="65" height="65" viewBox="0 0 65 65" fill="none" xmlns="http://www.w3.org/2000/svg">
<path d="M21.3487 65C33.1392 65 42.6973 55.4511 42.6973 43.6719C42.6973 31.8927 33.1392 22.3438 21.3487 22.3438C9.55812 22.3438 0 31.8927 0 43.6719C0 55.4511 9.55812 65 21.3487 65Z" fill="#FFEC40"/>
<path d="M65 65H62.9668C62.9668 59.0078 61.9502 56.5703 56.5622 54.7422L46.1928 50.5781C45.8879 50.4766 43.6513 48.8516 43.6513 46.7188V45.7031H45.6845V46.7188C45.6845 47.6328 46.8028 48.5469 47.2094 48.8516L57.2738 52.9141C63.8817 55.0469 65 58.5 65 65Z" fill="#1E2F4F"/>
<path d="M14.1699 65H12.1367C12.1367 58.5 13.2549 55.0469 19.9645 52.9141L29.9272 48.9531C30.4355 48.5469 31.4521 47.6328 31.4521 46.7188V45.7031H33.4853V46.7188C33.4853 48.8516 31.2488 50.4766 31.0455 50.5781L30.8421 50.6797L20.6761 54.7422C15.1865 56.5703 14.1699 59.0078 14.1699 65Z" fill="#1E2F4F"/>
<path d="M39.5849 60.9375H37.5517V62.9688H39.5849V60.9375Z" fill="#1E2F4F"/>
<path d="M39.5849 56.875H37.5517V58.9062H39.5849V56.875Z" fill="#1E2F4F"/>
<path d="M56.8672 42.6562H45.6846V40.625H56.8672V18.2812H20.2695V40.625H31.4521V42.6562H20.2695C19.1512 42.6562 18.2363 41.7422 18.2363 40.625V18.2812C18.2363 17.1641 19.1512 16.25 20.2695 16.25H56.8672C57.9855 16.25 58.9004 17.1641 58.9004 18.2812V40.625C58.9004 41.7422 57.9855 42.6562 56.8672 42.6562Z" fill="#1E2F4F"/>
<path d="M57.8838 46.7188H19.2529C16.4064 46.7188 14.1699 44.4844 14.1699 41.6406V17.2656C14.1699 14.4219 16.4064 12.1875 19.2529 12.1875H57.8838C60.7303 12.1875 62.9668 14.4219 62.9668 17.2656V41.6406C62.9668 44.4844 60.7303 46.7188 57.8838 46.7188ZM19.2529 14.2188C17.5246 14.2188 16.2031 15.5391 16.2031 17.2656V41.6406C16.2031 43.3672 17.5246 44.6875 19.2529 44.6875H57.8838C59.612 44.6875 60.9336 43.3672 60.9336 41.6406V17.2656C60.9336 15.5391 59.612 14.2188 57.8838 14.2188H19.2529Z" fill="#1E2F4F"/>
<path d="M38.5683 14.2188C38.2634 14.2188 38.06 14.1172 37.8567 13.9141L29.7239 5.78906C29.3173 5.38281 29.3173 4.77344 29.7239 4.36719C30.1305 3.96094 30.7405 3.96094 31.1471 4.36719L39.28 12.4922C39.6866 12.8984 39.6866 13.5078 39.28 13.9141C39.0766 14.1172 38.8733 14.2188 38.5683 14.2188Z" fill="#1E2F4F"/>
<path d="M38.5683 14.2188C38.2633 14.2188 38.06 14.1172 37.8567 13.9141C37.4501 13.5078 37.4501 12.8984 37.8567 12.4922L50.0559 0.304688C50.4626 -0.101562 51.0725 -0.101562 51.4792 0.304688C51.8858 0.710938 51.8858 1.32031 51.4792 1.72656L39.28 13.9141C39.0766 14.1172 38.8733 14.2188 38.5683 14.2188Z" fill="#1E2F4F"/>
<path d="M38.5683 54.8438C33.3837 54.8438 29.4189 52.7109 29.4189 49.7656H31.4521C31.4521 51.1875 34.5019 52.8125 38.5683 52.8125C42.6347 52.8125 45.6846 51.1875 45.6846 49.7656H47.7178C47.7178 52.7109 43.753 54.8438 38.5683 54.8438Z" fill="#1E2F4F"/>
<path d="M54.834 25.3906C53.4107 25.3906 52.5975 24.6797 52.0892 24.0703C51.5809 23.5625 51.3775 23.3594 50.7676 23.3594C50.1576 23.3594 49.9543 23.5625 49.446 24.0703C48.9377 24.6797 48.1244 25.3906 46.7012 25.3906C45.2779 25.3906 44.4646 24.6797 43.9563 24.0703C43.448 23.5625 43.2447 23.3594 42.6348 23.3594C42.0248 23.3594 41.8215 23.5625 41.3132 24.0703C40.8049 24.6797 39.9916 25.3906 38.5683 25.3906C37.1451 25.3906 36.3318 24.6797 35.8235 24.0703C35.3152 23.5625 35.1119 23.3594 34.5019 23.3594C33.892 23.3594 33.6887 23.5625 33.1804 24.0703C32.6721 24.6797 31.8588 25.3906 30.4355 25.3906C29.0123 25.3906 28.199 24.6797 27.6907 24.0703C27.1824 23.5625 26.9791 23.3594 26.3691 23.3594C25.7592 23.3594 25.5558 23.5625 25.0475 24.0703C24.5392 24.6797 23.7259 25.3906 22.3027 25.3906V23.3594C22.9127 23.3594 23.116 23.1562 23.6243 22.6484C24.1326 22.1406 24.9459 21.3281 26.3691 21.3281C27.7924 21.3281 28.6056 22.0391 29.1139 22.6484C29.6222 23.1562 29.8256 23.3594 30.4355 23.3594C31.0455 23.3594 31.2488 23.1562 31.7571 22.6484C32.2654 22.1406 33.0787 21.3281 34.5019 21.3281C35.9252 21.3281 36.7385 22.0391 37.2468 22.6484C37.7551 23.1562 37.9584 23.3594 38.5683 23.3594C39.1783 23.3594 39.3816 23.1562 39.8899 22.6484C40.3982 22.1406 41.2115 21.3281 42.6348 21.3281C44.058 21.3281 44.8713 22.0391 45.3796 22.6484C45.8879 23.1562 46.0912 23.3594 46.7012 23.3594C47.3111 23.3594 47.5144 23.1562 48.0227 22.6484C48.531 22.1406 49.3443 21.3281 50.7676 21.3281C52.1908 21.3281 53.0041 22.0391 53.5124 22.6484C54.0207 23.1562 54.224 23.3594 54.834 23.3594V25.3906Z" fill="#1E2F4F"/>
<path d="M54.834 31.4844C53.4107 31.4844 52.5975 30.7734 52.0892 30.1641C51.5809 29.6563 51.3775 29.4531 50.7676 29.4531C50.1576 29.4531 49.9543 29.6563 49.446 30.1641C48.9377 30.7734 48.1244 31.4844 46.7012 31.4844C45.2779 31.4844 44.4646 30.7734 43.9563 30.1641C43.448 29.6563 43.2447 29.4531 42.6348 29.4531C42.0248 29.4531 41.8215 29.6563 41.3132 30.1641C40.8049 30.7734 39.9916 31.4844 38.5683 31.4844C37.1451 31.4844 36.3318 30.7734 35.8235 30.1641C35.3152 29.6563 35.1119 29.4531 34.5019 29.4531C33.892 29.4531 33.6887 29.6563 33.1804 30.1641C32.6721 30.7734 31.8588 31.4844 30.4355 31.4844C29.0123 31.4844 28.199 30.7734 27.6907 30.1641C27.1824 29.6563 26.9791 29.4531 26.3691 29.4531C25.7592 29.4531 25.5558 29.6563 25.0475 30.1641C24.5392 30.7734 23.7259 31.4844 22.3027 31.4844V29.4531C22.9127 29.4531 23.116 29.25 23.6243 28.7422C24.1326 28.2344 24.9459 27.4219 26.3691 27.4219C27.7924 27.4219 28.6056 28.1328 29.1139 28.7422C29.6222 29.25 29.8256 29.4531 30.4355 29.4531C31.0455 29.4531 31.2488 29.25 31.7571 28.7422C32.2654 28.2344 33.0787 27.4219 34.5019 27.4219C35.9252 27.4219 36.7385 28.1328 37.2468 28.7422C37.7551 29.25 37.9584 29.4531 38.5683 29.4531C39.1783 29.4531 39.3816 29.25 39.8899 28.7422C40.3982 28.2344 41.2115 27.4219 42.6348 27.4219C44.058 27.4219 44.8713 28.1328 45.3796 28.7422C45.8879 29.25 46.0912 29.4531 46.7012 29.4531C47.3111 29.4531 47.5144 29.25 48.0227 28.7422C48.531 28.2344 49.3443 27.4219 50.7676 27.4219C52.1908 27.4219 53.0041 28.1328 53.5124 28.7422C54.0207 29.25 54.224 29.4531 54.834 29.4531V31.4844Z" fill="#1E2F4F"/>
<path d="M54.834 37.5781C53.4107 37.5781 52.5975 36.8672 52.0892 36.2578C51.5809 35.75 51.3775 35.5469 50.7676 35.5469C50.1576 35.5469 49.9543 35.75 49.446 36.2578C48.9377 36.8672 48.1244 37.5781 46.7012 37.5781C45.2779 37.5781 44.4646 36.8672 43.9563 36.2578C43.448 35.75 43.2447 35.5469 42.6348 35.5469C42.0248 35.5469 41.8215 35.75 41.3132 36.2578C40.8049 36.8672 39.9916 37.5781 38.5683 37.5781C37.1451 37.5781 36.3318 36.8672 35.8235 36.2578C35.3152 35.75 35.1119 35.5469 34.5019 35.5469C33.892 35.5469 33.6887 35.75 33.1804 36.2578C32.6721 36.8672 31.8588 37.5781 30.4355 37.5781C29.0123 37.5781 28.199 36.8672 27.6907 36.2578C27.1824 35.75 26.9791 35.5469 26.3691 35.5469C25.7592 35.5469 25.5558 35.75 25.0475 36.2578C24.5392 36.8672 23.7259 37.5781 22.3027 37.5781V35.5469C22.9127 35.5469 23.116 35.3437 23.6243 34.8359C24.1326 34.3281 24.9459 33.5156 26.3691 33.5156C27.7924 33.5156 28.6056 34.2266 29.1139 34.8359C29.6222 35.3437 29.8256 35.5469 30.4355 35.5469C31.0455 35.5469 31.2488 35.3437 31.7571 34.8359C32.2654 34.3281 33.0787 33.5156 34.5019 33.5156C35.9252 33.5156 36.7385 34.2266 37.2468 34.8359C37.7551 35.3437 37.9584 35.5469 38.5683 35.5469C39.1783 35.5469 39.3816 35.3437 39.8899 34.8359C40.3982 34.3281 41.2115 33.5156 42.6348 33.5156C44.058 33.5156 44.8713 34.2266 45.3796 34.8359C45.8879 35.3437 46.0912 35.5469 46.7012 35.5469C47.3111 35.5469 47.5144 35.3437 48.0227 34.8359C48.531 34.3281 49.3443 33.5156 50.7676 33.5156C52.1908 33.5156 53.0041 34.2266 53.5124 34.8359C54.0207 35.3437 54.224 35.5469 54.834 35.5469V37.5781Z" fill="#1E2F4F"/>
<path d="M39.5849 40.625H37.5517V42.6562H39.5849V40.625Z" fill="#1E2F4F"/>
<path d="M35.5185 40.625H33.4853V42.6562H35.5185V40.625Z" fill="#1E2F4F"/>
<path d="M43.6513 40.625H41.6181V42.6562H43.6513V40.625Z" fill="#1E2F4F"/>
</svg>
