<svg width="65" height="65" viewBox="0 0 65 65" fill="none" xmlns="http://www.w3.org/2000/svg">
<path d="M21.3281 65C33.1073 65 42.6562 55.4511 42.6562 43.6719C42.6562 31.8927 33.1073 22.3438 21.3281 22.3438C9.54893 22.3438 0 31.8927 0 43.6719C0 55.4511 9.54893 65 21.3281 65Z" fill="#FFEC40"/>
<path d="M7.06579 28.1415L5.12408 28.7382L13.2589 55.139L15.2006 54.5423L7.06579 28.1415Z" fill="#1E2F4F"/>
<path d="M27.8622 6.29576L7.54715 20.4896L8.71275 22.1533L29.0278 7.95941L27.8622 6.29576Z" fill="#1E2F4F"/>
<path d="M37.1532 6.28354L35.9872 7.94678L56.2973 22.1456L57.4633 20.4824L37.1532 6.28354Z" fill="#1E2F4F"/>
<path d="M57.9416 28.1387L49.8151 54.5422L51.757 55.1383L59.8835 28.7347L57.9416 28.1387Z" fill="#1E2F4F"/>
<path d="M44.6875 56.875H20.3125V58.9062H44.6875V56.875Z" fill="#1E2F4F"/>
<path d="M32.5 10.1562C29.6563 10.1562 27.4219 7.92188 27.4219 5.07812C27.4219 2.23438 29.6563 0 32.5 0C35.3438 0 37.5781 2.23438 37.5781 5.07812C37.5781 7.92188 35.3438 10.1562 32.5 10.1562ZM32.5 2.03125C30.7734 2.03125 29.4531 3.35156 29.4531 5.07812C29.4531 6.80469 30.7734 8.125 32.5 8.125C34.2266 8.125 35.5469 6.80469 35.5469 5.07812C35.5469 3.35156 34.2266 2.03125 32.5 2.03125Z" fill="#1E2F4F"/>
<path d="M16.25 62.9688C13.4062 62.9688 11.1719 60.7344 11.1719 57.8906C11.1719 55.0469 13.4062 52.8125 16.25 52.8125C19.0938 52.8125 21.3281 55.0469 21.3281 57.8906C21.3281 60.7344 19.0938 62.9688 16.25 62.9688ZM16.25 54.8438C14.5234 54.8438 13.2031 56.1641 13.2031 57.8906C13.2031 59.6172 14.5234 60.9375 16.25 60.9375C17.9766 60.9375 19.2969 59.6172 19.2969 57.8906C19.2969 56.1641 17.9766 54.8438 16.25 54.8438Z" fill="#1E2F4F"/>
<path d="M48.75 62.9688C45.9062 62.9688 43.6719 60.7344 43.6719 57.8906C43.6719 55.0469 45.9062 52.8125 48.75 52.8125C51.5938 52.8125 53.8281 55.0469 53.8281 57.8906C53.8281 60.7344 51.5938 62.9688 48.75 62.9688ZM48.75 54.8438C47.0234 54.8438 45.7031 56.1641 45.7031 57.8906C45.7031 59.6172 47.0234 60.9375 48.75 60.9375C50.4766 60.9375 51.7969 59.6172 51.7969 57.8906C51.7969 56.1641 50.4766 54.8438 48.75 54.8438Z" fill="#1E2F4F"/>
<path d="M5.07812 29.4531C2.23438 29.4531 0 27.2188 0 24.375C0 21.5313 2.23438 19.2969 5.07812 19.2969C7.92188 19.2969 10.1562 21.5313 10.1562 24.375C10.1562 27.2188 7.92188 29.4531 5.07812 29.4531ZM5.07812 21.3281C3.35156 21.3281 2.03125 22.6484 2.03125 24.375C2.03125 26.1016 3.35156 27.4219 5.07812 27.4219C6.80469 27.4219 8.125 26.1016 8.125 24.375C8.125 22.6484 6.80469 21.3281 5.07812 21.3281Z" fill="#1E2F4F"/>
<path d="M59.9219 29.4531C57.0781 29.4531 54.8438 27.2188 54.8438 24.375C54.8438 21.5313 57.0781 19.2969 59.9219 19.2969C62.7656 19.2969 65 21.5313 65 24.375C65 27.2188 62.7656 29.4531 59.9219 29.4531ZM59.9219 21.3281C58.1953 21.3281 56.875 22.6484 56.875 24.375C56.875 26.1016 58.1953 27.4219 59.9219 27.4219C61.6484 27.4219 62.9688 26.1016 62.9688 24.375C62.9688 22.6484 61.6484 21.3281 59.9219 21.3281Z" fill="#1E2F4F"/>
<path d="M32.5 35.5469C29.0469 35.5469 26.4062 32.2969 26.4062 27.9297C26.4062 24.8828 27.1172 21.3281 32.5 21.3281C37.8828 21.3281 38.5938 24.8828 38.5938 27.9297C38.5938 32.2969 35.9531 35.5469 32.5 35.5469ZM32.5 23.3594C29.4531 23.3594 28.4375 24.4766 28.4375 27.9297C28.4375 30.6719 29.8594 33.5156 32.5 33.5156C35.1406 33.5156 36.5625 30.6719 36.5625 27.9297C36.5625 24.4766 35.5469 23.3594 32.5 23.3594Z" fill="#1E2F4F"/>
<path d="M40.625 43.6719H24.375C22.75 43.6719 21.3281 41.8438 21.3281 39.6094V36.9688L28.9453 32.6016L29.9609 34.3281L23.3594 38.1875V39.6094C23.3594 40.8281 24.0703 41.6406 24.375 41.6406H40.625C40.9297 41.6406 41.6406 40.8281 41.6406 39.6094V38.1875L35.0391 34.4297L36.0547 32.7031L43.6719 37.0703V39.6094C43.6719 41.8438 42.25 43.6719 40.625 43.6719Z" fill="#1E2F4F"/>
<path d="M33.5156 9.14062H31.4844V16.25H33.5156V9.14062Z" fill="#1E2F4F"/>
<path d="M9.54763 25.4765L8.74658 27.343L15.8424 30.3799L16.6435 28.5134L9.54763 25.4765Z" fill="#1E2F4F"/>
<path d="M21.4973 48.1936L17.4371 54.275L19.1279 55.4007L23.188 49.3193L21.4973 48.1936Z" fill="#1E2F4F"/>
<path d="M43.5074 48.1948L41.8165 49.3204L45.8767 55.4026L47.5676 54.2769L43.5074 48.1948Z" fill="#1E2F4F"/>
<path d="M55.4516 25.4815L48.355 28.5168L49.1557 30.3836L56.2523 27.3483L55.4516 25.4815Z" fill="#1E2F4F"/>
</svg>
