<svg width="65" height="65" viewBox="0 0 65 65" fill="none" xmlns="http://www.w3.org/2000/svg">
<path d="M21.3281 65C33.1073 65 42.6562 55.4511 42.6562 43.6719C42.6562 31.8927 33.1073 22.3438 21.3281 22.3438C9.54893 22.3438 0 31.8927 0 43.6719C0 55.4511 9.54893 65 21.3281 65Z" fill="#FFEC40"/>
<path d="M40.625 65H14.2188C10.8672 65 8.125 62.2578 8.125 58.9062V6.09375C8.125 2.74219 10.8672 0 14.2188 0H40.625C43.9766 0 46.7188 2.74219 46.7188 6.09375V16.25H44.6875V6.09375C44.6875 3.85938 42.8594 2.03125 40.625 2.03125H14.2188C11.9844 2.03125 10.1562 3.85938 10.1562 6.09375V58.9062C10.1562 61.1406 11.9844 62.9688 14.2188 62.9688H40.625C42.8594 62.9688 44.6875 61.1406 44.6875 58.9062V50.7812H46.7188V58.9062C46.7188 62.2578 43.9766 65 40.625 65Z" fill="#1E2F4F"/>
<path d="M42.6562 56.875H12.1875V10.1562H42.6562V16.25H40.625V12.1875H14.2188V54.8438H40.625V50.7812H42.6562V56.875Z" fill="#1E2F4F"/>
<path d="M29.4531 58.9062H25.3906V60.9375H29.4531V58.9062Z" fill="#1E2F4F"/>
<path d="M22.3438 5.07812H20.3125V7.10938H22.3438V5.07812Z" fill="#1E2F4F"/>
<path d="M34.5312 5.07812H24.375V7.10938H34.5312V5.07812Z" fill="#1E2F4F"/>
<path d="M63.9844 22.3438H20.3125V24.375H63.9844V22.3438Z" fill="#1E2F4F"/>
<path d="M62.9688 48.75H18.2812C17.1641 48.75 16.25 47.8359 16.25 46.7188V30.4688H62.9688V20.3125H18.2812V28.4375H16.25V20.3125C16.25 19.1953 17.1641 18.2812 18.2812 18.2812H62.9688C64.0859 18.2812 65 19.1953 65 20.3125V46.7188C65 47.8359 64.0859 48.75 62.9688 48.75ZM18.2812 32.5V46.7188H62.9688V32.5H18.2812Z" fill="#1E2F4F"/>
<path d="M35.5469 40.625H22.3438V42.6562H35.5469V40.625Z" fill="#1E2F4F"/>
<path d="M35.5469 36.5625H22.3438V38.5938H35.5469V36.5625Z" fill="#1E2F4F"/>
<path d="M58.9062 42.6562H39.6094V36.5625H58.9062V42.6562ZM41.6406 40.625H56.875V38.5938H41.6406V40.625Z" fill="#1E2F4F"/>
</svg>
