<svg width="65" height="65" viewBox="0 0 65 65" fill="none" xmlns="http://www.w3.org/2000/svg">
<path d="M21.3198 42.7C33.0944 42.7 42.6396 33.1413 42.6396 21.35C42.6396 9.55872 33.0944 0 21.3198 0C9.5452 0 0 9.55872 0 21.35C0 33.1413 9.5452 42.7 21.3198 42.7Z" fill="#FFEC40"/>
<path d="M32.4873 58.8999C15.9391 58.8999 0.913735 42.0233 0.304598 41.3116C2.97427e-05 40.9049 2.97427e-05 40.3966 0.304598 39.9899C0.913735 39.1766 15.9391 22.2999 32.4873 22.2999C49.0356 22.2999 64.0609 39.1766 64.7716 39.8883C65.0762 40.2949 65.0762 40.8033 64.7716 41.2099C64.0609 42.0233 49.0356 58.8999 32.4873 58.8999ZM2.43658 40.5999C5.48226 43.7516 18.7818 56.8666 32.4873 56.8666C46.2944 56.8666 59.5939 43.7516 62.5381 40.5999C59.4924 37.4483 46.1929 24.3333 32.4873 24.3333C18.6802 24.3333 5.38074 37.4483 2.43658 40.5999Z" fill="#1E2F4F"/>
<path d="M64.9746 30.4333C63.3502 30.4333 61.6244 29.2133 58.8832 27.3833C53.5025 23.7233 45.3807 18.2333 32.4873 18.2333V16.2C45.9898 16.2 54.8223 22.1983 60 25.7566C62.132 27.18 63.9594 28.4 64.9746 28.4V30.4333Z" fill="#1E2F4F"/>
<path d="M32.4873 64.9999C18.9848 64.9999 10.1523 59.0016 4.97462 55.4433C2.84264 54.0199 1.01523 52.7999 0 52.7999V50.7666C1.62437 50.7666 3.35025 51.9866 6.09137 53.8166C11.4721 57.4766 19.5939 62.9666 32.4873 62.9666C45.3807 62.9666 53.5025 57.4766 58.8832 53.8166C61.6244 51.9866 63.3503 50.7666 64.9746 50.7666V52.7999C63.9594 52.7999 62.132 54.0199 60 55.4433C54.8223 59.0016 45.9898 64.9999 32.4873 64.9999Z" fill="#1E2F4F"/>
<path d="M32.4873 51.7833C26.2944 51.7833 21.3198 46.6999 21.3198 40.5999C21.3198 38.8716 22.335 36.4316 22.4365 36.1266C22.6396 35.6183 23.1472 35.4149 23.6548 35.5166C24.1624 35.6183 24.467 36.0249 24.467 36.5333C24.467 38.7699 26.2944 40.5999 28.5279 40.5999C30.7614 40.5999 32.5888 38.7699 32.5888 36.5333C32.5888 34.2966 30.7614 32.4666 28.5279 32.4666C28.0203 32.4666 27.6142 32.0599 27.5127 31.6533C27.4112 31.1449 27.7157 30.6366 28.1218 30.4333C28.4264 30.3316 30.8629 29.3149 32.5888 29.3149C38.7817 29.3149 43.7563 34.3983 43.7563 40.4983C43.7563 46.5983 38.6802 51.7833 32.4873 51.7833ZM23.4518 40.0916C23.4518 40.2949 23.4518 40.3966 23.4518 40.5999C23.4518 45.5816 27.5127 49.7499 32.5888 49.7499C37.5635 49.7499 41.7259 45.6833 41.7259 40.5999C41.7259 35.5166 37.665 31.4499 32.5888 31.4499C32.4873 31.4499 32.2843 31.4499 32.0812 31.4499C33.5025 32.6699 34.5178 34.4999 34.5178 36.5333C34.5178 39.8883 31.7766 42.6333 28.4264 42.6333C26.3959 42.6333 24.5685 41.6166 23.4518 40.0916Z" fill="#1E2F4F"/>
<path d="M32.4873 58.8999C22.4365 58.8999 14.2132 50.6649 14.2132 40.5999C14.2132 30.5349 22.4365 22.2999 32.4873 22.2999C42.5381 22.2999 50.7614 30.5349 50.7614 40.5999C50.7614 50.6649 42.5381 58.8999 32.4873 58.8999ZM32.4873 24.3333C23.5533 24.3333 16.2437 31.6533 16.2437 40.5999C16.2437 49.5466 23.5533 56.8666 32.4873 56.8666C41.4213 56.8666 48.731 49.5466 48.731 40.5999C48.731 31.6533 41.4213 24.3333 32.4873 24.3333Z" fill="#1E2F4F"/>
</svg>
