<svg width="65" height="65" viewBox="0 0 65 65" fill="none" xmlns="http://www.w3.org/2000/svg">
<path d="M43.6719 42.6562C55.4511 42.6562 65 33.1073 65 21.3281C65 9.54893 55.4511 0 43.6719 0C31.8927 0 22.3438 9.54893 22.3438 21.3281C22.3438 33.1073 31.8927 42.6562 43.6719 42.6562Z" fill="#FFEC40"/>
<path d="M15.6406 56.0625C11.2734 53.2188 8.32812 49.3594 6.90625 44.9922L8.83594 44.3828C10.0547 48.3438 12.7969 51.7969 16.7578 54.3359L15.6406 56.0625Z" fill="#1E2F4F"/>
<path d="M32.5 60.9375C29.6562 60.9375 26.8125 60.5313 24.0703 59.8203L24.5781 57.8906C29.6562 59.2109 35.2422 59.2109 40.3203 57.8906L40.8281 59.8203C38.1875 60.5313 35.3437 60.9375 32.5 60.9375Z" fill="#1E2F4F"/>
<path d="M49.3594 56.0625L48.2422 54.3359C53.7266 50.6797 56.875 45.2969 56.875 39.6094C56.875 33.5156 53.3203 27.9297 47.2266 24.2734L48.2422 22.5469C55.0469 26.5078 58.9062 32.8047 58.9062 39.6094C58.9062 46.0078 55.4531 52 49.3594 56.0625Z" fill="#1E2F4F"/>
<path d="M11.1719 45.7031H3.04688C1.32031 45.7031 0 44.3828 0 42.6562V36.5625C0 34.8359 1.32031 33.5156 3.04688 33.5156H6.39844C7.51562 30.6719 9.75 27.8281 13.2031 24.8828V14.3203L21.4297 20.2109C24.0703 19.1953 26.4062 18.2812 29.4531 18.2812V20.3125C26.7109 20.3125 24.5781 21.125 21.9375 22.1406L21.2266 22.4453L15.2344 18.1797V25.7969L14.8281 26.1016C11.2734 29.0469 8.9375 32.0938 8.02344 34.7344L7.82031 35.5469H3.04688C2.4375 35.5469 2.03125 35.9531 2.03125 36.5625V42.6562C2.03125 43.2656 2.4375 43.6719 3.04688 43.6719H11.1719V45.7031Z" fill="#1E2F4F"/>
<path d="M45.0938 28.2344C41.6406 25.5937 36.8672 24.375 30.4688 24.375V22.3438C37.2734 22.3438 42.4531 23.7656 46.3125 26.6094L45.0938 28.2344Z" fill="#1E2F4F"/>
<path d="M25.3906 65H15.2344V50.7812H17.2656V62.9688H23.3594V55.8594H25.3906V65Z" fill="#1E2F4F"/>
<path d="M49.7656 65H39.6094V55.8594H41.6406V62.9688H47.7344V50.7812H49.7656V65Z" fill="#1E2F4F"/>
<path d="M18.2812 37.5781C15.4375 37.5781 13.2031 35.3438 13.2031 32.5H15.2344C15.2344 34.2266 16.5547 35.5469 18.2812 35.5469C20.0078 35.5469 21.3281 34.2266 21.3281 32.5H23.3594C23.3594 35.3438 21.125 37.5781 18.2812 37.5781Z" fill="#1E2F4F"/>
<path d="M57.8906 40.625V38.5938C60.7344 38.5938 62.9688 36.3594 62.9688 33.5156H65C65 37.4766 61.8516 40.625 57.8906 40.625Z" fill="#1E2F4F"/>
<path d="M41.6406 0H39.6094V6.09375H41.6406V0Z" fill="#1E2F4F"/>
<path d="M37.5781 6.09375H35.5469V12.1875H37.5781V6.09375Z" fill="#1E2F4F"/>
<path d="M41.6406 8.125H39.6094V10.1562H41.6406V8.125Z" fill="#1E2F4F"/>
<path d="M37.5781 2.03125H35.5469V4.0625H37.5781V2.03125Z" fill="#1E2F4F"/>
<path d="M41.2344 25.7969L40.3203 23.9688C41.7422 23.2578 42.6562 21.8359 42.6562 20.3125C42.6562 18.0781 40.8281 16.25 38.5938 16.25C36.3594 16.25 34.5312 18.0781 34.5312 20.3125C34.5312 21.2266 34.8359 22.0391 35.3437 22.75L33.7188 23.9688C32.9063 22.9531 32.5 21.6328 32.5 20.3125C32.5 16.9609 35.2422 14.2188 38.5938 14.2188C41.9453 14.2188 44.6875 16.9609 44.6875 20.3125C44.6875 22.6484 43.3672 24.7812 41.2344 25.7969Z" fill="#1E2F4F"/>
<path d="M33.5156 50.7812H31.4844V52.8125H33.5156V50.7812Z" fill="#1E2F4F"/>
<path d="M37.5781 50.7812H35.5469V52.8125H37.5781V50.7812Z" fill="#1E2F4F"/>
<path d="M29.4531 50.7812H27.4219V52.8125H29.4531V50.7812Z" fill="#1E2F4F"/>
<path d="M65 62.9688H0V65H65V62.9688Z" fill="#1E2F4F"/>
</svg>
