<svg width="66" height="65" viewBox="0 0 66 65" fill="none" xmlns="http://www.w3.org/2000/svg">
<path d="M21.5596 65C33.3388 65 42.8877 55.4419 42.8877 43.6514C42.8877 31.8609 33.3388 22.3027 21.5596 22.3027C9.7804 22.3027 0.231476 31.8609 0.231476 43.6514C0.231476 55.4419 9.7804 65 21.5596 65Z" fill="#FFEC40"/>
<path d="M33.7471 41.6807H31.7159V59.9795H33.7471V41.6807Z" fill="#1E2F4F"/>
<path d="M49.9971 59.9796H47.9659V59.1663L41.9737 42.0874L43.9034 41.3757L49.9971 58.658C49.9971 58.7596 50.0987 58.8613 50.0987 58.963V59.9796H49.9971Z" fill="#1E2F4F"/>
<path d="M17.4971 59.9796H15.4659V58.963C15.4659 58.8613 15.4659 58.7596 15.5674 58.658L21.6612 41.3757L23.5908 42.0874L17.4971 59.1663V59.9796Z" fill="#1E2F4F"/>
<path d="M60.1534 42.6973H5.3096C4.70023 42.6973 4.29398 42.2907 4.29398 41.6807V12.1992H6.32523V40.6641H59.1377V12.1992H61.169V41.6807C61.169 42.2907 60.7627 42.6973 60.1534 42.6973Z" fill="#1E2F4F"/>
<path d="M64.2159 10.166H1.2471C0.637726 10.166 0.231476 9.75938 0.231476 9.14942V5.08301C0.231476 4.47305 0.637726 4.06641 1.2471 4.06641H25.0127L26.7393 0.609962C26.9424 0.203321 27.2471 0 27.6534 0H37.8096C38.2159 0 38.5205 0.203321 38.7237 0.609962L40.4502 4.06641H64.2159C64.8252 4.06641 65.2315 4.47305 65.2315 5.08301V9.14942C65.2315 9.75938 64.8252 10.166 64.2159 10.166ZM2.26273 8.13282H63.2002V6.09962H39.8409C39.4346 6.09962 39.1299 5.89629 38.9268 5.48965L37.2002 2.03321H28.2627L26.5362 5.48965C26.333 5.89629 26.0284 6.09962 25.6221 6.09962H2.26273V8.13282Z" fill="#1E2F4F"/>
<path d="M35.7784 4.06641H29.6846V6.09961H35.7784V4.06641Z" fill="#1E2F4F"/>
<path d="M65.2315 58.9629H0.231476V60.9961H65.2315V58.9629Z" fill="#1E2F4F"/>
<path d="M26.6377 20.332C27.7596 20.332 28.669 19.4217 28.669 18.2988C28.669 17.1759 27.7596 16.2656 26.6377 16.2656C25.5159 16.2656 24.6065 17.1759 24.6065 18.2988C24.6065 19.4217 25.5159 20.332 26.6377 20.332Z" fill="#1E2F4F"/>
<path d="M36.794 34.5645C37.9158 34.5645 38.8252 33.6542 38.8252 32.5313C38.8252 31.4083 37.9158 30.498 36.794 30.498C35.6721 30.498 34.7627 31.4083 34.7627 32.5313C34.7627 33.6542 35.6721 34.5645 36.794 34.5645Z" fill="#1E2F4F"/>
<path d="M16.4815 30.4981H10.3877V28.4649H16.4815C18.7159 28.4649 20.544 26.635 20.544 24.3984V18.2988C20.544 14.944 23.2862 12.1992 26.6377 12.1992C29.9893 12.1992 32.7315 14.944 32.7315 18.2988V20.332H30.7002V18.2988C30.7002 16.0623 28.8721 14.2324 26.6377 14.2324C24.4034 14.2324 22.5752 16.0623 22.5752 18.2988V24.3984C22.5752 27.7532 19.833 30.4981 16.4815 30.4981Z" fill="#1E2F4F"/>
<path d="M36.794 38.6309C33.4424 38.6309 30.7002 35.8861 30.7002 32.5313V30.4981H32.7315V32.5313C32.7315 34.7678 34.5596 36.5977 36.794 36.5977C39.0284 36.5977 40.8565 34.7678 40.8565 32.5313V26.4316C40.8565 23.0769 43.5987 20.332 46.9502 20.332H55.0752V22.3652H46.9502C44.7159 22.3652 42.8877 24.1951 42.8877 26.4316V32.5313C42.8877 35.8861 40.1455 38.6309 36.794 38.6309Z" fill="#1E2F4F"/>
<path d="M51.7237 26.1267L50.3018 24.7035L53.6533 21.3487L50.3018 17.9939L51.7237 16.5707L55.7862 20.6371C56.1924 21.0437 56.1924 21.6537 55.7862 22.0603L51.7237 26.1267Z" fill="#1E2F4F"/>
<path d="M32.7315 22.3652H30.7002V24.3984H32.7315V22.3652Z" fill="#1E2F4F"/>
<path d="M32.7315 26.4316H30.7002V28.4648H32.7315V26.4316Z" fill="#1E2F4F"/>
<path d="M10.3877 12.1992H8.35648V14.2324H10.3877V12.1992Z" fill="#1E2F4F"/>
<path d="M57.1065 12.1992H55.0752V14.2324H57.1065V12.1992Z" fill="#1E2F4F"/>
<path d="M57.1065 36.5977H55.0752V38.6309H57.1065V36.5977Z" fill="#1E2F4F"/>
<path d="M10.3877 36.5977H8.35648V38.6309H10.3877V36.5977Z" fill="#1E2F4F"/>
</svg>
