<svg width="65" height="65" viewBox="0 0 65 65" fill="none" xmlns="http://www.w3.org/2000/svg">
<g clip-path="url(#clip0)">
<path d="M32.5 65C43.7183 65 52.8125 55.9058 52.8125 44.6875C52.8125 33.4692 43.7183 24.375 32.5 24.375C21.2817 24.375 12.1875 33.4692 12.1875 44.6875C12.1875 55.9058 21.2817 65 32.5 65Z" fill="#FFEC40"/>
<path d="M32.5 40.625C21.3281 40.625 12.1875 31.4844 12.1875 20.3125C12.1875 9.14062 21.3281 0 32.5 0C43.6719 0 52.8125 9.14062 52.8125 20.3125C52.8125 31.4844 43.6719 40.625 32.5 40.625ZM32.5 2.03125C22.4453 2.03125 14.2188 10.2578 14.2188 20.3125C14.2188 30.3672 22.4453 38.5938 32.5 38.5938C42.5547 38.5938 50.7812 30.3672 50.7812 20.3125C50.7812 10.2578 42.5547 2.03125 32.5 2.03125Z" fill="#1E2F4F"/>
<path d="M32.5 29.4529C29.6563 29.4529 27.4219 27.2185 27.4219 24.3748H29.4531C29.4531 26.1013 30.7734 27.4216 32.5 27.4216C34.2266 27.4216 35.5469 26.1013 35.5469 24.3748C35.5469 23.0544 34.4297 22.4451 32.5 21.4294L31.4844 20.9216C29.5547 20.0076 27.3203 18.8904 27.3203 16.1482C27.3203 13.3044 29.5547 11.0701 32.3984 11.0701C35.2422 11.0701 37.4766 13.3044 37.4766 16.1482H35.4453C35.4453 14.4216 34.125 13.1013 32.3984 13.1013C30.6719 13.1013 29.3516 14.4216 29.3516 16.1482C29.3516 17.4685 30.4688 18.0779 32.3984 19.0935L33.4141 19.6013C35.3438 20.5154 37.5781 21.6326 37.5781 24.3748C37.5781 27.2185 35.3438 29.4529 32.5 29.4529Z" fill="#1E2F4F"/>
<path d="M33.5149 9.1416H31.4839V12.1885H33.5149V9.1416Z" fill="#1E2F4F"/>
<path d="M33.5154 28.4375H31.4844V31.4844H33.5154V28.4375Z" fill="#1E2F4F"/>
<path d="M24.375 58.9062H11.1719V55.8594C11.1719 55.7578 11.0703 54.2344 9.44531 52.5078L2.33594 45.3984C0 43.0625 0 40.7266 0 40.625V24.375C0 22.1406 1.82812 20.3125 4.0625 20.3125C6.29688 20.3125 8.125 22.1406 8.125 24.375V32.5H6.09375V24.375C6.09375 23.2578 5.17969 22.3438 4.0625 22.3438C2.94531 22.3438 2.03125 23.2578 2.03125 24.375V40.625C2.03125 40.7266 2.13281 42.25 3.75781 43.9766L10.8672 51.0859C13.2031 53.4219 13.2031 55.7578 13.2031 55.8594V56.875H22.3438V49.7656C22.3438 49.7656 22.3438 47.125 20.6172 45.3984L10.7656 35.5469H10.1562C9.03906 35.5469 8.125 36.4609 8.125 37.5781V38.1875L14.9297 44.9922L13.5078 46.4141L6.09375 39V37.5781C6.09375 35.3438 7.92188 33.5156 10.1562 33.5156H11.5781L22.0391 43.9766C24.375 46.3125 24.375 49.6641 24.375 49.7656V58.9062Z" fill="#1E2F4F"/>
<path d="M53.8281 58.9062H40.625V49.7656C40.625 49.6641 40.625 46.3125 42.9609 43.9766L53.4219 33.5156H54.8438C57.0781 33.5156 58.9062 35.3438 58.9062 37.5781V39L51.4922 46.4141L50.0703 44.9922L56.875 38.1875V37.5781C56.875 36.4609 55.9609 35.5469 54.8438 35.5469H54.2344L44.3828 45.3984C42.6563 47.125 42.6562 49.7656 42.6562 49.7656V56.875H51.7969V55.8594C51.7969 55.7578 51.7969 53.4219 54.1328 51.0859L61.2422 43.9766C62.9688 42.25 62.9688 40.7266 62.9688 40.625V24.375C62.9688 23.2578 62.0547 22.3438 60.9375 22.3438C59.8203 22.3438 58.9062 23.2578 58.9062 24.375V32.5H56.875V24.375C56.875 22.1406 58.7031 20.3125 60.9375 20.3125C63.1719 20.3125 65 22.1406 65 24.375V40.625C65 40.7266 65 43.0625 62.6641 45.3984L55.5547 52.5078C53.9297 54.2344 53.8281 55.7578 53.8281 55.8594V58.9062Z" fill="#1E2F4F"/>
<path d="M55.8594 65.0009H53.8281V58.9065H40.625V65.0009H38.5938V58.9065C38.5938 57.7892 39.5078 56.875 40.625 56.875H53.8281C54.9453 56.875 55.8594 57.7892 55.8594 58.9065V65.0009Z" fill="#1E2F4F"/>
<path d="M26.4062 65.0009H24.375V58.9065H11.1719V65.0009H9.14062V58.9065C9.14062 57.7892 10.0547 56.875 11.1719 56.875H24.375C25.4922 56.875 26.4062 57.7892 26.4062 58.9065V65.0009Z" fill="#1E2F4F"/>
<path d="M24.3748 19.2969H22.3438V21.3281H24.3748V19.2969Z" fill="#1E2F4F"/>
<path d="M42.656 19.2969H40.625V21.3281H42.656V19.2969Z" fill="#1E2F4F"/>
<path d="M32.5 36.563C23.5625 36.563 16.25 29.2505 16.25 20.313C16.25 11.3755 23.5625 4.06299 32.5 4.06299C41.4375 4.06299 48.75 11.3755 48.75 20.313C48.75 29.2505 41.4375 36.563 32.5 36.563ZM32.5 6.09424C24.6797 6.09424 18.2812 12.4927 18.2812 20.313C18.2812 28.1333 24.6797 34.5317 32.5 34.5317C40.3203 34.5317 46.7188 28.1333 46.7188 20.313C46.7188 12.4927 40.3203 6.09424 32.5 6.09424Z" fill="#1E2F4F"/>
</g>
<defs>
<clipPath id="clip0">
<rect width="65" height="65" fill="white"/>
</clipPath>
</defs>
</svg>
