<svg width="65" height="65" viewBox="0 0 65 65" fill="none" xmlns="http://www.w3.org/2000/svg">
<path d="M21.3281 65C33.1073 65 42.6562 55.4511 42.6562 43.6719C42.6562 31.8927 33.1073 22.3438 21.3281 22.3438C9.54893 22.3438 0 31.8927 0 43.6719C0 55.4511 9.54893 65 21.3281 65Z" fill="#FFEC40"/>
<path d="M46.7188 56.875H4.0625V24.375H49.7656V26.4062H6.09375V54.8438H46.7188V56.875Z" fill="#1E2F4F"/>
<path d="M65 56.875H60.9375V54.8438H62.9688V26.4062H57.8906V24.375H65V56.875Z" fill="#1E2F4F"/>
<path d="M34.5312 28.4375H24.375V30.4688H34.5312V28.4375Z" fill="#1E2F4F"/>
<path d="M46.7188 34.5312H24.375V36.5625H46.7188V34.5312Z" fill="#1E2F4F"/>
<path d="M46.7188 38.5938H24.375V40.625H46.7188V38.5938Z" fill="#1E2F4F"/>
<path d="M46.7188 42.6562H24.375V44.6875H46.7188V42.6562Z" fill="#1E2F4F"/>
<path d="M28.4375 50.7812H24.375V52.8125H28.4375V50.7812Z" fill="#1E2F4F"/>
<path d="M38.5938 50.7812H30.4688V52.8125H38.5938V50.7812Z" fill="#1E2F4F"/>
<path d="M10.1562 28.4375H8.125V30.4688H10.1562V28.4375Z" fill="#1E2F4F"/>
<path d="M10.1562 50.7812H8.125V52.8125H10.1562V50.7812Z" fill="#1E2F4F"/>
<path d="M57.8906 34.5312H49.7656V36.5625H57.8906V34.5312Z" fill="#1E2F4F"/>
<path d="M57.8906 54.8438H49.7656V56.875H57.8906V54.8438Z" fill="#1E2F4F"/>
<path d="M54.8438 40.625H52.8125V42.6562H54.8438V40.625Z" fill="#1E2F4F"/>
<path d="M54.8438 44.6875H52.8125V46.7188H54.8438V44.6875Z" fill="#1E2F4F"/>
<path d="M54.8438 48.75H52.8125V50.7812H54.8438V48.75Z" fill="#1E2F4F"/>
<path d="M53.8281 65C53.4219 65 53.1172 64.7969 52.9141 64.3906L48.8516 56.2656C48.75 56.1641 48.75 56.0625 48.75 55.8594V5.07812C48.75 4.46875 49.1562 4.0625 49.7656 4.0625H57.8906C58.5 4.0625 58.9062 4.46875 58.9062 5.07812V55.8594C58.9062 56.0625 58.9063 56.1641 58.8047 56.2656L54.7422 64.3906C54.5391 64.7969 54.2344 65 53.8281 65ZM50.7812 55.6562L53.8281 61.75L56.875 55.6562V6.09375H50.7812V55.6562Z" fill="#1E2F4F"/>
<path d="M56.875 5.07812H54.8438V2.03125H52.8125V5.07812H50.7812V1.01562C50.7812 0.40625 51.1875 0 51.7969 0H55.8594C56.4688 0 56.875 0.40625 56.875 1.01562V5.07812Z" fill="#1E2F4F"/>
<path d="M54.8438 5.07812H52.8125V27.4219H54.8438V5.07812Z" fill="#1E2F4F"/>
<path d="M6.09375 22.3438H4.0625V12.1875H49.7656V14.2188H6.09375V22.3438Z" fill="#1E2F4F"/>
<path d="M65 22.3438H62.9688V14.2188H57.8906V12.1875H65V22.3438Z" fill="#1E2F4F"/>
<path d="M28.4375 16.25H8.125V18.2812H28.4375V16.25Z" fill="#1E2F4F"/>
<path d="M13.2694 47V44.552H11.7034V43.382H13.2694V41.78H11.7034V40.412H13.2694V34.148H16.6534C18.2254 34.148 19.3894 34.466 20.1454 35.102C20.9134 35.738 21.2974 36.662 21.2974 37.874C21.2974 39.098 20.8834 40.058 20.0554 40.754C19.2274 41.438 18.0094 41.78 16.4014 41.78H14.8894V43.382H17.8594V44.552H14.8894V47H13.2694ZM14.8894 40.412H16.1674C17.2594 40.412 18.1054 40.232 18.7054 39.872C19.3174 39.512 19.6234 38.864 19.6234 37.928C19.6234 37.112 19.3714 36.506 18.8674 36.11C18.3634 35.714 17.5774 35.516 16.5094 35.516H14.8894V40.412Z" fill="#1E2F4F"/>
</svg>
