<svg width="65" height="65" viewBox="0 0 65 65" fill="none" xmlns="http://www.w3.org/2000/svg">
<path d="M44.6875 40.625C55.9058 40.625 65 31.5308 65 20.3125C65 9.09422 55.9058 0 44.6875 0C33.4692 0 24.375 9.09422 24.375 20.3125C24.375 31.5308 33.4692 40.625 44.6875 40.625Z" fill="#FFEC40"/>
<path d="M29.4531 54.8438H27.4219C27.4219 52.6094 29.25 50.7812 31.4844 50.7812H42.6562C43.7734 50.7812 44.6875 49.8672 44.6875 48.75C44.6875 47.6328 43.7734 46.7188 42.6562 46.7188H33.3125L22.1406 42.6562H13.2031V40.625H22.5469L33.7188 44.6875H42.6562C44.8906 44.6875 46.7188 46.5156 46.7188 48.75C46.7188 50.9844 44.8906 52.8125 42.6562 52.8125H31.4844C30.3672 52.8125 29.4531 53.7266 29.4531 54.8438Z" fill="#1E2F4F"/>
<path d="M37.7812 65H35.3438L18.0781 58.9062H14.2188V56.875H18.4844L35.75 62.9688H37.375L62.3594 49.9688C62.6641 49.6641 62.9688 49.1562 62.9688 48.75C62.9688 47.6328 62.1562 46.8203 61.0391 46.7188L44.9922 51.7969L44.3828 49.7656L60.9375 44.6875C63.1719 44.6875 65 46.5156 65 48.75C65 50.1719 63.7812 51.3906 63.6797 51.4922L63.4766 51.6953L37.7812 65Z" fill="#1E2F4F"/>
<path d="M45.7031 40.625C42.3516 40.625 39.6094 37.8828 39.6094 34.5312C39.6094 31.1797 42.3516 28.4375 45.7031 28.4375C49.0547 28.4375 51.7969 31.1797 51.7969 34.5312C51.7969 37.8828 49.0547 40.625 45.7031 40.625ZM45.7031 30.4688C43.4688 30.4688 41.6406 32.2969 41.6406 34.5312C41.6406 36.7656 43.4688 38.5938 45.7031 38.5938C47.9375 38.5938 49.7656 36.7656 49.7656 34.5312C49.7656 32.2969 47.9375 30.4688 45.7031 30.4688Z" fill="#1E2F4F"/>
<path d="M29.4531 32.5C26.1016 32.5 23.3594 29.7578 23.3594 26.4062C23.3594 23.0547 26.1016 20.3125 29.4531 20.3125C32.8047 20.3125 35.5469 23.0547 35.5469 26.4062C35.5469 29.7578 32.8047 32.5 29.4531 32.5ZM29.4531 22.3438C27.2188 22.3438 25.3906 24.1719 25.3906 26.4062C25.3906 28.6406 27.2188 30.4688 29.4531 30.4688C31.6875 30.4688 33.5156 28.6406 33.5156 26.4062C33.5156 24.1719 31.6875 22.3438 29.4531 22.3438Z" fill="#1E2F4F"/>
<path d="M10.1562 54.8438H8.125V56.875H10.1562V54.8438Z" fill="#1E2F4F"/>
<path d="M6.09375 54.8438H4.0625V56.875H6.09375V54.8438Z" fill="#1E2F4F"/>
<path d="M32.5 4.0625H30.4688V12.1875H32.5V4.0625Z" fill="#1E2F4F"/>
<path d="M28.4375 10.1562H26.4062V18.2812H28.4375V10.1562Z" fill="#1E2F4F"/>
<path d="M32.5 14.2188H30.4688V16.25H32.5V14.2188Z" fill="#1E2F4F"/>
<path d="M28.4375 6.09375H26.4062V8.125H28.4375V6.09375Z" fill="#1E2F4F"/>
<path d="M44.6875 12.1875H42.6562V20.3125H44.6875V12.1875Z" fill="#1E2F4F"/>
<path d="M48.75 18.2812H46.7188V26.4062H48.75V18.2812Z" fill="#1E2F4F"/>
<path d="M44.6875 22.3438H42.6562V24.375H44.6875V22.3438Z" fill="#1E2F4F"/>
<path d="M48.75 14.2188H46.7188V16.25H48.75V14.2188Z" fill="#1E2F4F"/>
<path d="M12.1875 60.9375H0V58.9062H12.1875V40.625H0V38.5938H12.1875C13.3047 38.5938 14.2188 39.5078 14.2188 40.625V58.9062C14.2188 60.0234 13.3047 60.9375 12.1875 60.9375Z" fill="#1E2F4F"/>
</svg>
