<svg width="65" height="65" viewBox="0 0 65 65" fill="none" xmlns="http://www.w3.org/2000/svg">
<path d="M45 39.0244C56.0457 39.0244 65 30.2885 65 19.5122C65 8.73591 56.0457 0 45 0C33.9543 0 25 8.73591 25 19.5122C25 30.2885 33.9543 39.0244 45 39.0244Z" fill="#FFEC40"/>
<path d="M33.5156 50H31.4844V64H33.5156V50Z" fill="#1E2F4F"/>
<path d="M49.7656 64H47.7343V63.2L42.7578 50.4L44.5859 49.6L49.7656 62.8V64Z" fill="#1E2F4F"/>
<path d="M17.2656 64H15.2344V62.8L20.4141 49.6L22.2422 50.4L17.2656 63.2V64Z" fill="#1E2F4F"/>
<path d="M60.9375 46.9999H4.0625V16.9999H6.09375V44.9999H58.9063V16.9999H60.9375V46.9999Z" fill="#1E2F4F"/>
<path d="M65 15H0V9H24.7812L26.8125 5H38.1875L40.2187 9H65V15ZM2.03125 13H62.9688V11H39L36.9688 7H28.0313L26 11H2.03125V13Z" fill="#1E2F4F"/>
<path d="M19.2969 40C14.8281 40 11.1719 36.4 11.1719 32C11.1719 27.6 14.8281 24 19.2969 24H20.3125V31H27.4219V32C27.4219 36.4 23.7656 40 19.2969 40ZM18.2812 26.1C15.4375 26.6 13.2031 29 13.2031 32C13.2031 35.3 15.9453 38 19.2969 38C22.3438 38 24.7812 35.8 25.2891 33H18.2812V26.1Z" fill="#1E2F4F"/>
<path d="M31.4844 29H22.3438V20H23.3594C27.8281 20 31.4844 23.6 31.4844 28V29ZM24.375 27H29.3516C28.9453 24.5 26.9141 22.5 24.375 22.1V27Z" fill="#1E2F4F"/>
<path d="M35.5469 9H29.4531V11H35.5469V9Z" fill="#1E2F4F"/>
<path d="M53.8281 27H35.5469V29H53.8281V27Z" fill="#1E2F4F"/>
<path d="M53.8281 31H35.5469V33H53.8281V31Z" fill="#1E2F4F"/>
<path d="M53.8281 35H35.5469V37H53.8281V35Z" fill="#1E2F4F"/>
<path d="M41.6406 22H39.6094V24H41.6406V22Z" fill="#1E2F4F"/>
<path d="M45.7031 22H43.6719V24H45.7031V22Z" fill="#1E2F4F"/>
<path d="M49.7656 22H47.7344V24H49.7656V22Z" fill="#1E2F4F"/>
<path d="M65 63H0V65H65V63Z" fill="#1E2F4F"/>
<path d="M60.9375 50.9362H4.0625V45.9431H6.09375V48.939H58.9063V45.9431H60.9375V50.9362Z" fill="#1E2F4F"/>
</svg>
