<svg width="65" height="65" viewBox="0 0 65 65" fill="none" xmlns="http://www.w3.org/2000/svg">
<path d="M44.6875 40.625C55.9058 40.625 65 31.5308 65 20.3125C65 9.09422 55.9058 0 44.6875 0C33.4692 0 24.375 9.09422 24.375 20.3125C24.375 31.5308 33.4692 40.625 44.6875 40.625Z" fill="#FFEC40"/>
<path d="M60.9375 50.7812H58.9062V9.14062C58.9062 7.41406 57.5859 6.09375 55.8594 6.09375H53.8281V4.0625H55.8594C58.7031 4.0625 60.9375 6.29688 60.9375 9.14062V50.7812Z" fill="#1E2F4F"/>
<path d="M55.8594 60.9375H14.2188V58.9062H55.8594C57.5859 58.9062 58.9062 57.5859 58.9062 55.8594V53.8281H60.9375V55.8594C60.9375 58.7031 58.7031 60.9375 55.8594 60.9375Z" fill="#1E2F4F"/>
<path d="M11.1719 60.9375H9.14062C6.29688 60.9375 4.0625 58.7031 4.0625 55.8594V14.2188H6.09375V55.8594C6.09375 57.5859 7.41406 58.9062 9.14062 58.9062H11.1719V60.9375Z" fill="#1E2F4F"/>
<path d="M6.09375 11.1719H4.0625V9.14062C4.0625 6.29688 6.29688 4.0625 9.14062 4.0625H50.7812V6.09375H9.14062C7.41406 6.09375 6.09375 7.41406 6.09375 9.14062V11.1719Z" fill="#1E2F4F"/>
<path d="M47.4297 9.85156L46.0078 8.42969L49.3594 5.07812L46.0078 1.72656L47.4297 0.304688L51.4922 4.36719C51.8984 4.77344 51.8984 5.38281 51.4922 5.78906L47.4297 9.85156Z" fill="#1E2F4F"/>
<path d="M17.5703 64.6953L13.5078 60.6328C13.1016 60.2266 13.1016 59.6172 13.5078 59.2109L17.5703 55.1484L18.9922 56.5703L15.6406 59.9219L18.9922 63.2734L17.5703 64.6953Z" fill="#1E2F4F"/>
<path d="M59.9219 51.7969C59.6172 51.7969 59.4141 51.6953 59.2109 51.4922L55.1484 47.4297L56.5703 46.0078L59.9219 49.3594L63.2734 46.0078L64.6953 47.4297L60.6328 51.4922C60.4297 51.6953 60.2266 51.7969 59.9219 51.7969Z" fill="#1E2F4F"/>
<path d="M8.42969 18.9922L5.07812 15.6406L1.72656 18.9922L0.304688 17.5703L4.36719 13.5078C4.77344 13.1016 5.38281 13.1016 5.78906 13.5078L9.85156 17.5703L8.42969 18.9922Z" fill="#1E2F4F"/>
<path d="M65 16.25H62.9688V43.6719H65V16.25Z" fill="#1E2F4F"/>
<path d="M2.03125 21.3281H0V48.75H2.03125V21.3281Z" fill="#1E2F4F"/>
<path d="M48.75 62.9688H21.3281V65H48.75V62.9688Z" fill="#1E2F4F"/>
<path d="M43.6719 0H16.25V2.03125H43.6719V0Z" fill="#1E2F4F"/>
<path d="M60.9375 62.9688H58.9062V65H60.9375V62.9688Z" fill="#1E2F4F"/>
<path d="M56.875 62.9688H54.8438V65H56.875V62.9688Z" fill="#1E2F4F"/>
<path d="M52.8125 62.9688H50.7812V65H52.8125V62.9688Z" fill="#1E2F4F"/>
<path d="M14.2188 0H12.1875V2.03125H14.2188V0Z" fill="#1E2F4F"/>
<path d="M10.1562 0H8.125V2.03125H10.1562V0Z" fill="#1E2F4F"/>
<path d="M6.09375 0H4.0625V2.03125H6.09375V0Z" fill="#1E2F4F"/>
<path d="M2.03125 58.9062H0V60.9375H2.03125V58.9062Z" fill="#1E2F4F"/>
<path d="M2.03125 54.8438H0V56.875H2.03125V54.8438Z" fill="#1E2F4F"/>
<path d="M2.03125 50.7812H0V52.8125H2.03125V50.7812Z" fill="#1E2F4F"/>
<path d="M65 12.1875H62.9688V14.2188H65V12.1875Z" fill="#1E2F4F"/>
<path d="M65 8.125H62.9688V10.1562H65V8.125Z" fill="#1E2F4F"/>
<path d="M65 4.0625H62.9688V6.09375H65V4.0625Z" fill="#1E2F4F"/>
<path d="M36.1562 53.5234C35.8516 53.5234 35.4453 53.3203 35.3438 53.0156L32.6016 48.75C32.5 48.75 32.5 48.75 32.3984 48.75L29.6563 53.0156C29.4531 53.3203 29.0469 53.5234 28.6406 53.4219C27.2188 53.1172 25.7969 52.7109 24.4766 52.2031C24.0703 52 23.8672 51.6953 23.8672 51.2891V46.2109L23.7656 46.1094L19.1953 48.2422C18.7891 48.4453 18.3828 48.3437 18.0781 48.0391C16.9609 47.0234 16.0469 45.9062 15.2344 44.6875C15.0312 44.3828 15.0312 43.875 15.2344 43.5703L17.9766 39.3047C17.9766 39.2031 17.9766 39.2031 17.875 39.1016L12.8984 38.3906C12.4922 38.2891 12.1875 37.9844 12.0859 37.6797C11.7812 36.2578 11.4766 34.8359 11.4766 33.3125C11.4766 32.9062 11.6797 32.5 12.0859 32.3984L16.6562 30.2656C16.6562 30.1641 16.6562 30.1641 16.6562 30.0625L12.7969 26.7109C12.4922 26.4062 12.3906 26 12.4922 25.5938C13 24.1719 13.6094 22.8516 14.3203 21.6328C14.5234 21.3281 14.9297 21.125 15.3359 21.125L20.3125 21.8359L20.4141 21.7344L18.9922 16.8594C18.8906 16.4531 18.9922 16.0469 19.2969 15.7422C20.4141 14.8281 21.6328 14.0156 22.9531 13.4062C23.3594 13.2031 23.7656 13.3047 24.0703 13.5078L27.9297 16.8594C28.0312 16.8594 28.0313 16.8594 28.1328 16.8594L29.5547 11.9844C29.6562 11.5781 30.0625 11.2734 30.4688 11.2734C31.8906 11.1719 33.4141 11.1719 34.8359 11.2734C35.2422 11.2734 35.5469 11.5781 35.75 11.9844L37.1719 16.8594C37.2734 16.8594 37.2734 16.8594 37.375 16.8594L41.2344 13.5078C41.5391 13.2031 41.9453 13.2031 42.3516 13.4062C43.6719 14.1172 44.8906 14.8281 46.0078 15.7422C46.3125 16.0469 46.4141 16.4531 46.3125 16.8594L44.6875 21.8359L44.7891 21.9375L49.7656 21.2266C50.1719 21.125 50.5781 21.3281 50.7812 21.7344C51.4922 23.0547 52.1016 24.375 52.6094 25.6953C52.7109 26.1016 52.6094 26.5078 52.3047 26.8125L48.4453 30.1641C48.4453 30.2656 48.4453 30.2656 48.4453 30.3672L53.0156 32.5C53.4219 32.7031 53.625 33.0078 53.625 33.4141C53.5234 34.8359 53.3203 36.3594 53.0156 37.7813C52.9141 38.1875 52.6094 38.4922 52.2031 38.4922L47.2266 39.2031C47.2266 39.3047 47.2266 39.3047 47.125 39.4062L49.8672 43.6719C50.0703 43.9766 50.0703 44.4844 49.8672 44.7891C49.0547 46.0078 48.0391 47.125 47.0234 48.1406C46.7188 48.4453 46.3125 48.4453 45.9062 48.3437L41.3359 46.2109L41.2344 46.3125V51.3906C41.2344 51.7969 41.0312 52.2031 40.625 52.3047C39.3047 52.8125 37.8828 53.2188 36.4609 53.5234C36.2578 53.5234 36.2578 53.5234 36.1562 53.5234ZM33.1094 46.7188C33.4141 46.7188 33.8203 46.9219 33.9219 47.125L36.5625 51.2891C37.375 51.0859 38.2891 50.8828 39.1016 50.5781V45.6016C39.1016 45.1953 39.3047 44.8906 39.6094 44.6875C39.9141 44.4844 40.3203 44.2812 40.625 44.0781C40.9297 43.875 41.3359 43.875 41.6406 43.9766L46.1094 46.0078C46.7188 45.3984 47.3281 44.6875 47.8359 44.0781L45.1953 39.9141C44.9922 39.6094 44.9922 39.2031 45.1953 38.8984C45.3984 38.5938 45.5 38.1875 45.7031 37.7813C45.8047 37.4766 46.1094 37.1719 46.5156 37.1719L51.3906 36.4609C51.5938 35.6484 51.6953 34.7344 51.7969 33.8203L47.3281 31.7891C47.0234 31.6875 46.8203 31.2812 46.7188 30.9766C46.7188 30.5703 46.6172 30.1641 46.5156 29.7578C46.4141 29.4531 46.6172 29.0469 46.8203 28.8438L50.5781 25.5938C50.2734 24.7812 49.8672 23.9687 49.4609 23.2578L44.5859 23.9688C44.1797 24.0703 43.875 23.8672 43.6719 23.5625C43.4688 23.2578 43.1641 22.9531 42.8594 22.6484C42.6563 22.3437 42.5547 22.0391 42.6562 21.6328L44.0781 16.8594C43.3672 16.3516 42.6563 15.8437 41.8438 15.4375L38.0859 18.6875C37.7812 18.8906 37.4766 18.9922 37.0703 18.8906C36.6641 18.7891 36.3594 18.6875 35.9531 18.5859C35.6484 18.4844 35.3438 18.2812 35.2422 17.875L33.8203 13.2031C32.9062 13.1016 32.0938 13.1016 31.1797 13.2031L29.7578 17.9766C29.6562 18.2812 29.3516 18.5859 29.0469 18.6875C28.6406 18.7891 28.3359 18.8906 27.9297 18.9922C27.625 19.0938 27.2188 18.9922 26.9141 18.7891L23.1562 15.5391C22.3437 15.9453 21.6328 16.4531 20.9219 16.9609L22.3438 21.7344C22.4453 22.0391 22.3437 22.4453 22.1406 22.75C21.8359 23.0547 21.6328 23.3594 21.3281 23.6641C21.125 23.9687 20.7188 24.0703 20.4141 24.0703L15.5391 23.3594C15.1328 24.1719 14.7266 24.8828 14.4219 25.6953L18.1797 28.9453C18.4844 29.1484 18.5859 29.5547 18.4844 29.8594C18.3828 30.2656 18.3828 30.6719 18.2812 31.0781C18.2812 31.4844 17.9766 31.7891 17.6719 31.8906L13.2031 33.9219C13.3047 34.8359 13.4062 35.6484 13.6094 36.5625L18.4844 37.2734C18.8906 37.375 19.0938 37.5781 19.2969 37.8828C19.3984 38.2891 19.6016 38.5938 19.8047 39C20.0078 39.3047 19.9062 39.7109 19.8047 40.0156L17.1641 44.1797C17.6719 44.8906 18.2812 45.5 18.8906 46.1094L23.3594 44.0781C23.6641 43.9766 24.0703 43.9766 24.375 44.1797C24.6797 44.3828 24.9844 44.5859 25.3906 44.7891C25.6953 44.9922 25.8984 45.2969 25.8984 45.7031V50.6797C26.7109 50.9844 27.5234 51.1875 28.4375 51.3906L31.0781 47.2266C31.2812 46.9219 31.5859 46.7188 31.9922 46.7188H32.2969C32.5 46.7188 32.7031 46.7188 32.9063 46.7188H33.1094Z" fill="#1E2F4F"/>
<path d="M32.5 43.6719C26.3047 43.6719 21.3281 38.6953 21.3281 32.5C21.3281 26.3047 26.3047 21.3281 32.5 21.3281C38.6953 21.3281 43.6719 26.3047 43.6719 32.5C43.6719 38.6953 38.6953 43.6719 32.5 43.6719ZM32.5 23.3594C27.4219 23.3594 23.3594 27.4219 23.3594 32.5C23.3594 37.5781 27.4219 41.6406 32.5 41.6406C37.5781 41.6406 41.6406 37.5781 41.6406 32.5C41.6406 27.4219 37.5781 23.3594 32.5 23.3594Z" fill="#1E2F4F"/>
<path d="M32.5 34.5312C33.6218 34.5312 34.5312 33.6218 34.5312 32.5C34.5312 31.3782 33.6218 30.4688 32.5 30.4688C31.3782 30.4688 30.4688 31.3782 30.4688 32.5C30.4688 33.6218 31.3782 34.5312 32.5 34.5312Z" fill="#1E2F4F"/>
<path d="M32.5 35.5469C30.7734 35.5469 29.4531 34.2266 29.4531 32.5C29.4531 30.7734 30.7734 29.4531 32.5 29.4531C34.2266 29.4531 35.5469 30.7734 35.5469 32.5C35.5469 34.2266 34.2266 35.5469 32.5 35.5469ZM32.5 31.4844C31.8906 31.4844 31.4844 31.8906 31.4844 32.5C31.4844 33.1094 31.8906 33.5156 32.5 33.5156C33.1094 33.5156 33.5156 33.1094 33.5156 32.5C33.5156 31.8906 33.1094 31.4844 32.5 31.4844Z" fill="#1E2F4F"/>
<path d="M32.5 36.5625C30.2656 36.5625 28.4375 34.7344 28.4375 32.5C28.4375 30.2656 30.2656 28.4375 32.5 28.4375C34.7344 28.4375 36.5625 30.2656 36.5625 32.5C36.5625 34.7344 34.7344 36.5625 32.5 36.5625ZM32.5 30.4688C31.3828 30.4688 30.4688 31.3828 30.4688 32.5C30.4688 33.6172 31.3828 34.5312 32.5 34.5312C33.6172 34.5312 34.5312 33.6172 34.5312 32.5C34.5312 31.3828 33.6172 30.4688 32.5 30.4688Z" fill="#1E2F4F"/>
</svg>
