<svg width="65" height="65" viewBox="0 0 65 65" fill="none" xmlns="http://www.w3.org/2000/svg">
<path d="M20.3125 65C31.5308 65 40.625 55.9058 40.625 44.6875C40.625 33.4692 31.5308 24.375 20.3125 24.375C9.09422 24.375 0 33.4692 0 44.6875C0 55.9058 9.09422 65 20.3125 65Z" fill="#FFEC40"/>
<path d="M16.2188 30.5H14.1875V13.2344C14.1875 11.5078 15.5078 10.1875 17.2344 10.1875H28.4062V12.2188H17.2344C16.625 12.2188 16.2188 12.625 16.2188 13.2344V30.5Z" fill="#1E2F4F"/>
<path d="M34.5 50.8125H17.2344C15.5078 50.8125 14.1875 49.4922 14.1875 47.7656V36.5938H16.2188V47.7656C16.2188 48.375 16.625 48.7812 17.2344 48.7812H34.5V50.8125Z" fill="#1E2F4F"/>
<path d="M51.7656 50.8125H40.5938V48.7812H51.7656C52.375 48.7812 52.7812 48.375 52.7812 47.7656V30.5H54.8125V47.7656C54.8125 49.4922 53.4922 50.8125 51.7656 50.8125Z" fill="#1E2F4F"/>
<path d="M54.8125 24.4062H52.7812V13.2344C52.7812 12.625 52.375 12.2188 51.7656 12.2188H34.5V10.1875H51.7656C53.4922 10.1875 54.8125 11.5078 54.8125 13.2344V24.4062Z" fill="#1E2F4F"/>
<path d="M20.2812 14.25H18.25V16.2812H20.2812V14.25Z" fill="#1E2F4F"/>
<path d="M50.75 14.25H48.7188V16.2812H50.75V14.25Z" fill="#1E2F4F"/>
<path d="M20.2812 44.7188H18.25V46.75H20.2812V44.7188Z" fill="#1E2F4F"/>
<path d="M50.75 44.7188H48.7188V46.75H50.75V44.7188Z" fill="#1E2F4F"/>
<path d="M34.5 12.2188C31.1484 12.2188 28.4062 9.47656 28.4062 6.125C28.4062 2.77344 31.1484 0.03125 34.5 0.03125C37.8516 0.03125 40.5938 2.77344 40.5938 6.125C40.5938 9.47656 37.8516 12.2188 34.5 12.2188ZM34.5 2.0625C32.2656 2.0625 30.4375 3.89062 30.4375 6.125C30.4375 8.35938 32.2656 10.1875 34.5 10.1875C36.7344 10.1875 38.5625 8.35938 38.5625 6.125C38.5625 3.89062 36.7344 2.0625 34.5 2.0625Z" fill="#1E2F4F"/>
<path d="M58.875 36.5938C55.5234 36.5938 52.7812 33.8516 52.7812 30.5C52.7812 27.1484 55.5234 24.4062 58.875 24.4062C62.2266 24.4062 64.9688 27.1484 64.9688 30.5C64.9688 33.8516 62.2266 36.5938 58.875 36.5938ZM58.875 26.4375C56.6406 26.4375 54.8125 28.2656 54.8125 30.5C54.8125 32.7344 56.6406 34.5625 58.875 34.5625C61.1094 34.5625 62.9375 32.7344 62.9375 30.5C62.9375 28.2656 61.1094 26.4375 58.875 26.4375Z" fill="#1E2F4F"/>
<path d="M34.5 60.9688C31.1484 60.9688 28.4062 58.2266 28.4062 54.875C28.4062 51.5234 31.1484 48.7812 34.5 48.7812C37.8516 48.7812 40.5938 51.5234 40.5938 54.875C40.5938 58.2266 37.8516 60.9688 34.5 60.9688ZM34.5 50.8125C32.2656 50.8125 30.4375 52.6406 30.4375 54.875C30.4375 57.1094 32.2656 58.9375 34.5 58.9375C36.7344 58.9375 38.5625 57.1094 38.5625 54.875C38.5625 52.6406 36.7344 50.8125 34.5 50.8125Z" fill="#1E2F4F"/>
<path d="M10.125 36.5938C6.77344 36.5938 4.03125 33.8516 4.03125 30.5C4.03125 27.1484 6.77344 24.4062 10.125 24.4062C13.4766 24.4062 16.2188 27.1484 16.2188 30.5C16.2188 33.8516 13.4766 36.5938 10.125 36.5938ZM10.125 26.4375C7.89062 26.4375 6.0625 28.2656 6.0625 30.5C6.0625 32.7344 7.89062 34.5625 10.125 34.5625C12.3594 34.5625 14.1875 32.7344 14.1875 30.5C14.1875 28.2656 12.3594 26.4375 10.125 26.4375Z" fill="#1E2F4F"/>
<path d="M26.6797 36.2891L20.8906 30.5L26.6797 24.7109L28.1016 26.1328L23.7344 30.5L28.1016 34.8672L26.6797 36.2891Z" fill="#1E2F4F"/>
<path d="M42.3203 36.2891L40.8984 34.8672L45.2656 30.5L40.8984 26.1328L42.3203 24.7109L48.1094 30.5L42.3203 36.2891Z" fill="#1E2F4F"/>
<path d="M38.6894 20.862L28.5319 39.1519L30.3076 40.138L40.4651 21.8481L38.6894 20.862Z" fill="#1E2F4F"/>
</svg>
