<svg width="65" height="65" viewBox="0 0 65 65" fill="none" xmlns="http://www.w3.org/2000/svg">
<path d="M21.3281 65C33.1073 65 42.6562 55.4413 42.6562 43.65C42.6562 31.8588 33.1073 22.3 21.3281 22.3C9.54893 22.3 0 31.8588 0 43.65C0 55.4413 9.54893 65 21.3281 65Z" fill="#FFEC40"/>
<path d="M32.5 14.2333C29.0469 14.2333 26.4062 10.98 26.4062 6.60833C26.4062 3.55833 27.1172 0 32.5 0C37.8828 0 38.5938 3.55833 38.5938 6.60833C38.5938 10.98 35.9531 14.2333 32.5 14.2333ZM32.5 2.03333C29.4531 2.03333 28.4375 3.15167 28.4375 6.60833C28.4375 9.35333 29.8594 12.2 32.5 12.2C35.1406 12.2 36.5625 9.35333 36.5625 6.60833C36.5625 3.15167 35.5469 2.03333 32.5 2.03333Z" fill="#1E2F4F"/>
<path d="M40.625 22.3667H24.375C22.75 22.3667 21.3281 20.5367 21.3281 18.3V15.6567L28.9453 11.285L29.9609 13.0134L23.3594 16.8767V18.3C23.3594 19.52 24.0703 20.3334 24.375 20.3334H40.625C40.9297 20.3334 41.6406 19.52 41.6406 18.3V16.8767L35.0391 13.115L36.0547 11.3867L43.6719 15.7584V18.3C43.6719 20.5367 42.25 22.3667 40.625 22.3667Z" fill="#1E2F4F"/>
<path d="M11.1719 52.8666C7.71875 52.8666 5.07812 49.6133 5.07812 45.2416C5.07812 42.1916 5.78906 38.6333 11.1719 38.6333C16.5547 38.6333 17.2656 42.1916 17.2656 45.2416C17.2656 49.6133 14.625 52.8666 11.1719 52.8666ZM11.1719 40.6666C8.125 40.6666 7.10938 41.785 7.10938 45.2416C7.10938 47.9866 8.53125 50.8333 11.1719 50.8333C13.8125 50.8333 15.2344 47.9866 15.2344 45.2416C15.2344 41.785 14.2188 40.6666 11.1719 40.6666Z" fill="#1E2F4F"/>
<path d="M19.2969 61H3.04688C1.42188 61 0 59.17 0 56.9333V54.29L7.61719 49.9183L8.63281 51.6467L2.03125 55.51V56.9333C2.03125 58.1533 2.74219 58.9667 3.04688 58.9667H19.2969C19.6016 58.9667 20.3125 58.1533 20.3125 56.9333V55.51L13.7109 51.7483L14.7266 50.02L22.3438 54.3917V56.9333C22.3438 59.17 20.9219 61 19.2969 61Z" fill="#1E2F4F"/>
<path d="M53.8281 52.8666C50.375 52.8666 47.7344 49.6133 47.7344 45.2416C47.7344 42.1916 48.4453 38.6333 53.8281 38.6333C59.2109 38.6333 59.9219 42.1916 59.9219 45.2416C59.9219 49.6133 57.2812 52.8666 53.8281 52.8666ZM53.8281 40.6666C50.7812 40.6666 49.7656 41.785 49.7656 45.2416C49.7656 47.9866 51.1875 50.8333 53.8281 50.8333C56.4688 50.8333 57.8906 47.9866 57.8906 45.2416C57.8906 41.785 56.875 40.6666 53.8281 40.6666Z" fill="#1E2F4F"/>
<path d="M61.9531 61H45.7031C44.0781 61 42.6562 59.17 42.6562 56.9333V54.29L50.2734 49.9183L51.2891 51.6467L44.6875 55.51V56.9333C44.6875 58.1533 45.3984 58.9667 45.7031 58.9667H61.9531C62.2578 58.9667 62.9688 58.1533 62.9688 56.9333V55.51L56.3672 51.7483L57.3828 50.02L65 54.3917V56.9333C65 59.17 63.5781 61 61.9531 61Z" fill="#1E2F4F"/>
<path d="M33.5156 26.4333H31.4844V36.6H33.5156V26.4333Z" fill="#1E2F4F"/>
<path d="M31.8643 35.8092L21.7126 43.9386L22.9815 45.5264L33.1332 37.397L31.8643 35.8092Z" fill="#1E2F4F"/>
<path d="M33.1382 35.8072L31.8692 37.395L42.0209 45.5245L43.2899 43.9366L33.1382 35.8072Z" fill="#1E2F4F"/>
</svg>
