<svg width="66" height="65" viewBox="0 0 66 65" fill="none" xmlns="http://www.w3.org/2000/svg">
<path d="M43.9456 42.6973C55.7248 42.6973 65.2737 33.1392 65.2737 21.3487C65.2737 9.55812 55.7248 0 43.9456 0C32.1664 0 22.6174 9.55812 22.6174 21.3487C22.6174 33.1392 32.1664 42.6973 43.9456 42.6973Z" fill="#FFEC40"/>
<path d="M8.39868 50.7676H4.33618C2.10181 50.7676 0.273682 48.9377 0.273682 46.7012V18.2363C0.273682 15.9998 2.10181 14.1699 4.33618 14.1699H51.0549C53.2893 14.1699 55.1174 15.9998 55.1174 18.2363V26.3692H53.0862V18.2363C53.0862 17.1181 52.1721 16.2031 51.0549 16.2031H4.33618C3.21899 16.2031 2.30493 17.1181 2.30493 18.2363V46.7012C2.30493 47.8195 3.21899 48.7344 4.33618 48.7344H8.39868V50.7676Z" fill="#1E2F4F"/>
<path d="M61.2112 65H14.4924C12.2581 65 10.4299 63.1702 10.4299 60.9336V32.4688C10.4299 30.2322 12.2581 28.4023 14.4924 28.4023H61.2112C63.4456 28.4023 65.2737 30.2322 65.2737 32.4688V60.9336C65.2737 63.1702 63.4456 65 61.2112 65ZM14.4924 30.4355C13.3752 30.4355 12.4612 31.3505 12.4612 32.4688V60.9336C12.4612 62.0519 13.3752 62.9668 14.4924 62.9668H61.2112C62.3284 62.9668 63.2424 62.0519 63.2424 60.9336V32.4688C63.2424 31.3505 62.3284 30.4355 61.2112 30.4355H14.4924Z" fill="#1E2F4F"/>
<path d="M32.7737 54.834C28.3049 54.834 24.6487 51.1742 24.6487 46.7012C24.6487 42.2281 28.3049 38.5684 32.7737 38.5684C35.0081 38.5684 37.0393 39.4833 38.5627 41.0082L37.1409 42.4314C35.9221 41.2115 34.3987 40.6016 32.7737 40.6016C29.4221 40.6016 26.6799 43.3464 26.6799 46.7012C26.6799 50.056 29.4221 52.8008 32.7737 52.8008C34.3987 52.8008 35.9221 52.1908 37.1409 50.9709L38.5627 52.3942C37.0393 53.9191 35.0081 54.834 32.7737 54.834Z" fill="#1E2F4F"/>
<path d="M42.9299 54.834C38.4612 54.834 34.8049 51.1742 34.8049 46.7012C34.8049 42.2281 38.4612 38.5684 42.9299 38.5684C47.3987 38.5684 51.0549 42.2281 51.0549 46.7012C51.0549 51.1742 47.3987 54.834 42.9299 54.834ZM42.9299 40.6016C39.5784 40.6016 36.8362 43.3464 36.8362 46.7012C36.8362 50.056 39.5784 52.8008 42.9299 52.8008C46.2815 52.8008 49.0237 50.056 49.0237 46.7012C49.0237 43.3464 46.2815 40.6016 42.9299 40.6016Z" fill="#1E2F4F"/>
<path d="M54.1018 18.2363H1.28931V20.2695H54.1018V18.2363Z" fill="#1E2F4F"/>
<path d="M8.39868 28.4023H1.28931V30.4355H8.39868V28.4023Z" fill="#1E2F4F"/>
<path d="M8.39868 36.5352H4.33618V38.5684H8.39868V36.5352Z" fill="#1E2F4F"/>
<path d="M20.5862 45.6846H18.5549V47.7178H20.5862V45.6846Z" fill="#1E2F4F"/>
<path d="M57.1487 45.6846H55.1174V47.7178H57.1487V45.6846Z" fill="#1E2F4F"/>
<path d="M49.0237 22.3027H38.8674V24.3359H49.0237V22.3027Z" fill="#1E2F4F"/>
<path d="M36.8362 22.3027H32.7737V24.3359H36.8362V22.3027Z" fill="#1E2F4F"/>
</svg>
