<svg width="160" height="40" viewBox="0 0 160 40" fill="none" xmlns="http://www.w3.org/2000/svg">
<rect width="160" height="40" rx="20" fill="url(#paint0_linear)"/>
<path d="M48.8912 21.3359C48.8912 22.7266 48.4537 23.8802 47.5787 24.7969C46.7089 25.7083 45.5787 26.1641 44.188 26.1641C42.8235 26.1641 41.7141 25.7083 40.8599 24.7969C40.011 23.8802 39.5865 22.7266 39.5865 21.3359V19.2891C39.5865 17.9036 40.011 16.7526 40.8599 15.8359C41.7141 14.9193 42.8209 14.4609 44.1802 14.4609C45.5709 14.4609 46.7037 14.9193 47.5787 15.8359C48.4537 16.7526 48.8912 17.9036 48.8912 19.2891V21.3359ZM47.0005 19.2734C47.0005 18.3255 46.7453 17.5469 46.2349 16.9375C45.7297 16.3281 45.0448 16.0234 44.1802 16.0234C43.3469 16.0234 42.688 16.3281 42.2037 16.9375C41.7193 17.5469 41.4771 18.3255 41.4771 19.2734V21.3359C41.4771 22.2943 41.7193 23.0807 42.2037 23.6953C42.688 24.3047 43.3495 24.6094 44.188 24.6094C45.0578 24.6094 45.7427 24.3047 46.2427 23.6953C46.7479 23.0859 47.0005 22.2995 47.0005 21.3359V19.2734ZM57.524 19.0547H54.774V26H52.8755V19.0547H50.1724V17.5469H57.524V19.0547ZM66.0474 26H64.149V19.0781H60.8521V26H58.9537V17.5469H66.0474V26ZM75.438 22.0547C75.438 23.2839 75.149 24.276 74.5709 25.0312C73.9927 25.7865 73.188 26.1641 72.1568 26.1641C71.6776 26.1641 71.2532 26.0781 70.8834 25.9062C70.5136 25.7344 70.1959 25.4818 69.9302 25.1484V29.25H68.0318V17.5469H69.6334L69.8209 18.6094C70.0917 18.2135 70.4172 17.9115 70.7974 17.7031C71.1828 17.4948 71.6282 17.3906 72.1334 17.3906C73.175 17.3906 73.9849 17.8047 74.563 18.6328C75.1464 19.4557 75.438 20.5417 75.438 21.8906V22.0547ZM73.5474 21.8906C73.5474 21.026 73.3834 20.3203 73.0552 19.7734C72.7323 19.2214 72.2479 18.9453 71.6021 18.9453C71.2063 18.9453 70.8703 19.0312 70.5943 19.2031C70.3183 19.3698 70.0969 19.6042 69.9302 19.9062V23.7266C70.0969 24.0234 70.3183 24.2526 70.5943 24.4141C70.8703 24.5703 71.2115 24.6484 71.6177 24.6484C72.2636 24.6484 72.7453 24.4115 73.063 23.9375C73.386 23.4583 73.5474 22.8307 73.5474 22.0547V21.8906ZM82.1802 26C82.1125 25.7865 82.0552 25.5781 82.0084 25.375C81.9667 25.1719 81.938 24.9688 81.9224 24.7656C81.662 25.1615 81.3183 25.4948 80.8912 25.7656C80.4693 26.0312 79.9953 26.1641 79.4693 26.1641C78.5891 26.1641 77.912 25.9375 77.438 25.4844C76.9693 25.0312 76.7349 24.4089 76.7349 23.6172C76.7349 22.7995 77.0578 22.1641 77.7037 21.7109C78.3495 21.2526 79.2584 21.0234 80.4302 21.0234H81.9068V20.2812C81.9068 19.8385 81.7766 19.4922 81.5162 19.2422C81.2558 18.9922 80.8834 18.8672 80.399 18.8672C79.9667 18.8672 79.6229 18.9714 79.3677 19.1797C79.1125 19.388 78.9849 19.6562 78.9849 19.9844H77.1568L77.149 19.9375C77.1125 19.2708 77.4094 18.6797 78.0396 18.1641C78.675 17.6484 79.5005 17.3906 80.5162 17.3906C81.5005 17.3906 82.2948 17.6406 82.899 18.1406C83.5032 18.6406 83.8052 19.3594 83.8052 20.2969V24.0547C83.8052 24.4036 83.8287 24.7396 83.8755 25.0625C83.9224 25.3802 83.9979 25.6927 84.1021 26H82.1802ZM79.8521 24.6406C80.3313 24.6406 80.761 24.5208 81.1412 24.2812C81.5266 24.0417 81.7818 23.7682 81.9068 23.4609V22.2109H80.399C79.8469 22.2109 79.4146 22.349 79.1021 22.625C78.7896 22.8958 78.6334 23.2161 78.6334 23.5859C78.6334 23.9089 78.7375 24.1667 78.9459 24.3594C79.1594 24.5469 79.4615 24.6406 79.8521 24.6406ZM85.8599 26V17.5469H89.2896C90.4094 17.5469 91.2792 17.7448 91.899 18.1406C92.524 18.5312 92.8365 19.1146 92.8365 19.8906C92.8365 20.2865 92.7115 20.6406 92.4615 20.9531C92.2115 21.2604 91.8573 21.4948 91.399 21.6562C91.9771 21.7812 92.4198 22.0208 92.7271 22.375C93.0396 22.724 93.1959 23.1276 93.1959 23.5859C93.1959 24.3776 92.9016 24.9792 92.313 25.3906C91.7297 25.7969 90.9016 26 89.8287 26H85.8599ZM87.7505 22.3984V24.5H89.8287C90.3183 24.5 90.6854 24.4115 90.9302 24.2344C91.175 24.0521 91.2974 23.7917 91.2974 23.4531C91.2974 23.1198 91.1776 22.862 90.938 22.6797C90.6985 22.4922 90.3287 22.3984 89.8287 22.3984H87.7505ZM87.7505 21.0391H89.399C89.9146 21.0339 90.3 20.9505 90.5552 20.7891C90.8104 20.6276 90.938 20.3932 90.938 20.0859C90.938 19.737 90.8 19.4792 90.524 19.3125C90.2479 19.1406 89.8365 19.0547 89.2896 19.0547H87.7505V21.0391ZM100.047 17.5469H101.938V26H100.047V20.3906L100.001 20.375L96.7349 26H94.8443V17.5469H96.7349V23.1484L96.7818 23.1641L100.047 17.5469ZM110.743 19.0547H107.993V26H106.094V19.0547H103.391V17.5469H110.743V19.0547ZM114.196 20.4922H116.047C117.11 20.4922 117.941 20.7448 118.54 21.25C119.144 21.7552 119.446 22.4141 119.446 23.2266C119.446 24.0443 119.144 24.7109 118.54 25.2266C117.935 25.7422 117.105 26 116.047 26H112.297V17.5469H114.196V20.4922ZM114.196 22.0156V24.4844H116.047C116.558 24.4844 116.935 24.3698 117.18 24.1406C117.425 23.9062 117.547 23.612 117.547 23.2578C117.547 22.9193 117.422 22.6276 117.172 22.3828C116.928 22.138 116.553 22.0156 116.047 22.0156H114.196Z" fill="white"/>
<defs>
<linearGradient id="paint0_linear" x1="80" y1="-20" x2="61.1765" y2="55.2941" gradientUnits="userSpaceOnUse">
<stop stop-color="#BD7AE3"/>
<stop offset="1" stop-color="#8461C9"/>
</linearGradient>
</defs>
</svg>
