<svg width="20" height="20" viewBox="0 0 20 20" fill="none" xmlns="http://www.w3.org/2000/svg">
<path d="M5.83301 15C4.91217 15 4.17467 15.7458 4.17467 16.6666C4.17467 17.5875 4.91217 18.3333 5.83301 18.3333C6.75384 18.3333 7.49967 17.5875 7.49967 16.6666C7.49967 15.7458 6.75384 15 5.83301 15ZM0.833008 1.66663V3.33329H2.49967L5.49551 9.65413L4.37051 11.6958C4.24134 11.9375 4.16634 12.2083 4.16634 12.5C4.16634 13.4208 4.91217 14.1666 5.83301 14.1666H15.833V12.5H6.18717C6.07051 12.5 5.97884 12.4083 5.97884 12.2916C5.97884 12.2541 5.98717 12.2208 6.00384 12.1916L6.74967 10.8333H12.958C13.583 10.8333 14.1288 10.4875 14.4163 9.97496L17.3955 4.56663C17.4622 4.44996 17.4997 4.31246 17.4997 4.16663C17.4997 3.70413 17.1247 3.33329 16.6663 3.33329H4.34551L3.55384 1.66663H0.833008ZM14.1663 15C13.2455 15 12.508 15.7458 12.508 16.6666C12.508 17.5875 13.2455 18.3333 14.1663 18.3333C15.0872 18.3333 15.833 17.5875 15.833 16.6666C15.833 15.7458 15.0872 15 14.1663 15Z" fill="#D5D5D5"/>
</svg>
