<svg width="1110" height="289" viewBox="0 0 1110 289" fill="none" xmlns="http://www.w3.org/2000/svg">
<path d="M86.543 197.156H70.7373V252H37.3169V113.367H70.7373V166.973H83.5913L110.251 113.367H150.718L112.632 177.352L155.479 252H115.964L86.543 197.156ZM278.115 185.54C278.115 199.061 275.608 211.026 270.593 221.436C265.579 231.846 258.438 239.876 249.17 245.525C239.966 251.111 229.46 253.904 217.654 253.904C205.847 253.904 195.374 251.207 186.233 245.811C177.092 240.352 169.951 232.576 164.81 222.483C159.731 212.391 157.065 200.806 156.812 187.73V179.922C156.812 166.338 159.287 154.373 164.238 144.026C169.253 133.616 176.394 125.586 185.662 119.937C194.993 114.288 205.593 111.463 217.463 111.463C229.207 111.463 239.68 114.256 248.884 119.842C258.088 125.428 265.229 133.394 270.308 143.741C275.449 154.024 278.052 165.831 278.115 179.161V185.54ZM244.124 179.732C244.124 165.958 241.807 155.516 237.173 148.406C232.603 141.233 226.033 137.647 217.463 137.647C200.706 137.647 191.851 150.215 190.898 175.352L190.803 185.54C190.803 199.124 193.057 209.566 197.563 216.866C202.07 224.166 208.767 227.815 217.654 227.815C226.096 227.815 232.603 224.229 237.173 217.056C241.743 209.883 244.06 199.568 244.124 186.111V179.732ZM411.226 252H377.996V194.109H328.77V252H295.349V113.367H328.77V168.401H377.996V113.367H411.226V252ZM538.433 139.17H496.824V252H463.403V139.17H422.556V113.367H538.433V139.17ZM619.937 226.102H574.138L566.14 252H530.435L581.279 113.367H612.7L663.926 252H628.03L619.937 226.102ZM582.136 200.298H611.938L596.99 152.215L582.136 200.298ZM723.149 197.156H707.344V252H673.923V113.367H707.344V166.973H720.198L746.858 113.367H787.324L749.238 177.352L792.085 252H752.571L723.149 197.156ZM909.199 139.17H867.59V252H834.17V139.17H793.323V113.367H909.199V139.17ZM956.807 161.07H974.041C985.022 161.07 994.734 162.942 1003.18 166.688C1011.62 170.433 1018.09 175.733 1022.6 182.588C1027.17 189.38 1029.46 197.188 1029.46 206.011C1029.46 219.659 1024.38 230.735 1014.22 239.241C1004.13 247.747 990.544 252 973.469 252H923.291V113.367H956.807V161.07ZM1072.87 252H1039.55V113.367H1072.87V252ZM956.807 186.778V226.292H973.945C980.737 226.292 986.101 224.388 990.037 220.579C994.036 216.771 996.035 211.851 996.035 205.821C996.035 200.108 994.067 195.506 990.132 192.015C986.196 188.523 980.737 186.778 973.755 186.778H956.807Z" fill="white"/>
<path d="M230.57 273.62L292.228 154.332C292.586 153.662 292.324 152.825 291.656 152.49C290.988 152.131 290.153 152.394 289.819 153.064L228.16 272.328C227.803 272.998 228.065 273.835 228.733 274.17C228.924 274.266 229.138 274.314 229.353 274.314C229.854 274.338 230.331 274.074 230.57 273.62Z" fill="url(#paint0_linear)"/>
<path d="M259.861 274.529L312.551 153.064C312.861 152.37 312.527 151.557 311.835 151.27C311.143 150.959 310.332 151.294 310.046 151.987L257.356 273.428C257.213 273.763 257.213 274.146 257.332 274.481C257.475 274.816 257.714 275.079 258.048 275.223C258.215 275.295 258.406 275.342 258.596 275.342C259.145 275.342 259.646 275.031 259.861 274.529Z" fill="url(#paint1_linear)"/>
<path d="M301.34 176.199H279.968C279.491 176.199 279.109 175.816 279.109 175.338C279.109 174.859 279.491 174.477 279.968 174.477H301.34C301.817 174.477 302.198 174.859 302.198 175.338C302.198 175.816 301.817 176.199 301.34 176.199Z" fill="url(#paint2_linear)"/>
<path d="M295.639 189.477H274.267C273.79 189.477 273.408 189.094 273.408 188.616C273.408 188.137 273.79 187.755 274.267 187.755H295.639C296.116 187.755 296.498 188.137 296.498 188.616C296.474 189.094 296.092 189.477 295.639 189.477Z" fill="url(#paint3_linear)"/>
<path d="M288.102 205.387H265.37C264.893 205.387 264.512 205.004 264.512 204.526C264.512 204.047 264.893 203.664 265.37 203.664H288.102C288.579 203.664 288.96 204.047 288.96 204.526C288.96 205.004 288.579 205.387 288.102 205.387Z" fill="url(#paint4_linear)"/>
<path d="M307.017 163.304H286.623C286.146 163.304 285.764 162.921 285.764 162.442C285.764 161.964 286.146 161.581 286.623 161.581H307.017C307.494 161.581 307.875 161.964 307.875 162.442C307.875 162.921 307.494 163.304 307.017 163.304Z" fill="url(#paint5_linear)"/>
<path d="M280.589 223.665H255.877C255.4 223.665 255.019 223.283 255.019 222.804C255.019 222.326 255.4 221.943 255.877 221.943H280.589C281.066 221.943 281.447 222.326 281.447 222.804C281.447 223.283 281.066 223.665 280.589 223.665Z" fill="url(#paint6_linear)"/>
<path d="M274.792 237.877H248.292C247.815 237.877 247.433 237.494 247.433 237.015C247.433 236.537 247.815 236.154 248.292 236.154H274.792C275.269 236.154 275.651 236.537 275.651 237.015C275.651 237.494 275.269 237.877 274.792 237.877Z" fill="url(#paint7_linear)"/>
<path d="M269.592 220.603C266.873 218.211 261.005 216.321 261.005 216.321L257.475 216.392C256.569 217.397 256.187 219.359 255.996 220.579C256.664 220.986 257.905 221.321 260.194 221.44C264.416 221.656 267.827 221.034 269.592 220.603Z" fill="url(#paint8_linear)"/>
<path d="M269.592 220.603C267.827 221.034 264.416 221.656 260.194 221.44C257.905 221.321 256.664 220.986 255.996 220.579C255.972 220.675 255.973 220.771 255.949 220.866C255.877 221.369 256.187 221.847 256.688 221.991C259.908 222.972 266.992 222.661 269.759 222.493C270.356 222.445 270.666 221.751 270.284 221.297C270.069 221.082 269.855 220.842 269.592 220.603Z" fill="url(#paint9_linear)"/>
<path d="M257.761 213.354V216.177C257.761 216.727 258.143 217.182 258.668 217.301C259.216 217.421 259.932 217.493 260.648 217.325C261.077 217.206 261.411 216.847 261.459 216.392L261.816 213.378H257.761V213.354Z" fill="url(#paint10_linear)"/>
<path d="M275.579 198.927C274.482 196.487 274.792 195.387 272.622 195.626C272.359 195.65 272.145 195.698 271.954 195.769C271.811 196.176 271.811 196.631 271.954 197.037C272.502 198.616 273.647 201.32 275.746 203.975C276.2 204.526 276.867 204.861 277.583 204.861L279.968 204.909C277.726 203.114 276.486 200.961 275.579 198.927Z" fill="url(#paint11_linear)"/>
<path d="M280.135 201.296C278.299 200.004 277.607 194.717 277.607 194.717L274.792 193.281L272.669 194.836C272.335 195.076 272.097 195.411 271.978 195.793C272.168 195.722 272.383 195.674 272.645 195.65C274.816 195.411 274.506 196.511 275.603 198.951C276.51 200.985 277.75 203.138 280.016 204.956L281.662 204.98C282.401 205.004 282.83 204.143 282.377 203.569C281.781 202.779 281.018 201.918 280.135 201.296Z" fill="url(#paint12_linear)"/>
<path d="M276.509 190.602L274.792 193.257C274.577 193.592 274.649 194.047 274.959 194.286C275.508 194.717 276.462 195.195 277.607 194.693L280.35 192.803L276.509 190.602Z" fill="url(#paint13_linear)"/>
<path d="M263.701 162.514C263.701 162.514 262.794 165.05 261.506 173.95C260.194 182.85 259.36 189.334 258.644 192.875C258 196.104 256.974 207.756 257.022 212.828C257.022 213.521 257.594 214.048 258.286 214.024L261.649 213.928C262.174 213.904 262.603 213.545 262.699 213.019C263.581 207.779 269.735 180.745 273.433 172.969C273.433 172.969 283.284 175.768 285.74 176.893C285.74 176.893 282.568 178.161 276.056 190.41C276.056 190.41 278.871 192.659 280.851 193.114C280.851 193.114 295.091 181.271 296.593 180.027C298.096 178.783 299.479 176.654 295.639 172.754C291.799 168.854 280.016 162.73 280.016 162.73L263.701 162.514Z" fill="url(#paint14_linear)"/>
<path d="M272.86 173.256C272.836 173.256 272.812 173.256 272.788 173.232L269.282 171.869C267.779 171.151 266.801 169.596 266.777 167.921C266.777 167.825 266.849 167.754 266.944 167.754C267.064 167.754 267.111 167.825 267.111 167.921C267.111 169.476 268.018 170.888 269.425 171.558L272.931 172.921C273.027 172.969 273.051 173.065 273.003 173.161C272.979 173.232 272.931 173.256 272.86 173.256Z" fill="url(#paint15_linear)"/>
<path d="M295.568 161.773C295.568 161.773 299.265 158.973 300.958 159.5C302.652 160.026 303.892 161.605 303.892 161.605H300.171C300.171 161.605 299.289 163.304 300.171 163.304H301.483C301.459 163.304 297.977 166.964 295.568 161.773Z" fill="url(#paint16_linear)"/>
<path d="M289.295 135.264C289.295 135.264 293.636 152.49 299.527 159.404C299.527 159.404 297.929 161.222 295.568 161.749C295.568 161.749 286.528 153.806 283.785 148.303C281.042 142.8 289.295 135.264 289.295 135.264Z" fill="url(#paint17_linear)"/>
<path d="M283.498 118.876L279.181 126.795H285.979C285.979 126.795 286.527 123.182 288.316 121.005L283.498 118.876Z" fill="url(#paint18_linear)"/>
<path d="M290.033 109.45C290.033 109.45 292.204 114.426 292.347 117.034C292.49 119.641 293.063 121.34 290.033 121.866C287.028 122.393 284.476 120.886 283.116 118.278C283.116 118.278 280.97 114.258 281.447 112.632C281.924 111.005 290.033 109.45 290.033 109.45Z" fill="url(#paint19_linear)"/>
<path d="M284.142 116.436H284.524C284.524 116.436 282.949 113.206 284.333 112.632C285.716 112.057 291.179 110.957 292.347 108.995C293.492 107.129 292.467 104.689 290.964 104.019C290.868 103.971 290.749 104.019 290.701 104.114L290.582 104.354C290.487 104.521 290.248 104.497 290.201 104.306C290.153 104.138 289.914 104.091 289.843 104.258C289.485 104.832 288.507 105.789 285.883 106.268C282.162 106.961 279.705 108.469 279.658 111.053C279.658 111.22 279.491 111.316 279.348 111.22C279.061 111.053 278.632 110.981 278.036 111.459C277.01 112.321 277.439 114.546 279.682 116.388C279.777 116.483 279.777 116.651 279.682 116.723C279.276 116.986 278.68 117.608 280.23 118.469C281.828 119.33 282.782 119.235 283.14 119.139C283.236 119.115 283.307 119.019 283.283 118.924L283.14 116.651C283.14 116.531 283.236 116.436 283.355 116.436H284.142Z" fill="url(#paint20_linear)"/>
<path d="M284.213 116.914C284.213 116.914 283.379 113.732 281.971 114.617C280.54 115.503 282.711 118.182 283.856 118.302L284.213 116.914Z" fill="url(#paint21_linear)"/>
<path d="M278.227 126.173C278.227 126.173 280.159 122.991 292.729 123.78C299.265 124.187 313.982 118.469 317.249 115.598C317.249 115.598 319.396 115.574 321.352 117.656C321.352 117.656 307.756 132.034 291.942 133.877C291.942 133.877 279.92 158.71 280.016 162.754C280.016 162.754 272.884 167.562 263.2 164.117C263.2 164.117 262.913 157.203 266.682 147.681C271.572 135.264 278.227 126.173 278.227 126.173Z" fill="url(#paint22_linear)"/>
<path d="M283.927 134.738C283.832 134.738 283.761 134.666 283.761 134.57C283.761 134.475 283.832 134.403 283.927 134.379C283.999 134.379 290.034 133.877 290.964 133.781C291.059 133.781 291.131 133.829 291.155 133.924C291.155 134.02 291.107 134.092 291.012 134.116C290.034 134.259 283.999 134.738 283.927 134.738Z" fill="url(#paint23_linear)"/>
<path d="M321.09 116.962C321.209 117.369 319.73 117.919 318.943 116.268C318.943 115.479 318.585 112.129 319.086 111.507C321.686 108.206 326.624 104.138 326.624 104.138C327.411 104.976 326.719 105.741 326.719 105.741L324.31 108.086C324.763 108.971 325.336 109.737 325.574 110.813C325.765 111.627 325.598 112.488 325.169 113.206C324.739 113.924 324.143 114.881 323.594 115.598C322.521 116.986 321.09 116.962 321.09 116.962Z" fill="url(#paint24_linear)"/>
<g clip-path="url(#clip0)">
<path d="M445.833 276.826C445.833 276.826 445.395 279.149 445.19 281.472C445.103 282.384 445.775 283.178 446.681 283.207C449.749 283.354 456.294 283.678 458.661 283.59C459.011 283.59 459.245 283.207 459.128 282.884C459.011 282.619 458.807 282.384 458.544 282.266L447.762 277.15L445.833 276.826Z" fill="url(#paint25_linear)"/>
<path d="M445.512 275.444L445.804 278.238C445.804 278.238 447.704 279.149 448.989 278.15L448.23 275.033L445.512 275.444Z" fill="url(#paint26_linear)"/>
<path d="M446.272 222.81C446.126 223.545 445.161 259.272 448.814 275.327C448.872 275.591 448.726 275.856 448.492 275.944C447.908 276.18 446.768 276.503 445.395 276.532C444.957 276.532 444.606 276.268 444.489 275.856C443.437 272.122 438.411 253.45 437.915 235.66C437.36 215.782 437.915 234.983 437.915 234.983L438.47 222.692L446.272 222.81Z" fill="url(#paint27_linear)"/>
<path d="M433.357 277.914C433.357 277.914 432.684 279.091 432.042 282.237C431.925 282.796 432.305 283.354 432.889 283.413C433.912 283.531 435.46 283.678 436.717 283.678C437.301 283.678 437.74 283.178 437.681 282.59C437.564 281.443 437.155 279.561 435.811 278.091L433.357 277.914Z" fill="url(#paint28_linear)"/>
<path d="M432.831 274.327L433.561 278.561C433.561 278.561 434.321 279.149 435.84 278.738L435.519 274.18L432.831 274.327Z" fill="url(#paint29_linear)"/>
<path d="M431.223 223.78C427.951 242.599 431.457 270.416 432.684 275.856C432.772 276.18 433.035 276.444 433.357 276.503C433.912 276.591 434.847 276.679 435.782 276.415C436.103 276.327 436.337 276.032 436.337 275.709C436.542 271.328 436.483 244.364 439.493 233.719C439.639 233.19 439.99 232.719 440.428 232.396L446.097 228.426L446.593 221.928L431.223 223.78Z" fill="url(#paint30_linear)"/>
<path d="M451.356 188.23C442.064 187.995 431.749 190.494 431.749 190.494C428.827 206.755 430.931 225.574 430.931 225.574C438.119 227.544 446.272 224.545 446.272 224.545C447.528 217.752 453.314 198.639 453.314 198.639C457.872 198.11 461.612 196.816 464.739 195.111C462.401 192.346 461.349 188.847 460.882 186.76C457.551 187.789 454.22 188.289 451.356 188.23Z" fill="url(#paint31_linear)"/>
<path d="M478.969 174.674C478.063 173.557 476.894 174.057 476.894 174.057C475.463 179.879 468.245 184.525 460.853 186.76C461.32 188.818 462.401 192.346 464.71 195.111C477.041 188.318 478.969 174.674 478.969 174.674Z" fill="url(#paint32_linear)"/>
<path d="M478.735 174.968C478.823 175.262 477.713 175.733 477.07 174.468C477.041 173.88 476.719 171.293 477.07 170.822C479.028 168.235 482.739 165 482.739 165C483.352 165.618 482.826 166.235 482.826 166.235L481.015 168.088C481.394 168.764 481.833 169.352 482.037 170.175C482.183 170.793 482.096 171.469 481.774 172.028C481.453 172.586 481.015 173.322 480.605 173.91C479.846 174.968 478.735 174.968 478.735 174.968Z" fill="url(#paint33_linear)"/>
<path d="M480.225 169.293L478.589 170.675L478.063 172.057L479.495 173.704C479.495 173.704 480.021 170.969 480.371 170.381C480.751 169.764 480.576 169.47 480.225 169.293Z" fill="url(#paint34_linear)"/>
<path d="M435.227 199.58L431.749 190.465C431.749 190.465 423.013 196.316 421.493 203.844C423.129 203.991 426.11 204.432 429.032 205.961C429.704 202.432 435.227 199.58 435.227 199.58Z" fill="url(#paint35_linear)"/>
<path d="M442.736 208.196C442.736 208.196 432.918 213.665 429.675 208.872C429.003 207.872 428.856 206.902 429.032 205.961C426.11 204.432 423.129 203.991 421.493 203.844C421.055 206.108 421.259 208.519 422.545 210.989C428.214 221.663 444.022 210.607 444.022 210.607L442.736 208.196Z" fill="url(#paint36_linear)"/>
<path d="M442.006 180.526L438.937 189.112C438.879 189.259 438.937 189.406 439.084 189.494C439.872 189.965 442.795 191.288 446.301 189.083C446.681 188.847 446.915 188.465 446.973 188.053L447.996 180.614L442.006 180.526Z" fill="url(#paint37_linear)"/>
<path d="M448.522 172.616C448.522 172.616 451.707 178.82 451.269 181.29C450.83 183.76 446.798 183.554 443.292 181.496L440.896 174.821L448.522 172.616Z" fill="url(#paint38_linear)"/>
<path d="M443.496 178.232C443.642 178.173 443.7 177.997 443.613 177.85C443.35 177.438 442.882 176.615 442.736 175.909C442.736 175.909 442.152 175.527 444.226 175.056C446.301 174.586 449.398 173.821 450.07 172.057C450.713 170.322 449.106 165.97 446.418 169.411C446.33 169.528 446.126 169.528 446.009 169.411C445.571 168.823 444.46 167.646 442.853 168.352C441.363 168.999 441.188 170.116 441.188 170.646C441.188 170.822 441.041 170.94 440.895 170.91C440.136 170.763 438.353 170.616 437.477 172.469C436.775 173.998 437.214 174.88 437.623 175.292C437.769 175.439 437.681 175.645 437.506 175.703C437.009 175.85 436.366 176.262 436.425 177.438C436.512 179.055 438.295 178.938 438.791 178.85C438.879 178.85 438.967 178.879 439.025 178.938C439.464 179.438 441.392 181.525 443.525 181.79C443.7 181.82 443.847 181.643 443.788 181.467L442.882 178.761C442.853 178.644 442.912 178.497 443.028 178.438L443.496 178.232Z" fill="url(#paint39_linear)"/>
<path d="M443.846 178.614C443.846 178.614 441.538 176.997 441.363 178.35C441.187 179.702 443.437 180.32 444.548 179.82L443.846 178.614Z" fill="url(#paint40_linear)"/>
<path d="M440.749 216.811L446.097 198.022C446.155 197.816 446.33 197.639 446.564 197.639C447.528 197.522 450.333 197.198 453.577 196.934C457.492 196.61 462.022 196.346 464.71 196.551C465.09 196.581 465.323 196.992 465.148 197.345C463.599 200.492 457.259 213.224 454.103 217.429C453.986 217.576 453.84 217.635 453.665 217.635L441.275 217.517C440.895 217.517 440.632 217.164 440.749 216.811Z" fill="url(#paint41_linear)"/>
<path d="M442.035 212.283C442.035 212.283 441.305 209.195 441.597 208.107C441.889 207.019 442.473 205.608 444.431 205.931C446.36 206.255 448.668 207.078 448.668 207.078C448.668 207.078 448.551 208.49 447.09 208.049L447.996 208.754C447.996 208.754 447.879 209.901 446.623 209.284L447.47 210.225C447.47 210.225 446.944 211.166 446.009 210.548C445.074 209.96 444.636 212.665 442.035 212.283Z" fill="url(#paint42_linear)"/>
<path d="M454.775 204.138C455.647 204.138 456.353 203.427 456.353 202.55C456.353 201.673 455.647 200.962 454.775 200.962C453.904 200.962 453.197 201.673 453.197 202.55C453.197 203.427 453.904 204.138 454.775 204.138Z" fill="url(#paint43_linear)"/>
<path d="M446.623 203.579L446.331 203.491L447.412 199.786C447.587 199.198 448.055 198.757 448.639 198.639C452.087 197.904 461.467 197.757 461.554 197.757V198.051C461.467 198.051 452.116 198.198 448.697 198.933C448.23 199.021 447.85 199.404 447.704 199.874L446.623 203.579Z" fill="white"/>
<path d="M383.419 256.155C382.834 257.008 380.584 276.209 380.234 283.325C380.204 283.795 380.584 284.207 381.081 284.207C381.49 284.207 381.841 283.913 381.899 283.501L386.048 256.802L383.419 256.155Z" fill="url(#paint44_linear)"/>
<path d="M401.623 256.155C402.207 257.008 404.457 276.209 404.808 283.325C404.837 283.795 404.457 284.207 403.961 284.207C403.552 284.207 403.201 283.913 403.142 283.501L398.993 256.802L401.623 256.155Z" fill="url(#paint45_linear)"/>
<path d="M380 254.655V254.861C380 256.361 381.286 257.596 382.893 257.625L402.032 257.949C403.61 257.978 404.954 256.831 405.042 255.332V255.126C405.129 253.567 403.815 252.273 402.149 252.244L382.98 251.891C381.373 251.891 380.029 253.126 380 254.655Z" fill="url(#paint46_linear)"/>
<path d="M420.324 282.619C416.935 282.619 415.415 282.325 414.743 282.06C414.86 282.619 415.386 283.06 416 283.06H428.038C428.447 283.06 428.71 282.678 428.594 282.325C427.249 282.443 424.327 282.619 420.324 282.619Z" fill="url(#paint47_linear)"/>
<path d="M428.624 282.325C428.594 282.266 428.565 282.178 428.536 282.119C427.63 280.943 425.789 279.091 423.276 279.12C419.594 279.179 418.338 279.561 415.474 279.149L414.802 281.384C414.744 281.619 414.744 281.855 414.773 282.06C415.445 282.325 416.965 282.619 420.354 282.619C424.328 282.619 427.25 282.443 428.624 282.325Z" fill="url(#paint48_linear)"/>
<path d="M416.263 276.709L415.444 279.532C415.444 279.532 417.285 280.384 418.892 279.708L419.214 277.267L416.263 276.709Z" fill="url(#paint49_linear)"/>
<path d="M441.217 280.825C438.558 282.972 437.213 283.678 436.512 283.913C436.951 284.266 437.623 284.295 438.119 283.913L447.499 276.327C447.82 276.062 447.762 275.621 447.47 275.386C446.506 276.327 444.343 278.326 441.217 280.825Z" fill="url(#paint50_linear)"/>
<path d="M447.499 275.386C447.441 275.356 447.382 275.297 447.295 275.297C445.863 274.974 443.262 274.68 441.334 276.297C438.499 278.65 437.74 279.767 435.256 281.237L436.132 283.413C436.22 283.648 436.366 283.825 436.542 283.942C437.243 283.737 438.587 283.001 441.246 280.855C444.343 278.326 446.506 276.327 447.499 275.386Z" fill="url(#paint51_linear)"/>
<path d="M398.584 244.511C398.584 244.511 418.95 246.187 423.129 248.157C427.337 250.127 419.739 277.885 419.739 277.885C419.739 277.885 418.6 278.444 416.058 277.65C416.058 277.65 418.658 257.155 416.73 252.714L394.668 249.098L398.584 244.511Z" fill="url(#paint52_linear)"/>
<path d="M433.239 277.326C433.415 277.503 435.255 281.237 435.255 281.237C435.255 281.237 437.301 280.796 437.71 279.502L435.869 276.15L433.239 277.326Z" fill="url(#paint53_linear)"/>
<path d="M386.312 244.334C386.312 244.334 385.64 245.951 385.669 248.069C385.698 251.038 388.065 253.42 390.987 253.567L415.064 254.685C415.561 254.714 416 255.067 416.146 255.567C416.701 257.772 419.477 264.535 433.006 278.032C433.356 278.385 433.941 278.444 434.35 278.179L436.278 276.944C436.483 276.826 436.541 276.562 436.424 276.356L422.399 252.244C421.668 251.009 420.47 250.127 419.097 249.774L398.555 244.481L386.312 244.334Z" fill="url(#paint54_linear)"/>
<path d="M410.068 206.667C410.068 206.667 407.497 211.254 404.867 213.488L410.302 216.547C410.302 216.547 411.529 211.695 414.334 210.254L410.068 206.667Z" fill="url(#paint55_linear)"/>
<path d="M385.874 244.511C385.874 244.511 392.39 246.098 398.584 244.511C398.584 244.511 407.263 232.749 410.623 229.573C410.623 229.573 415.97 238.071 427.922 239.277L428.594 237.777C428.594 237.777 419.097 233.366 416.175 226.603C413.253 219.84 412.084 216.958 409.425 215.165C407.76 214.077 406.766 213.312 406.269 212.9C405.977 212.665 405.597 212.636 405.305 212.842C402.471 214.576 389.175 223.751 385.874 244.511Z" fill="url(#paint56_linear)"/>
<path d="M410.302 229.632C410.097 229.632 409.922 229.544 409.776 229.367C407.672 226.632 406.532 223.604 406.474 223.457C406.357 223.104 406.503 222.722 406.854 222.604C407.204 222.486 407.584 222.633 407.701 222.986C407.701 223.016 408.841 225.956 410.828 228.544C411.061 228.838 411.003 229.249 410.711 229.455C410.565 229.573 410.418 229.632 410.302 229.632Z" fill="#F2BD4A"/>
<path d="M427.22 236.983L428.564 236.63L432.655 235.689C433.152 235.571 433.649 235.66 434.087 235.924L437.593 238.13L427.921 238.1L427.22 236.983Z" fill="url(#paint57_linear)"/>
<path d="M414.159 199.786C414.159 199.786 416.671 203.991 417.11 206.314C417.548 208.637 418.249 210.078 415.62 210.901C412.99 211.724 410.564 210.695 409.016 208.519C409.016 208.519 406.62 205.196 406.853 203.667C407.116 202.138 414.159 199.786 414.159 199.786Z" fill="url(#paint58_linear)"/>
<path d="M409.717 206.725L410.068 206.667C410.068 206.667 408.285 203.961 409.454 203.285C410.623 202.609 415.356 200.962 416.175 199.08C416.964 197.257 415.795 195.228 414.363 194.787C414.275 194.758 414.188 194.816 414.158 194.905L414.071 195.14C414.012 195.287 413.808 195.316 413.72 195.14C413.662 194.993 413.457 194.993 413.399 195.14C413.136 195.699 412.376 196.669 410.097 197.404C406.853 198.463 404.866 200.109 405.1 202.403C405.129 202.55 404.983 202.638 404.837 202.579C404.574 202.462 404.165 202.432 403.698 202.962C402.879 203.844 403.522 205.784 405.743 207.166C405.86 207.225 405.86 207.372 405.772 207.461C405.451 207.755 404.983 208.372 406.473 208.96C407.993 209.548 408.84 209.342 409.133 209.225C409.22 209.195 409.249 209.107 409.249 209.019L408.87 206.99C408.84 206.872 408.928 206.784 409.016 206.784L409.717 206.725Z" fill="url(#paint59_linear)"/>
<path d="M409.863 207.137C409.863 207.137 408.752 204.402 407.584 205.343C406.415 206.314 408.665 208.431 409.687 208.401L409.863 207.137Z" fill="url(#paint60_linear)"/>
<path d="M423.48 240.07C423.509 240.07 423.509 240.07 423.538 240.07L444.226 240.041C444.723 240.041 445.161 239.629 445.161 239.1C445.161 238.6 444.752 238.159 444.226 238.159L423.538 238.189C423.041 238.189 422.603 238.6 422.603 239.129C422.603 239.629 422.983 240.041 423.48 240.07Z" fill="url(#paint61_linear)"/>
<path d="M452.233 219.664C452.233 219.664 452.233 219.693 452.203 219.693L443.496 238.571C443.291 239.041 443.496 239.6 443.934 239.806C444.402 240.012 444.957 239.835 445.161 239.365L453.869 220.487C454.073 220.016 453.869 219.458 453.431 219.252C452.992 219.046 452.437 219.222 452.233 219.664Z" fill="url(#paint62_linear)"/>
<path d="M506.378 259.037H504.187V282.796H506.378V259.037Z" fill="url(#paint63_linear)"/>
<path d="M514.852 283.237H495.742C495.742 282.443 496.385 281.796 497.173 281.796H513.449C514.209 281.825 514.852 282.472 514.852 283.237Z" fill="url(#paint64_linear)"/>
<path d="M517.686 258.213C517.686 259.507 516.634 260.566 515.348 260.566H496.005C494.719 260.566 493.667 259.507 493.667 258.213V256.067C493.667 254.773 494.719 253.714 496.005 253.714H515.348C516.634 253.714 517.686 254.773 517.686 256.067V258.213Z" fill="url(#paint65_linear)"/>
<path d="M489.168 243.187C489.168 243.187 485.924 243.687 482.272 246.157C481.687 246.539 481.395 247.216 481.483 247.892C481.921 251.362 483.703 262.653 489.635 273.651C489.956 274.239 490.044 274.915 489.898 275.562L488.875 280.384L486.976 282.178H491.885L495.158 273.268L493.755 272.827C492.674 272.475 491.914 271.475 491.914 270.328L491.739 260.771C491.885 256.508 489.138 253.567 489.138 253.567L496.999 253.185L489.168 243.187Z" fill="url(#paint66_linear)"/>
<path d="M485.047 283.031C484.609 283.619 489.869 284.383 492.528 283.119C492.528 283.119 496.209 276.65 496.209 273.327C496.209 273.327 495.917 272.651 493.755 272.798C493.755 272.798 492.528 280.443 491.213 281.296C489.898 282.149 487.56 281.384 487.56 281.384C487.56 281.384 485.69 282.178 485.047 283.031Z" fill="url(#paint67_linear)"/>
<path d="M496.005 253.714C495.976 253.655 487.56 252.685 487.56 252.685C487.56 252.685 487.823 255.243 486.976 258.801C486.128 262.33 473.768 277.679 473.768 277.679L475.054 281.796C471.051 283.207 467.106 283.413 463.249 282.502L471.285 277.65C471.285 277.65 478.794 251.891 483.382 247.304L491.797 244.364L496.005 253.714Z" fill="url(#paint68_linear)"/>
<path d="M514.852 238.718C514.852 238.718 519.702 245.981 520.082 249.274C520.491 252.567 518.767 253.92 513.683 254.155C508.599 254.391 495.04 254.361 495.04 254.361L483.44 244.422C483.44 244.422 491.885 241.394 494.076 240.541C496.268 239.688 514.852 238.718 514.852 238.718Z" fill="url(#paint69_linear)"/>
<path d="M474.557 280.443C474.557 280.443 475.96 281.796 474.995 283.325C474.995 283.325 463.95 285.295 460.97 284.413C460.97 284.413 461.583 282.972 464.973 281.355L464.71 281.561C464.388 281.796 464.593 282.325 464.973 282.296C467.223 282.119 471.81 281.708 474.557 280.443Z" fill="url(#paint70_linear)"/>
<path d="M493.872 192.758C503.777 191.053 508.423 199.198 508.102 200.903C508.044 201.138 508.277 201.315 508.482 201.256C509.621 200.962 512.134 200.55 513.683 202.521C515.056 204.255 514.034 205.902 513.186 206.784C512.982 206.99 513.157 207.343 513.449 207.313C515.553 207.049 520.082 206.99 520.813 211.254C521.514 215.253 518.738 216.37 517.102 216.694C516.839 216.752 516.751 217.105 516.985 217.252C517.803 217.782 518.738 218.84 518.358 220.987C517.745 224.309 511.258 224.045 510.498 224.015C510.44 224.015 510.41 223.986 510.352 223.986L499.949 218.017C499.862 217.958 499.803 217.899 499.803 217.811L497.758 205.579C497.729 205.49 497.758 205.373 497.846 205.314L491.067 195.669C488.583 195.316 493.755 192.758 493.872 192.758Z" fill="url(#paint71_linear)"/>
<path d="M501.761 237.777C501.761 237.777 496.122 232.366 493.346 228.779C491.856 226.838 491.388 224.309 492.06 221.957C493.317 217.664 495.567 213.194 495.8 212.518C496.122 211.46 502.433 211.489 502.433 211.489C502.433 211.489 514.881 219.605 519.761 233.396L514.267 235.13C514.267 235.13 511.024 229.632 507.81 226.162C507.81 226.162 513.362 233.543 513.566 236.571L501.761 237.777Z" fill="url(#paint72_linear)"/>
<path d="M495.011 206.578C495.07 206.814 496.735 212.312 496.852 212.43C496.969 212.548 500.475 212.724 502.112 211.607L498.05 203.579L495.011 206.578Z" fill="url(#paint73_linear)"/>
<path d="M488.407 199.492C488.407 199.492 487.618 202.638 489.81 206.902C492.031 211.136 494.514 211.136 495.888 209.783C497.261 208.431 498.927 206.108 498.547 202.021C498.138 197.904 489.547 195.493 488.407 199.492Z" fill="url(#paint74_linear)"/>
<path d="M495.479 202.226C495.479 202.226 491.826 196.581 488.378 201.021L488.32 202.638C488.32 202.638 484.287 202.168 484.989 198.433C485.69 194.728 489.167 192.405 493.638 194.023C498.109 195.64 500.68 197.286 500.972 200.521C501.264 203.756 498.722 203.05 498.722 203.05C498.722 203.05 497.904 200.786 496.706 200.55C495.508 200.315 495.829 202.079 495.829 202.079L495.479 202.226Z" fill="url(#paint75_linear)"/>
<path d="M496.414 202.168C496.414 202.168 494.515 199.286 496.472 198.845C498.43 198.404 498.109 201.668 497.904 202.844L496.414 202.168Z" fill="url(#paint76_linear)"/>
<path d="M490.249 238.159L494.398 234.131L500.125 236.571C500.125 236.571 505.823 237.453 509.096 236.571C512.368 235.689 512.368 235.689 512.368 235.689L519.761 233.366L520.93 236.659C521.222 237.483 520.93 238.424 520.199 238.953C519.556 239.424 518.826 239.923 518.329 240.129C517.365 240.57 494.369 239.835 494.369 239.835L490.249 238.159Z" fill="url(#paint77_linear)"/>
<path d="M505.939 240.07C505.91 240.07 505.91 240.07 505.881 240.07L481.833 240.041C481.248 240.041 480.751 239.541 480.751 238.953C480.751 238.365 481.248 237.865 481.833 237.865L505.881 237.894C506.465 237.894 506.962 238.394 506.962 238.982C506.962 239.571 506.524 240.041 505.939 240.07Z" fill="url(#paint78_linear)"/>
<path d="M460.239 218.105H480.255C481.745 218.105 483.089 218.958 483.703 220.31L492.966 240.07H468.099C467.135 240.07 466.288 239.482 465.937 238.6L458.749 220.31C458.34 219.252 459.099 218.105 460.239 218.105Z" fill="url(#paint79_linear)"/>
<path d="M474.352 228.22C474.791 229.573 474.469 230.896 473.651 231.161C472.833 231.425 471.81 230.543 471.372 229.191C470.933 227.838 471.255 226.515 472.073 226.25C472.891 225.986 473.914 226.868 474.352 228.22Z" fill="url(#paint80_linear)"/>
<path d="M533.348 280.267C533.348 280.267 533.611 281.678 533.698 283.354C533.728 284.06 533.202 284.677 532.5 284.766C530.046 285.001 524.436 285.442 520.871 284.942C520.374 284.883 520.169 284.236 520.549 283.913C522.01 282.531 525.575 279.855 531.448 279.267L533.348 280.267Z" fill="url(#paint81_linear)"/>
<path d="M534.575 277.091L533.319 280.149C533.143 280.561 532.734 280.825 532.267 280.796C531.974 280.767 531.595 280.708 531.244 280.59C530.543 280.384 530.134 279.62 530.367 278.914L531.302 275.768L534.575 277.091Z" fill="url(#paint82_linear)"/>
<path d="M555.847 282.707C555.847 282.707 553.363 284.795 552.399 287.5C552.136 288.235 552.691 289.029 553.48 289.029H558.594C559.353 289.029 559.909 288.353 559.792 287.618C559.47 285.736 558.506 282.707 555.847 282.707Z" fill="url(#paint83_linear)"/>
<path d="M558.945 279.973C558.945 279.973 558.448 282.207 558.068 283.707C558.01 283.972 557.717 284.119 557.454 284.031C556.665 283.766 556.052 283.619 555.584 283.678C555.38 283.707 555.175 283.531 555.175 283.325L555.117 279.59L558.945 279.973Z" fill="url(#paint84_linear)"/>
<path d="M545.679 229.544L530.513 276.062C530.513 276.062 533.406 277.973 534.809 277.885L552.808 240.511C552.808 240.511 555.964 263.535 554.445 280.09L559.587 280.473C559.587 280.473 567.974 238.218 561.633 223.721L545.679 229.544Z" fill="url(#paint85_linear)"/>
<path d="M552.721 240.1C552.808 240.1 552.867 240.012 552.867 239.923L552.282 235.219C552.282 235.13 552.195 235.072 552.107 235.101C552.019 235.101 551.961 235.189 551.99 235.277L552.574 239.982C552.574 240.041 552.633 240.1 552.721 240.1Z" fill="url(#paint86_linear)"/>
<path d="M542.845 188.583C542.845 188.583 555.117 189.671 553.393 198.492C553.393 198.492 560.172 211.342 563.357 226.485C563.474 226.985 563.123 227.456 562.627 227.544L542.173 231.073C541.617 231.161 541.062 230.808 540.916 230.249L536.036 211.254L534.137 220.075L528.088 218.487L533.173 192.523C533.173 192.552 533.903 188.759 542.845 188.583Z" fill="url(#paint87_linear)"/>
<path d="M535.949 210.401H535.978C536.065 210.372 536.124 210.313 536.095 210.225L534.4 202.344C534.371 202.256 534.312 202.197 534.225 202.226C534.137 202.256 534.078 202.315 534.108 202.403L535.803 210.283C535.803 210.372 535.861 210.401 535.949 210.401Z" fill="url(#paint88_linear)"/>
<path d="M537.176 233.837C537.819 233.484 538.578 233.396 539.28 233.572L540.712 233.925C541.004 234.013 541.325 233.778 541.354 233.484L542.815 220.31C544.656 221.193 547.315 221.075 548.192 221.016L544.802 236.542H532.939L537.176 233.837Z" fill="url(#paint89_linear)"/>
<path d="M505.676 205.226L506.027 204.02C506.231 203.344 506.728 202.785 507.4 202.491L513.887 199.874C513.887 199.874 513.975 199.051 512.514 198.463C511.053 197.904 511.403 196.228 511.403 196.228C511.403 196.228 513.42 197.139 516.342 198.61C518.007 199.433 518.971 200.933 519.468 202.021L534.166 220.046L532.442 221.251C530.163 222.81 527.065 222.045 525.78 219.605L517.832 204.255C513.799 205.49 509.738 205.726 505.676 205.226Z" fill="url(#paint90_linear)"/>
<path d="M538.871 180.202L542.64 190.847C542.64 190.847 539.309 193.464 536.854 192.582L534.955 186.465C534.955 186.465 536.416 179.026 538.871 180.202Z" fill="url(#paint91_linear)"/>
<path d="M532.88 172.763C532.793 172.91 529.695 184.143 529.695 184.143L536.095 185.789L540.594 175.586C540.594 175.556 534.546 170.352 532.88 172.763Z" fill="url(#paint92_linear)"/>
<path d="M538.169 177.115L536.212 182.672C536.182 182.731 536.153 182.819 536.124 182.878C535.861 183.26 534.868 184.495 533.669 183.378C532.588 182.378 531.595 181.467 530.66 181.29C530.251 181.231 529.842 181.467 529.725 181.878C529.433 182.908 528.848 185.201 528.644 187.289C528.614 187.7 528.907 188.083 529.316 188.171C530.572 188.406 533.231 188.847 535.423 188.671C535.715 188.641 535.978 188.465 536.124 188.2C536.738 186.848 538.608 182.79 539.309 181.731C539.952 180.732 541.559 180.761 542.231 180.82C542.465 180.849 542.669 180.761 542.845 180.614C543.429 180.085 544.539 178.761 542.961 177.203C542.64 176.88 542.64 176.35 542.991 176.027C543.663 175.38 544.393 174.263 543.254 172.851C542.114 171.41 540.595 171.645 539.689 171.998C539.309 172.145 538.9 171.969 538.695 171.645C538.578 171.44 538.374 171.293 538.023 171.322C537.556 171.351 537.147 170.969 537.176 170.499C537.205 169.587 536.854 168.44 535.277 167.94C532.471 167.058 530.747 169.793 530.572 171.822C530.397 173.851 533.494 174.615 535.306 174.498C536.679 174.38 537.702 175.762 538.111 176.438C538.228 176.615 538.257 176.88 538.169 177.115Z" fill="url(#paint93_linear)"/>
<path d="M538.579 183.76C538.579 183.76 539.017 180.232 540.478 180.055C541.939 179.879 543.342 181.084 541.91 183.055C540.098 185.525 538.579 183.76 538.579 183.76Z" fill="url(#paint94_linear)"/>
<path d="M546.994 221.193C547.841 221.193 548.425 221.134 548.484 221.134H548.601L553.071 200.168C553.101 200.08 553.042 199.992 552.955 199.992C552.867 199.962 552.779 200.021 552.779 200.109L548.367 220.869C547.695 220.928 544.159 221.163 542.26 219.84L546.146 201.609L545.328 200.08C545.299 199.992 545.182 199.962 545.123 200.021C545.036 200.05 545.007 200.168 545.065 200.227L545.825 201.668L541.938 219.987L542.026 220.046C543.341 221.016 545.533 221.193 546.994 221.193Z" fill="url(#paint95_linear)"/>
<path d="M412.96 285.148C412.843 285.148 412.756 285.119 412.639 285.089C412.23 284.913 412.054 284.413 412.23 283.972L428.564 242.246C428.739 241.805 429.178 241.599 429.587 241.805C429.996 241.982 430.171 242.482 429.996 242.923L413.662 284.648C413.574 284.942 413.282 285.148 412.96 285.148Z" fill="url(#paint96_linear)"/>
<path d="M431.369 285.148C431.077 285.148 430.785 284.942 430.639 284.619L414.334 242.923C414.158 242.482 414.334 241.982 414.743 241.805C415.152 241.629 415.59 241.805 415.766 242.246L432.1 283.972C432.275 284.413 432.1 284.913 431.691 285.089C431.574 285.119 431.486 285.148 431.369 285.148Z" fill="url(#paint97_linear)"/>
<path d="M523.851 285.148C523.735 285.148 523.647 285.119 523.53 285.089C523.121 284.913 522.946 284.413 523.121 283.972L539.455 242.246C539.63 241.805 540.069 241.599 540.478 241.805C540.887 241.982 541.062 242.482 540.887 242.923L524.553 284.648C524.436 284.942 524.144 285.148 523.851 285.148Z" fill="url(#paint98_linear)"/>
<path d="M542.231 285.148C541.938 285.148 541.646 284.942 541.5 284.619L525.195 242.923C525.02 242.482 525.195 241.982 525.604 241.805C526.013 241.629 526.452 241.805 526.627 242.246L542.961 283.972C543.136 284.413 542.961 284.913 542.552 285.089C542.464 285.119 542.347 285.148 542.231 285.148Z" fill="url(#paint99_linear)"/>
<path d="M521.484 239.306H545.153V236.836H521.484C521.981 236.836 521.981 239.306 521.484 239.306Z" fill="url(#paint100_linear)"/>
<path d="M544.831 239.306C544.978 239.306 545.124 239.159 545.124 239.012V237.13C545.124 236.954 544.978 236.836 544.831 236.836H521.046C520.9 236.836 520.754 236.718 520.754 236.571C520.754 236.424 520.9 236.307 521.046 236.307H546.497C547.052 236.307 547.52 236.777 547.52 237.336V238.894C547.52 239.424 547.081 239.865 546.555 239.865H521.046C520.9 239.865 520.754 239.747 520.754 239.6C520.754 239.453 520.9 239.335 521.046 239.335H544.831V239.306Z" fill="url(#paint101_linear)"/>
<path d="M548.572 240.953C548.659 240.688 548.542 240.394 548.279 240.188C548.016 239.982 547.607 239.835 547.198 239.835H405.422C404.866 239.835 404.37 240.012 404.048 240.335C403.756 240.659 403.698 241.041 403.931 241.364L405.48 243.57C405.831 244.069 406.59 244.393 407.438 244.393H546.205C546.994 244.393 547.666 244.011 547.812 243.511L548.572 240.953Z" fill="url(#paint102_linear)"/>
</g>
<path d="M696.2 111.3C696 111.3 695.8 111.2 695.6 111.1C695.1 110.8 695 110.1 695.3 109.7C695.3 109.7 695.9 108.8 697.1 107.2C697.4 106.8 698.1 106.7 698.5 107C698.9 107.3 699 108 698.7 108.4C697.5 109.9 696.9 110.8 696.9 110.8C696.8 111.1 696.5 111.3 696.2 111.3Z" fill="#292C3D"/>
<path d="M807.4 125.9C806.2 125.9 805.1 125.8 804 125.6C803.4 125.5 803.1 125 803.2 124.4C803.3 123.8 803.8 123.5 804.4 123.6C806.2 123.9 808.1 124.1 810.1 123.5C810.7 123.4 811.2 123.7 811.3 124.2C811.4 124.7 811.1 125.3 810.6 125.4C809.5 125.8 808.4 125.9 807.4 125.9ZM798.4 123.4C798.2 123.4 798 123.4 797.9 123.3C796.2 122.3 794.5 120.9 792.9 119.2C792.5 118.8 792.5 118.1 792.9 117.8C793.3 117.4 794 117.4 794.3 117.8C795.8 119.4 797.3 120.6 798.9 121.5C799.4 121.8 799.5 122.4 799.3 122.9C799.1 123.3 798.7 123.4 798.4 123.4ZM815.9 122.8C815.6 122.8 815.3 122.6 815.1 122.4C814.8 121.9 814.9 121.3 815.4 121C816.9 120 818.4 118.7 820.1 117.1C820.5 116.7 821.2 116.7 821.5 117.1C821.9 117.5 821.9 118.2 821.5 118.5C819.8 120.2 818.2 121.5 816.6 122.6C816.3 122.8 816.1 122.8 815.9 122.8ZM789.7 114.7C789.4 114.7 789.1 114.5 788.9 114.3C787.8 112.8 786.7 111 785.5 109C785.2 108.5 785.4 107.9 785.9 107.6C786.4 107.3 787 107.5 787.3 108C788.5 110 789.6 111.7 790.6 113.2C790.9 113.7 790.8 114.3 790.4 114.6C790.1 114.7 789.9 114.7 789.7 114.7ZM824.9 114.3C824.7 114.3 824.4 114.2 824.2 114C823.8 113.6 823.7 113 824.1 112.6C825.3 111.2 826.6 109.6 828 107.8C828.4 107.4 829 107.3 829.4 107.6C829.8 108 829.9 108.6 829.6 109C828.1 110.8 826.8 112.4 825.6 113.8C825.5 114.2 825.2 114.3 824.9 114.3ZM832.7 104.6C832.5 104.6 832.3 104.5 832.1 104.4C831.7 104.1 831.6 103.4 831.9 103L833.1 101.4C834 100.3 834.8 99.1 835.7 98C836 97.6 836.7 97.5 837.1 97.8C837.5 98.1 837.6 98.8 837.3 99.2C836.4 100.3 835.6 101.4 834.7 102.6L833.5 104.2C833.3 104.5 833 104.6 832.7 104.6ZM783.3 104C782.9 104 782.6 103.8 782.4 103.5L781.4 101.6C780.7 100.4 780.1 99.2 779.4 98C779.1 97.5 779.3 96.9 779.8 96.6C780.3 96.3 780.9 96.5 781.2 97C781.9 98.2 782.5 99.4 783.2 100.6L784.2 102.5C784.5 103 784.3 103.6 783.8 103.9C783.6 104 783.4 104 783.3 104ZM701.9 104C701.7 104 701.4 103.9 701.2 103.8C700.8 103.4 700.7 102.8 701.1 102.4C702.4 100.8 703.8 99.2 705.2 97.7C705.6 97.3 706.2 97.3 706.6 97.6C707 98 707 98.6 706.7 99C705.3 100.5 703.9 102.1 702.6 103.6C702.5 103.8 702.2 104 701.9 104ZM710.3 94.8C710 94.8 709.8 94.7 709.6 94.5C709.2 94.1 709.2 93.5 709.6 93.1C711.1 91.6 712.7 90.2 714.2 88.8C714.6 88.4 715.3 88.5 715.6 88.9C716 89.3 715.9 90 715.5 90.3C714 91.6 712.5 93.1 711 94.5C710.8 94.7 710.6 94.8 710.3 94.8ZM840.4 94.8C840.2 94.8 839.9 94.7 839.7 94.6C839.3 94.2 839.2 93.6 839.6 93.2C841.2 91.3 842.5 89.8 843.8 88.5C844.2 88.1 844.8 88.1 845.2 88.5C845.6 88.9 845.6 89.5 845.2 89.9C844 91.1 842.6 92.6 841.1 94.5C841 94.7 840.7 94.8 840.4 94.8ZM777.2 93.2C776.9 93.2 776.5 93 776.3 92.7C775.1 90.8 774 89.1 772.9 87.6C772.6 87.1 772.7 86.5 773.1 86.2C773.6 85.9 774.2 86 774.5 86.4C775.6 88 776.8 89.7 778 91.7C778.3 92.2 778.1 92.8 777.7 93.1C777.5 93.1 777.3 93.2 777.2 93.2ZM719.6 86.6C719.3 86.6 719 86.5 718.8 86.2C718.5 85.8 718.5 85.1 719 84.8C720.7 83.5 722.4 82.2 724.1 81.1C724.6 80.8 725.2 80.9 725.5 81.4C725.8 81.9 725.7 82.5 725.2 82.8C723.6 83.9 721.9 85.1 720.2 86.4C720.1 86.5 719.9 86.6 719.6 86.6ZM769.8 83.1C769.5 83.1 769.3 83 769.1 82.8C767.7 81.3 766.2 79.9 764.6 78.8C764.1 78.5 764 77.8 764.4 77.4C764.7 76.9 765.4 76.8 765.8 77.2C767.4 78.4 769 79.8 770.6 81.5C771 81.9 771 82.6 770.5 82.9C770.3 83 770.1 83.1 769.8 83.1ZM730 79.6C729.6 79.6 729.3 79.4 729.1 79.1C728.8 78.6 729 78 729.5 77.7C731.4 76.6 733.3 75.7 735.2 75C735.7 74.8 736.3 75 736.5 75.6C736.7 76.1 736.5 76.7 735.9 76.9C734.1 77.6 732.2 78.5 730.4 79.5C730.3 79.6 730.1 79.6 730 79.6ZM759.8 75.9C759.7 75.9 759.5 75.9 759.4 75.8C757.7 75.1 755.9 74.6 754 74.3L753.6 74.2C753 74.1 752.7 73.6 752.7 73C752.8 72.4 753.3 72.1 753.9 72.1L754.3 72.2C756.3 72.5 758.3 73.1 760.1 73.8C760.6 74 760.9 74.6 760.7 75.1C760.6 75.7 760.2 75.9 759.8 75.9ZM741.5 75C741 75 740.6 74.7 740.5 74.2C740.4 73.7 740.7 73.1 741.2 73C743.3 72.5 745.5 72.1 747.5 72C748.1 71.9 748.5 72.4 748.6 73C748.6 73.6 748.2 74 747.6 74.1C745.7 74.2 743.7 74.5 741.6 75C741.7 75 741.6 75 741.5 75Z" fill="#292C3D"/>
<path d="M882 66.8L847.3 88.2L848.9 75.7L882 66.8Z" fill="#0254E4"/>
<path d="M882 66.8L847.3 88.2L851.6 79.3L882 66.8Z" fill="#292C3D"/>
<path d="M861.7 92.5L840.1 66L886.9 61L861.7 92.5Z" fill="white"/>
<path d="M885.4 61.8L848.7 76.5L851.4 79.8L885.4 61.8Z" fill="#0254E4"/>
<path d="M701.409 93.1147C701.914 92.8116 702.419 92.5086 702.722 92.0034C702.823 91.8014 703.025 91.4983 703.227 91.3973C703.429 91.1953 703.631 90.9932 703.833 90.6901C704.035 90.4881 704.237 90.185 704.54 90.084C704.944 89.983 704.843 90.4881 704.641 90.7912C704.54 91.0942 703.53 91.8014 703.732 92.1045C703.833 92.5085 704.944 91.5994 705.146 91.4983C705.652 91.0942 705.652 90.5891 705.854 90.084C705.955 89.7809 706.157 89.6799 706.359 89.983C706.46 90.2861 706.359 90.5891 706.258 90.7912C706.056 91.2963 705.753 91.9024 705.348 92.2055C705.753 92.0034 706.157 91.2963 706.359 90.9932C706.46 90.6902 706.965 89.4779 707.369 89.6799C708.278 90.084 706.561 92.5086 706.056 92.8116C706.561 92.5086 706.864 92.0034 707.167 91.5993C707.369 91.2963 707.773 90.6902 707.975 91.2963C708.278 92.1045 706.763 93.0137 706.157 93.5188C706.662 93.3167 706.965 93.0137 707.369 92.6096C707.874 92.2055 708.076 92.7106 707.571 93.2157C707.369 93.4177 706.864 93.8218 706.763 93.9229C705.652 94.731 704.944 94.9331 703.53 95.0341C703.025 95.0341 702.217 95.6402 701.914 95.4382C701.51 94.9331 701.51 93.8218 701.409 93.1147Z" fill="#E8A393"/>
<path d="M702.116 91.8014C702.116 91.8014 691.913 94.63 690.801 94.63C689.791 94.529 687.367 85.538 686.356 81.093C686.255 80.689 684.942 80.689 683.326 79.3757C682.72 78.8706 680.8 79.8808 680.194 79.3757C678.982 80.689 678.679 82.5074 679.386 84.1237C681.709 89.2758 683.73 99.176 689.084 99.277C696.156 99.3781 703.429 95.7413 703.429 95.7413L702.116 91.8014Z" fill="#DA395B"/>
<path d="M704.238 93.0137C704.238 93.0137 703.833 92.3065 703.732 92.1044C703.631 91.7004 704.541 91.0942 704.642 90.7912C704.743 90.4881 704.844 89.983 704.541 90.084C704.238 90.185 704.036 90.4881 703.833 90.6901C703.631 90.8922 703.429 91.1952 703.227 91.3973C703.025 91.5993 702.823 91.8014 702.722 92.0034C702.621 92.2055 702.419 92.3065 702.318 92.5085C702.722 92.9126 704.238 93.0137 704.238 93.0137Z" fill="#E8A393"/>
<path d="M706.864 124.432C706.864 124.432 707.773 128.877 708.682 129.281C709.591 129.685 718.885 127.462 719.39 126.351C719.896 125.341 719.188 124.23 717.168 124.331C715.35 124.432 714.238 125.038 712.824 124.836C711.511 124.634 710.298 122.209 710.298 122.209L706.864 124.432Z" fill="#292C3D"/>
<path d="M691.205 134.433C691.205 134.433 688.781 138.272 689.185 139.181C689.488 140.09 697.772 144.838 698.883 144.535C699.994 144.131 700.196 142.818 698.681 141.504C697.368 140.292 696.055 139.989 695.145 138.777C694.337 137.766 695.145 135.14 695.145 135.14L691.205 134.433Z" fill="#292C3D"/>
<path d="M677.264 101.904C677.264 101.904 681.002 103.823 682.72 103.621C684.437 103.419 699.388 104.53 701.106 106.046C702.823 107.46 695.751 136.251 695.751 136.251L689.791 135.241C689.791 135.241 691.913 114.228 691.509 114.026C691.104 113.824 682.214 113.925 666.96 113.925C663.222 113.925 659.08 106.147 663.828 100.691L677.264 101.904Z" fill="#0254E4"/>
<path opacity="0.65" d="M698.58 108.369C697.873 107.157 697.368 105.742 696.964 104.328C691.812 103.722 684.033 103.52 682.821 103.621C681.103 103.823 677.365 101.904 677.365 101.904L676.456 101.803C677.567 103.318 678.78 104.631 680.396 105.035C682.315 105.439 684.235 105.54 686.154 106.046C689.387 106.854 692.519 108.571 694.034 111.804C695.751 115.643 697.57 119.684 698.782 124.027C699.792 119.684 700.701 115.138 701.308 111.501C699.994 110.895 699.186 109.379 698.58 108.369Z" fill="#00A1CC"/>
<path d="M678.78 98.6709C678.78 98.6709 696.559 99.7821 698.277 101.398C699.994 103.116 711.41 122.714 711.41 122.714L706.662 126.149C706.662 126.149 697.267 112.309 692.822 106.955C691.811 105.742 690.397 104.934 688.781 104.631C686.861 104.328 684.033 103.924 681.911 103.722C678.375 103.52 676.759 101.803 676.759 101.803L678.78 98.6709Z" fill="#0254E4"/>
<path d="M683.427 71.2939C682.821 70.9908 682.416 70.5867 682.012 70.0816C681.608 71.799 680.598 74.9307 678.578 76.345C678.578 76.345 682.113 78.2644 685.144 77.9613C685.144 77.9613 685.245 73.8194 686.154 71.9C685.144 71.9 684.235 71.698 683.427 71.2939Z" fill="#F9A57E"/>
<path d="M683.427 71.2939C682.821 70.9908 682.416 70.5867 682.012 70.0816C681.608 71.799 680.598 74.9307 678.578 76.345C678.578 76.345 682.113 78.2644 685.144 77.9613C685.144 77.9613 685.245 73.8194 686.154 71.9C685.144 71.9 684.235 71.698 683.427 71.2939Z" fill="#E76F59"/>
<path d="M686.357 60.6866C686.357 60.6866 690.903 60.9896 691.913 62.3029C692.923 63.6162 692.923 66.5458 692.115 67.8591C691.307 69.2734 692.317 71.597 692.216 72.2031C692.115 72.6072 690.599 72.4051 690.498 72.6072C690.397 72.8092 689.286 75.4358 687.367 75.2338C684.639 74.9307 682.013 71.597 681.507 69.6775C680.901 67.5561 682.215 60.0804 686.357 60.6866Z" fill="#F9A57E"/>
<path d="M693.933 63.7172C693.832 63.4142 693.428 62.909 693.327 62.505C693.327 62.2019 693.327 61.8988 693.327 61.6968C693.125 60.8886 693.226 60.3835 691.61 59.0702C690.195 57.959 687.872 57.7569 686.255 58.262C685.649 58.4641 685.043 58.7671 684.538 59.1712C684.437 59.2723 683.932 59.5753 683.932 59.7774C683.932 59.9794 684.437 60.3835 684.639 60.5855C684.942 60.8886 685.043 61.2927 685.245 61.6968C686.558 63.9193 688.781 66.6469 691.61 65.3336C692.014 65.1315 692.317 64.9295 692.721 64.7275C692.822 65.7377 692.721 66.7479 692.216 67.6571C692.216 67.6571 693.024 67.455 693.529 66.6469C694.337 65.4346 694.236 64.4244 693.933 63.7172Z" fill="#292C3D"/>
<path d="M685.346 60.2825C684.942 59.7774 684.033 59.5753 683.426 59.4743C682.315 59.2723 681.406 59.8784 680.8 60.7876C680.396 61.3937 680.093 61.9998 679.891 62.606C679.487 63.7172 679.285 64.4244 679.285 65.6366C679.285 66.7479 679.386 67.9602 679.992 68.9704C680.497 69.8796 681.608 71.1929 682.416 71.1929C682.719 71.1929 683.932 69.3745 684.033 68.8694C684.134 68.3642 683.932 68.2632 683.629 67.8591C683.123 67.253 682.719 66.2428 683.426 65.6366C684.538 64.7274 685.548 65.7377 685.447 67.455C685.447 67.455 685.649 68.4653 685.952 68.4653C686.154 68.5663 689.084 64.7275 685.346 60.2825Z" fill="#292C3D"/>
<path d="M660.999 102.308C660.999 102.308 666.354 108.066 680.295 104.126C680.295 104.126 680.8 100.59 682.214 97.1556C683.729 93.7208 686.053 86.9523 686.558 83.3155C687.063 79.1736 685.043 77.0522 685.043 77.0522C685.043 77.0522 682.416 78.9716 679.183 75.6378C679.183 75.6378 672.314 76.446 668.273 83.7196C664.232 90.9932 660.999 102.308 660.999 102.308Z" fill="#FF4C6B"/>
<path d="M680.194 81.5981C680.194 81.3961 680.093 81.2951 680.093 81.093C676.759 82.7094 677.163 85.9421 677.972 90.7912C678.578 94.529 680.396 100.489 680.699 101.803C681.002 100.489 681.507 98.8729 682.215 97.1555C682.922 95.5392 683.73 93.3167 684.538 90.8922C683.326 89.0738 682.518 87.1544 681.81 85.1339C681.406 83.9217 680.598 82.8104 680.194 81.5981Z" fill="#DA395B"/>
<path d="M703.126 89.6799L714.845 82.7094C714.845 82.7094 719.088 86.9523 720.3 92.6096L706.965 98.8729C706.965 98.8729 704.944 94.0239 703.126 89.6799Z" fill="white"/>
<path d="M712.218 94.1249C709.491 93.3167 706.561 91.1952 705.248 88.4677L703.126 89.6799C704.945 93.9228 707.066 98.8729 707.066 98.8729L716.764 94.3269C715.249 94.63 713.835 94.63 712.218 94.1249Z" fill="#D8D8D8"/>
<path d="M703.025 96.9535C703.631 96.9535 704.237 97.0545 704.742 96.7515C704.944 96.6505 705.247 96.4484 705.55 96.4484C705.854 96.4484 706.157 96.3474 706.46 96.2464C706.763 96.1453 707.066 96.0443 707.369 96.1453C707.773 96.2464 707.369 96.5494 707.167 96.7515C706.864 96.9535 705.752 96.9535 705.651 97.3576C705.55 97.7617 706.965 97.6607 707.268 97.5597C707.874 97.4586 708.076 97.0545 708.581 96.7515C708.884 96.5494 709.086 96.5494 709.086 96.9535C709.086 97.2566 708.783 97.4586 708.581 97.6607C708.177 97.9637 707.571 98.2668 707.066 98.3678C707.47 98.3678 708.177 98.0648 708.581 97.8627C708.884 97.6607 709.894 96.8525 710.096 97.2566C710.703 98.0648 707.874 99.176 707.369 99.176C707.874 99.176 708.379 98.974 708.985 98.7719C709.288 98.6709 709.995 98.3678 709.894 98.873C709.692 99.6811 707.975 99.6811 707.167 99.8832C707.672 99.9842 708.177 99.8832 708.682 99.7821C709.389 99.6811 709.187 100.186 708.48 100.388C708.177 100.489 707.571 100.59 707.47 100.59C706.056 100.691 705.348 100.489 704.136 99.8832C703.732 99.6811 702.722 99.6811 702.52 99.3781C702.116 98.5699 702.823 97.5597 703.025 96.9535Z" fill="#F9A57E"/>
<path d="M703.328 96.4484L703.631 100.388C703.631 100.388 686.66 101.702 684.74 100.489C682.821 99.277 681.912 97.2566 681.305 95.4382C680.093 91.8014 675.244 81.9012 679.588 80.3859C681.002 79.8808 682.72 79.8808 683.629 81.6992C685.649 85.7401 687.872 94.63 688.478 94.9331C689.286 95.5392 703.328 96.4484 703.328 96.4484Z" fill="#FF4C6B"/>
<path d="M815.2 186.451C815.2 186.451 817.6 193.451 819 196.551C826.9 213.851 812.3 211.651 806.8 210.851C801.3 210.051 795 207.951 795.3 203.451C795.5 200.451 797.4 200.051 798.1 199.051C798.9 198.051 797.4 196.351 798 193.851C798.6 191.351 802.8 190.851 803.6 190.151C804.4 189.451 806.1 187.551 805.3 183.951C804.5 180.351 804.1 178.451 806.5 176.051C808.9 173.651 812.5 174.751 812.5 174.751L815.2 186.451Z" fill="url(#paint103_linear)"/>
<path d="M842.3 213.351C841.8 212.951 839.9 214.051 838.5 214.551C837.7 214.851 836.1 214.851 834.9 214.851C834.9 215.551 834.8 216.251 834.6 216.851C835.5 216.851 836.2 217.051 836.8 217.051C837.5 216.951 838.8 216.851 839.3 216.751C839.8 216.651 840.5 216.651 840.9 216.951C842.5 218.251 843.3 218.351 843.5 217.851C843.5 217.751 842.3 216.651 841.9 216.251C842.6 216.851 844.3 218.051 844.6 217.751C844.9 217.451 843.3 216.051 842.6 215.451C843.3 216.051 845.1 217.551 845.5 217.451C846.6 217.051 842.8 213.751 842.3 213.351Z" fill="#F9A57E"/>
<path d="M849 217.151H829.5V219.651H849V217.151Z" fill="#292C3D"/>
<path d="M836.3 214.551L835.6 217.351C835.6 217.351 826.6 216.351 823.5 214.951C820.4 213.551 817.4 206.251 817.4 206.251L819.7 197.051C819.7 197.051 824.2 209.051 825.8 210.551C827.5 212.051 836.3 214.551 836.3 214.551Z" fill="#FF4C6B"/>
<path d="M872.8 209.551H834.7C833.7 209.551 832.9 208.751 832.9 207.751V184.751C832.9 183.751 833.7 182.951 834.7 182.951H872.8C873.8 182.951 874.6 183.751 874.6 184.751V207.751C874.6 208.751 873.8 209.551 872.8 209.551Z" fill="#AFEAF0"/>
<path d="M835 207.751V184.751C835 183.751 835.8 182.951 836.8 182.951H834.6C833.6 182.951 832.8 183.751 832.8 184.751V207.751C832.8 208.751 833.6 209.551 834.6 209.551H836.8C835.8 209.551 835 208.751 835 207.751Z" fill="#292C3D"/>
<path d="M853.8 216.151C853.8 216.151 854.6 208.051 851 205.351C851 205.351 850.2 204.651 851.5 203.851C852.9 203.051 856.7 202.151 858 204.551C859.3 206.951 860.2 211.051 859.6 216.151H853.8Z" fill="url(#paint104_linear)"/>
<path d="M802.5 235.451H800.8V280.951H802.5V235.451Z" fill="#AFEAF0"/>
<path d="M834.5 235.451H832.8V280.951H834.5V235.451Z" fill="#AFEAF0"/>
<path d="M839.2 232.751H796.2V237.251H839.2V232.751Z" fill="#292C3D"/>
<path d="M819.5 260.651C819.5 260.651 815.1 264.451 815.1 265.051C815.1 265.651 822.6 278.351 823.9 278.351C825.2 278.351 825.5 276.151 825.3 275.351C825.1 274.551 822.7 262.351 822.7 262.351L819.5 260.651Z" fill="#292C3D"/>
<path d="M813.2 263.051C813.2 263.051 808.9 267.051 809 267.551C809.1 268.051 816.9 280.551 818.2 280.551C819.5 280.551 819.7 278.351 819.5 277.551C819.3 276.751 816.5 264.651 816.5 264.651L813.2 263.051Z" fill="#292C3D"/>
<path d="M815.9 219.351C815.9 219.351 821.4 221.951 827.8 224.451C831.8 226.051 837.5 228.051 837.3 232.451C837.2 235.651 824.4 266.151 824.4 266.151L818.6 263.251C818.6 263.251 829.2 237.551 829 235.851C828.8 234.151 827.6 235.651 817.1 234.651C806.6 233.651 803.4 231.751 803.5 226.751C803.6 221.751 806.3 214.851 810.6 213.051C814.9 211.251 815.9 219.351 815.9 219.351Z" fill="url(#paint105_linear)"/>
<path d="M815.9 219.351C815.9 219.351 818 222.051 824.4 224.551C828.4 226.151 833.5 229.051 833.5 231.851C833.5 235.051 821.6 264.851 821.6 264.851L818.7 263.351C818.7 263.351 829.3 237.651 829.1 235.951C828.9 234.251 827.7 235.751 817.2 234.751C806.7 233.751 803.5 231.851 803.6 226.851C803.7 221.851 806.4 214.951 810.7 213.151C814.9 211.251 815.9 219.351 815.9 219.351Z" fill="#37389E"/>
<path d="M813 215.551C813 215.551 814.7 222.551 818.7 224.251C822.7 225.951 831.9 227.851 831.9 232.251C831.9 235.451 818.2 266.851 818.2 266.851L811.2 263.551C811.2 263.551 820.5 238.151 820.3 236.351C820.1 234.651 821 235.451 810.5 234.851C800 234.251 798.6 232.251 798.5 227.251C798.4 222.251 804.9 215.551 804.9 215.551C809 213.651 813 215.551 813 215.551Z" fill="url(#paint106_linear)"/>
<path d="M815.8 185.251C815.8 185.251 814.1 192.051 817.2 195.551C817.2 195.551 821.3 201.051 814.8 202.051C808.3 202.951 809.2 194.451 809.2 194.451C809.2 194.451 810.3 185.051 808.6 181.051C808.6 181.051 812.8 183.351 815.8 185.251Z" fill="#E76F59"/>
<path d="M811.4 175.651C811.4 175.651 820.3 176.151 820.3 178.251C820.4 180.451 819.6 181.851 819.8 183.851C820.4 187.951 818 192.551 817 192.751C815.4 193.051 809.9 190.651 809 187.251C808.2 183.951 808 174.351 811.4 175.651Z" fill="#F9A57E"/>
<path d="M819.9 214.951C819.9 214.951 821.8 215.151 822.2 215.151C822.6 215.151 827.7 212.251 828.3 212.651C828.9 213.051 834.1 216.651 833.9 217.351C833.7 218.051 832.3 217.651 829.5 215.251C829.5 215.251 833.2 217.851 832.5 218.451C831.8 219.051 828.6 216.151 828.6 216.151C828.6 216.151 831.9 218.651 831.1 219.151C830.3 219.751 827.4 216.751 827.4 216.751C827.4 216.751 829.7 218.951 829.4 219.351C829.1 219.751 827.6 219.051 826.1 217.651C826.1 217.651 825.8 217.451 825 217.951C824.2 218.351 819 217.551 819 217.551L819.9 214.951Z" fill="#F9A57E"/>
<path d="M821.1 182.451C821.1 182.451 814.9 183.851 812.9 179.151C811.3 175.351 811.9 174.951 811.9 174.951C811.9 174.951 815.3 172.251 819.3 175.951C822 178.351 821.1 182.451 821.1 182.451Z" fill="url(#paint107_linear)"/>
<path d="M812.4 174.851C812.4 174.851 815.7 177.751 813.9 180.451C812.3 182.951 813.3 184.251 813 185.951C813 185.951 812.2 185.551 812 184.851C811.8 184.051 811.6 182.151 810.5 182.451C809.5 182.751 808.5 184.051 810.5 185.651C810.5 185.651 811.6 187.851 810.2 189.651C810.2 189.651 804.9 185.051 806.4 179.951C808 174.751 812.4 174.851 812.4 174.851Z" fill="url(#paint108_linear)"/>
<path d="M816.5 194.651C816.5 194.651 816.9 197.851 815.7 198.451C814.5 199.051 810.4 192.951 810.4 192.951C810.4 192.951 804.8 195.351 803.5 196.351C802.2 197.351 804.1 207.251 804.1 207.251C804.1 207.251 800.2 219.051 800.7 221.651C801.2 224.151 818.2 221.151 818.2 221.151C818.2 221.151 819.8 209.051 820.5 207.251C821.1 205.451 822 204.351 821.1 201.751C819.9 198.051 819.6 197.151 819.6 197.151C819.6 197.151 817.8 195.151 816.5 194.651Z" fill="#FF4C6B"/>
<path d="M806.4 205.351C805.1 203.651 805.9 200.751 804.5 199.051C804.1 198.551 803.7 197.951 803.2 197.451C802.9 200.251 804.2 207.251 804.2 207.251C804.2 207.251 800.3 219.051 800.8 221.651C801.3 224.151 818.3 221.151 818.3 221.151C818.3 221.151 819.8 210.551 820.5 207.751C820.1 208.351 816.6 212.651 812.8 212.051C810.7 211.551 809 208.851 806.4 205.351Z" fill="#DA395B"/>
<path d="M809.4 183.551C809.4 183.551 809.3 184.851 810.4 185.151C810.9 185.251 810.8 186.751 811.2 188.151C811.9 190.951 811.5 192.751 809.4 193.551C807.9 194.151 805.8 194.551 803.5 196.251C801.1 197.951 802.7 190.951 805.6 189.251C808.6 187.551 809.4 183.551 809.4 183.551Z" fill="url(#paint109_linear)"/>
<path d="M863.1 219.651H850.7C850 219.651 849.5 218.851 849.8 218.151L850.5 216.651C850.7 216.351 851 216.051 851.4 216.051H862.4C862.8 216.051 863.1 216.251 863.3 216.651L864 218.151C864.3 218.851 863.8 219.651 863.1 219.651Z" fill="url(#paint110_linear)"/>
<path d="M882.1 219.651H773V222.551H882.1V219.651Z" fill="#7695A8"/>
<path d="M778.4 220.951H777.1V281.051H778.4V220.951Z" fill="#7695A8"/>
<path d="M878.1 220.951H876.8V281.051H878.1V220.951Z" fill="#7695A8"/>
<path d="M821.5 214.851L821.2 218.551C821.2 218.551 799.5 218.751 796.3 218.351C793 217.951 791.6 213.651 793.7 209.851C795.8 206.051 802.1 196.151 804.8 195.951C807.5 195.751 809.1 199.451 806.9 203.551C804.6 207.651 800.5 211.551 801.4 212.151C802.2 212.851 821.5 214.851 821.5 214.851Z" fill="#FF4C6B"/>
<path d="M749.6 55.1H723.3L709.2 66.6L715.5 55.1H709C707.9 55.1 707 54.2 707 53.1V27C707 25.9 707.9 25 709 25H749.5C750.6 25 751.5 25.9 751.5 27V53.1C751.6 54.1 750.7 55.1 749.6 55.1Z" fill="white"/>
<path d="M735.4 36.1C735.4 39.6 731 40.6 731 42V42.5H726.6V41.2C726.6 39.3 729.9 38.3 729.9 36.2C729.9 35.3 729.3 34.4 728.2 34.4C726.8 34.4 726.5 35.5 726.5 36.5C726.5 36.7 726.5 37 726.5 37.2H721.8C721.8 36.9 721.7 36.6 721.7 36.2C721.7 32.9 724.7 30.8 728.7 30.8C732.8 30.9 735.4 32.9 735.4 36.1ZM731.4 48.8H726.3V44.1H731.4V48.8Z" fill="#292C3D"/>
<path d="M157.49 98.2171H162.597L158.234 107.687L167.811 98.2171H184.517C185.261 98.2171 185.9 97.5787 185.9 96.8338V79.3833C185.9 78.6384 185.261 78 184.517 78H157.383C156.638 78 156 78.6384 156 79.3833V96.8338C156.106 97.6851 156.745 98.2171 157.49 98.2171Z" fill="white"/>
<path d="M174.96 85.3338C174.96 87.8816 171.717 88.5765 171.717 89.6188V89.9662H168.474V89.0397C168.474 87.65 170.906 86.8393 170.906 85.3338C170.906 84.639 170.443 84.0599 169.632 84.0599C168.59 84.0599 168.474 84.8706 168.474 85.6812C168.474 85.7971 168.474 86.0287 168.474 86.1445H165C165 85.9129 165 85.6813 165 85.4496C165 83.0176 167.2 81.5121 170.096 81.5121C173.107 81.5121 174.96 83.0176 174.96 85.3338ZM172.064 94.5986H168.359V91.1243H172.064V94.5986Z" fill="#292C3D"/>
<path d="M351.7 93.3H331.6L320.8 102.1L325.6 93.3H320.7C319.8 93.3 319.2 92.6 319.2 91.8V71.9C319.2 71 319.9 70.4 320.7 70.4H351.6C352.5 70.4 353.1 71.1 353.1 71.9V91.8C353.3 92.6 352.6 93.3 351.7 93.3Z" fill="white"/>
<path d="M332 87.1H328.2V83.6H332V87.1Z" fill="black"/>
<path d="M338 87.1H334.2V83.6H338V87.1Z" fill="black"/>
<path d="M343.9 87.1H340.1V83.6H343.9V87.1Z" fill="black"/>
<path d="M634.6 56.8H618.2L609.4 64L613.3 56.8H609.3C608.6 56.8 608 56.2 608 55.5V39.3C608 38.6 608.6 38 609.3 38H634.5C635.2 38 635.8 38.6 635.8 39.3V55.5C635.8 56.2 635.3 56.8 634.6 56.8Z" fill="white"/>
<path d="M620.6 53.3V50.8H623.1V53.3H620.6ZM621.4 50L620.6 41.1H623.3L622.3 50H621.4Z" fill="black"/>
<path d="M601.4 103.5H597V99H594.5V103.5H590V106H594.5V110.4H597V106H601.4V103.5Z" fill="#FFF9FD"/>
<path d="M242.4 32.5H237.9V28H235.4V32.5H231V35H235.4V39.4H237.9V35H242.4V32.5Z" fill="#FFF9FD"/>
<path d="M99.0001 200H94.6001V195.6H92.1001V200H87.6001V202.5H92.1001V207H94.6001V202.5H99.0001V200Z" fill="#FFF9FD"/>
<path d="M302.3 87H297.8V82.6H295.3V87H290.9V89.5H295.3V94H297.8V89.5H302.3V87Z" fill="#FFF9FD"/>
<path d="M82.3 65.5H77.9V61H75.4V65.5H71V68H75.4V72.4H77.9V68H82.3V65.5Z" fill="#FFF9FD"/>
<path d="M418.4 73.5H413.9V69H411.4V73.5H407V76H411.4V80.4H413.9V76H418.4V73.5Z" fill="#FFF9FD"/>
<path d="M913.3 90.4H908.9V86H906.4V90.4H902V92.9H906.4V97.4H908.9V92.9H913.3V90.4Z" fill="#FFF9FD"/>
<path d="M944.3 223.9H939.9V219.5H937.4V223.9H932.9V226.4H937.4V230.9H939.9V226.4H944.3V223.9Z" fill="#FFF9FD"/>
<path d="M535.3 34.1C544.081 34.1 551.2 26.9813 551.2 18.2C551.2 9.41865 544.081 2.29999 535.3 2.29999C526.519 2.29999 519.4 9.41865 519.4 18.2C519.4 26.9813 526.519 34.1 535.3 34.1Z" fill="white"/>
<g clip-path="url(#clip1)">
<path d="M508.65 57.2323C509.232 54.4735 509.814 51.4242 510.687 48.6654C511.269 46.4874 511.997 45.7614 511.997 43.5833C511.997 42.5669 511.124 39.0821 511.706 38.3561C512.288 38.6465 512.579 41.8409 513.306 39.5177C513.889 37.63 514.762 34.2904 515.344 34.2904C515.926 34.2904 514.471 37.63 514.907 37.9205C515.344 38.2109 516.944 34 517.381 34.1452C517.817 34.2904 515.926 38.3561 516.362 38.5013C517.09 38.9369 517.963 35.5972 518.545 35.7424C519.127 35.8876 517.672 38.3561 517.672 39.3725C518.545 39.3725 519.418 36.6136 519.854 37.4848C520.291 38.3561 517.817 40.8245 517.235 41.9861C516.217 44.1641 514.762 46.6326 514.762 49.101C514.762 53.0215 512.142 56.7967 511.269 60.7172C510.978 63.3308 508.214 58.9747 508.65 57.2323Z" fill="#ECB49F"/>
<path d="M497.3 64.4924C497.3 64.4924 497.591 71.8977 498.464 73.2045C499.337 74.6566 502.83 75.5278 505.74 77.2702C508.796 78.8674 499.192 85.4015 490.025 84.0947C480.857 82.7879 481.148 78.577 481.148 78.577L489.443 73.4949C489.443 73.4949 491.771 71.3169 491.625 68.2677C491.625 65.3636 495.554 62.8952 497.3 64.4924Z" fill="#ECB49F"/>
<path d="M489.151 60.2816C489.151 60.2816 489.588 70.4457 493.953 70.5909C498.319 70.7361 498.755 65.2184 499.046 61.298C499.337 56.7967 499.046 55.4899 493.953 55.1995C489.006 54.7639 489.151 60.2816 489.151 60.2816Z" fill="#ECB49F"/>
<path d="M499.92 57.6679C500.356 58.8295 500.793 60.4268 500.211 61.298C500.211 61.4432 499.629 61.7336 499.629 61.8788C499.629 62.1692 500.065 62.1692 500.065 62.4596C499.92 63.0404 499.192 63.476 498.61 63.3308C497.591 63.0404 498.319 60.572 497.009 59.9912C496.282 59.7008 495.7 59.846 495.7 58.6843C495.7 59.9912 493.372 61.7336 492.499 60.7172C492.062 60.2816 492.499 59.9912 491.771 59.9912C491.48 59.9912 490.752 60.7172 490.461 60.8624C490.17 61.1528 489.879 61.5884 489.734 62.024C489.588 62.3144 489.734 63.3308 489.588 63.476C489.006 64.0568 488.279 62.8952 487.988 62.4596C487.406 61.298 486.969 59.4104 487.115 58.1035C487.697 54.4735 491.334 53.1667 494.681 53.4571C496.427 53.6023 498.173 54.7639 499.047 56.2159C499.483 56.6515 499.774 57.0871 499.92 57.6679Z" fill="#2E3054"/>
<path d="M493.953 66.2348C493.953 66.2348 491.771 65.0732 489.879 65.9444C489.879 65.9444 489.152 72.3333 493.953 72.3333C499.628 72.3333 498.319 65.7992 498.319 65.7992C498.319 65.7992 496.282 65.2184 493.953 66.2348Z" fill="#2E3054"/>
<path d="M491.771 66.9608C491.771 66.9608 493.808 68.2677 495.991 66.9608C495.991 66.9608 493.954 71.1717 491.771 66.9608Z" fill="white"/>
<path d="M502.393 102.39H475.183V110.667H502.393V102.39Z" fill="#3D4166"/>
<path d="M483.04 104.568C483.04 104.568 482.749 103.842 478.675 105.73C474.746 107.472 472.563 105.585 473 100.793C473.436 96.0013 478.238 83.3687 480.566 79.0126C482.895 74.6566 485.95 75.3826 485.95 75.3826C489.588 75.3826 494.827 76.399 498.173 75.2374C503.121 73.495 504.576 66.3801 506.322 62.024C508.65 56.3611 509.523 50.553 511.124 44.7449C513.888 46.197 516.508 46.3422 516.508 46.3422C516.508 46.3422 514.907 55.9255 514.179 58.1035C512.433 63.3308 506.467 80.7551 506.467 80.7551C506.467 80.7551 505.74 86.5631 505.594 90.6288C505.449 94.6945 506.904 104.133 504.285 104.859C501.957 105.73 483.477 105.294 483.04 104.568Z" fill="#3D4166"/>
<path d="M491.663 144.499L491.372 147.693C491.372 147.693 494.864 149.581 497.047 148.855C499.229 148.274 493.991 147.693 494.864 145.08C495.737 142.321 491.663 144.499 491.663 144.499Z" fill="#3D4166"/>
<path d="M488.316 144.499L488.607 147.693C488.607 147.693 485.114 149.581 482.932 148.855C480.749 148.274 485.987 147.693 485.114 145.08C484.241 142.321 488.316 144.499 488.316 144.499Z" fill="#3D4166"/>
<path d="M501.557 104.859H478.857C475.074 104.278 474.346 110.812 474.637 113.426C474.929 117.346 476.675 120.686 477.984 124.461C479.148 128.381 484.532 143.482 485.26 145.515C487.733 145.951 487.588 145.806 488.898 145.37C488.752 142.466 485.551 128.381 484.823 124.606C484.387 122.283 483.368 118.508 484.096 116.039C484.823 113.861 486.133 115.168 490.062 115.313C494.136 115.458 495.3 113.861 496.028 116.039C496.755 118.508 495.737 122.283 495.3 124.606C494.718 128.381 491.517 142.466 491.371 145.37C492.681 145.806 493.263 145.37 494.572 145.806C494.572 145.515 498.21 138.255 498.792 136.367C499.956 132.447 501.12 128.527 502.43 124.606C503.594 120.831 505.34 117.491 505.777 113.571C505.922 110.812 505.195 104.278 501.557 104.859Z" fill="#2E3054"/>
<path d="M502.576 104.713H477.693C473.5 104.5 472.746 110.667 473.037 113.28C473.473 117.201 475.365 120.54 476.675 124.316C477.984 128.236 483.95 143.337 484.678 145.225C487.297 145.66 487.297 145.515 488.752 145.08C488.607 142.175 485.114 128.091 484.387 124.316C483.95 121.992 482.786 118.217 483.514 115.749C484.241 113.571 485.696 114.878 490.062 115.023C494.427 115.168 495.882 113.571 496.61 115.749C497.483 118.217 496.319 121.992 495.737 124.316C495.009 128.091 491.371 142.175 491.371 145.08C492.826 145.515 493.408 145.08 494.864 145.515C495.009 145.225 498.792 137.965 499.52 136.077C500.83 132.157 502.139 128.236 503.594 124.316C504.904 120.54 506.795 117.201 507.232 113.28C507.523 110.667 507 104.713 502.576 104.713Z" fill="#5C75C3"/>
<path d="M494.827 95.5657L487.551 96.2917L492.062 87.7248L499.338 86.9987V87.4344L494.827 95.5657Z" fill="white"/>
<path d="M494.681 96.1465L487.406 96.8725L492.062 88.3056L499.192 87.5796L494.681 96.1465Z" fill="#7AB6F6"/>
<path d="M490.17 98.0341C490.025 98.0341 489.879 98.0341 489.734 98.1793C487.842 98.6149 486.242 98.1793 484.35 98.9053C484.495 98.4697 484.641 98.0341 484.641 97.7437C484.641 97.1629 481.003 96.8725 484.059 96.0013C485.805 95.4205 487.551 93.678 487.697 93.3876C487.988 93.0972 490.316 90.048 490.461 91.2096C490.461 91.9356 489.152 93.3876 490.898 92.952C492.062 92.6616 493.372 91.6452 494.39 91.6452C494.245 92.8068 492.208 93.3876 491.48 94.2589C492.79 94.1136 494.39 92.0808 495.845 92.5164C494.972 94.1136 492.935 94.8397 491.626 95.8561C492.935 95.7109 494.245 94.4041 495.409 94.6945C494.827 96.0013 492.79 96.0013 491.771 96.5821C492.353 96.5821 493.226 96.2917 493.663 96.7273C493.081 97.1629 492.208 97.3081 491.626 97.3081C491.189 97.7437 490.607 97.8889 490.17 98.0341Z" fill="#ECB49F"/>
<path d="M484.932 95.1301L485.514 98.7601C485.514 98.7601 478.093 106.891 475.328 106.02C472.564 105.149 472.272 101.955 474.455 95.2753C476.638 88.596 480.567 78.1414 482.895 76.399C482.895 76.399 485.514 74.5114 486.387 76.2538C487.26 78.1414 487.406 83.0783 485.077 84.9659C485.077 84.9659 478.529 94.9849 478.82 96.2917C479.111 97.5985 484.35 95.5657 484.35 95.5657L484.932 95.1301Z" fill="#2E3054"/>
</g>
<path opacity="0.65" d="M130.988 30.654C130.268 27.3249 128.48 28.469 125.482 27.4375C122.484 26.4153 123.359 22.7581 121.504 21.6328C119.025 20.1324 116.747 21.5203 115.21 23.4989C112.644 26.781 110.895 24.1085 107.83 25.4401C106.071 26.1996 106.821 27.2687 104.447 27.7C102.785 28.0001 100.998 27.2968 99.3543 27.7282C98.1435 28.047 97.2691 28.6097 97 29.7537C97.3459 29.9131 97.6919 30.0538 98.057 30.1851C102.631 31.798 108.877 31.2541 113.499 31.4979C115.085 31.5636 131.498 33.0171 130.988 30.654Z" fill="white"/>
<path opacity="0.65" d="M174.988 9.65396C174.268 6.32494 172.48 7.469 169.482 6.43747C166.484 5.41532 167.359 1.75809 165.504 0.632787C163.025 -0.867616 160.747 0.520256 159.21 2.49891C156.644 5.78104 154.895 3.10845 151.83 4.44006C150.071 5.19964 150.821 6.26868 148.447 6.70004C146.785 7.00012 144.998 6.29681 143.354 6.72817C142.144 7.04701 141.269 7.60966 141 8.75372C141.346 8.91314 141.692 9.0538 142.057 9.18508C146.631 10.798 152.877 10.2541 157.499 10.4979C159.085 10.5636 175.498 12.0171 174.988 9.65396Z" fill="white"/>
<defs>
<linearGradient id="paint0_linear" x1="227.991" y1="213.343" x2="292.372" y2="213.343" gradientUnits="userSpaceOnUse">
<stop stop-color="#9CFFFB"/>
<stop offset="1" stop-color="#9BFFFA"/>
</linearGradient>
<linearGradient id="paint1_linear" x1="257.239" y1="213.25" x2="312.666" y2="213.25" gradientUnits="userSpaceOnUse">
<stop stop-color="#9CFFFB"/>
<stop offset="1" stop-color="#9BFFFA"/>
</linearGradient>
<linearGradient id="paint2_linear" x1="279.116" y1="175.335" x2="302.197" y2="175.335" gradientUnits="userSpaceOnUse">
<stop stop-color="#9CFFFB"/>
<stop offset="1" stop-color="#9BFFFA"/>
</linearGradient>
<linearGradient id="paint3_linear" x1="273.405" y1="188.617" x2="296.485" y2="188.617" gradientUnits="userSpaceOnUse">
<stop stop-color="#9CFFFB"/>
<stop offset="1" stop-color="#9BFFFA"/>
</linearGradient>
<linearGradient id="paint4_linear" x1="264.511" y1="204.521" x2="288.952" y2="204.521" gradientUnits="userSpaceOnUse">
<stop stop-color="#9CFFFB"/>
<stop offset="1" stop-color="#9BFFFA"/>
</linearGradient>
<linearGradient id="paint5_linear" x1="285.779" y1="162.452" x2="307.877" y2="162.452" gradientUnits="userSpaceOnUse">
<stop stop-color="#9CFFFB"/>
<stop offset="1" stop-color="#9BFFFA"/>
</linearGradient>
<linearGradient id="paint6_linear" x1="255.042" y1="222.819" x2="281.451" y2="222.819" gradientUnits="userSpaceOnUse">
<stop stop-color="#9CFFFB"/>
<stop offset="1" stop-color="#9BFFFA"/>
</linearGradient>
<linearGradient id="paint7_linear" x1="247.443" y1="237.013" x2="275.646" y2="237.013" gradientUnits="userSpaceOnUse">
<stop stop-color="#9CFFFB"/>
<stop offset="1" stop-color="#9BFFFA"/>
</linearGradient>
<linearGradient id="paint8_linear" x1="263.75" y1="213.474" x2="262.378" y2="223.562" gradientUnits="userSpaceOnUse">
<stop stop-color="#2B3582"/>
<stop offset="1" stop-color="#150E42"/>
</linearGradient>
<linearGradient id="paint9_linear" x1="263.236" y1="221.089" x2="260.063" y2="241.179" gradientUnits="userSpaceOnUse">
<stop stop-color="#2B3582"/>
<stop offset="1" stop-color="#150E42"/>
</linearGradient>
<linearGradient id="paint10_linear" x1="257.751" y1="215.373" x2="261.802" y2="215.373" gradientUnits="userSpaceOnUse">
<stop stop-color="#F9B776"/>
<stop offset="1" stop-color="#F47960"/>
</linearGradient>
<linearGradient id="paint11_linear" x1="275.102" y1="201.09" x2="265.718" y2="208.915" gradientUnits="userSpaceOnUse">
<stop stop-color="#2B3582"/>
<stop offset="1" stop-color="#150E42"/>
</linearGradient>
<linearGradient id="paint12_linear" x1="271.982" y1="199.111" x2="282.533" y2="199.111" gradientUnits="userSpaceOnUse">
<stop stop-color="#2B3582"/>
<stop offset="1" stop-color="#150E42"/>
</linearGradient>
<linearGradient id="paint13_linear" x1="274.676" y1="192.77" x2="280.366" y2="192.77" gradientUnits="userSpaceOnUse">
<stop stop-color="#F9B776"/>
<stop offset="1" stop-color="#F47960"/>
</linearGradient>
<linearGradient id="paint14_linear" x1="286.948" y1="166.803" x2="245.322" y2="203.617" gradientUnits="userSpaceOnUse">
<stop stop-color="#2B3582"/>
<stop offset="1" stop-color="#150E42"/>
</linearGradient>
<linearGradient id="paint15_linear" x1="262.371" y1="186.64" x2="270.024" y2="170.355" gradientUnits="userSpaceOnUse">
<stop stop-color="#53D8FF"/>
<stop offset="1" stop-color="#3840F7"/>
</linearGradient>
<linearGradient id="paint16_linear" x1="295.558" y1="161.988" x2="303.869" y2="161.988" gradientUnits="userSpaceOnUse">
<stop stop-color="#F9B776"/>
<stop offset="1" stop-color="#F47960"/>
</linearGradient>
<linearGradient id="paint17_linear" x1="313.88" y1="181.129" x2="275.534" y2="126.514" gradientUnits="userSpaceOnUse">
<stop stop-color="#CB236D"/>
<stop offset="1" stop-color="#4C246D"/>
</linearGradient>
<linearGradient id="paint18_linear" x1="282.133" y1="129.165" x2="283.847" y2="123.613" gradientUnits="userSpaceOnUse">
<stop stop-color="#F9B776"/>
<stop offset="1" stop-color="#F47960"/>
</linearGradient>
<linearGradient id="paint19_linear" x1="290.48" y1="113.841" x2="278.097" y2="123.287" gradientUnits="userSpaceOnUse">
<stop stop-color="#F9B776"/>
<stop offset="1" stop-color="#F47960"/>
</linearGradient>
<linearGradient id="paint20_linear" x1="281.8" y1="106.356" x2="293.03" y2="120.771" gradientUnits="userSpaceOnUse">
<stop stop-color="#2B3582"/>
<stop offset="1" stop-color="#150E42"/>
</linearGradient>
<linearGradient id="paint21_linear" x1="288.947" y1="111.832" x2="276.564" y2="121.278" gradientUnits="userSpaceOnUse">
<stop stop-color="#F9B776"/>
<stop offset="1" stop-color="#F47960"/>
</linearGradient>
<linearGradient id="paint22_linear" x1="279.258" y1="119.386" x2="340.822" y2="220.532" gradientUnits="userSpaceOnUse">
<stop stop-color="#CB236D"/>
<stop offset="1" stop-color="#4C246D"/>
</linearGradient>
<linearGradient id="paint23_linear" x1="287.424" y1="134.625" x2="286.567" y2="148.605" gradientUnits="userSpaceOnUse">
<stop stop-color="#CB236D"/>
<stop offset="1" stop-color="#4C246D"/>
</linearGradient>
<linearGradient id="paint24_linear" x1="-363.562" y1="-737.043" x2="-345.939" y2="-715.419" gradientUnits="userSpaceOnUse">
<stop stop-color="#F9B776"/>
<stop offset="1" stop-color="#F47960"/>
</linearGradient>
<linearGradient id="paint25_linear" x1="458.406" y1="273.706" x2="418.061" y2="316.492" gradientUnits="userSpaceOnUse">
<stop stop-color="#2B3582"/>
<stop offset="1" stop-color="#150E42"/>
</linearGradient>
<linearGradient id="paint26_linear" x1="445.501" y1="276.807" x2="449.024" y2="276.841" gradientUnits="userSpaceOnUse">
<stop stop-color="#F9B776"/>
<stop offset="1" stop-color="#F47960"/>
</linearGradient>
<linearGradient id="paint27_linear" x1="461.996" y1="224.631" x2="427.531" y2="270.139" gradientUnits="userSpaceOnUse">
<stop stop-color="#FDF53F"/>
<stop offset="1" stop-color="#D93C65"/>
</linearGradient>
<linearGradient id="paint28_linear" x1="449.586" y1="265.387" x2="409.239" y2="308.175" gradientUnits="userSpaceOnUse">
<stop stop-color="#2B3582"/>
<stop offset="1" stop-color="#150E42"/>
</linearGradient>
<linearGradient id="paint29_linear" x1="432.804" y1="276.504" x2="435.846" y2="276.532" gradientUnits="userSpaceOnUse">
<stop stop-color="#F9B776"/>
<stop offset="1" stop-color="#F47960"/>
</linearGradient>
<linearGradient id="paint30_linear" x1="456.022" y1="220.107" x2="421.558" y2="265.614" gradientUnits="userSpaceOnUse">
<stop stop-color="#FDF53F"/>
<stop offset="1" stop-color="#D93C65"/>
</linearGradient>
<linearGradient id="paint31_linear" x1="441.793" y1="186.969" x2="462.898" y2="267.712" gradientUnits="userSpaceOnUse">
<stop stop-color="#CB236D"/>
<stop offset="1" stop-color="#4C246D"/>
</linearGradient>
<linearGradient id="paint32_linear" x1="460.877" y1="184.443" x2="478.878" y2="184.613" gradientUnits="userSpaceOnUse">
<stop stop-color="#F9B776"/>
<stop offset="1" stop-color="#F47960"/>
</linearGradient>
<linearGradient id="paint33_linear" x1="474.897" y1="181.54" x2="462.427" y2="209.022" gradientUnits="userSpaceOnUse">
<stop stop-color="#F9B776"/>
<stop offset="1" stop-color="#F47960"/>
</linearGradient>
<linearGradient id="paint34_linear" x1="478.907" y1="172.367" x2="484.066" y2="164.647" gradientUnits="userSpaceOnUse">
<stop stop-color="#F9B776"/>
<stop offset="1" stop-color="#F47960"/>
</linearGradient>
<linearGradient id="paint35_linear" x1="425.644" y1="191.19" x2="446.749" y2="271.933" gradientUnits="userSpaceOnUse">
<stop stop-color="#CB236D"/>
<stop offset="1" stop-color="#4C246D"/>
</linearGradient>
<linearGradient id="paint36_linear" x1="421.244" y1="209.723" x2="444.024" y2="209.938" gradientUnits="userSpaceOnUse">
<stop stop-color="#F9B776"/>
<stop offset="1" stop-color="#F47960"/>
</linearGradient>
<linearGradient id="paint37_linear" x1="438.968" y1="185.384" x2="447.975" y2="185.469" gradientUnits="userSpaceOnUse">
<stop stop-color="#F9B776"/>
<stop offset="1" stop-color="#F47960"/>
</linearGradient>
<linearGradient id="paint38_linear" x1="450.172" y1="179.724" x2="440.292" y2="173.608" gradientUnits="userSpaceOnUse">
<stop stop-color="#F9B776"/>
<stop offset="1" stop-color="#F47960"/>
</linearGradient>
<linearGradient id="paint39_linear" x1="435.145" y1="167.095" x2="447.905" y2="177.306" gradientUnits="userSpaceOnUse">
<stop stop-color="#2B3582"/>
<stop offset="1" stop-color="#150E42"/>
</linearGradient>
<linearGradient id="paint40_linear" x1="447.549" y1="181.966" x2="438.66" y2="176.463" gradientUnits="userSpaceOnUse">
<stop stop-color="#F9B776"/>
<stop offset="1" stop-color="#F47960"/>
</linearGradient>
<linearGradient id="paint41_linear" x1="450.133" y1="195.157" x2="462.853" y2="247.827" gradientUnits="userSpaceOnUse">
<stop stop-color="#2B3582"/>
<stop offset="1" stop-color="#150E42"/>
</linearGradient>
<linearGradient id="paint42_linear" x1="441.52" y1="209.101" x2="448.641" y2="209.101" gradientUnits="userSpaceOnUse">
<stop stop-color="#F9B776"/>
<stop offset="1" stop-color="#F47960"/>
</linearGradient>
<linearGradient id="paint43_linear" x1="455.199" y1="200.779" x2="453.298" y2="208.65" gradientUnits="userSpaceOnUse">
<stop stop-color="#53D8FF"/>
<stop offset="1" stop-color="#3840F7"/>
</linearGradient>
<linearGradient id="paint44_linear" x1="390.277" y1="252.512" x2="370.411" y2="297.189" gradientUnits="userSpaceOnUse">
<stop stop-color="#FDF53F"/>
<stop offset="0.6645" stop-color="#E57A58"/>
<stop offset="1" stop-color="#D93C65"/>
</linearGradient>
<linearGradient id="paint45_linear" x1="406.503" y1="259.727" x2="386.637" y2="304.404" gradientUnits="userSpaceOnUse">
<stop stop-color="#FDF53F"/>
<stop offset="0.6645" stop-color="#E57A58"/>
<stop offset="1" stop-color="#D93C65"/>
</linearGradient>
<linearGradient id="paint46_linear" x1="387.588" y1="278.779" x2="391.079" y2="262.129" gradientUnits="userSpaceOnUse">
<stop stop-color="#FDF53F"/>
<stop offset="0.6645" stop-color="#E57A58"/>
<stop offset="1" stop-color="#D93C65"/>
</linearGradient>
<linearGradient id="paint47_linear" x1="414.754" y1="282.559" x2="428.638" y2="282.559" gradientUnits="userSpaceOnUse">
<stop stop-color="#CB236D"/>
<stop offset="1" stop-color="#4C246D"/>
</linearGradient>
<linearGradient id="paint48_linear" x1="425.452" y1="255.693" x2="421.611" y2="282.061" gradientUnits="userSpaceOnUse">
<stop stop-color="#CB236D"/>
<stop offset="1" stop-color="#4C246D"/>
</linearGradient>
<linearGradient id="paint49_linear" x1="415.447" y1="278.348" x2="419.204" y2="278.348" gradientUnits="userSpaceOnUse">
<stop stop-color="#F9B776"/>
<stop offset="1" stop-color="#F47960"/>
</linearGradient>
<linearGradient id="paint50_linear" x1="436.53" y1="279.79" x2="447.74" y2="279.79" gradientUnits="userSpaceOnUse">
<stop stop-color="#CB236D"/>
<stop offset="1" stop-color="#4C246D"/>
</linearGradient>
<linearGradient id="paint51_linear" x1="444.241" y1="258.429" x2="440.401" y2="284.798" gradientUnits="userSpaceOnUse">
<stop stop-color="#CB236D"/>
<stop offset="1" stop-color="#4C246D"/>
</linearGradient>
<linearGradient id="paint52_linear" x1="394.675" y1="261.29" x2="424.413" y2="261.29" gradientUnits="userSpaceOnUse">
<stop stop-color="#2B3582"/>
<stop offset="1" stop-color="#150E42"/>
</linearGradient>
<linearGradient id="paint53_linear" x1="433.24" y1="278.666" x2="437.725" y2="278.666" gradientUnits="userSpaceOnUse">
<stop stop-color="#F9B776"/>
<stop offset="1" stop-color="#F47960"/>
</linearGradient>
<linearGradient id="paint54_linear" x1="421.688" y1="248.822" x2="388.809" y2="285.866" gradientUnits="userSpaceOnUse">
<stop stop-color="#2B3582"/>
<stop offset="1" stop-color="#150E42"/>
</linearGradient>
<linearGradient id="paint55_linear" x1="408.329" y1="215.068" x2="410.564" y2="209.467" gradientUnits="userSpaceOnUse">
<stop stop-color="#F9B776"/>
<stop offset="1" stop-color="#F47960"/>
</linearGradient>
<linearGradient id="paint56_linear" x1="399.183" y1="227.82" x2="423.76" y2="267.915" gradientUnits="userSpaceOnUse">
<stop stop-color="#FDF53F"/>
<stop offset="0.6645" stop-color="#E57A58"/>
<stop offset="1" stop-color="#D93C65"/>
</linearGradient>
<linearGradient id="paint57_linear" x1="427.219" y1="236.89" x2="437.579" y2="236.89" gradientUnits="userSpaceOnUse">
<stop stop-color="#F9B776"/>
<stop offset="1" stop-color="#F47960"/>
</linearGradient>
<linearGradient id="paint58_linear" x1="415.079" y1="203.657" x2="405.12" y2="213.528" gradientUnits="userSpaceOnUse">
<stop stop-color="#F9B776"/>
<stop offset="1" stop-color="#F47960"/>
</linearGradient>
<linearGradient id="paint59_linear" x1="406.471" y1="197.992" x2="418.2" y2="209.51" gradientUnits="userSpaceOnUse">
<stop stop-color="#2B3582"/>
<stop offset="1" stop-color="#150E42"/>
</linearGradient>
<linearGradient id="paint60_linear" x1="413.479" y1="202.042" x2="403.52" y2="211.913" gradientUnits="userSpaceOnUse">
<stop stop-color="#F9B776"/>
<stop offset="1" stop-color="#F47960"/>
</linearGradient>
<linearGradient id="paint61_linear" x1="-1792.81" y1="-2147.96" x2="-1756.01" y2="-2108.87" gradientUnits="userSpaceOnUse">
<stop stop-color="#2B3582"/>
<stop offset="1" stop-color="#150E42"/>
</linearGradient>
<linearGradient id="paint62_linear" x1="3537.66" y1="-795.539" x2="3486.75" y2="-778.962" gradientUnits="userSpaceOnUse">
<stop stop-color="#2B3582"/>
<stop offset="1" stop-color="#150E42"/>
</linearGradient>
<linearGradient id="paint63_linear" x1="503.587" y1="281.7" x2="508.364" y2="251.841" gradientUnits="userSpaceOnUse">
<stop stop-color="#53D8FF"/>
<stop offset="1" stop-color="#3840F7"/>
</linearGradient>
<linearGradient id="paint64_linear" x1="505.479" y1="282.002" x2="510.256" y2="252.144" gradientUnits="userSpaceOnUse">
<stop stop-color="#53D8FF"/>
<stop offset="1" stop-color="#3840F7"/>
</linearGradient>
<linearGradient id="paint65_linear" x1="501.833" y1="281.419" x2="506.61" y2="251.561" gradientUnits="userSpaceOnUse">
<stop stop-color="#53D8FF"/>
<stop offset="1" stop-color="#3840F7"/>
</linearGradient>
<linearGradient id="paint66_linear" x1="481.467" y1="262.683" x2="496.99" y2="262.683" gradientUnits="userSpaceOnUse">
<stop stop-color="#F9B776"/>
<stop offset="1" stop-color="#F47960"/>
</linearGradient>
<linearGradient id="paint67_linear" x1="490.965" y1="272.861" x2="488.653" y2="308.088" gradientUnits="userSpaceOnUse">
<stop stop-color="#CB236D"/>
<stop offset="1" stop-color="#4C246D"/>
</linearGradient>
<linearGradient id="paint68_linear" x1="463.241" y1="263.75" x2="495.997" y2="263.75" gradientUnits="userSpaceOnUse">
<stop stop-color="#F9B776"/>
<stop offset="1" stop-color="#F47960"/>
</linearGradient>
<linearGradient id="paint69_linear" x1="483.452" y1="246.555" x2="520.147" y2="246.555" gradientUnits="userSpaceOnUse">
<stop stop-color="#FDF53F"/>
<stop offset="0.6645" stop-color="#E57A58"/>
<stop offset="1" stop-color="#D93C65"/>
</linearGradient>
<linearGradient id="paint70_linear" x1="468.933" y1="271.415" x2="466.621" y2="306.642" gradientUnits="userSpaceOnUse">
<stop stop-color="#CB236D"/>
<stop offset="1" stop-color="#4C246D"/>
</linearGradient>
<linearGradient id="paint71_linear" x1="509.3" y1="184.878" x2="503.831" y2="213.431" gradientUnits="userSpaceOnUse">
<stop stop-color="#2B3582"/>
<stop offset="1" stop-color="#150E42"/>
</linearGradient>
<linearGradient id="paint72_linear" x1="499.613" y1="215.979" x2="517.199" y2="254.015" gradientUnits="userSpaceOnUse">
<stop stop-color="#FDF53F"/>
<stop offset="0.6645" stop-color="#E57A58"/>
<stop offset="1" stop-color="#D93C65"/>
</linearGradient>
<linearGradient id="paint73_linear" x1="500.359" y1="220.617" x2="498.12" y2="206.345" gradientUnits="userSpaceOnUse">
<stop stop-color="#F9B776"/>
<stop offset="1" stop-color="#F47960"/>
</linearGradient>
<linearGradient id="paint74_linear" x1="488.337" y1="205.483" x2="504.935" y2="199.919" gradientUnits="userSpaceOnUse">
<stop stop-color="#F9B776"/>
<stop offset="1" stop-color="#F47960"/>
</linearGradient>
<linearGradient id="paint75_linear" x1="484.801" y1="190.593" x2="504.29" y2="212.063" gradientUnits="userSpaceOnUse">
<stop stop-color="#2B3582"/>
<stop offset="1" stop-color="#150E42"/>
</linearGradient>
<linearGradient id="paint76_linear" x1="487.844" y1="204.011" x2="504.442" y2="198.447" gradientUnits="userSpaceOnUse">
<stop stop-color="#F9B776"/>
<stop offset="1" stop-color="#F47960"/>
</linearGradient>
<linearGradient id="paint77_linear" x1="509.438" y1="236.828" x2="540.208" y2="236.828" gradientUnits="userSpaceOnUse">
<stop stop-color="#F9B776"/>
<stop offset="1" stop-color="#F47960"/>
</linearGradient>
<linearGradient id="paint78_linear" x1="510.022" y1="233.64" x2="490.915" y2="239.867" gradientUnits="userSpaceOnUse">
<stop stop-color="#2B3582"/>
<stop offset="1" stop-color="#150E42"/>
</linearGradient>
<linearGradient id="paint79_linear" x1="483.806" y1="221.047" x2="469.971" y2="235.578" gradientUnits="userSpaceOnUse">
<stop stop-color="#2B3582"/>
<stop offset="1" stop-color="#150E42"/>
</linearGradient>
<linearGradient id="paint80_linear" x1="475.497" y1="224.687" x2="469.207" y2="234.101" gradientUnits="userSpaceOnUse">
<stop stop-color="#53D8FF"/>
<stop offset="1" stop-color="#3840F7"/>
</linearGradient>
<linearGradient id="paint81_linear" x1="526.824" y1="305.785" x2="526.619" y2="327.433" gradientUnits="userSpaceOnUse">
<stop stop-color="#2B3582"/>
<stop offset="1" stop-color="#150E42"/>
</linearGradient>
<linearGradient id="paint82_linear" x1="532.01" y1="281.61" x2="533.14" y2="272.83" gradientUnits="userSpaceOnUse">
<stop stop-color="#F9B776"/>
<stop offset="1" stop-color="#F47960"/>
</linearGradient>
<linearGradient id="paint83_linear" x1="555.888" y1="306.061" x2="555.683" y2="327.709" gradientUnits="userSpaceOnUse">
<stop stop-color="#2B3582"/>
<stop offset="1" stop-color="#150E42"/>
</linearGradient>
<linearGradient id="paint84_linear" x1="556.405" y1="284.62" x2="557.507" y2="276.064" gradientUnits="userSpaceOnUse">
<stop stop-color="#F9B776"/>
<stop offset="1" stop-color="#F47960"/>
</linearGradient>
<linearGradient id="paint85_linear" x1="564.007" y1="252.103" x2="530.528" y2="252.103" gradientUnits="userSpaceOnUse">
<stop stop-color="#2B3582"/>
<stop offset="1" stop-color="#150E42"/>
</linearGradient>
<linearGradient id="paint86_linear" x1="557.062" y1="246.934" x2="555.832" y2="244.49" gradientUnits="userSpaceOnUse">
<stop stop-color="#53D8FF"/>
<stop offset="1" stop-color="#3840F7"/>
</linearGradient>
<linearGradient id="paint87_linear" x1="537.025" y1="195.458" x2="558.166" y2="257.869" gradientUnits="userSpaceOnUse">
<stop stop-color="#CB236D"/>
<stop offset="1" stop-color="#4C246D"/>
</linearGradient>
<linearGradient id="paint88_linear" x1="532.299" y1="209.311" x2="524.841" y2="217.229" gradientUnits="userSpaceOnUse">
<stop stop-color="#CB236D"/>
<stop offset="1" stop-color="#4C246D"/>
</linearGradient>
<linearGradient id="paint89_linear" x1="548.185" y1="228.416" x2="532.94" y2="228.416" gradientUnits="userSpaceOnUse">
<stop stop-color="#F9B776"/>
<stop offset="1" stop-color="#F47960"/>
</linearGradient>
<linearGradient id="paint90_linear" x1="534.137" y1="209.186" x2="505.668" y2="209.186" gradientUnits="userSpaceOnUse">
<stop stop-color="#F9B776"/>
<stop offset="1" stop-color="#F47960"/>
</linearGradient>
<linearGradient id="paint91_linear" x1="544.386" y1="193.118" x2="534.414" y2="182.951" gradientUnits="userSpaceOnUse">
<stop stop-color="#F9B776"/>
<stop offset="1" stop-color="#F47960"/>
</linearGradient>
<linearGradient id="paint92_linear" x1="534.958" y1="174.33" x2="535.703" y2="196.473" gradientUnits="userSpaceOnUse">
<stop stop-color="#F9B776"/>
<stop offset="1" stop-color="#F47960"/>
</linearGradient>
<linearGradient id="paint93_linear" x1="540.806" y1="183.693" x2="527.789" y2="174.577" gradientUnits="userSpaceOnUse">
<stop stop-color="#2B3582"/>
<stop offset="1" stop-color="#150E42"/>
</linearGradient>
<linearGradient id="paint94_linear" x1="542.841" y1="197.042" x2="540.399" y2="181.888" gradientUnits="userSpaceOnUse">
<stop stop-color="#F9B776"/>
<stop offset="1" stop-color="#F47960"/>
</linearGradient>
<linearGradient id="paint95_linear" x1="549.282" y1="215.29" x2="555.055" y2="232.193" gradientUnits="userSpaceOnUse">
<stop stop-color="#CB236D"/>
<stop offset="1" stop-color="#4C246D"/>
</linearGradient>
<linearGradient id="paint96_linear" x1="412.194" y1="263.435" x2="430.088" y2="263.435" gradientUnits="userSpaceOnUse">
<stop stop-color="#9CFFFB"/>
<stop offset="1" stop-color="#9BFFFA"/>
</linearGradient>
<linearGradient id="paint97_linear" x1="414.261" y1="263.435" x2="432.155" y2="263.435" gradientUnits="userSpaceOnUse">
<stop stop-color="#9CFFFB"/>
<stop offset="1" stop-color="#9BFFFA"/>
</linearGradient>
<linearGradient id="paint98_linear" x1="523.062" y1="263.435" x2="540.956" y2="263.435" gradientUnits="userSpaceOnUse">
<stop stop-color="#9CFFFB"/>
<stop offset="1" stop-color="#9BFFFA"/>
</linearGradient>
<linearGradient id="paint99_linear" x1="525.128" y1="263.435" x2="543.022" y2="263.435" gradientUnits="userSpaceOnUse">
<stop stop-color="#9CFFFB"/>
<stop offset="1" stop-color="#9BFFFA"/>
</linearGradient>
<linearGradient id="paint100_linear" x1="530.172" y1="236.026" x2="550.911" y2="249.385" gradientUnits="userSpaceOnUse">
<stop stop-color="#53D8FF"/>
<stop offset="1" stop-color="#3840F7"/>
</linearGradient>
<linearGradient id="paint101_linear" x1="533.898" y1="251.613" x2="534" y2="245.494" gradientUnits="userSpaceOnUse">
<stop stop-color="#FDF53F"/>
<stop offset="0.6645" stop-color="#E57A58"/>
<stop offset="1" stop-color="#D93C65"/>
</linearGradient>
<linearGradient id="paint102_linear" x1="403.8" y1="242.129" x2="548.585" y2="242.129" gradientUnits="userSpaceOnUse">
<stop stop-color="#9CFFFB"/>
<stop offset="1" stop-color="#9BFFFA"/>
</linearGradient>
<linearGradient id="paint103_linear" x1="815.677" y1="180.501" x2="799.387" y2="216.043" gradientUnits="userSpaceOnUse">
<stop stop-color="#CB236D"/>
<stop offset="1" stop-color="#4C246D"/>
</linearGradient>
<linearGradient id="paint104_linear" x1="855.453" y1="222.848" x2="853.8" y2="205.476" gradientUnits="userSpaceOnUse">
<stop stop-color="#2B3582"/>
<stop offset="1" stop-color="#150E42"/>
</linearGradient>
<linearGradient id="paint105_linear" x1="789.988" y1="210.784" x2="847.05" y2="276.789" gradientUnits="userSpaceOnUse">
<stop stop-color="#2B3582"/>
<stop offset="1" stop-color="#150E42"/>
</linearGradient>
<linearGradient id="paint106_linear" x1="785.152" y1="212.747" x2="840.821" y2="277.851" gradientUnits="userSpaceOnUse">
<stop stop-color="#2B3582"/>
<stop offset="1" stop-color="#150E42"/>
</linearGradient>
<linearGradient id="paint107_linear" x1="819.202" y1="175.407" x2="816.464" y2="184.676" gradientUnits="userSpaceOnUse">
<stop stop-color="#CB236D"/>
<stop offset="1" stop-color="#4C246D"/>
</linearGradient>
<linearGradient id="paint108_linear" x1="812.644" y1="177.258" x2="805.184" y2="190.216" gradientUnits="userSpaceOnUse">
<stop stop-color="#CB236D"/>
<stop offset="1" stop-color="#4C246D"/>
</linearGradient>
<linearGradient id="paint109_linear" x1="809.533" y1="185.66" x2="803.828" y2="198.17" gradientUnits="userSpaceOnUse">
<stop stop-color="#CB236D"/>
<stop offset="1" stop-color="#4C246D"/>
</linearGradient>
<linearGradient id="paint110_linear" x1="857.186" y1="221.484" x2="857.108" y2="216.687" gradientUnits="userSpaceOnUse">
<stop stop-color="#2B3582"/>
<stop offset="1" stop-color="#150E42"/>
</linearGradient>
<clipPath id="clip0">
<rect x="380" y="165" width="184" height="124" fill="white"/>
</clipPath>
<clipPath id="clip1">
<rect x="473" y="34" width="47" height="115" fill="white"/>
</clipPath>
</defs>
</svg>
