<svg width="160" height="40" viewBox="0 0 160 40" fill="none" xmlns="http://www.w3.org/2000/svg">
<rect width="160" height="40" rx="20" fill="url(#paint0_linear)"/>
<path d="M57.9805 21.2969C57.8659 22.5104 57.418 23.4583 56.6367 24.1406C55.8555 24.8177 54.8164 25.1562 53.5195 25.1562C52.6133 25.1562 51.8138 24.9427 51.1211 24.5156C50.4336 24.0833 49.9023 23.4714 49.5273 22.6797C49.1523 21.888 48.957 20.9688 48.9414 19.9219V18.8594C48.9414 17.7865 49.1315 16.8411 49.5117 16.0234C49.8919 15.2057 50.4362 14.5755 51.1445 14.1328C51.8581 13.6901 52.681 13.4688 53.6133 13.4688C54.8685 13.4688 55.8789 13.8099 56.6445 14.4922C57.4102 15.1745 57.8555 16.138 57.9805 17.3828H56.0117C55.918 16.5651 55.6784 15.9766 55.293 15.6172C54.9128 15.2526 54.3529 15.0703 53.6133 15.0703C52.7539 15.0703 52.0924 15.3854 51.6289 16.0156C51.1706 16.6406 50.9362 17.5599 50.9258 18.7734V19.7812C50.9258 21.0104 51.1445 21.9479 51.582 22.5938C52.0247 23.2396 52.6706 23.5625 53.5195 23.5625C54.2956 23.5625 54.8789 23.388 55.2695 23.0391C55.6602 22.6901 55.9076 22.1094 56.0117 21.2969H57.9805ZM59.2148 20.6953C59.2148 19.8672 59.3789 19.1224 59.707 18.4609C60.0352 17.7943 60.4961 17.2839 61.0898 16.9297C61.6836 16.5703 62.3659 16.3906 63.1367 16.3906C64.2773 16.3906 65.2018 16.7578 65.9102 17.4922C66.6237 18.2266 67.0091 19.2005 67.0664 20.4141L67.0742 20.8594C67.0742 21.6927 66.9128 22.4375 66.5898 23.0938C66.2721 23.75 65.8138 24.2578 65.2148 24.6172C64.6211 24.9766 63.9336 25.1562 63.1523 25.1562C61.9596 25.1562 61.0039 24.7604 60.2852 23.9688C59.5716 23.1719 59.2148 22.112 59.2148 20.7891V20.6953ZM61.1133 20.8594C61.1133 21.7292 61.293 22.4115 61.6523 22.9062C62.0117 23.3958 62.5117 23.6406 63.1523 23.6406C63.793 23.6406 64.2904 23.3906 64.6445 22.8906C65.0039 22.3906 65.1836 21.6589 65.1836 20.6953C65.1836 19.8411 64.9987 19.1641 64.6289 18.6641C64.2643 18.1641 63.7669 17.9141 63.1367 17.9141C62.5169 17.9141 62.0247 18.1615 61.6602 18.6562C61.2956 19.1458 61.1133 19.8802 61.1133 20.8594ZM75.082 18.8594C75.082 19.2344 74.9674 19.5807 74.7383 19.8984C74.5143 20.2109 74.1966 20.4609 73.7852 20.6484C74.7539 20.987 75.2383 21.6406 75.2383 22.6094C75.2383 23.3854 74.9232 24.0052 74.293 24.4688C73.6628 24.9271 72.819 25.1562 71.7617 25.1562C71.1159 25.1562 70.5273 25.0495 69.9961 24.8359C69.4648 24.6172 69.0508 24.3099 68.7539 23.9141C68.457 23.513 68.3086 23.0391 68.3086 22.4922H70.1992C70.1992 22.8359 70.3529 23.125 70.6602 23.3594C70.9674 23.5885 71.3555 23.7031 71.8242 23.7031C72.2878 23.7031 72.6549 23.5964 72.9258 23.3828C73.2018 23.1641 73.3398 22.8802 73.3398 22.5312C73.3398 22.1198 73.2201 21.8229 72.9805 21.6406C72.7409 21.4583 72.3711 21.3672 71.8711 21.3672H70.5117V20H71.918C72.7669 19.9896 73.1914 19.6406 73.1914 18.9531C73.1914 18.6094 73.069 18.3411 72.8242 18.1484C72.5794 17.9557 72.2435 17.8594 71.8164 17.8594C71.3997 17.8594 71.0482 17.9635 70.7617 18.1719C70.4753 18.375 70.332 18.6328 70.332 18.9453H68.4414C68.4414 18.2005 68.7539 17.5911 69.3789 17.1172C70.0039 16.638 70.7982 16.3984 71.7617 16.3984C72.8086 16.3984 73.6237 16.612 74.207 17.0391C74.7904 17.4661 75.082 18.0729 75.082 18.8594ZM76.8867 23.4844C77.4128 22.8958 77.7643 22.3385 77.9414 21.8125C78.1237 21.2812 78.2331 20.6042 78.2695 19.7812L78.3789 16.5469H84.2461V23.4844H85.418V27.5156H83.5273V25H78.1055V27.5156H76.1836L76.1914 23.4844H76.8867ZM79.1133 23.4844H82.3555V18.1797H80.2227L80.168 19.7969C80.0951 21.349 79.7435 22.5781 79.1133 23.4844ZM91.8242 25C91.7409 24.8385 91.668 24.5755 91.6055 24.2109C91.0013 24.8411 90.2617 25.1562 89.3867 25.1562C88.5378 25.1562 87.8451 24.9141 87.3086 24.4297C86.7721 23.9453 86.5039 23.3464 86.5039 22.6328C86.5039 21.7318 86.8372 21.0417 87.5039 20.5625C88.1758 20.0781 89.1341 19.8359 90.3789 19.8359H91.543V19.2812C91.543 18.8438 91.4206 18.4948 91.1758 18.2344C90.931 17.9688 90.5586 17.8359 90.0586 17.8359C89.6263 17.8359 89.2721 17.9453 88.9961 18.1641C88.7201 18.3776 88.582 18.651 88.582 18.9844H86.6836C86.6836 18.5208 86.8372 18.0885 87.1445 17.6875C87.4518 17.2812 87.8685 16.9635 88.3945 16.7344C88.9258 16.5052 89.5169 16.3906 90.168 16.3906C91.1576 16.3906 91.9466 16.6406 92.5352 17.1406C93.1237 17.6354 93.4258 18.3333 93.4414 19.2344V23.0469C93.4414 23.8073 93.5482 24.4141 93.7617 24.8672V25H91.8242ZM89.7383 23.6328C90.1133 23.6328 90.4648 23.5417 90.793 23.3594C91.1263 23.1771 91.3763 22.9323 91.543 22.625V21.0312H90.5195C89.8164 21.0312 89.2878 21.1536 88.9336 21.3984C88.5794 21.6432 88.4023 21.9896 88.4023 22.4375C88.4023 22.8021 88.5221 23.0938 88.7617 23.3125C89.0065 23.526 89.332 23.6328 89.7383 23.6328ZM101.957 18.0547H99.2148V25H97.3164V18.0547H94.6055V16.5469H101.957V18.0547ZM105.27 19.2344H107.129C107.822 19.2344 108.426 19.3542 108.941 19.5938C109.457 19.8333 109.848 20.1693 110.113 20.6016C110.384 21.0339 110.52 21.5365 110.52 22.1094C110.52 22.9792 110.212 23.6771 109.598 24.2031C108.983 24.7292 108.165 24.9948 107.145 25H103.371V16.5469H105.27V19.2344ZM105.27 20.7578V23.4844H107.121C107.585 23.4844 107.949 23.3698 108.215 23.1406C108.486 22.9062 108.621 22.5755 108.621 22.1484C108.621 21.7214 108.488 21.3854 108.223 21.1406C107.962 20.8906 107.608 20.763 107.16 20.7578H105.27Z" fill="white"/>
<defs>
<linearGradient id="paint0_linear" x1="80" y1="-20" x2="61.1765" y2="55.2941" gradientUnits="userSpaceOnUse">
<stop stop-color="#BD7AE3"/>
<stop offset="1" stop-color="#8461C9"/>
</linearGradient>
</defs>
</svg>
