<svg width="884" height="617" viewBox="0 0 884 617" fill="none" xmlns="http://www.w3.org/2000/svg">
<path d="M47.0451 26C47.0451 38.4284 36.9844 48.5 24.5784 48.5C12.1723 48.5 2.11163 38.4284 2.11163 26C2.11163 13.5716 12.1723 3.5 24.5784 3.5C36.9844 3.5 47.0451 13.5716 47.0451 26Z" stroke="#FFEC40" stroke-width="3"/>
<rect x="25" width="26" height="52" fill="#FCFDFF"/>
<path d="M836.952 26C836.952 38.4284 847.013 48.5 859.419 48.5C871.825 48.5 881.886 38.4284 881.886 26C881.886 13.5716 871.825 3.5 859.419 3.5C847.013 3.5 836.952 13.5716 836.952 26Z" stroke="#FFEC40" stroke-width="3"/>
<rect width="26" height="52" transform="matrix(-1 0 0 1 861 0)" fill="#FCFDFF"/>
<line x1="39" y1="25.5" x2="848" y2="25.5001" stroke="#ECE9F1" stroke-width="3"/>
<path d="M24.5784 41C32.8511 41 39.5576 34.2843 39.5576 26C39.5576 17.7157 32.8511 11 24.5784 11C16.3056 11 9.59918 17.7157 9.59918 26C9.59918 34.2843 16.3056 41 24.5784 41Z" fill="#1E2F4F"/>
<path d="M859.419 41C851.146 41 844.44 34.2843 844.44 26C844.44 17.7157 851.146 11 859.419 11C867.692 11 874.398 17.7157 874.398 26C874.398 34.2843 867.692 41 859.419 41Z" fill="#1E2F4F"/>
<line x1="444.5" y1="27" x2="444.5" y2="587" stroke="#ECE9F1" stroke-width="3"/>
<path d="M443.031 178C457.39 178 469.031 166.359 469.031 152C469.031 137.641 457.39 126 443.031 126C428.671 126 417.031 137.641 417.031 152C417.031 166.359 428.671 178 443.031 178Z" fill="#FCFDFF" stroke="#FCFDFF" stroke-width="8"/>
<path d="M465.531 152C465.531 164.426 455.457 174.5 443.031 174.5C430.604 174.5 420.531 164.426 420.531 152C420.531 139.574 430.604 129.5 443.031 129.5C455.457 129.5 465.531 139.574 465.531 152Z" stroke="#FFEC40" stroke-width="3"/>
<path d="M443.031 167C451.315 167 458.031 160.284 458.031 152C458.031 143.716 451.315 137 443.031 137C434.746 137 428.03 143.716 428.03 152C428.03 160.284 434.746 167 443.031 167Z" fill="#1E2F4F"/>
<path d="M443.031 322C457.39 322 469.031 310.359 469.031 296C469.031 281.641 457.39 270 443.031 270C428.671 270 417.031 281.641 417.031 296C417.031 310.359 428.671 322 443.031 322Z" fill="#FCFDFF" stroke="#FCFDFF" stroke-width="8"/>
<path d="M465.531 296C465.531 308.426 455.457 318.5 443.031 318.5C430.604 318.5 420.531 308.426 420.531 296C420.531 283.574 430.604 273.5 443.031 273.5C455.457 273.5 465.531 283.574 465.531 296Z" stroke="#FFEC40" stroke-width="3"/>
<path d="M443.031 311C451.315 311 458.031 304.284 458.031 296C458.031 287.716 451.315 281 443.031 281C434.746 281 428.03 287.716 428.03 296C428.03 304.284 434.746 311 443.031 311Z" fill="#1E2F4F"/>
<path d="M443.031 468C457.39 468 469.031 456.359 469.031 442C469.031 427.641 457.39 416 443.031 416C428.671 416 417.031 427.641 417.031 442C417.031 456.359 428.671 468 443.031 468Z" fill="#FCFDFF" stroke="#FCFDFF" stroke-width="8"/>
<path d="M465.531 442C465.531 454.426 455.457 464.5 443.031 464.5C430.604 464.5 420.531 454.426 420.531 442C420.531 429.574 430.604 419.5 443.031 419.5C455.457 419.5 465.531 429.574 465.531 442Z" stroke="#FFEC40" stroke-width="3"/>
<path d="M443.031 457C451.315 457 458.031 450.284 458.031 442C458.031 433.716 451.315 427 443.031 427C434.746 427 428.03 433.716 428.03 442C428.03 450.284 434.746 457 443.031 457Z" fill="#1E2F4F"/>
<path d="M443.031 613C457.39 613 469.031 601.359 469.031 587C469.031 572.641 457.39 561 443.031 561C428.671 561 417.031 572.641 417.031 587C417.031 601.359 428.671 613 443.031 613Z" fill="#FCFDFF" stroke="#FCFDFF" stroke-width="8"/>
<path d="M465.531 587C465.531 599.426 455.457 609.5 443.031 609.5C430.604 609.5 420.531 599.426 420.531 587C420.531 574.574 430.604 564.5 443.031 564.5C455.457 564.5 465.531 574.574 465.531 587Z" stroke="#FFEC40" stroke-width="3"/>
<path d="M443.031 602C451.315 602 458.031 595.284 458.031 587C458.031 578.716 451.315 572 443.031 572C434.746 572 428.03 578.716 428.03 587C428.03 595.284 434.746 602 443.031 602Z" fill="#1E2F4F"/>
</svg>
