<svg width="160" height="40" viewBox="0 0 160 40" fill="none" xmlns="http://www.w3.org/2000/svg">
<rect width="160" height="40" rx="20" fill="url(#paint0_linear)"/>
<path d="M26.3721 25V13.625H30.2705C31.557 13.625 32.5361 13.8828 33.208 14.3984C33.8799 14.9141 34.2158 15.6823 34.2158 16.7031C34.2158 17.224 34.0752 17.6927 33.7939 18.1094C33.5127 18.526 33.1012 18.849 32.5596 19.0781C33.1742 19.2448 33.6481 19.5599 33.9814 20.0234C34.32 20.4818 34.4893 21.0339 34.4893 21.6797C34.4893 22.7474 34.1455 23.5677 33.458 24.1406C32.7757 24.7135 31.7965 25 30.5205 25H26.3721ZM28.3486 19.8672V23.4219H30.5439C31.1637 23.4219 31.6481 23.2682 31.9971 22.9609C32.346 22.6536 32.5205 22.2266 32.5205 21.6797C32.5205 20.4974 31.9163 19.8932 30.708 19.8672H28.3486ZM28.3486 18.4141H30.2861C30.9007 18.4141 31.3799 18.276 31.7236 18C32.0726 17.7188 32.2471 17.3229 32.2471 16.8125C32.2471 16.25 32.0856 15.8438 31.7627 15.5938C31.445 15.3438 30.9476 15.2188 30.2705 15.2188H28.3486V18.4141ZM38.3252 19.2344H40.1846C40.8773 19.2344 41.4814 19.3542 41.9971 19.5938C42.5127 19.8333 42.9033 20.1693 43.1689 20.6016C43.4398 21.0339 43.5752 21.5365 43.5752 22.1094C43.5752 22.9792 43.2679 23.6771 42.6533 24.2031C42.0387 24.7292 41.221 24.9948 40.2002 25H36.4268V16.5469H38.3252V19.2344ZM46.8799 25H44.9814V16.5469H46.8799V25ZM38.3252 20.7578V23.4844H40.1768C40.6403 23.4844 41.0049 23.3698 41.2705 23.1406C41.5413 22.9062 41.6768 22.5755 41.6768 22.1484C41.6768 21.7214 41.5439 21.3854 41.2783 21.1406C41.0179 20.8906 40.6637 20.763 40.2158 20.7578H38.3252ZM53.1377 17.0156C54.2002 17.0156 55.0518 17.3724 55.6924 18.0859C56.333 18.7943 56.6533 19.7578 56.6533 20.9766V21.0703C56.6533 22.2891 56.3044 23.276 55.6064 24.0312C54.9137 24.7865 53.971 25.1641 52.7783 25.1641C51.6169 25.1641 50.6794 24.7786 49.9658 24.0078C49.2523 23.237 48.8955 22.1849 48.8955 20.8516V20.3047C48.8955 18.4818 49.2184 17.0391 49.8643 15.9766C50.5101 14.9141 51.4736 14.25 52.7549 13.9844C53.4736 13.8385 53.9372 13.6849 54.1455 13.5234C54.359 13.3568 54.4658 13.1328 54.4658 12.8516H55.9971C55.9971 13.3776 55.9111 13.8047 55.7393 14.1328C55.5674 14.4609 55.3044 14.7292 54.9502 14.9375C54.596 15.1406 53.9867 15.3333 53.1221 15.5156C52.3304 15.6823 51.7262 15.9792 51.3096 16.4062C50.8981 16.8333 50.6221 17.4245 50.4814 18.1797C51.2367 17.4036 52.1221 17.0156 53.1377 17.0156ZM52.7627 18.5391C52.1481 18.5391 51.6663 18.7474 51.3174 19.1641C50.9684 19.5755 50.7939 20.2109 50.7939 21.0703C50.7939 21.8828 50.9658 22.5156 51.3096 22.9688C51.6533 23.4219 52.1429 23.6484 52.7783 23.6484C53.4085 23.6484 53.8955 23.4219 54.2393 22.9688C54.5882 22.5104 54.7627 21.8229 54.7627 20.9062C54.7627 20.1771 54.5882 19.6016 54.2393 19.1797C53.8955 18.7526 53.4033 18.5391 52.7627 18.5391ZM65.4033 20.8594C65.4033 22.1667 65.1064 23.2109 64.5127 23.9922C63.9189 24.7682 63.1221 25.1562 62.1221 25.1562C61.195 25.1562 60.4528 24.8516 59.8955 24.2422V28.25H57.9971V16.5469H59.7471L59.8252 17.4062C60.3825 16.7292 61.1403 16.3906 62.0986 16.3906C63.1299 16.3906 63.9372 16.776 64.5205 17.5469C65.109 18.3125 65.4033 19.3776 65.4033 20.7422V20.8594ZM63.5127 20.6953C63.5127 19.8516 63.3434 19.1823 63.0049 18.6875C62.6715 18.1927 62.1924 17.9453 61.5674 17.9453C60.7913 17.9453 60.234 18.2656 59.8955 18.9062V22.6562C60.2393 23.3125 60.8018 23.6406 61.583 23.6406C62.1872 23.6406 62.6585 23.3984 62.9971 22.9141C63.3408 22.4245 63.5127 21.6849 63.5127 20.6953ZM72.0674 25C71.984 24.8385 71.9111 24.5755 71.8486 24.2109C71.2445 24.8411 70.5049 25.1562 69.6299 25.1562C68.7809 25.1562 68.0882 24.9141 67.5518 24.4297C67.0153 23.9453 66.7471 23.3464 66.7471 22.6328C66.7471 21.7318 67.0804 21.0417 67.7471 20.5625C68.4189 20.0781 69.3773 19.8359 70.6221 19.8359H71.7861V19.2812C71.7861 18.8438 71.6637 18.4948 71.4189 18.2344C71.1742 17.9688 70.8018 17.8359 70.3018 17.8359C69.8695 17.8359 69.5153 17.9453 69.2393 18.1641C68.9632 18.3776 68.8252 18.651 68.8252 18.9844H66.9268C66.9268 18.5208 67.0804 18.0885 67.3877 17.6875C67.695 17.2812 68.1117 16.9635 68.6377 16.7344C69.1689 16.5052 69.7601 16.3906 70.4111 16.3906C71.4007 16.3906 72.1898 16.6406 72.7783 17.1406C73.3669 17.6354 73.6689 18.3333 73.6846 19.2344V23.0469C73.6846 23.8073 73.7913 24.4141 74.0049 24.8672V25H72.0674ZM69.9814 23.6328C70.3564 23.6328 70.708 23.5417 71.0361 23.3594C71.3695 23.1771 71.6195 22.9323 71.7861 22.625V21.0312H70.7627C70.0596 21.0312 69.5309 21.1536 69.1768 21.3984C68.8226 21.6432 68.6455 21.9896 68.6455 22.4375C68.6455 22.8021 68.7653 23.0938 69.0049 23.3125C69.2497 23.526 69.5752 23.6328 69.9814 23.6328ZM82.2002 18.0547H79.458V25H77.5596V18.0547H74.8486V16.5469H82.2002V18.0547ZM85.5127 19.2344H87.3721C88.0648 19.2344 88.6689 19.3542 89.1846 19.5938C89.7002 19.8333 90.0908 20.1693 90.3564 20.6016C90.6273 21.0339 90.7627 21.5365 90.7627 22.1094C90.7627 22.9792 90.4554 23.6771 89.8408 24.2031C89.2262 24.7292 88.4085 24.9948 87.3877 25H83.6143V16.5469H85.5127V19.2344ZM85.5127 20.7578V23.4844H87.3643C87.8278 23.4844 88.1924 23.3698 88.458 23.1406C88.7288 22.9062 88.8643 22.5755 88.8643 22.1484C88.8643 21.7214 88.7314 21.3854 88.4658 21.1406C88.2054 20.8906 87.8512 20.763 87.4033 20.7578H85.5127ZM95.9502 20.8906C95.9502 19.5104 96.221 18.4167 96.7627 17.6094C97.3096 16.7969 98.07 16.3906 99.0439 16.3906C99.4398 16.3906 99.7992 16.4635 100.122 16.6094V13H102.013V16.6406C102.346 16.474 102.737 16.3906 103.185 16.3906C104.153 16.3906 104.911 16.7943 105.458 17.6016C106.01 18.4036 106.286 19.5547 106.286 21.0547C106.286 22.3203 106.01 23.3203 105.458 24.0547C104.906 24.7891 104.153 25.1562 103.2 25.1562C102.768 25.1562 102.372 25.0781 102.013 24.9219V28.25H100.122V24.9531C99.8044 25.0885 99.4398 25.1562 99.0283 25.1562C98.1169 25.1562 97.3877 24.8203 96.8408 24.1484C96.2992 23.4714 96.0049 22.5417 95.958 21.3594L95.9502 20.8906ZM104.388 20.8906C104.388 19.9427 104.237 19.2109 103.935 18.6953C103.632 18.1745 103.205 17.9141 102.653 17.9141C102.419 17.9141 102.205 17.9479 102.013 18.0156V23.5625C102.185 23.6146 102.403 23.6406 102.669 23.6406C103.815 23.6406 104.388 22.724 104.388 20.8906ZM97.8408 21.0547C97.8408 21.8984 97.9814 22.5417 98.2627 22.9844C98.5439 23.4219 98.9606 23.6406 99.5127 23.6406C99.7471 23.6406 99.9502 23.6146 100.122 23.5625V17.9922C99.945 17.9401 99.7471 17.9141 99.5283 17.9141C98.9867 17.9141 98.57 18.1667 98.2783 18.6719C97.9867 19.1719 97.8408 19.9661 97.8408 21.0547ZM112.974 25C112.89 24.8385 112.817 24.5755 112.755 24.2109C112.151 24.8411 111.411 25.1562 110.536 25.1562C109.687 25.1562 108.994 24.9141 108.458 24.4297C107.922 23.9453 107.653 23.3464 107.653 22.6328C107.653 21.7318 107.987 21.0417 108.653 20.5625C109.325 20.0781 110.284 19.8359 111.528 19.8359H112.692V19.2812C112.692 18.8438 112.57 18.4948 112.325 18.2344C112.08 17.9688 111.708 17.8359 111.208 17.8359C110.776 17.8359 110.422 17.9453 110.146 18.1641C109.869 18.3776 109.731 18.651 109.731 18.9844H107.833C107.833 18.5208 107.987 18.0885 108.294 17.6875C108.601 17.2812 109.018 16.9635 109.544 16.7344C110.075 16.5052 110.666 16.3906 111.317 16.3906C112.307 16.3906 113.096 16.6406 113.685 17.1406C114.273 17.6354 114.575 18.3333 114.591 19.2344V23.0469C114.591 23.8073 114.698 24.4141 114.911 24.8672V25H112.974ZM110.888 23.6328C111.263 23.6328 111.614 23.5417 111.942 23.3594C112.276 23.1771 112.526 22.9323 112.692 22.625V21.0312H111.669C110.966 21.0312 110.437 21.1536 110.083 21.3984C109.729 21.6432 109.552 21.9896 109.552 22.4375C109.552 22.8021 109.672 23.0938 109.911 23.3125C110.156 23.526 110.481 23.6328 110.888 23.6328ZM121.856 16.5469H123.747V25H121.856V19.3594L118.544 25H116.653V16.5469H118.544V22.1875L121.856 16.5469ZM122.747 13.3047C122.747 13.9609 122.518 14.4922 122.06 14.8984C121.601 15.3047 120.989 15.5078 120.224 15.5078C119.458 15.5078 118.846 15.3047 118.388 14.8984C117.929 14.4922 117.7 13.9609 117.7 13.3047H119.122C119.122 13.6484 119.218 13.9167 119.411 14.1094C119.609 14.2969 119.88 14.3906 120.224 14.3906C120.567 14.3906 120.836 14.2969 121.028 14.1094C121.221 13.9167 121.317 13.6484 121.317 13.3047H122.747ZM132.95 16.5469V25H131.052V18.0781H128.661L128.505 21.0234C128.406 22.4401 128.132 23.4583 127.685 24.0781C127.242 24.6927 126.562 25 125.646 25H125.06L125.052 23.4219L125.442 23.3828C125.859 23.3255 126.161 23.0729 126.349 22.625C126.541 22.1719 126.664 21.349 126.716 20.1562L126.872 16.5469H132.95Z" fill="white"/>
<defs>
<linearGradient id="paint0_linear" x1="80" y1="-20" x2="61.1765" y2="55.2941" gradientUnits="userSpaceOnUse">
<stop stop-color="#BD7AE3"/>
<stop offset="1" stop-color="#8461C9"/>
</linearGradient>
</defs>
</svg>
