<svg width="48" height="48" viewBox="0 0 48 48" fill="none" xmlns="http://www.w3.org/2000/svg">
<path d="M32.25 31.5C40.9485 31.5 48 24.4485 48 15.75C48 7.05152 40.9485 0 32.25 0C23.5515 0 16.5 7.05152 16.5 15.75C16.5 24.4485 23.5515 31.5 32.25 31.5Z" fill="#FFEC40"/>
<path d="M16.5 31.5C14.85 31.5 13.5 30.15 13.5 28.5H15C15 29.325 15.675 30 16.5 30C17.325 30 18 29.325 18 28.5C18 28.05 16.95 27.3 16.2 26.925C15.75 26.7 13.5 25.65 13.5 24C13.5 22.35 14.85 21 16.5 21C18.15 21 19.5 22.35 19.5 24H18C18 23.175 17.325 22.5 16.5 22.5C15.675 22.5 15 23.175 15 24C15 24.45 16.05 25.2 16.8 25.575C17.25 25.8 19.5 26.85 19.5 28.5C19.5 30.15 18.15 31.5 16.5 31.5Z" fill="#1E2F4F"/>
<path d="M17.25 19.5H15.75V21.75H17.25V19.5Z" fill="#1E2F4F"/>
<path d="M17.25 30.75H15.75V33H17.25V30.75Z" fill="#1E2F4F"/>
<path d="M22.5 25.5H21V27H22.5V25.5Z" fill="#1E2F4F"/>
<path d="M12 25.5H10.5V27H12V25.5Z" fill="#1E2F4F"/>
<path d="M19.5 48H5.25C2.325 48 0 45.675 0 42.75V30.75C0 17.55 5.775 14.4 9.6 12.375C10.65 11.775 11.625 11.325 12.225 10.725L13.275 11.775C12.525 12.525 11.475 13.05 10.35 13.725C6.6 15.675 1.5 18.45 1.5 30.75V42.75C1.5 44.85 3.15 46.5 5.25 46.5H19.5V48Z" fill="#1E2F4F"/>
<path d="M32.9996 30H31.4996C31.4996 17.85 26.4746 15.45 22.8746 13.725C21.6746 13.125 20.5496 12.6 19.7246 11.775L20.7746 10.725C21.3746 11.325 22.3496 11.775 23.4746 12.375C27.2996 14.175 32.9996 16.875 32.9996 30Z" fill="#1E2F4F"/>
<path d="M20.25 12H12.75C11.925 12 11.25 11.325 11.25 10.5V9C11.25 8.175 11.925 7.5 12.75 7.5H20.25C21.075 7.5 21.75 8.175 21.75 9V10.5C21.75 11.325 21.075 12 20.25 12ZM12.75 9V10.5H20.25V9H12.75Z" fill="#1E2F4F"/>
<path d="M19.5004 8.99999H13.5004C13.2004 8.99999 12.9754 8.84999 12.8254 8.54999L9.82545 2.54999C9.67545 2.17499 9.82545 1.72499 10.1254 1.57499L13.1254 0.0749878C13.3504 -1.22078e-05 13.5754 -1.22078e-05 13.8004 0.0749878L16.5004 1.42499L19.2004 0.0749878C19.4254 -1.22078e-05 19.6504 -1.22078e-05 19.8754 0.0749878L22.8754 1.57499C23.2504 1.72499 23.4004 2.17499 23.1754 2.54999L20.1754 8.54999C20.0254 8.84999 19.8004 8.99999 19.5004 8.99999ZM13.9504 7.49999H19.0504L21.5254 2.54999L19.5004 1.57499L16.8004 2.92499C16.5754 2.99999 16.3504 2.99999 16.1254 2.92499L13.5004 1.57499L11.4754 2.54999L13.9504 7.49999Z" fill="#1E2F4F"/>
<path d="M21 10.5V9C22.275 9 23.25 8.025 23.25 6.75H24.75C24.75 8.85 23.1 10.5 21 10.5Z" fill="#1E2F4F"/>
<path d="M12 10.5C9.9 10.5 8.25 8.85 8.25 6.75H9.75C9.75 8.025 10.725 9 12 9V10.5Z" fill="#1E2F4F"/>
<path d="M16.5 36C11.1 36 6.75 31.65 6.75 26.25C6.75 20.85 11.1 16.5 16.5 16.5C21.9 16.5 26.25 20.85 26.25 26.25C26.25 31.65 21.9 36 16.5 36ZM16.5 18C11.925 18 8.25 21.675 8.25 26.25C8.25 30.825 11.925 34.5 16.5 34.5C21.075 34.5 24.75 30.825 24.75 26.25C24.75 21.675 21.075 18 16.5 18Z" fill="#1E2F4F"/>
<path d="M28.5 48H22.5C21.675 48 21 47.325 21 46.5V45C21 44.175 21.675 43.5 22.5 43.5H28.5C29.325 43.5 30 44.175 30 45V46.5C30 47.325 29.325 48 28.5 48ZM22.5 45V46.5H28.5V45H22.5Z" fill="#1E2F4F"/>
<path d="M28.5 45H22.5C21.675 45 21 44.325 21 43.5V42C21 41.175 21.675 40.5 22.5 40.5H28.5C29.325 40.5 30 41.175 30 42V43.5C30 44.325 29.325 45 28.5 45ZM22.5 42V43.5H28.5V42H22.5Z" fill="#1E2F4F"/>
<path d="M28.5 42H22.5C21.675 42 21 41.325 21 40.5V39C21 38.175 21.675 37.5 22.5 37.5H28.5C29.325 37.5 30 38.175 30 39V40.5C30 41.325 29.325 42 28.5 42ZM22.5 39V40.5H28.5V39H22.5Z" fill="#1E2F4F"/>
<path d="M36 48H30C29.175 48 28.5 47.325 28.5 46.5V45C28.5 44.175 29.175 43.5 30 43.5H36C36.825 43.5 37.5 44.175 37.5 45V46.5C37.5 47.325 36.825 48 36 48ZM30 45V46.5H36V45H30Z" fill="#1E2F4F"/>
<path d="M36 45H30C29.175 45 28.5 44.325 28.5 43.5V42C28.5 41.175 29.175 40.5 30 40.5H36C36.825 40.5 37.5 41.175 37.5 42V43.5C37.5 44.325 36.825 45 36 45ZM30 42V43.5H36V42H30Z" fill="#1E2F4F"/>
<path d="M36 42H30C29.175 42 28.5 41.325 28.5 40.5V39C28.5 38.175 29.175 37.5 30 37.5H36C36.825 37.5 37.5 38.175 37.5 39V40.5C37.5 41.325 36.825 42 36 42ZM30 39V40.5H36V39H30Z" fill="#1E2F4F"/>
<path d="M36 39H30C29.175 39 28.5 38.325 28.5 37.5V36C28.5 35.175 29.175 34.5 30 34.5H36C36.825 34.5 37.5 35.175 37.5 36V37.5C37.5 38.325 36.825 39 36 39ZM30 36V37.5H36V36H30Z" fill="#1E2F4F"/>
<path d="M36 36H30C29.175 36 28.5 35.325 28.5 34.5V33C28.5 32.175 29.175 31.5 30 31.5H36C36.825 31.5 37.5 32.175 37.5 33V34.5C37.5 35.325 36.825 36 36 36ZM30 33V34.5H36V33H30Z" fill="#1E2F4F"/>
<path d="M43.5 48H37.5C36.675 48 36 47.325 36 46.5V45C36 44.175 36.675 43.5 37.5 43.5H43.5C44.325 43.5 45 44.175 45 45V46.5C45 47.325 44.325 48 43.5 48ZM37.5 45V46.5H43.5V45H37.5Z" fill="#1E2F4F"/>
<path d="M43.5 45H37.5C36.675 45 36 44.325 36 43.5V42C36 41.175 36.675 40.5 37.5 40.5H43.5C44.325 40.5 45 41.175 45 42V43.5C45 44.325 44.325 45 43.5 45ZM37.5 42V43.5H43.5V42H37.5Z" fill="#1E2F4F"/>
<path d="M43.5 42H37.5C36.675 42 36 41.325 36 40.5V39C36 38.175 36.675 37.5 37.5 37.5H43.5C44.325 37.5 45 38.175 45 39V40.5C45 41.325 44.325 42 43.5 42ZM37.5 39V40.5H43.5V39H37.5Z" fill="#1E2F4F"/>
<path d="M43.5 39H37.5C36.675 39 36 38.325 36 37.5V36C36 35.175 36.675 34.5 37.5 34.5H43.5C44.325 34.5 45 35.175 45 36V37.5C45 38.325 44.325 39 43.5 39ZM37.5 36V37.5H43.5V36H37.5Z" fill="#1E2F4F"/>
<path d="M43.5 36H37.5C36.675 36 36 35.325 36 34.5V33C36 32.175 36.675 31.5 37.5 31.5H43.5C44.325 31.5 45 32.175 45 33V34.5C45 35.325 44.325 36 43.5 36ZM37.5 33V34.5H43.5V33H37.5Z" fill="#1E2F4F"/>
<path d="M43.5 33H37.5C36.675 33 36 32.325 36 31.5V30C36 29.175 36.675 28.5 37.5 28.5H43.5C44.325 28.5 45 29.175 45 30V31.5C45 32.325 44.325 33 43.5 33ZM37.5 30V31.5H43.5V30H37.5Z" fill="#1E2F4F"/>
<path d="M43.5 30H37.5C36.675 30 36 29.325 36 28.5V27C36 26.175 36.675 25.5 37.5 25.5H43.5C44.325 25.5 45 26.175 45 27V28.5C45 29.325 44.325 30 43.5 30ZM37.5 27V28.5H43.5V27H37.5Z" fill="#1E2F4F"/>
<path d="M43.5 22.5H37.5C36.675 22.5 36 21.825 36 21V19.5C36 18.675 36.675 18 37.5 18H43.5C44.325 18 45 18.675 45 19.5V21C45 21.825 44.325 22.5 43.5 22.5ZM37.5 19.5V21H43.5V19.5H37.5Z" fill="#1E2F4F"/>
<path d="M39.75 10.5H38.25V16.5H39.75V10.5Z" fill="#1E2F4F"/>
<path d="M42.75 6H41.25V12H42.75V6Z" fill="#1E2F4F"/>
<path d="M39.75 7.5H38.25V9H39.75V7.5Z" fill="#1E2F4F"/>
<path d="M42.75 13.5H41.25V15H42.75V13.5Z" fill="#1E2F4F"/>
</svg>
