<svg width="48" height="48" viewBox="0 0 48 48" fill="none" xmlns="http://www.w3.org/2000/svg">
<path d="M33 30C41.2843 30 48 23.2843 48 15C48 6.71573 41.2843 0 33 0C24.7157 0 18 6.71573 18 15C18 23.2843 24.7157 30 33 30Z" fill="#FFEC40"/>
<path d="M10.5 28.5H9V5.25H15V6.75H10.5V28.5Z" fill="#222829"/>
<path d="M40.5 48H33V46.5H39V6.75H34.5V5.25H40.5V48Z" fill="#222829"/>
<path d="M33 8.25H16.5V3.75H20.325C20.625 1.575 22.425 0 24.75 0C27.075 0 28.875 1.575 29.175 3.75H33V8.25ZM18 6.75H31.5V5.25H27.75V4.5C27.75 2.775 26.475 1.5 24.75 1.5C23.025 1.5 21.75 2.775 21.75 4.5V5.25H18V6.75Z" fill="#222829"/>
<path d="M25.5 3.75H24V5.25H25.5V3.75Z" fill="#222829"/>
<path d="M13.5 6H12V27H13.5V6Z" fill="#222829"/>
<path d="M37.5 6H36V33.75H37.5V6Z" fill="#222829"/>
<path d="M18 15H16.5V16.5H18V15Z" fill="#222829"/>
<path d="M33 15H19.5V16.5H33V15Z" fill="#222829"/>
<path d="M18 18H16.5V19.5H18V18Z" fill="#222829"/>
<path d="M33 18H19.5V19.5H33V18Z" fill="#222829"/>
<path d="M18 12H16.5V13.5H18V12Z" fill="#222829"/>
<path d="M33 12H19.5V13.5H33V12Z" fill="#222829"/>
<path d="M18 21H16.5V22.5H18V21Z" fill="#222829"/>
<path d="M33 21H19.5V22.5H33V21Z" fill="#222829"/>
<path d="M18 24H16.5V25.5H18V24Z" fill="#222829"/>
<path d="M33 24H19.5V25.5H33V24Z" fill="#222829"/>
<path d="M48 48H43.5V7.35L44.55 5.25H46.95L48 7.35V48ZM45 46.5H46.5V7.65L46.05 6.75H45.45L45 7.65V46.5Z" fill="#222829"/>
<path d="M46.5 3.75H45V6H46.5V3.75Z" fill="#222829"/>
<path d="M47.25 11.25H44.25V12.75H47.25V11.25Z" fill="#222829"/>
<path d="M47.25 14.25H44.25V15.75H47.25V14.25Z" fill="#222829"/>
<path d="M47.25 17.25H44.25V18.75H47.25V17.25Z" fill="#222829"/>
<path d="M47.25 43.5H44.25V45H47.25V43.5Z" fill="#222829"/>
<path d="M18.7504 48C8.62539 48 0.525391 39.15 0.225391 38.775C0.000390623 38.475 0.000390623 38.025 0.225391 37.8C0.525391 37.35 8.62539 28.5 18.7504 28.5C28.8754 28.5 36.9754 37.35 37.2754 37.725C37.5004 38.025 37.5004 38.475 37.2754 38.7C36.9754 39.15 28.8754 48 18.7504 48ZM1.80039 38.25C3.67539 40.125 10.5754 46.5 18.7504 46.5C26.9254 46.5 33.8254 40.125 35.7004 38.25C33.8254 36.375 26.9254 30 18.7504 30C10.5754 30 3.67539 36.375 1.80039 38.25Z" fill="#222829"/>
<path d="M18.75 48C13.35 48 9 43.65 9 38.25C9 32.85 13.35 28.5 18.75 28.5C24.15 28.5 28.5 32.85 28.5 38.25C28.5 43.65 24.15 48 18.75 48ZM18.75 30C14.175 30 10.5 33.675 10.5 38.25C10.5 42.825 14.175 46.5 18.75 46.5C23.325 46.5 27 42.825 27 38.25C27 33.675 23.325 30 18.75 30Z" fill="#222829"/>
<path d="M18.75 45C15 45 12 42 12 38.25C12 34.5 15 31.5 18.75 31.5V33C15.825 33 13.5 35.325 13.5 38.25C13.5 41.175 15.825 43.5 18.75 43.5C21.675 43.5 24 41.25 24 38.25H25.5C25.5 42 22.5 45 18.75 45Z" fill="#222829"/>
<path d="M18.7496 40.5C18.5246 40.5 18.3746 40.425 18.2246 40.275L15.9746 38.025L17.0246 36.975L18.7496 38.7L22.7246 34.725L23.7746 35.775L19.2746 40.275C19.1246 40.425 18.9746 40.5 18.7496 40.5Z" fill="#222829"/>
<path d="M31.5 46.5H30V48H31.5V46.5Z" fill="#222829"/>
</svg>
