<svg width="48" height="48" viewBox="0 0 48 48" fill="none" xmlns="http://www.w3.org/2000/svg">
<path d="M15.75 31.5C24.4485 31.5 31.5 24.4485 31.5 15.75C31.5 7.05152 24.4485 0 15.75 0C7.05152 0 0 7.05152 0 15.75C0 24.4485 7.05152 31.5 15.75 31.5Z" fill="#FFEC40"/>
<path d="M39.75 29.25C37.2 29.25 35.25 26.85 35.25 23.625C35.25 21.375 35.775 18.75 39.75 18.75C43.725 18.75 44.25 21.375 44.25 23.625C44.25 26.85 42.3 29.25 39.75 29.25ZM39.75 20.25C37.5 20.25 36.75 21.075 36.75 23.625C36.75 25.65 37.8 27.75 39.75 27.75C41.7 27.75 42.75 25.65 42.75 23.625C42.75 21.075 42 20.25 39.75 20.25Z" fill="#1E2F4F"/>
<path d="M37.1027 27.1127L33.373 29.3512L34.1449 30.6373L37.8746 28.3988L37.1027 27.1127Z" fill="#1E2F4F"/>
<path d="M45.75 35.25H41.25V33.75H45.75C45.975 33.75 46.5 33.15 46.5 32.25V31.2L41.625 28.425L42.375 27.15L48 30.375V32.25C48 33.9 46.95 35.25 45.75 35.25Z" fill="#1E2F4F"/>
<path d="M8.25 29.25C5.7 29.25 3.75 26.85 3.75 23.625C3.75 21.375 4.275 18.75 8.25 18.75C12.225 18.75 12.75 21.375 12.75 23.625C12.75 26.85 10.8 29.25 8.25 29.25ZM8.25 20.25C6 20.25 5.25 21.075 5.25 23.625C5.25 25.65 6.3 27.75 8.25 27.75C10.2 27.75 11.25 25.65 11.25 23.625C11.25 21.075 10.5 20.25 8.25 20.25Z" fill="#1E2F4F"/>
<path d="M10.8958 27.1129L10.124 28.3991L13.8541 30.6372L14.6259 29.3509L10.8958 27.1129Z" fill="#1E2F4F"/>
<path d="M6.75 35.25H2.25C1.05 35.25 0 33.9 0 32.25V30.3L5.625 27.075L6.375 28.35L1.5 31.2V32.25C1.5 33.15 2.025 33.75 2.25 33.75H6.75V35.25Z" fill="#1E2F4F"/>
<path d="M8.25 48H6.75V41.25C6.75 35.25 10.05 33.975 13.65 32.625C14.925 32.1 16.275 31.65 17.7 30.825L18.45 32.1C17.025 32.925 15.525 33.525 14.25 33.975C10.725 35.325 8.325 36.225 8.325 41.175V48H8.25Z" fill="#1E2F4F"/>
<path d="M41.25 48H39.75V41.25C39.75 36.3 37.425 35.4 33.825 34.05C32.55 33.525 31.05 33 29.625 32.175L30.375 30.9C31.725 31.65 33.075 32.175 34.425 32.7C37.95 33.975 41.25 35.25 41.25 41.25V48Z" fill="#1E2F4F"/>
<path d="M27.1504 35.4L24.0004 33.825L20.8504 35.4L17.0254 31.575L19.1254 28.425L24.0004 29.25L28.8754 28.425L30.9754 31.575L27.1504 35.4ZM24.0004 32.175L26.8504 33.6L29.0254 31.425L28.1254 30.075L24.0004 30.75L19.8754 30.075L18.9754 31.425L21.1504 33.6L24.0004 32.175Z" fill="#1E2F4F"/>
<path d="M28.5 26.25H27V29.25H28.5V26.25Z" fill="#1E2F4F"/>
<path d="M21 26.25H19.5V29.25H21V26.25Z" fill="#1E2F4F"/>
<path d="M24.75 39H23.25V40.5H24.75V39Z" fill="#1E2F4F"/>
<path d="M24.75 36H23.25V37.5H24.75V36Z" fill="#1E2F4F"/>
<path d="M24.0002 27.75C23.9252 27.75 21.5252 27.75 19.9502 26.925L19.8752 26.85C19.8002 26.775 17.3252 25.125 16.5752 19.575V19.5V16.5C16.5752 11.55 19.1252 9 24.0752 9C29.0252 9 31.5752 11.55 31.5752 16.5V19.575C30.7502 25.125 28.3502 26.775 28.2752 26.85L28.2002 26.925C26.4752 27.75 24.0752 27.75 24.0002 27.75ZM20.6252 25.575C21.9752 26.25 23.9252 26.25 24.0002 26.25C24.0752 26.25 26.0252 26.25 27.3752 25.575C27.6002 25.35 29.4002 23.85 30.0002 19.425V16.5C30.0002 12.375 28.1252 10.5 24.0002 10.5C19.8752 10.5 18.0002 12.375 18.0002 16.5V19.425C18.6752 23.85 20.4002 25.425 20.6252 25.575Z" fill="#1E2F4F"/>
<path d="M27.7502 18.825L20.2502 15.825L17.5502 17.175L16.9502 15.825L20.2502 14.175L27.7502 17.175L30.4502 15.825L31.0502 17.175L27.7502 18.825Z" fill="#1E2F4F"/>
<path d="M14.25 42H12.75V48H14.25V42Z" fill="#1E2F4F"/>
<path d="M35.25 42H33.75V48H35.25V42Z" fill="#1E2F4F"/>
</svg>
