<svg width="48" height="48" viewBox="0 0 48 48" fill="none" xmlns="http://www.w3.org/2000/svg">
<path d="M30.75 31.5C39.4485 31.5 46.5 24.4485 46.5 15.75C46.5 7.05152 39.4485 0 30.75 0C22.0515 0 15 7.05152 15 15.75C15 24.4485 22.0515 31.5 30.75 31.5Z" fill="#FFEC40"/>
<path d="M16.5 34.5H15.75C7.05 34.5 0 27.45 0 18.75C0 10.05 7.05 3 15.75 3C20.325 3 24.525 4.95 27.6 8.475L26.475 9.45C23.7 6.3 19.875 4.5 15.75 4.5C7.875 4.5 1.5 10.875 1.5 18.75C1.5 26.625 7.875 33 15.75 33H16.5V34.5Z" fill="#1E2F4F"/>
<path d="M15 48H13.5V42.75C13.5 36.75 16.8 35.475 20.4 34.125C21.675 33.6 23.025 33.15 24.45 32.325L25.2 33.6C23.775 34.425 22.275 35.025 21 35.475C17.475 36.825 15.075 37.725 15.075 42.675V48H15Z" fill="#1E2F4F"/>
<path d="M48 48H46.5V42.75C46.5 37.8 44.175 36.9 40.575 35.55C39.3 35.025 37.8 34.5 36.375 33.675L37.125 32.4C38.475 33.15 39.825 33.675 41.175 34.2C44.7 35.475 48 36.75 48 42.75V48Z" fill="#1E2F4F"/>
<path d="M33.9004 36.9L30.7504 35.325L27.6004 36.9L23.7754 33.075L25.8754 29.925L30.7504 30.75L35.6254 29.925L37.7254 33.075L33.9004 36.9ZM30.7504 33.675L33.6004 35.1L35.7754 32.925L34.8754 31.575L30.7504 32.25L26.6254 31.575L25.7254 32.925L27.9004 35.1L30.7504 33.675Z" fill="#1E2F4F"/>
<path d="M35.25 27.75H33.75V30.75H35.25V27.75Z" fill="#1E2F4F"/>
<path d="M27.75 27.75H26.25V30.75H27.75V27.75Z" fill="#1E2F4F"/>
<path d="M31.5 40.5H30V42H31.5V40.5Z" fill="#1E2F4F"/>
<path d="M31.5 37.5H30V39H31.5V37.5Z" fill="#1E2F4F"/>
<path d="M30.7502 29.25C30.6752 29.25 28.2752 29.25 26.7002 28.425L26.6252 28.35C26.5502 28.275 24.0752 26.625 23.3252 21.075V21V18C23.3252 13.05 25.8752 10.5 30.8252 10.5C35.7752 10.5 38.3252 13.05 38.3252 18V21.075C37.5002 26.625 35.1002 28.275 35.0252 28.35L34.9502 28.425C33.2252 29.25 30.8252 29.25 30.7502 29.25ZM27.3752 27.075C28.7252 27.75 30.6752 27.75 30.7502 27.75C30.8252 27.75 32.7752 27.75 34.1252 27.075C34.3502 26.85 36.1502 25.35 36.7502 20.925V18C36.7502 13.875 34.8752 12 30.7502 12C26.6252 12 24.7502 13.875 24.7502 18V20.925C25.4252 25.35 27.1502 26.925 27.3752 27.075Z" fill="#1E2F4F"/>
<path d="M34.5002 20.325L27.0002 17.325L24.3002 18.675L23.7002 17.325L27.0002 15.675L34.5002 18.675L37.2002 17.325L37.8002 18.675L34.5002 20.325Z" fill="#1E2F4F"/>
<path d="M21 43.5H19.5V48H21V43.5Z" fill="#1E2F4F"/>
<path d="M42 43.5H40.5V48H42V43.5Z" fill="#1E2F4F"/>
<path d="M15.75 21.75C14.1 21.75 12.75 20.4 12.75 18.75C12.75 17.1 14.1 15.75 15.75 15.75C17.4 15.75 18.75 17.1 18.75 18.75C18.75 20.4 17.4 21.75 15.75 21.75ZM15.75 17.25C14.925 17.25 14.25 17.925 14.25 18.75C14.25 19.575 14.925 20.25 15.75 20.25C16.575 20.25 17.25 19.575 17.25 18.75C17.25 17.925 16.575 17.25 15.75 17.25Z" fill="#1E2F4F"/>
<path d="M12.8252 27.975C12.7502 27.975 12.6752 27.975 12.6002 27.9C9.82521 26.925 7.57521 24.675 6.60021 21.9C6.52521 21.675 6.52521 21.45 6.67521 21.3C6.75021 21.15 6.90021 21 7.12521 20.925C8.25021 20.775 9.00021 19.875 9.00021 18.75C9.00021 17.625 8.25021 16.725 7.12521 16.575C6.90021 16.575 6.75021 16.425 6.60021 16.2C6.52521 15.975 6.45021 15.75 6.52521 15.6C7.50021 12.825 9.75021 10.575 12.5252 9.59997C12.7502 9.52497 12.9752 9.52497 13.1252 9.67497C13.3502 9.82497 13.4252 9.97497 13.5002 10.2C13.7252 11.25 14.6252 12 15.7502 12C16.8752 12 17.7752 11.25 17.9252 10.125C17.9252 9.89997 18.0752 9.74997 18.3002 9.59997C18.5252 9.44997 18.7502 9.44997 18.9002 9.52497C20.4752 10.05 21.8252 11.025 22.9502 12.225L21.8252 13.2C21.0752 12.375 20.1752 11.7 19.1252 11.175C18.5252 12.525 17.2502 13.425 15.6752 13.425C14.1752 13.425 12.8252 12.525 12.2252 11.175C10.4252 12 9.00021 13.425 8.17521 15.225C9.52521 15.825 10.4252 17.1 10.4252 18.675C10.4252 20.25 9.52521 21.525 8.17521 22.125C9.00021 23.925 10.4252 25.35 12.2252 26.175C12.8252 24.825 14.1002 23.925 15.6752 23.925C17.1752 23.925 18.5252 24.825 19.1252 26.175C19.8752 25.8 20.5502 25.35 21.2252 24.825L22.2002 25.95C21.2252 26.85 20.1002 27.45 18.9002 27.9C18.6752 27.975 18.4502 27.975 18.3002 27.825C18.0752 27.75 18.0002 27.525 17.9252 27.3C17.7752 26.25 16.8752 25.5 15.7502 25.5C14.6252 25.5 13.7252 26.25 13.5752 27.375C13.5752 27.6 13.4252 27.75 13.2002 27.9C13.0502 27.975 12.9002 27.975 12.8252 27.975Z" fill="#1E2F4F"/>
<path d="M16.5 6H15V7.5H16.5V6Z" fill="#1E2F4F"/>
<path d="M4.5 18H3V19.5H4.5V18Z" fill="#1E2F4F"/>
<path d="M16.5 30H15V31.5H16.5V30Z" fill="#1E2F4F"/>
</svg>
