<svg width="48" height="48" viewBox="0 0 48 48" fill="none" xmlns="http://www.w3.org/2000/svg">
<path d="M15.75 31.5C24.4485 31.5 31.5 24.4485 31.5 15.75C31.5 7.05152 24.4485 0 15.75 0C7.05152 0 0 7.05152 0 15.75C0 24.4485 7.05152 31.5 15.75 31.5Z" fill="#FFEC40"/>
<path d="M45 48H5.25C2.325 48 0 45.675 0 42.75V11.25H1.5V42.75C1.5 44.85 3.15 46.5 5.25 46.5H43.5V36.75H45V48Z" fill="#1E2F4F"/>
<path d="M45 26.25H43.5V16.5H5.25C2.325 16.5 0 14.175 0 11.25C0 8.325 2.325 6 5.25 6H10.5V7.5H5.25C3.15 7.5 1.5 9.15 1.5 11.25C1.5 13.35 3.15 15 5.25 15H45V26.25Z" fill="#1E2F4F"/>
<path d="M45 13.5H43.5V7.5H40.5V6H45V13.5Z" fill="#1E2F4F"/>
<path d="M30.75 34.5C29.1 34.5 27.75 33.15 27.75 31.5C27.75 29.85 29.1 28.5 30.75 28.5C32.4 28.5 33.75 29.85 33.75 31.5C33.75 33.15 32.4 34.5 30.75 34.5ZM30.75 30C29.925 30 29.25 30.675 29.25 31.5C29.25 32.325 29.925 33 30.75 33C31.575 33 32.25 32.325 32.25 31.5C32.25 30.675 31.575 30 30.75 30Z" fill="#1E2F4F"/>
<path d="M40.5 18H39V19.5H40.5V18Z" fill="#1E2F4F"/>
<path d="M37.5 18H36V19.5H37.5V18Z" fill="#1E2F4F"/>
<path d="M34.5 18H33V19.5H34.5V18Z" fill="#1E2F4F"/>
<path d="M31.5 18H30V19.5H31.5V18Z" fill="#1E2F4F"/>
<path d="M28.5 18H27V19.5H28.5V18Z" fill="#1E2F4F"/>
<path d="M25.5 18H24V19.5H25.5V18Z" fill="#1E2F4F"/>
<path d="M22.5 18H21V19.5H22.5V18Z" fill="#1E2F4F"/>
<path d="M19.5 18H18V19.5H19.5V18Z" fill="#1E2F4F"/>
<path d="M16.5 18H15V19.5H16.5V18Z" fill="#1E2F4F"/>
<path d="M13.5 18H12V19.5H13.5V18Z" fill="#1E2F4F"/>
<path d="M10.5 18H9V19.5H10.5V18Z" fill="#1E2F4F"/>
<path d="M7.5 18H6V19.5H7.5V18Z" fill="#1E2F4F"/>
<path d="M40.5 18H39V19.5H40.5V18Z" fill="#1E2F4F"/>
<path d="M37.5 18H36V19.5H37.5V18Z" fill="#1E2F4F"/>
<path d="M34.5 18H33V19.5H34.5V18Z" fill="#1E2F4F"/>
<path d="M31.5 18H30V19.5H31.5V18Z" fill="#1E2F4F"/>
<path d="M28.5 18H27V19.5H28.5V18Z" fill="#1E2F4F"/>
<path d="M25.5 18H24V19.5H25.5V18Z" fill="#1E2F4F"/>
<path d="M22.5 18H21V19.5H22.5V18Z" fill="#1E2F4F"/>
<path d="M19.5 18H18V19.5H19.5V18Z" fill="#1E2F4F"/>
<path d="M16.5 18H15V19.5H16.5V18Z" fill="#1E2F4F"/>
<path d="M13.5 18H12V19.5H13.5V18Z" fill="#1E2F4F"/>
<path d="M10.5 18H9V19.5H10.5V18Z" fill="#1E2F4F"/>
<path d="M7.5 18H6V19.5H7.5V18Z" fill="#1E2F4F"/>
<path d="M40.5 43.5H39V45H40.5V43.5Z" fill="#1E2F4F"/>
<path d="M37.5 43.5H36V45H37.5V43.5Z" fill="#1E2F4F"/>
<path d="M34.5 43.5H33V45H34.5V43.5Z" fill="#1E2F4F"/>
<path d="M31.5 43.5H30V45H31.5V43.5Z" fill="#1E2F4F"/>
<path d="M28.5 43.5H27V45H28.5V43.5Z" fill="#1E2F4F"/>
<path d="M25.5 43.5H24V45H25.5V43.5Z" fill="#1E2F4F"/>
<path d="M22.5 43.5H21V45H22.5V43.5Z" fill="#1E2F4F"/>
<path d="M19.5 43.5H18V45H19.5V43.5Z" fill="#1E2F4F"/>
<path d="M16.5 43.5H15V45H16.5V43.5Z" fill="#1E2F4F"/>
<path d="M13.5 43.5H12V45H13.5V43.5Z" fill="#1E2F4F"/>
<path d="M10.5 43.5H9V45H10.5V43.5Z" fill="#1E2F4F"/>
<path d="M7.5 43.5H6V45H7.5V43.5Z" fill="#1E2F4F"/>
<path d="M40.5 43.5H39V45H40.5V43.5Z" fill="#1E2F4F"/>
<path d="M37.5 43.5H36V45H37.5V43.5Z" fill="#1E2F4F"/>
<path d="M34.5 43.5H33V45H34.5V43.5Z" fill="#1E2F4F"/>
<path d="M31.5 43.5H30V45H31.5V43.5Z" fill="#1E2F4F"/>
<path d="M28.5 43.5H27V45H28.5V43.5Z" fill="#1E2F4F"/>
<path d="M25.5 43.5H24V45H25.5V43.5Z" fill="#1E2F4F"/>
<path d="M22.5 43.5H21V45H22.5V43.5Z" fill="#1E2F4F"/>
<path d="M19.5 43.5H18V45H19.5V43.5Z" fill="#1E2F4F"/>
<path d="M16.5 43.5H15V45H16.5V43.5Z" fill="#1E2F4F"/>
<path d="M13.5 43.5H12V45H13.5V43.5Z" fill="#1E2F4F"/>
<path d="M10.5 43.5H9V45H10.5V43.5Z" fill="#1E2F4F"/>
<path d="M7.5 43.5H6V45H7.5V43.5Z" fill="#1E2F4F"/>
<path d="M45 37.5H30.75C27.45 37.5 24.75 34.8 24.75 31.5C24.75 28.2 27.45 25.5 30.75 25.5H45C45.825 25.5 46.5 24.825 46.5 24C46.5 23.175 45.825 22.5 45 22.5H44.25V21H45C46.65 21 48 22.35 48 24V34.5C48 36.15 46.65 37.5 45 37.5ZM30.75 27C28.275 27 26.25 29.025 26.25 31.5C26.25 33.975 28.275 36 30.75 36H45C45.825 36 46.5 35.325 46.5 34.5V26.625C46.05 26.85 45.525 27 45 27H30.75Z" fill="#1E2F4F"/>
<path d="M13.5 9.75H12V4.5H39V9H37.5V6H13.5V9.75Z" fill="#1E2F4F"/>
<path d="M34.5 12H33V10.5H9V12H7.5V9H34.5V12Z" fill="#1E2F4F"/>
<path d="M44.25 10.5H36V12H44.25V10.5Z" fill="#1E2F4F"/>
<path d="M22.5 5.25H21V7.5H22.5V5.25Z" fill="#1E2F4F"/>
<path d="M25.5 5.25H24V7.5H25.5V5.25Z" fill="#1E2F4F"/>
<path d="M28.5 5.25H27V7.5H28.5V5.25Z" fill="#1E2F4F"/>
<path d="M31.5 5.25H30V7.5H31.5V5.25Z" fill="#1E2F4F"/>
<path d="M34.5 5.25H33V7.5H34.5V5.25Z" fill="#1E2F4F"/>
<path d="M16.5 5.25H15V7.5H16.5V5.25Z" fill="#1E2F4F"/>
<path d="M18 9.75H16.5V12H18V9.75Z" fill="#1E2F4F"/>
<path d="M21 9.75H19.5V12H21V9.75Z" fill="#1E2F4F"/>
<path d="M24 9.75H22.5V12H24V9.75Z" fill="#1E2F4F"/>
<path d="M27 9.75H25.5V12H27V9.75Z" fill="#1E2F4F"/>
<path d="M30 9.75H28.5V12H30V9.75Z" fill="#1E2F4F"/>
<path d="M12 9.75H10.5V12H12V9.75Z" fill="#1E2F4F"/>
</svg>
