<svg width="22" height="24" viewBox="0 0 22 24" fill="none" xmlns="http://www.w3.org/2000/svg">
<g clip-path="url(#clip0)">
<path d="M21.8814 12.2245C21.8814 11.2412 21.8069 10.5237 21.6457 9.77959H11.1646V14.2176H17.3167C17.1928 15.3205 16.523 16.9814 15.0345 18.0975L15.0136 18.2461L18.3276 20.9963L18.5572 21.0208C20.6657 18.9347 21.8814 15.8652 21.8814 12.2245Z" fill="#4285F4"/>
<path d="M11.1645 23.9175C14.1786 23.9175 16.7089 22.8544 18.5571 21.0208L15.0344 18.0975C14.0918 18.8017 12.8266 19.2934 11.1645 19.2934C8.21244 19.2934 5.70691 17.2073 4.81376 14.3239L4.68284 14.3358L1.23696 17.1926L1.19189 17.3268C3.02763 21.2333 6.79836 23.9175 11.1645 23.9175Z" fill="#34A853"/>
<path d="M4.81357 14.324C4.5779 13.5799 4.44151 12.7826 4.44151 11.9588C4.44151 11.1349 4.5779 10.3377 4.80117 9.59358L4.79492 9.4351L1.30586 6.53239L1.1917 6.59055C0.435111 8.21165 0.000976562 10.0321 0.000976562 11.9588C0.000976562 13.8855 0.435111 15.7058 1.1917 17.3269L4.81357 14.324Z" fill="#FBBC05"/>
<path d="M11.1645 4.62405C13.2607 4.62405 14.6747 5.59404 15.481 6.40463L18.6315 3.1093C16.6966 1.18262 14.1786 2.28882e-05 11.1645 2.28882e-05C6.79836 2.28882e-05 3.02762 2.68408 1.19189 6.59059L4.80136 9.59361C5.70691 6.71022 8.21244 4.62405 11.1645 4.62405Z" fill="#EB4335"/>
</g>
<defs>
<clipPath id="clip0">
<rect width="21.8928" height="24" fill="white"/>
</clipPath>
</defs>
</svg>
