<svg width="14" height="14" viewBox="0 0 14 14" fill="none" xmlns="http://www.w3.org/2000/svg">
<g clip-path="url(#clip0)">
<path d="M5.83333 6.62082C4.47417 7.10207 3.5 8.39416 3.5 9.91666C3.5 11.8504 5.06625 13.4167 7 13.4167C8.93375 13.4167 10.5 11.8504 10.5 9.91666C10.5 8.39416 9.52583 7.10207 8.16667 6.62082L8.16667 4.08332L10.5 4.08332L10.5 1.74999L8.16667 1.74999L8.16667 0.583323L5.83333 0.583323L5.83333 6.62082ZM8.16667 9.91666C8.16667 10.5612 7.64458 11.0833 7 11.0833C6.35542 11.0833 5.83333 10.5612 5.83333 9.91666C5.83333 9.27207 6.35542 8.74999 7 8.74999C7.64458 8.74999 8.16667 9.27207 8.16667 9.91666Z" fill="url(#paint0_linear)"/>
</g>
<defs>
<linearGradient id="paint0_linear" x1="-2.80481e-07" y1="6.99999" x2="10.7898" y2="12.8853" gradientUnits="userSpaceOnUse">
<stop stop-color="#BD7AE3"/>
<stop offset="1" stop-color="#8461C9"/>
</linearGradient>
<clipPath id="clip0">
<path d="M0 14L-6.11959e-07 0L14 -6.11959e-07L14 14L0 14Z" fill="white"/>
</clipPath>
</defs>
</svg>
