<svg width="95" height="40" viewBox="0 0 95 40" fill="none" xmlns="http://www.w3.org/2000/svg">
<rect width="95" height="40" rx="20" fill="url(#paint0_linear)"/>
<path d="M25.529 26V14.625H29.3103C30.5707 14.625 31.5551 14.8854 32.2634 15.4062C32.9717 15.9219 33.3259 16.6953 33.3259 17.7266C33.3259 18.2422 33.1775 18.7031 32.8806 19.1094C32.5837 19.5156 32.1722 19.8177 31.6462 20.0156C32.3233 20.1667 32.8441 20.4922 33.2087 20.9922C33.5733 21.4922 33.7556 22.0729 33.7556 22.7344C33.7556 23.8021 33.4066 24.6146 32.7087 25.1719C32.0108 25.724 31.0472 26 29.8181 26H25.529ZM27.4275 20.8281V24.4844H29.8181C30.4743 24.4844 30.9795 24.3359 31.3337 24.0391C31.6879 23.737 31.865 23.3021 31.865 22.7344C31.865 22.1302 31.7165 21.6615 31.4196 21.3281C31.1228 20.9948 30.6592 20.8281 30.029 20.8281H27.4275ZM27.4275 19.4141H29.5212C30.1097 19.4141 30.5733 19.276 30.9118 19C31.2556 18.7188 31.4275 18.3229 31.4275 17.8125C31.4275 17.25 31.2478 16.8333 30.8884 16.5625C30.529 16.2865 30.003 16.1484 29.3103 16.1484H27.4275V19.4141ZM35.1853 21.6953C35.1853 20.4401 35.529 19.4089 36.2165 18.6016C36.9144 17.7943 37.8597 17.3906 39.0525 17.3906C40.266 17.3906 41.2165 17.7943 41.904 18.6016C42.5967 19.4036 42.9431 20.4349 42.9431 21.6953V21.8594C42.9431 23.1302 42.5967 24.1667 41.904 24.9688C41.2165 25.7656 40.2712 26.1641 39.0681 26.1641C37.8597 26.1641 36.9092 25.763 36.2165 24.9609C35.529 24.1589 35.1853 23.125 35.1853 21.8594V21.6953ZM37.0837 21.8594C37.0837 22.6823 37.2452 23.3542 37.5681 23.875C37.8858 24.3906 38.3858 24.6484 39.0681 24.6484C39.7295 24.6484 40.2243 24.3906 40.5525 23.875C40.8858 23.3542 41.0525 22.6823 41.0525 21.8594V21.6953C41.0525 20.888 40.8858 20.224 40.5525 19.7031C40.2243 19.1771 39.7243 18.9141 39.0525 18.9141C38.391 18.9141 37.8962 19.1771 37.5681 19.7031C37.2452 20.2292 37.0837 20.8932 37.0837 21.6953V21.8594ZM49.7868 17.5469H51.6775V26H49.7868V20.3906L49.74 20.375L46.4743 26H44.5837V17.5469H46.4743V23.1484L46.5212 23.1641L49.7868 17.5469ZM50.5915 13.9609L50.615 14.0078C50.6358 14.6484 50.4196 15.1693 49.9665 15.5703C49.5134 15.9714 48.904 16.1719 48.1384 16.1719C47.3676 16.1719 46.7556 15.9714 46.3025 15.5703C45.8493 15.1693 45.6358 14.6484 45.6618 14.0078L45.6853 13.9609H47.0915C47.0915 14.263 47.1748 14.5104 47.3415 14.7031C47.5134 14.8958 47.779 14.9922 48.1384 14.9922C48.4873 14.9922 48.7478 14.8958 48.9196 14.7031C49.0915 14.5104 49.1775 14.263 49.1775 13.9609H50.5915ZM60.4821 19.0547H57.7321V26H55.8337V19.0547H53.1306V17.5469H60.4821V19.0547ZM67.115 17.5469H69.0056V26H67.115V20.3906L67.0681 20.375L63.8025 26H61.9118V17.5469H63.8025V23.1484L63.8493 23.1641L67.115 17.5469Z" fill="white"/>
<defs>
<linearGradient id="paint0_linear" x1="47.5" y1="-20" x2="18.8882" y2="47.9529" gradientUnits="userSpaceOnUse">
<stop stop-color="#BD7AE3"/>
<stop offset="1" stop-color="#8461C9"/>
</linearGradient>
</defs>
</svg>
