<svg width="160" height="34" viewBox="0 0 160 34" fill="none" xmlns="http://www.w3.org/2000/svg">
<path d="M76.832 26L69.776 9.008H65.792L58.664 26H63.128L64.376 22.664H70.952L72.272 26H76.832ZM69.824 19.376H65.552L67.712 13.544L69.824 19.376ZM90.6924 26V7.856H86.7564V15.32H86.7084C86.0364 14.528 84.8124 13.712 83.0604 13.712C79.5804 13.712 77.4204 16.64 77.4204 19.976C77.4204 23.312 79.5084 26.336 83.1084 26.336C84.6924 26.336 86.2524 25.64 87.0204 24.44H87.0684V26H90.6924ZM86.9244 20C86.9244 21.56 85.8204 23.072 84.0444 23.072C82.1724 23.072 81.2124 21.536 81.2124 19.976C81.2124 18.44 82.1724 16.928 84.0444 16.928C85.8204 16.928 86.9244 18.488 86.9244 20ZM105.913 14.048H101.713L99.1933 21.8H99.1213L96.6013 14.048H92.2572L96.9613 26H101.209L105.913 14.048ZM114.514 17V14.048H111.706V10.904H107.842V14.048H105.946V17H107.866V22.04C107.866 24.584 108.922 26.288 112.114 26.288C112.954 26.288 113.866 26.12 114.394 25.928L114.346 23.048C114.058 23.168 113.578 23.24 113.194 23.24C112.066 23.24 111.706 22.664 111.706 21.56V17H114.514ZM120.636 10.232C120.636 9.032 119.628 8.072 118.38 8.072C117.108 8.072 116.124 9.08 116.124 10.232C116.124 11.408 117.108 12.392 118.38 12.392C119.628 12.392 120.636 11.456 120.636 10.232ZM120.348 26V14.048H116.412V26H120.348ZM142.666 26V18.608C142.666 16.352 141.562 13.712 138.322 13.712C136.546 13.712 135.298 14.504 134.506 15.752C133.834 14.456 132.634 13.712 130.906 13.712C129.106 13.712 127.882 14.696 127.33 15.704H127.282V14.048H123.466V26H127.426V19.52C127.426 18.08 128.146 16.952 129.394 16.952C130.57 16.952 131.098 17.816 131.098 19.184V26H135.034V19.544C135.034 18.2 135.682 16.952 137.026 16.952C138.418 16.952 138.73 18.104 138.73 19.472V26H142.666ZM148.806 18.656C148.902 17.432 150.006 16.376 151.518 16.376C153.078 16.376 153.87 17.408 153.87 18.656H148.806ZM157.494 20.168C157.494 16.088 155.022 13.664 151.494 13.664C147.87 13.664 145.038 16.16 145.038 20.072C145.038 24.104 148.014 26.384 151.614 26.384C154.038 26.384 155.91 25.472 157.038 23.84L154.302 22.112C153.774 22.832 152.91 23.36 151.662 23.36C150.246 23.36 148.926 22.424 148.806 21.104H157.47C157.494 20.816 157.494 20.48 157.494 20.168Z" fill="#6979F8"/>
<path fill-rule="evenodd" clip-rule="evenodd" d="M35.8159 0C40.5683 0 44.8643 1.8984 47.9644 4.9794C51.0802 8.06041 53 12.3085 53 16.9922C53 21.6915 51.0802 25.9396 47.9644 29.005C45.0689 31.8682 41.1663 33.7043 36.8073 33.9533C36.6499 33.9844 36.4768 34 36.3037 34H17.8135C16.4602 34 15.3587 32.9108 15.3587 31.5725C15.3587 30.3588 16.2871 29.3318 17.4673 29.1606C17.5775 29.1762 17.7034 29.1918 17.8135 29.1918H20.2999C21.6532 29.1918 22.7548 28.1025 22.7548 26.7643C22.7548 25.4261 21.6532 24.3368 20.2999 24.3368H13.7693C12.416 24.3368 11.3144 23.2476 11.3144 21.9094C11.3144 20.5712 12.416 19.4819 13.7693 19.4819H16.6648C18.0181 19.4819 19.1197 18.3927 19.1197 17.0545C19.1197 15.7162 18.0181 14.627 16.6648 14.627H8.79662C7.44329 14.627 6.34175 13.5378 6.34175 12.1995C6.34175 10.8613 7.44329 9.77208 8.79662 9.77208H23.1954C24.5487 9.77208 25.6502 8.68284 25.6502 7.34462C25.6502 6.00641 24.5487 4.91716 23.1954 4.91716H18.6161C17.2628 4.91716 16.1612 3.82792 16.1612 2.4897C16.1612 1.15149 17.2628 0.0622426 18.6161 0.0622426H34.4941C34.9347 0.0155606 35.3753 0 35.8159 0ZM32.4641 15.0627L31.7717 16.1208L35.3438 18.3771L35.7687 18.6416L36.1306 18.2993L41.717 12.9153L40.8358 12.0128L35.6113 17.0545L32.4641 15.0627ZM26.0594 17.5213H27.6802V16.4632H26.0594V17.5213ZM43.9673 17.5213H45.5882V16.4632H43.9673V17.5213ZM35.2809 7.34462V8.94737H36.351V7.34462H35.2809ZM35.2809 25.0526V26.6554H36.351V25.0526H35.2809ZM43.4795 9.42975C41.5282 7.50023 38.8216 6.30206 35.8317 6.30206C32.8417 6.30206 30.1351 7.50023 28.1838 9.42975C26.2325 11.3593 25.0208 14.0357 25.0208 16.9922C25.0208 19.9487 26.2325 22.6252 28.1838 24.5547C30.1351 26.4842 32.8417 27.6824 35.8317 27.6824C38.8216 27.6824 41.5282 26.4842 43.4795 24.5547C45.4308 22.6252 46.6425 19.9487 46.6425 16.9922C46.6425 14.0357 45.4308 11.3593 43.4795 9.42975ZM12.0226 0C10.6692 0 9.5677 1.08924 9.5677 2.42746C9.5677 3.76568 10.6692 4.85492 12.0226 4.85492H12.8881C14.2414 4.85492 15.3429 3.76568 15.3429 2.42746C15.3429 1.08924 14.2414 0 12.8881 0H12.0226ZM2.45487 19.4819C1.10154 19.4819 0 20.5712 0 21.9094C0 23.2476 1.10154 24.3368 2.45487 24.3368H7.50624C8.85956 24.3368 9.96111 23.2476 9.96111 21.9094C9.96111 20.5712 8.85956 19.4819 7.50624 19.4819H2.45487Z" fill="url(#paint0_linear)"/>
<defs>
<linearGradient id="paint0_linear" x1="26.5" y1="-17" x2="-4.40441" y2="31.1745" gradientUnits="userSpaceOnUse">
<stop stop-color="#BD7AE3"/>
<stop offset="1" stop-color="#8461C9"/>
</linearGradient>
</defs>
</svg>
