<svg width="916" height="275" viewBox="0 0 916 275" fill="none" xmlns="http://www.w3.org/2000/svg">
<path d="M126.35 259H93.1201V201.109H43.894V259H10.4736V120.367H43.894V175.401H93.1201V120.367H126.35V259ZM264.983 192.54C264.983 206.061 262.476 218.026 257.461 228.436C252.446 238.846 245.305 246.876 236.038 252.525C226.833 258.111 216.328 260.904 204.521 260.904C192.715 260.904 182.241 258.207 173.101 252.811C163.96 247.352 156.819 239.576 151.677 229.483C146.599 219.391 143.933 207.806 143.679 194.73V186.922C143.679 173.338 146.155 161.373 151.106 151.026C156.121 140.616 163.262 132.586 172.529 126.937C181.86 121.288 192.461 118.463 204.331 118.463C216.074 118.463 226.548 121.256 235.752 126.842C244.956 132.428 252.097 140.394 257.175 150.741C262.317 161.024 264.919 172.831 264.983 186.161V192.54ZM230.991 186.732C230.991 172.958 228.674 162.516 224.041 155.406C219.47 148.233 212.9 144.647 204.331 144.647C187.573 144.647 178.718 157.215 177.766 182.352L177.671 192.54C177.671 206.124 179.924 216.566 184.431 223.866C188.938 231.166 195.635 234.815 204.521 234.815C212.964 234.815 219.47 231.229 224.041 224.056C228.611 216.883 230.928 206.568 230.991 193.111V186.732ZM282.217 259V120.367H332.014C349.851 120.367 363.403 123.636 372.671 130.174C382.002 136.712 386.667 146.202 386.667 158.644C386.667 165.816 385.017 171.942 381.716 177.02C378.416 182.098 373.56 185.843 367.148 188.255C374.385 190.16 379.939 193.714 383.811 198.919C387.683 204.125 389.619 210.472 389.619 217.962C389.619 231.546 385.303 241.766 376.67 248.622C368.101 255.414 355.374 258.873 338.489 259H282.217ZM315.637 200.062V233.292H337.537C343.567 233.292 348.201 231.927 351.438 229.198C354.675 226.405 356.294 222.501 356.294 217.486C356.294 205.934 350.549 200.125 339.06 200.062H315.637ZM315.637 178.163H333.062C340.361 178.099 345.566 176.766 348.677 174.164C351.787 171.561 353.342 167.721 353.342 162.643C353.342 156.803 351.66 152.613 348.296 150.074C344.932 147.472 339.504 146.17 332.014 146.17H315.637V178.163ZM525.491 192.54C525.491 206.061 522.983 218.026 517.969 228.436C512.954 238.846 505.813 246.876 496.545 252.525C487.341 258.111 476.836 260.904 465.029 260.904C453.223 260.904 442.749 258.207 433.608 252.811C424.468 247.352 417.327 239.576 412.185 229.483C407.107 219.391 404.441 207.806 404.187 194.73V186.922C404.187 173.338 406.663 161.373 411.614 151.026C416.628 140.616 423.77 132.586 433.037 126.937C442.368 121.288 452.969 118.463 464.839 118.463C476.582 118.463 487.056 121.256 496.26 126.842C505.464 132.428 512.605 140.394 517.683 150.741C522.825 161.024 525.427 172.831 525.491 186.161V192.54ZM491.499 186.732C491.499 172.958 489.182 162.516 484.548 155.406C479.978 148.233 473.408 144.647 464.839 144.647C448.081 144.647 439.226 157.215 438.274 182.352L438.179 192.54C438.179 206.124 440.432 216.566 444.939 223.866C449.446 231.166 456.143 234.815 465.029 234.815C473.472 234.815 479.978 231.229 484.548 224.056C489.119 216.883 491.436 206.568 491.499 193.111V186.732ZM654.888 212.059C654.443 221.708 651.841 230.245 647.08 237.672C642.319 245.035 635.623 250.748 626.99 254.811C618.42 258.873 608.613 260.904 597.568 260.904C579.351 260.904 565.005 254.969 554.531 243.099C544.058 231.229 538.821 214.471 538.821 192.826V185.97C538.821 172.386 541.169 160.516 545.867 150.36C550.627 140.14 557.451 132.269 566.338 126.747C575.225 121.161 585.508 118.368 597.188 118.368C614.009 118.368 627.529 122.811 637.749 131.698C647.969 140.521 653.777 152.708 655.173 168.26H621.848C621.594 159.818 619.468 153.756 615.469 150.074C611.47 146.393 605.376 144.552 597.188 144.552C588.872 144.552 582.778 147.662 578.906 153.883C575.034 160.104 573.003 170.038 572.812 183.685V193.492C572.812 208.282 574.653 218.851 578.335 225.199C582.08 231.546 588.491 234.72 597.568 234.72C605.249 234.72 611.121 232.911 615.183 229.293C619.246 225.675 621.404 219.93 621.658 212.059H654.888ZM776.667 146.17H735.059V259H701.638V146.17H660.791V120.367H776.667V146.17ZM872.168 120.367H905.588V259H872.168V171.593L822.371 259H788.95V120.367H822.371V207.87L872.168 120.367Z" fill="white"/>
<path d="M636.2 118.3C636 118.3 635.8 118.2 635.6 118.1C635.1 117.8 635 117.1 635.3 116.7C635.3 116.7 635.9 115.8 637.1 114.2C637.4 113.8 638.1 113.7 638.5 114C638.9 114.3 639 115 638.7 115.4C637.5 116.9 636.9 117.8 636.9 117.8C636.8 118.1 636.5 118.3 636.2 118.3Z" fill="#292C3D"/>
<path d="M747.4 132.9C746.2 132.9 745.1 132.8 744 132.6C743.4 132.5 743.1 132 743.2 131.4C743.3 130.8 743.8 130.5 744.4 130.6C746.2 130.9 748.1 131.1 750.1 130.5C750.7 130.4 751.2 130.7 751.3 131.2C751.4 131.7 751.1 132.3 750.6 132.4C749.5 132.8 748.4 132.9 747.4 132.9ZM738.4 130.4C738.2 130.4 738 130.4 737.9 130.3C736.2 129.3 734.5 127.9 732.9 126.2C732.5 125.8 732.5 125.1 732.9 124.8C733.3 124.4 734 124.4 734.3 124.8C735.8 126.4 737.3 127.6 738.9 128.5C739.4 128.8 739.5 129.4 739.3 129.9C739.1 130.3 738.7 130.4 738.4 130.4ZM755.9 129.8C755.6 129.8 755.3 129.6 755.1 129.4C754.8 128.9 754.9 128.3 755.4 128C756.9 127 758.4 125.7 760.1 124.1C760.5 123.7 761.2 123.7 761.5 124.1C761.9 124.5 761.9 125.2 761.5 125.5C759.8 127.2 758.2 128.5 756.6 129.6C756.3 129.8 756.1 129.8 755.9 129.8ZM729.7 121.7C729.4 121.7 729.1 121.5 728.9 121.3C727.8 119.8 726.7 118 725.5 116C725.2 115.5 725.4 114.9 725.9 114.6C726.4 114.3 727 114.5 727.3 115C728.5 117 729.6 118.7 730.6 120.2C730.9 120.7 730.8 121.3 730.4 121.6C730.1 121.7 729.9 121.7 729.7 121.7ZM764.9 121.3C764.7 121.3 764.4 121.2 764.2 121C763.8 120.6 763.7 120 764.1 119.6C765.3 118.2 766.6 116.6 768 114.8C768.4 114.4 769 114.3 769.4 114.6C769.8 115 769.9 115.6 769.6 116C768.1 117.8 766.8 119.4 765.6 120.8C765.5 121.2 765.2 121.3 764.9 121.3ZM772.7 111.6C772.5 111.6 772.3 111.5 772.1 111.4C771.7 111.1 771.6 110.4 771.9 110L773.1 108.4C774 107.3 774.8 106.1 775.7 105C776 104.6 776.7 104.5 777.1 104.8C777.5 105.1 777.6 105.8 777.3 106.2C776.4 107.3 775.6 108.4 774.7 109.6L773.5 111.2C773.3 111.5 773 111.6 772.7 111.6ZM723.3 111C722.9 111 722.6 110.8 722.4 110.5L721.4 108.6C720.7 107.4 720.1 106.2 719.4 105C719.1 104.5 719.3 103.9 719.8 103.6C720.3 103.3 720.9 103.5 721.2 104C721.9 105.2 722.5 106.4 723.2 107.6L724.2 109.5C724.5 110 724.3 110.6 723.8 110.9C723.6 111 723.4 111 723.3 111ZM641.9 111C641.7 111 641.4 110.9 641.2 110.8C640.8 110.4 640.7 109.8 641.1 109.4C642.4 107.8 643.8 106.2 645.2 104.7C645.6 104.3 646.2 104.3 646.6 104.6C647 105 647 105.6 646.7 106C645.3 107.5 643.9 109.1 642.6 110.6C642.5 110.8 642.2 111 641.9 111ZM650.3 101.8C650 101.8 649.8 101.7 649.6 101.5C649.2 101.1 649.2 100.5 649.6 100.1C651.1 98.6 652.7 97.2 654.2 95.8C654.6 95.4 655.3 95.5 655.6 95.9C656 96.3 655.9 97 655.5 97.3C654 98.6 652.5 100.1 651 101.5C650.8 101.7 650.6 101.8 650.3 101.8ZM780.4 101.8C780.2 101.8 779.9 101.7 779.7 101.6C779.3 101.2 779.2 100.6 779.6 100.2C781.2 98.3 782.5 96.8 783.8 95.5C784.2 95.1 784.8 95.1 785.2 95.5C785.6 95.9 785.6 96.5 785.2 96.9C784 98.1 782.6 99.6 781.1 101.5C781 101.7 780.7 101.8 780.4 101.8ZM717.2 100.2C716.9 100.2 716.5 100 716.3 99.7C715.1 97.8 714 96.1 712.9 94.6C712.6 94.1 712.7 93.5 713.1 93.2C713.6 92.9 714.2 93 714.5 93.4C715.6 95 716.8 96.7 718 98.7C718.3 99.2 718.1 99.8 717.7 100.1C717.5 100.1 717.3 100.2 717.2 100.2ZM659.6 93.6C659.3 93.6 659 93.5 658.8 93.2C658.5 92.8 658.5 92.1 659 91.8C660.7 90.5 662.4 89.2 664.1 88.1C664.6 87.8 665.2 87.9 665.5 88.4C665.8 88.9 665.7 89.5 665.2 89.8C663.6 90.9 661.9 92.1 660.2 93.4C660.1 93.5 659.9 93.6 659.6 93.6ZM709.8 90.1C709.5 90.1 709.3 90 709.1 89.8C707.7 88.3 706.2 86.9 704.6 85.8C704.1 85.5 704 84.8 704.4 84.4C704.7 83.9 705.4 83.8 705.8 84.2C707.4 85.4 709 86.8 710.6 88.5C711 88.9 711 89.6 710.5 89.9C710.3 90 710.1 90.1 709.8 90.1ZM670 86.6C669.6 86.6 669.3 86.4 669.1 86.1C668.8 85.6 669 85 669.5 84.7C671.4 83.6 673.3 82.7 675.2 82C675.7 81.8 676.3 82 676.5 82.6C676.7 83.1 676.5 83.7 675.9 83.9C674.1 84.6 672.2 85.5 670.4 86.5C670.3 86.6 670.1 86.6 670 86.6ZM699.8 82.9C699.7 82.9 699.5 82.9 699.4 82.8C697.7 82.1 695.9 81.6 694 81.3L693.6 81.2C693 81.1 692.7 80.6 692.7 80C692.8 79.4 693.3 79.1 693.9 79.1L694.3 79.2C696.3 79.5 698.3 80.1 700.1 80.8C700.6 81 700.9 81.6 700.7 82.1C700.6 82.7 700.2 82.9 699.8 82.9ZM681.5 82C681 82 680.6 81.7 680.5 81.2C680.4 80.7 680.7 80.1 681.2 80C683.3 79.5 685.5 79.1 687.5 79C688.1 78.9 688.5 79.4 688.6 80C688.6 80.6 688.2 81 687.6 81.1C685.7 81.2 683.7 81.5 681.6 82C681.7 82 681.6 82 681.5 82Z" fill="#292C3D"/>
<path d="M822 73.8L787.3 95.2L788.9 82.7L822 73.8Z" fill="#0254E4"/>
<path d="M822 73.8L787.3 95.2L791.6 86.3L822 73.8Z" fill="#292C3D"/>
<path d="M801.7 99.5L780.1 73L826.9 68L801.7 99.5Z" fill="white"/>
<path d="M825.4 68.8L788.7 83.5L791.4 86.8L825.4 68.8Z" fill="#0254E4"/>
<path d="M591.5 85.3C591.5 85.3 594.8 97.3 596.5 99.3C598.1 101.3 603.5 104.2 603.5 104.2L602.1 106.7C602.1 106.7 592.4 101.7 590.7 97.7C589.7 95.3 589.1 93.3 588.7 91.5C588.4 90 587.3 86.3 587.9 84.8C588.2 83.8 590.7 83.3 591.5 85.3Z" fill="#0254E4"/>
<path d="M591.5 85.3C591.5 85.3 594.8 97.3 596.5 99.3C598.1 101.3 603.5 104.2 603.5 104.2L602.1 106.7C602.1 106.7 592.4 101.7 590.7 97.7C589.7 95.3 589.1 93.3 588.7 91.5C588.4 90 587.3 86.3 587.9 84.8C588.2 83.8 590.7 83.3 591.5 85.3Z" fill="url(#paint0_linear)"/>
<path d="M624.8 142.6L627.3 140.3C627.3 140.3 637.1 139.6 637.7 140.4C638.3 141.3 628.4 145.9 627.1 145.8C625.8 145.8 625 143.5 624.8 142.6Z" fill="#292C3D"/>
<path d="M606.9 109.4C606.9 109.4 616.2 107 616.9 108.6C617.7 110.1 627.3 140.3 627.3 140.3L624.8 142.6C624.8 142.6 614.5 117.1 611.5 114.4C608.5 111.8 605.5 110.5 606.9 109.4Z" fill="#F9A57E"/>
<path d="M606.9 109.4C606.9 109.4 616.2 107 616.9 108.6C617.7 110.1 627.3 140.3 627.3 140.3L624.8 142.6C624.8 142.6 614.5 117.1 611.5 114.4C608.5 111.8 605.5 110.5 606.9 109.4Z" fill="#E76F59"/>
<path d="M602.1 103.8C602.8 103.6 603.4 103.4 604 103C604.5 102.7 605 102.4 605.6 102.5C606 102.6 609.6 104 608.7 104.7C608.4 104.9 607.6 104.5 607.3 104.4C606.9 104.2 606.4 104 606 103.8C606.4 103.8 608.3 104.6 608.1 105C607.7 105.8 605.8 104.7 605.3 104.5C605.6 104.6 606.9 105 606.9 105.4C606.9 106.1 605.5 105.5 605.2 105.4C605 105.3 604.8 105.1 604.5 105.1C604.2 105.1 603.9 105.2 603.6 105.3C603.1 105.4 602.6 105.4 602.1 105.3C601.8 105.3 601.1 105.3 601 105.1C600.8 104.8 601 104.2 601.2 104C601.4 104 601.8 103.9 602.1 103.8Z" fill="#F9A57E"/>
<path d="M602.1 103.8C602.8 103.6 603.4 103.4 604 103C604.5 102.7 605 102.4 605.6 102.5C606 102.6 609.6 104 608.7 104.7C608.4 104.9 607.6 104.5 607.3 104.4C606.9 104.2 606.4 104 606 103.8C606.4 103.8 608.3 104.6 608.1 105C607.7 105.8 605.8 104.7 605.3 104.5C605.6 104.6 606.9 105 606.9 105.4C606.9 106.1 605.5 105.5 605.2 105.4C605 105.3 604.8 105.1 604.5 105.1C604.2 105.1 603.9 105.2 603.6 105.3C603.1 105.4 602.6 105.4 602.1 105.3C601.8 105.3 601.1 105.3 601 105.1C600.8 104.8 601 104.2 601.2 104C601.4 104 601.8 103.9 602.1 103.8Z" fill="#E8A393"/>
<path d="M618.1 87.8L620.3 88.7L612.8 106.8L610.6 105.6L618.1 87.8Z" fill="#292C3D"/>
<path d="M611.5 105.3H597.2V107.5H611.5V105.3Z" fill="#292C3D"/>
<path d="M571.9 95C573.8 93.9 574.1 92.7 573.1 88.7C572 84.7 574.8 80.6 577.5 79.5C579.5 78.7 581.2 78.3 582.4 76.3C583.6 74.2 581.3 69.8 585.1 66.5C587.8 64.1 591.8 66 591.8 66C592.6 65.5 593 70.5 593.1 74.2C588.3 81.5 589.7 91 591.4 99.2C591.4 99.4 591.5 99.6 591.6 99.7C591.2 106 590.9 111.3 590.9 111.3C590.9 111.3 579.4 117.8 571.6 112.2C563.7 106.6 568.1 97.2 571.9 95Z" fill="#292C3D"/>
<path d="M605.6 141.1L608.5 142.8C608.5 142.8 612.1 152 611.4 152.8C610.7 153.6 603.4 145.5 603.1 144.3C602.9 143 604.8 141.5 605.6 141.1Z" fill="#292C3D"/>
<path d="M601.9 108.9C601.9 108.9 620.6 110.2 622.3 111.9C624 113.6 608.2 142.6 608.2 142.6L605.6 141.1C605.6 141.1 609.5 127.3 610.5 124.1C611.5 120.9 613.5 117 613.1 116.5C612.7 116 593.9 118.8 594 113.5C594.3 108.2 601.9 108.9 601.9 108.9Z" fill="#F9A57E"/>
<path d="M592.7 77.3C592.7 77.3 590.7 82.6 591.9 86.6L585.4 85C585.4 85 588.1 76.1 589.2 74.5C590.4 73.1 592.7 77.3 592.7 77.3Z" fill="#F9A57E"/>
<path d="M592.7 77.3C592.7 77.3 590.7 82.6 591.9 86.6L585.4 85C585.4 85 588.1 76.1 589.2 74.5C590.4 73.1 592.7 77.3 592.7 77.3Z" fill="#E76F59"/>
<path d="M593.4 70.4C593.4 70.4 595.9 71.6 596.6 72.6C597.2 73.6 596.7 75 596.7 76C596.8 76.9 597 78.3 596.9 78.6C596.8 78.8 595.8 78.6 595.7 78.8C595.5 79 594.3 79.8 594 80.6C593.6 81.5 593.1 81.5 592.2 81.1C591.3 80.7 587.9 76.2 587.9 74.1C587.7 71.9 590.8 69.5 593.4 70.4Z" fill="#F9A57E"/>
<path d="M591.2 67.5C591.2 67.5 592.4 69.9 592.5 70.8C592.6 71.7 591.7 74.5 591.2 74.9C590.7 75.3 591.1 71.8 589.8 72.9C588.4 74 589.9 76 589.8 76.4C589.7 76.8 589.1 78.1 587.7 78.2C586.3 78.3 584 71.4 585.5 69.7C587 68 589.6 67.5 591.2 67.5Z" fill="#292C3D"/>
<path d="M583.4 103.1L592.1 102.4C592.1 102.4 596.6 107.4 601.1 107.4C605.5 107.4 616.3 107.4 616.3 107.4C616.3 107.4 615.5 113.7 611.9 118.8C611.9 118.8 597.4 119.9 590.3 119.3C583.2 118.8 576.4 111 583.4 103.1Z" fill="url(#paint1_linear)"/>
<path d="M582.6 104.1C582.8 103.8 583.1 103.4 583.4 103.1L592.1 102.4C592.1 102.4 596.5 107.3 600.9 107.4C595.5 108 585.4 109.2 582.6 104.1Z" fill="#3D3848"/>
<path opacity="0.32" d="M612.2 108.5C610 108.3 607.8 107.8 605.7 107.5H615.3C614.3 108 613.8 108.7 612.2 108.5Z" fill="#CA0045"/>
<path d="M586.2 82.1C586.2 82.1 590.2 83.7 591.5 83.8C591.5 83.8 594.3 90 595.4 91.7C596.5 93.4 592.6 99.8 592.4 102.5C592.4 102.5 590.1 104.7 583.1 103.4C583.1 103.3 581.3 85.9 586.2 82.1Z" fill="url(#paint2_linear)"/>
<path d="M585.1 85.7C586.3 85.1 588.4 85.7 589 86.9C589.7 88.4 589 91.1 589.1 92.7C589.2 94.4 589.3 96.7 589.7 98.4C590 99.7 590.9 101.3 592 102.6C591.1 103.1 588.5 104.2 583 103.2C583 103.2 581.9 92.6 583.7 86.1C584.4 86.1 584.8 85.9 585.1 85.7Z" fill="url(#paint3_linear)"/>
<path d="M600.7 103.8C601.4 103.6 602 103.4 602.6 103C603.1 102.7 603.6 102.4 604.2 102.5C604.6 102.6 608.2 104 607.3 104.7C607 104.9 606.2 104.5 605.9 104.4C605.5 104.2 605 104 604.6 103.8C605 103.8 606.9 104.6 606.7 105C606.3 105.8 604.4 104.7 603.9 104.5C604.2 104.6 605.5 105 605.5 105.4C605.5 106.1 604.1 105.5 603.8 105.4C603.6 105.3 603.4 105.1 603.1 105.1C602.8 105.1 602.5 105.2 602.2 105.3C601.7 105.4 601.2 105.4 600.7 105.3C600.4 105.3 599.7 105.3 599.6 105.1C599.4 104.8 599.6 104.2 599.8 104C600.1 104 600.4 103.9 600.7 103.8Z" fill="#F9A57E"/>
<path d="M601.3 103.8L600.5 106.7C600.5 106.7 581.7 104.5 581.3 101.2C580.9 97.9 582.1 82.4 586.6 84C591.1 85.6 586.7 96.9 587.4 97.7C588.1 98.5 601.3 103.8 601.3 103.8Z" fill="url(#paint4_linear)"/>
<path d="M591 66.2C591 66.2 593.2 64.5 595.6 66.4C597.9 68.3 597.9 71.1 599.8 70.9C599.8 70.9 598.5 74.2 595.7 73.4C592.9 72.6 590.1 68.2 591 66.2Z" fill="#292C3D"/>
<path d="M89.5 98.4C89 98.1 88.5 97.8 88.2 97.3C88.1 97.1 87.9 96.8 87.7 96.7C87.5 96.5 87.3001 96.3 87.1001 96C86.9001 95.8 86.7 95.5 86.4 95.4C86 95.3 86.1 95.8 86.3 96.1C86.4 96.4 87.4 97.1 87.2 97.4C87.1 97.8 86 96.9 85.8 96.8C85.3 96.4 85.3001 95.9 85.1001 95.4C85.0001 95.1 84.8001 95 84.6001 95.3C84.5001 95.6 84.6 95.9 84.7 96.1C84.9 96.6 85.2001 97.2 85.6001 97.5C85.2001 97.3 84.8001 96.6 84.6001 96.3C84.5001 96 84.0001 94.8 83.6001 95C82.7001 95.4 84.4 97.8 84.9 98.1C84.4 97.8 84.1 97.3 83.8 96.9C83.6 96.6 83.2 96 83 96.6C82.7 97.4 84.2 98.3 84.8 98.8C84.3 98.6 84.0001 98.3 83.6001 97.9C83.1001 97.5 82.9 98 83.4 98.5C83.6 98.7 84.1 99.1 84.2 99.2C85.3 100 86 100.2 87.4 100.3C87.9 100.3 88.7 100.9 89 100.7C89.4 100.2 89.4 99.1 89.5 98.4Z" fill="#E8A393"/>
<path d="M88.8 97.1C88.8 97.1 98.9 99.9 100 99.9C101 99.8 103.4 90.9 104.4 86.5C104.5 86.1 105.8 86.1 107.4 84.8C108 84.3 109.9 85.3 110.5 84.8C111.7 86.1 112 87.9 111.3 89.5C109 94.6 107 104.4 101.7 104.5C94.7 104.6 87.5 101 87.5 101L88.8 97.1Z" fill="#DA395B"/>
<path d="M86.7001 98.3C86.7001 98.3 87.1001 97.6 87.2001 97.4C87.3001 97 86.4001 96.4 86.3001 96.1C86.2001 95.8 86.1001 95.3 86.4001 95.4C86.7001 95.5 86.9001 95.8 87.1001 96C87.3001 96.2 87.5001 96.5 87.7001 96.7C87.9001 96.9 88.1001 97.1 88.2001 97.3C88.3001 97.5 88.5001 97.6 88.6001 97.8C88.2001 98.2 86.7001 98.3 86.7001 98.3Z" fill="#E8A393"/>
<path d="M84.1 129.4C84.1 129.4 83.2 133.8 82.3 134.2C81.4 134.6 72.2 132.4 71.7 131.3C71.2 130.3 71.9 129.2 73.9 129.3C75.7 129.4 76.8 130 78.2 129.8C79.5 129.6 80.7 127.2 80.7 127.2L84.1 129.4Z" fill="#292C3D"/>
<path d="M99.6 139.3C99.6 139.3 102 143.1 101.6 144C101.3 144.9 93.1 149.6 92 149.3C90.9 148.9 90.7 147.6 92.2 146.3C93.5 145.1 94.8 144.8 95.7 143.6C96.5 142.6 95.7 140 95.7 140L99.6 139.3Z" fill="#292C3D"/>
<path d="M113.4 107.1C113.4 107.1 109.7 109 108 108.8C106.3 108.6 91.5001 109.7 89.8001 111.2C88.1001 112.6 95.1001 141.1 95.1001 141.1L101 140.1C101 140.1 98.9001 119.3 99.3001 119.1C99.7001 118.9 108.5 119 123.6 119C127.3 119 131.4 111.3 126.7 105.9L113.4 107.1Z" fill="#0254E4"/>
<path opacity="0.65" d="M92.3001 113.5C93.0001 112.3 93.5001 110.9 93.9001 109.5C99.0001 108.9 106.7 108.7 107.9 108.8C109.6 109 113.3 107.1 113.3 107.1L114.2 107C113.1 108.5 111.9 109.8 110.3 110.2C108.4 110.6 106.5 110.7 104.6 111.2C101.4 112 98.3001 113.7 96.8001 116.9C95.1001 120.7 93.3001 124.7 92.1001 129C91.1001 124.7 90.2001 120.2 89.6001 116.6C90.9001 116 91.7001 114.5 92.3001 113.5Z" fill="#00A1CC"/>
<path d="M111.9 103.9C111.9 103.9 94.3001 105 92.6001 106.6C90.9001 108.3 79.6001 127.7 79.6001 127.7L84.3001 131.1C84.3001 131.1 93.6001 117.4 98.0001 112.1C99.0001 110.9 100.4 110.1 102 109.8C103.9 109.5 106.7 109.1 108.8 108.9C112.3 108.7 113.9 107 113.9 107L111.9 103.9Z" fill="#0254E4"/>
<path d="M107.3 76.8C107.9 76.5 108.3 76.1 108.7 75.6C109.1 77.3 110.1 80.4 112.1 81.8C112.1 81.8 108.6 83.7 105.6 83.4C105.6 83.4 105.5 79.3 104.6 77.4C105.6 77.4 106.5 77.2 107.3 76.8Z" fill="#F9A57E"/>
<path d="M107.3 76.8C107.9 76.5 108.3 76.1 108.7 75.6C109.1 77.3 110.1 80.4 112.1 81.8C112.1 81.8 108.6 83.7 105.6 83.4C105.6 83.4 105.5 79.3 104.6 77.4C105.6 77.4 106.5 77.2 107.3 76.8Z" fill="#E76F59"/>
<path d="M104.4 66.3C104.4 66.3 99.9 66.6 98.9 67.9C97.9 69.2 97.9 72.1 98.7 73.4C99.5 74.8 98.5 77.1 98.6 77.7C98.7 78.1 100.2 77.9 100.3 78.1C100.4 78.3 101.5 80.9 103.4 80.7C106.1 80.4 108.7 77.1 109.2 75.2C109.8 73.1 108.5 65.7 104.4 66.3Z" fill="#F9A57E"/>
<path d="M96.9001 69.3C97.0001 69 97.4001 68.5 97.5001 68.1C97.5001 67.8 97.5001 67.5 97.5001 67.3C97.7001 66.5 97.6001 66 99.2001 64.7C100.6 63.6 102.9 63.4 104.5 63.9C105.1 64.1 105.7 64.4 106.2 64.8C106.3 64.9 106.8 65.2 106.8 65.4C106.8 65.6 106.3 66 106.1 66.2C105.8 66.5 105.7 66.9 105.5 67.3C104.2 69.5 102 72.2 99.2001 70.9C98.8001 70.7 98.5001 70.5 98.1001 70.3C98.0001 71.3 98.1001 72.3 98.6001 73.2C98.6001 73.2 97.8001 73 97.3001 72.2C96.5001 71 96.6001 70 96.9001 69.3Z" fill="#292C3D"/>
<path d="M105.4 65.9C105.8 65.4 106.7 65.2 107.3 65.1C108.4 64.9 109.3 65.5 109.9 66.4C110.3 67 110.6 67.6 110.8 68.2C111.2 69.3 111.4 70 111.4 71.2C111.4 72.3 111.3 73.5 110.7 74.5C110.2 75.4 109.1 76.7 108.3 76.7C108 76.7 106.8 74.9 106.7 74.4C106.6 73.9 106.8 73.8 107.1 73.4C107.6 72.8 108 71.8 107.3 71.2C106.2 70.3 105.2 71.3 105.3 73C105.3 73 105.1 74 104.8 74C104.6 74.1 101.7 70.3 105.4 65.9Z" fill="#292C3D"/>
<path d="M129.5 107.5C129.5 107.5 124.2 113.2 110.4 109.3C110.4 109.3 109.9 105.8 108.5 102.4C107 99 104.7 92.3 104.2 88.7C103.7 84.6 105.7 82.5 105.7 82.5C105.7 82.5 108.3 84.4 111.5 81.1C111.5 81.1 118.3 81.9 122.3 89.1C126.3 96.3 129.5 107.5 129.5 107.5Z" fill="#FF4C6B"/>
<path d="M110.5 87C110.5 86.8 110.6 86.7 110.6 86.5C113.9 88.1 113.5 91.3 112.7 96.1C112.1 99.8 110.3 105.7 110 107C109.7 105.7 109.2 104.1 108.5 102.4C107.8 100.8 107 98.6 106.2 96.2C107.4 94.4 108.2 92.5 108.9 90.5C109.3 89.3 110.1 88.2 110.5 87Z" fill="#DA395B"/>
<path d="M87.8 95L76.2 88.1C76.2 88.1 72 92.3 70.8 97.9L84 104.1C84 104.1 86 99.3 87.8 95Z" fill="white"/>
<path d="M78.8 99.4C81.5 98.6 84.4 96.5 85.7 93.8L87.8 95C86 99.2 83.9 104.1 83.9 104.1L74.3 99.6C75.8 99.9 77.2 99.9 78.8 99.4Z" fill="#D8D8D8"/>
<path d="M87.9 102.2C87.3 102.2 86.7 102.3 86.2 102C86 101.9 85.7 101.7 85.4 101.7C85.1 101.7 84.8 101.6 84.5 101.5C84.2 101.4 83.9 101.3 83.6 101.4C83.2 101.5 83.6 101.8 83.8 102C84.1 102.2 85.2 102.2 85.3 102.6C85.4 103 84 102.9 83.7 102.8C83.1 102.7 82.9 102.3 82.4 102C82.1 101.8 81.9 101.8 81.9 102.2C81.9 102.5 82.2 102.7 82.4 102.9C82.8 103.2 83.4 103.5 83.9 103.6C83.5 103.6 82.8 103.3 82.4 103.1C82.1 102.9 81.1 102.1 80.9 102.5C80.3 103.3 83.1 104.4 83.6 104.4C83.1 104.4 82.6 104.2 82 104C81.7 103.9 81 103.6 81.1 104.1C81.3 104.9 83 104.9 83.8 105.1C83.3 105.2 82.8 105.1 82.3 105C81.6 104.9 81.8 105.4 82.5 105.6C82.8 105.7 83.4 105.8 83.5 105.8C84.9 105.9 85.6 105.7 86.8 105.1C87.2 104.9 88.2 104.9 88.4 104.6C88.8 103.8 88.1 102.8 87.9 102.2Z" fill="#F9A57E"/>
<path d="M87.6001 101.7L87.3 105.6C87.3 105.6 104.1 106.9 106 105.7C107.9 104.5 108.8 102.5 109.4 100.7C110.6 97.1 115.4 87.3 111.1 85.8C109.7 85.3 108 85.3 107.1 87.1C105.1 91.1 102.9 99.9 102.3 100.2C101.5 100.8 87.6001 101.7 87.6001 101.7Z" fill="#FF4C6B"/>
<path d="M221.4 179.9C221.4 179.9 223.8 186.9 225.2 190C233.1 207.3 218.5 205.1 213 204.3C207.5 203.5 201.2 201.4 201.5 196.9C201.7 193.9 203.6 193.5 204.3 192.5C205.1 191.5 203.6 189.8 204.2 187.3C204.8 184.8 209 184.3 209.8 183.6C210.6 182.9 212.3 181 211.5 177.4C210.7 173.8 210.3 171.9 212.7 169.5C215.1 167.1 218.7 168.2 218.7 168.2L221.4 179.9Z" fill="url(#paint5_linear)"/>
<path d="M248.5 206.8C248 206.4 246.1 207.5 244.7 208C243.9 208.3 242.3 208.3 241.1 208.3C241.1 209 241 209.7 240.8 210.3C241.7 210.3 242.4 210.5 243 210.5C243.7 210.4 245 210.3 245.5 210.2C246 210.1 246.7 210.1 247.1 210.4C248.7 211.7 249.5 211.8 249.7 211.3C249.7 211.2 248.5 210.1 248.1 209.7C248.8 210.3 250.5 211.5 250.8 211.2C251.1 210.9 249.5 209.5 248.8 208.9C249.5 209.5 251.3 211 251.7 210.9C252.8 210.5 249 207.2 248.5 206.8Z" fill="#F9A57E"/>
<path d="M255.2 210.6H235.7V213.1H255.2V210.6Z" fill="#292C3D"/>
<path d="M242.5 208L241.8 210.8C241.8 210.8 232.8 209.8 229.7 208.4C226.6 207 223.6 199.7 223.6 199.7L225.9 190.5C225.9 190.5 230.4 202.5 232 204C233.7 205.5 242.5 208 242.5 208Z" fill="#FF4C6B"/>
<path d="M279 203H240.9C239.9 203 239.1 202.2 239.1 201.2V178.2C239.1 177.2 239.9 176.4 240.9 176.4H279C280 176.4 280.8 177.2 280.8 178.2V201.2C280.8 202.2 280 203 279 203Z" fill="#AFEAF0"/>
<path d="M241.2 201.2V178.2C241.2 177.2 242 176.4 243 176.4H240.8C239.8 176.4 239 177.2 239 178.2V201.2C239 202.2 239.8 203 240.8 203H243C242 203 241.2 202.2 241.2 201.2Z" fill="#292C3D"/>
<path d="M260 209.6C260 209.6 260.8 201.5 257.2 198.8C257.2 198.8 256.4 198.1 257.7 197.3C259.1 196.5 262.9 195.6 264.2 198C265.5 200.4 266.4 204.5 265.8 209.6H260Z" fill="url(#paint6_linear)"/>
<path d="M208.7 228.9H207V274.4H208.7V228.9Z" fill="#AFEAF0"/>
<path d="M240.7 228.9H239V274.4H240.7V228.9Z" fill="#AFEAF0"/>
<path d="M245.4 226.2H202.4V230.7H245.4V226.2Z" fill="#292C3D"/>
<path d="M225.7 254.1C225.7 254.1 221.3 257.9 221.3 258.5C221.3 259.1 228.8 271.8 230.1 271.8C231.4 271.8 231.7 269.6 231.5 268.8C231.3 268 228.9 255.8 228.9 255.8L225.7 254.1Z" fill="#292C3D"/>
<path d="M219.4 256.5C219.4 256.5 215.1 260.5 215.2 261C215.3 261.5 223.1 274 224.4 274C225.7 274 225.9 271.8 225.7 271C225.5 270.2 222.7 258.1 222.7 258.1L219.4 256.5Z" fill="#292C3D"/>
<path d="M222.1 212.8C222.1 212.8 227.6 215.4 234 217.9C238 219.5 243.7 221.5 243.5 225.9C243.4 229.1 230.6 259.6 230.6 259.6L224.8 256.7C224.8 256.7 235.4 231 235.2 229.3C235 227.6 233.8 229.1 223.3 228.1C212.8 227.1 209.6 225.2 209.7 220.2C209.8 215.2 212.5 208.3 216.8 206.5C221.1 204.7 222.1 212.8 222.1 212.8Z" fill="url(#paint7_linear)"/>
<path d="M222.1 212.8C222.1 212.8 224.2 215.5 230.6 218C234.6 219.6 239.7 222.5 239.7 225.3C239.7 228.5 227.8 258.3 227.8 258.3L224.9 256.8C224.9 256.8 235.5 231.1 235.3 229.4C235.1 227.7 233.9 229.2 223.4 228.2C212.9 227.2 209.7 225.3 209.8 220.3C209.9 215.3 212.6 208.4 216.9 206.6C221.1 204.7 222.1 212.8 222.1 212.8Z" fill="#37389E"/>
<path d="M219.2 209C219.2 209 220.9 216 224.9 217.7C228.9 219.4 238.1 221.3 238.1 225.7C238.1 228.9 224.4 260.3 224.4 260.3L217.4 257C217.4 257 226.7 231.6 226.5 229.8C226.3 228.1 227.2 228.9 216.7 228.3C206.2 227.7 204.8 225.7 204.7 220.7C204.6 215.7 211.1 209 211.1 209C215.2 207.1 219.2 209 219.2 209Z" fill="url(#paint8_linear)"/>
<path d="M222 178.7C222 178.7 220.3 185.5 223.4 189C223.4 189 227.5 194.5 221 195.5C214.5 196.4 215.4 187.9 215.4 187.9C215.4 187.9 216.5 178.5 214.8 174.5C214.8 174.5 219 176.8 222 178.7Z" fill="#E76F59"/>
<path d="M217.6 169.1C217.6 169.1 226.5 169.6 226.5 171.7C226.6 173.9 225.8 175.3 226 177.3C226.6 181.4 224.2 186 223.2 186.2C221.6 186.5 216.1 184.1 215.2 180.7C214.4 177.4 214.2 167.8 217.6 169.1Z" fill="#F9A57E"/>
<path d="M226.1 208.4C226.1 208.4 228 208.6 228.4 208.6C228.8 208.6 233.9 205.7 234.5 206.1C235.1 206.5 240.3 210.1 240.1 210.8C239.9 211.5 238.5 211.1 235.7 208.7C235.7 208.7 239.4 211.3 238.7 211.9C238 212.5 234.8 209.6 234.8 209.6C234.8 209.6 238.1 212.1 237.3 212.6C236.5 213.2 233.6 210.2 233.6 210.2C233.6 210.2 235.9 212.4 235.6 212.8C235.3 213.2 233.8 212.5 232.3 211.1C232.3 211.1 232 210.9 231.2 211.4C230.4 211.8 225.2 211 225.2 211L226.1 208.4Z" fill="#F9A57E"/>
<path d="M227.3 175.9C227.3 175.9 221.1 177.3 219.1 172.6C217.5 168.8 218.1 168.4 218.1 168.4C218.1 168.4 221.5 165.7 225.5 169.4C228.2 171.8 227.3 175.9 227.3 175.9Z" fill="url(#paint9_linear)"/>
<path d="M218.6 168.3C218.6 168.3 221.9 171.2 220.1 173.9C218.5 176.4 219.5 177.7 219.2 179.4C219.2 179.4 218.4 179 218.2 178.3C218 177.5 217.8 175.6 216.7 175.9C215.7 176.2 214.7 177.5 216.7 179.1C216.7 179.1 217.8 181.3 216.4 183.1C216.4 183.1 211.1 178.5 212.6 173.4C214.2 168.2 218.6 168.3 218.6 168.3Z" fill="url(#paint10_linear)"/>
<path d="M222.7 188.1C222.7 188.1 223.1 191.3 221.9 191.9C220.7 192.5 216.6 186.4 216.6 186.4C216.6 186.4 211 188.8 209.7 189.8C208.4 190.8 210.3 200.7 210.3 200.7C210.3 200.7 206.4 212.5 206.9 215.1C207.4 217.6 224.4 214.6 224.4 214.6C224.4 214.6 226 202.5 226.7 200.7C227.3 198.9 228.2 197.8 227.3 195.2C226.1 191.5 225.8 190.6 225.8 190.6C225.8 190.6 224 188.6 222.7 188.1Z" fill="#FF4C6B"/>
<path d="M212.6 198.8C211.3 197.1 212.1 194.2 210.7 192.5C210.3 192 209.9 191.4 209.4 190.9C209.1 193.7 210.4 200.7 210.4 200.7C210.4 200.7 206.5 212.5 207 215.1C207.5 217.6 224.5 214.6 224.5 214.6C224.5 214.6 226 204 226.7 201.2C226.3 201.8 222.8 206.1 219 205.5C216.9 205 215.2 202.3 212.6 198.8Z" fill="#DA395B"/>
<path d="M215.6 177C215.6 177 215.5 178.3 216.6 178.6C217.1 178.7 217 180.2 217.4 181.6C218.1 184.4 217.7 186.2 215.6 187C214.1 187.6 212 188 209.7 189.7C207.3 191.4 208.9 184.4 211.8 182.7C214.8 181 215.6 177 215.6 177Z" fill="url(#paint11_linear)"/>
<path d="M269.3 213.1H256.9C256.2 213.1 255.7 212.3 256 211.6L256.7 210.1C256.9 209.8 257.2 209.5 257.6 209.5H268.6C269 209.5 269.3 209.7 269.5 210.1L270.2 211.6C270.5 212.3 270 213.1 269.3 213.1Z" fill="url(#paint12_linear)"/>
<path d="M288.3 213.1H179.2V216H288.3V213.1Z" fill="#7695A8"/>
<path d="M184.6 214.4H183.3V274.5H184.6V214.4Z" fill="#7695A8"/>
<path d="M284.3 214.4H283V274.5H284.3V214.4Z" fill="#7695A8"/>
<path d="M227.7 208.3L227.4 212C227.4 212 205.7 212.2 202.5 211.8C199.2 211.4 197.8 207.1 199.9 203.3C202 199.5 208.3 189.6 211 189.4C213.7 189.2 215.3 192.9 213.1 197C210.8 201.1 206.7 205 207.6 205.6C208.4 206.3 227.7 208.3 227.7 208.3Z" fill="#FF4C6B"/>
<path d="M486.1 194.2L488.6 230.2L516 231.9L515.3 195.2L486.1 194.2Z" fill="#AFEAF0"/>
<path d="M513.5 193.3C511.3 192.6 506.2 212.6 507 215.9C507.5 218.1 526.2 217.3 526.2 217.3L526.4 213.5C526.4 213.5 514.6 212.2 514.6 211.2C514.7 210.2 518.1 203.8 518.1 203.8C518.1 203.8 515.7 194 513.5 193.3Z" fill="#AFEAF0"/>
<path d="M504.7 181.5L499.7 182.3C499.7 182.3 501.1 186.8 498.9 190.6C498.9 190.6 502.5 194.5 505 193.5C507.7 192.4 506.7 189.7 506.7 189.7C506.7 189.7 504 187.5 504.7 181.5Z" fill="#E76F59"/>
<path d="M498.9 173.8C498.9 173.8 506.7 172.9 507.3 174.2C507.8 175.5 508 179.2 508.5 180C509 180.8 509.9 181.7 509.6 182.2C509.3 182.7 508.9 182.6 508.7 183.1C508.5 183.7 508.6 186.9 507.5 187.4C506.5 187.9 501.2 187.6 499.3 184.6C497.3 181.6 495.1 174.1 498.9 173.8Z" fill="#F9A57E"/>
<path d="M496.9 174.5L502.1 176.9C502.1 176.9 501.9 179.9 503.4 182.6C503.4 182.6 502.9 183.3 502.4 182.9C501.9 182.5 501.6 182.3 501.5 181.5C501.4 180.7 500.9 178.7 499.6 179.7C498.2 180.7 499.7 181.9 500.4 182.2C500.4 182.2 501.5 186.1 499.4 185.9C499.4 185.9 497.5 184.7 495.8 179.9C494.1 175.2 495.6 173.6 496.9 174.5Z" fill="#292C3D"/>
<path d="M509.5 172.8C509.5 172.8 511.4 175.5 507 177.3C502.7 179.1 496.5 174.4 496.5 174.4C496.5 174.4 496.7 172.1 500.1 171.1C502.7 170.3 505.1 170.5 506.4 171.9C508.7 174.4 509.5 172.8 509.5 172.8Z" fill="#292C3D"/>
<path d="M492.5 233.8H491V273.3H492.5V233.8Z" fill="#AFEAF0"/>
<path d="M520.2 233.8H518.7V273.3H520.2V233.8Z" fill="#AFEAF0"/>
<path d="M524.2 230.2H486.9V235.4H524.2V230.2Z" fill="#292C3D"/>
<path d="M499.5 189.3C499.5 189.3 492.5 191.3 492.2 191.4C492.2 191.4 493 201.6 492.9 204.3C492.8 207 491.7 218.7 491.7 218.7H513.5C513.5 218.7 513.2 206.8 513.4 204.2C513.4 204.2 512.7 195.4 513.6 193.3C513.6 193.3 509 190.4 506.9 189.6C506.9 189.6 506.9 192.5 505.4 193.3C503.7 194.1 499.5 189.3 499.5 189.3Z" fill="#AFEAF0"/>
<path d="M513.3 204.2C513.3 204.2 513.2 203 513.2 201.3C512.8 202.7 512.3 204.2 511.6 205.6C510.2 208.5 506.7 212.6 502.9 212.2C499.1 211.8 496.1 208.4 495.2 204.8C494.5 202.1 494.8 199.1 493.9 196.4C493.5 195.2 492.9 194.3 492.2 193.4C492.4 196.5 492.8 202.4 492.7 204.4C492.6 207.1 491.5 218.8 491.5 218.8H513.3C513.4 218.7 513.2 206.8 513.3 204.2Z" fill="#5AC4E0"/>
<path d="M513 216.6L508 208.2C508 208.2 506.8 207.5 506.8 208.9L512.5 216.9C512.6 217 513.9 218.6 513 216.6Z" fill="#292C3D"/>
<path d="M511.1 214.5C510.7 214 510.3 213.1 509.5 212.7C508.7 212.3 505.1 213.8 504.8 213.8C504.7 213.8 502.4 214.5 501.9 214.4C501.8 215.2 501.6 216.1 501.4 216.9C502.2 217.2 505 216.7 505.3 216.6C506 216.5 506.6 216.7 507.2 217.1C507.8 217.5 508.3 217.8 508.7 217.8C509.1 217.7 508.7 217.2 508.4 217C509.4 218.2 509.9 218 510.1 217.8C510.4 217.5 509 216.3 508.9 216.2C508.8 216 507.6 215.2 507.6 215.2C508 215.3 508.9 216.1 509.1 216.2C509.2 216.3 510.6 218.4 511.1 217.8C511.6 217.2 510.4 216.1 510 215.5C509.5 214.8 508.5 214.3 508.5 214.3C509.1 214.2 510 215.3 510.3 215.6C510.6 216 511.4 217.7 512.1 217.3C512.7 216.6 511.4 215 511.1 214.5ZM508.3 216.8C508 216.5 507.2 216 507.2 216C507.2 216 507.9 216.4 508.3 216.8Z" fill="#F9A57E"/>
<path d="M510.9 213C510.9 213 512.2 213.5 512.5 214.1C512.7 214.7 512.4 215.1 512 214.9L510.9 213Z" fill="#F9A57E"/>
<path d="M492.2 191.4C492.2 191.4 489.9 193 488.8 195.1C487.7 197.1 481.8 212.7 482.6 215.9C483.1 218.1 501.8 217.3 501.8 217.3L502 213.5C502 213.5 490.2 212.2 490.2 211.2C490.3 210.2 493.7 203.8 493.7 203.8C493.7 203.8 495.6 195.9 492.2 191.4Z" fill="#AFEAF0"/>
<path d="M522.3 267C522.3 267 528.6 268.7 531.1 269.5C533.2 270.2 533 272.1 530.7 273C528.4 273.9 526.4 273.6 525.8 272.9C525.2 272.2 523.9 272.6 523.4 272.9C522.9 273.2 518.4 272.6 518.1 271.7C517.8 270.8 518.2 267.2 518.2 267.2L522.3 267Z" fill="#292C3D"/>
<path d="M512.2 267.4C512.2 267.4 518.3 269.6 520.8 270.6C522.9 271.5 522.5 273.4 520.1 274.1C517.7 274.8 515.8 274.3 515.2 273.6C514.6 272.9 513.3 273.1 512.8 273.4C512.3 273.6 507.9 272.7 507.7 271.7C507.5 270.8 508.6 266.5 508.6 266.5L512.2 267.4Z" fill="#292C3D"/>
<path d="M525.9 231C525.2 228.4 512.5 220.7 511.4 218.4H501.1C500.1 219.9 498.8 222.5 498.4 226.3C497.7 232.8 503.8 230.6 509.8 230.8C515.8 231 518.2 234.7 518.4 236.3C518.6 237.9 517.5 267.6 517.5 267.6H525.6C525.5 267.5 526.3 232.5 525.9 231Z" fill="#0254E4"/>
<path opacity="0.65" d="M520.1 267.5C520.1 267.5 522.8 232.1 522.2 231.2C520.3 228.4 511.3 221.8 508.2 218.7L501.1 218.4C500.1 219.9 498.8 222.5 498.4 226.3C497.7 232.8 503.8 230.6 509.8 230.8C515.8 231 518.2 234.7 518.4 236.3C518.6 237.9 517.5 267.6 517.5 267.6L520.1 267.5Z" fill="#00A1CC"/>
<path d="M520.7 231.8C520.2 229.6 506.9 221.7 504.1 218.7L493.2 218C491.9 219.5 490.5 221.8 490.6 224.3C490.7 230.6 495.4 232.1 501.4 232.3C508.3 232.5 511.9 233.4 511.8 235C511.8 236.6 507.5 267.5 507.5 267.5L515.6 267.9C515.6 267.8 521 233.3 520.7 231.8Z" fill="#0254E4"/>
<path d="M540.2 216.1H515.3V217.6H540.2V216.1Z" fill="#3F6A85"/>
<path d="M540.5 216.8H515C514.2 216.8 513.5 216.1 513.5 215.3V197.7C513.5 196.9 514.2 196.2 515 196.2H540.5C541.3 196.2 542 196.9 542 197.7V215.3C542 216.2 541.3 216.8 540.5 216.8Z" fill="url(#paint13_linear)"/>
<path d="M514.3 215.4V197.8C514.3 197 515 196.3 515.8 196.3H514.5C513.7 196.3 513 197 513 197.8V215.4C513 216.2 513.7 216.9 514.5 216.9H515.8C515 216.8 514.3 216.2 514.3 215.4Z" fill="url(#paint14_linear)"/>
<path d="M527.7 208C528.473 208 529.1 207.373 529.1 206.6C529.1 205.827 528.473 205.2 527.7 205.2C526.927 205.2 526.3 205.827 526.3 206.6C526.3 207.373 526.927 208 527.7 208Z" fill="white"/>
<path d="M574.6 214.9H555.9V217.6H574.6V214.9Z" fill="#292C3D"/>
<path d="M550.8 197.5L556.9 216.4L557.8 216L551.8 197.2L550.8 197.5Z" fill="url(#paint15_linear)"/>
<path d="M584.4 263.4C584.4 263.4 579.4 265.9 576.7 267C574.5 267.9 574.9 269.9 577.5 270.7C580 271.4 582.1 271 582.7 270.2C583.3 269.4 584.7 269.7 585.2 270C585.7 270.3 589.9 269.3 590.2 268.3C590.4 267.3 589.4 263 589.4 263L584.4 263.4Z" fill="#292C3D"/>
<path d="M610.4 217.1L601.9 217.2C601.9 217.2 581.2 224.9 578.5 227C575.8 229 583 264.4 583 264.4L590 263.7C590 263.7 588.3 232 589.7 230.7C591.1 229.3 613 227.3 614.4 226.9C615.7 226.5 613.7 221.6 610.4 217.1Z" fill="#4D505E"/>
<path d="M610.4 217.1L601.9 217.2C601.9 217.2 581.2 224.9 578.5 227C575.8 229 583 264.4 583 264.4L590 263.7C590 263.7 588.3 232 589.7 230.7C591.1 229.3 613 227.3 614.4 226.9C615.7 226.5 613.7 221.6 610.4 217.1Z" fill="url(#paint16_linear)"/>
<path d="M627.6 198.2L619 232.6L615.4 231.7L622.8 197L627.6 198.2Z" fill="#AFEAF0"/>
<path d="M589.7 233.6H588.3V271.2H589.7V233.6Z" fill="#AFEAF0"/>
<path d="M616.1 233.6H614.7V271.2H616.1V233.6Z" fill="#AFEAF0"/>
<path d="M620 230.2H584.5V235.1H620V230.2Z" fill="#292C3D"/>
<path d="M608.1 181L603.2 182C603.2 182 604.6 188 603.2 191.3C603.2 191.3 605.9 192.3 610.3 189C610.4 189 607.6 186.7 608.1 181Z" fill="#E76F59"/>
<path d="M608.9 174.1C608.9 174.1 603.5 172.1 602 172.8C600.5 173.5 598.8 174.6 599.1 175.7C599.4 176.8 599.6 180 599.2 181.1C598.8 182.1 598.2 182.8 598.4 183.2C598.5 183.6 599.4 183.3 599.6 183.7C599.8 184.1 601.1 187 601.8 187.4C602.5 187.8 606.7 186.3 608.7 181.8C610.7 177.2 610.1 174.8 608.9 174.1Z" fill="#F9A57E"/>
<path d="M578.3 263.9C578.3 263.9 571.8 266.2 569.1 267.3C566.9 268.2 567.3 270.2 569.8 271C572.3 271.8 574.4 271.3 575 270.5C575.6 269.7 577 270 577.5 270.3C578 270.6 582.3 269.6 582.5 268.7C582.7 267.7 582.1 264.9 582.1 264.9L578.3 263.9Z" fill="#292C3D"/>
<path d="M605.7 172.4C605.7 172.4 607.6 170.3 609.6 171.5C611.7 172.7 610.9 174.6 611.3 175.5C612.3 177.5 612.2 179.1 611.1 180.9C610 182.9 610.6 184.2 608.8 184.4C606.9 184.6 606.4 184.1 606.4 184.1C606.4 184.1 607.1 182.7 607.1 181.2C607.1 181.2 608.7 180.3 608.5 178.9C608.3 177.5 606.6 177.3 606.1 178.8C605.6 180.2 606.5 181.2 605.4 181.9C605.4 181.9 604.8 182.1 604.8 180.5C604.8 178.9 605.1 177.6 605.1 177.6C605.1 177.6 601.3 179.6 598.4 177.6C595.5 175.6 597.5 172.4 599.6 171.7C603 170.4 605.7 172.4 605.7 172.4Z" fill="#292C3D"/>
<path d="M612.7 215.8L603.2 217.7C603.2 217.7 581.7 225.5 579 227.5C576.3 229.5 575.8 264.4 575.8 264.4L582.9 265.1C582.9 265.1 585.9 232 587.6 231C589 230.2 612.2 230.2 613.6 230.2C615.7 230.2 617.5 220.6 612.7 215.8Z" fill="url(#paint17_linear)"/>
<path d="M573.4 213.4C573.4 213.4 572 213.6 571.7 213.6C571.4 213.6 567.5 211.2 567.1 211.5C566.7 211.8 562.6 214.7 562.8 215.3C562.9 215.9 564 215.5 566.2 213.7C566.2 213.7 563.3 215.8 563.9 216.3C564.4 216.8 566.9 214.5 566.9 214.5C566.9 214.5 564.3 216.5 564.9 216.9C565.5 217.4 567.8 215 567.8 215C567.8 215 566 216.8 566.3 217.1C566.5 217.4 567.7 216.9 568.9 215.7C568.9 215.7 569.1 215.6 569.8 215.9C570.4 216.3 574.4 215.6 574.4 215.6L573.4 213.4Z" fill="#F9A57E"/>
<path d="M572.4 212.2L573.6 216.7C573.6 216.7 593.2 212.3 595.2 210.8C597.2 209.3 609 196.5 607.3 192.9C605.6 189.3 603.3 190.2 601.9 192.2C600.5 194.2 593.7 202.9 592.7 203.9C591.8 205.1 572.4 212.2 572.4 212.2Z" fill="#0254E4"/>
<path d="M575.6 215.5C575.6 215.5 574.1 215.7 573.8 215.7C573.5 215.7 569.4 213.3 568.9 213.6C568.4 213.9 564.2 216.8 564.3 217.4C564.4 218 565.6 217.6 567.9 215.8C567.9 215.8 564.9 217.9 565.5 218.4C566.1 218.9 568.7 216.6 568.7 216.6C568.7 216.6 566 218.6 566.6 219C567.2 219.5 569.6 217.1 569.6 217.1C569.6 217.1 567.7 218.9 568 219.2C568.3 219.5 569.4 219 570.7 217.8C570.7 217.8 570.9 217.7 571.6 218C572.3 218.4 576.4 217.7 576.4 217.7L575.6 215.5Z" fill="#F9A57E"/>
<path d="M610 188.6C610 188.6 605.6 190.8 603.1 190.7C603.1 190.7 599.1 199.1 598.8 201.4C598.5 203.7 599.3 218.4 599.3 218.4C599.3 218.4 609 220.5 614.7 217.6C614.7 217.6 613.2 208 613.8 203.2C614.5 198.4 614 192.2 610 188.6Z" fill="#0254E4"/>
<path opacity="0.65" d="M608.1 204.3C609.1 202.1 612.9 198.5 611 195.9C609.5 193.9 608.4 193.7 606.7 195.7C605.1 197.5 603.7 199.4 601.9 201C601 201.8 599.9 202.5 598.9 203.2C598.9 207.8 599.4 218.3 599.4 218.3C599.4 218.3 602.6 219 606.3 219C604.2 214.7 606.1 209 608.1 204.3Z" fill="#00A1CC"/>
<path d="M574.6 214.3L575.9 218.8C575.9 218.8 596.5 214.4 598.5 212.9C600.6 211.4 613 198.6 611.2 195C609.4 191.4 607 192.3 605.5 194.3C604 196.3 596.9 205 595.9 206C594.9 207 574.6 214.3 574.6 214.3Z" fill="#0254E4"/>
<path d="M476.8 190.8C476.8 190.8 478.2 188.1 478.6 186.6C479.1 185.1 480.9 180.1 481.7 180.5C482.5 181 480.8 185.2 480.8 185.2C480.8 185.2 482.2 179.9 483.2 180.1C484.2 180.3 481.9 185.3 481.9 185.3C481.9 185.3 483.7 180.6 484.3 181C484.9 181.4 484.5 182.4 482.9 185.9C482.9 185.9 484.3 182.9 484.9 183.5C485.6 184.1 483.8 186.9 483.2 187.6C482.5 188.3 479.4 191.2 478.7 192.3C478.8 192.5 477 192 476.8 190.8Z" fill="#F9A57E"/>
<path d="M479.8 187.2C479.8 187.2 482.1 185.7 482.8 186.1C483.5 186.6 482.9 187.2 480.5 188.2C480.5 188.2 479.7 189.4 479.2 189.5C479.1 189.5 478.3 188 479.8 187.2Z" fill="#FFB089"/>
<path d="M476.6 189.4C476.6 189.4 468.6 202.9 468.1 202.8C467.7 202.7 456 199.2 452 196.2C450.9 195.4 450.9 204.6 452 205.2C453.1 205.8 470.1 208.8 470.9 208.3C471.7 207.8 480.3 191.6 480.3 191.6L476.6 189.4Z" fill="#0254E4"/>
<path opacity="0.65" d="M472.1 205.9C466.3 209.6 452.7 198.9 451.1 198.5C450.9 201 451.2 204.8 452 205.2C453.1 205.8 470.1 208.8 470.9 208.3C471.1 208.2 471.8 207 472.7 205.4C472.6 205.6 472.4 205.8 472.1 205.9Z" fill="#00A1CC"/>
<path d="M452.2 190.4C451.7 190.3 449.2 185.1 448.2 184.1C447.7 187.6 445.6 196 445.6 196C448.2 198.8 453.4 197.1 453.4 197.1C452.4 195.2 452 191.6 452.2 190.4Z" fill="#E76F59"/>
<path d="M450.8 177.5C450.8 177.5 455.8 178.6 456.8 180.1C457.8 181.6 457.8 185.4 458.3 186.4C458.6 187 458.9 187.5 459.1 187.9C459.2 188.2 458.9 188.4 458.4 188.6C458.2 188.7 458 188.9 457.9 189.1C457.6 190 456.8 192.4 455.9 192.7C454.9 193.1 449.7 193 448.2 188.5C446.7 183.9 447.5 176.5 450.8 177.5Z" fill="#F9A57E"/>
<path d="M471.3 263.9L467.9 263.3C467.9 263.3 467.7 266.5 467.4 267.3C467.4 267.3 471.2 269.1 475.1 267.7C475.1 267.7 472.6 266.6 472 265.9C471.4 265 471.3 263.9 471.3 263.9Z" fill="#F9A57E"/>
<path d="M467.8 265.7C467.8 265.7 470.4 267.5 474.4 267.2C474.4 267.2 479.3 269.8 479.6 270.5C480 271.4 477.9 271.5 474.6 271.4C471.8 271.3 472 271.1 471.4 270.5C470.8 269.9 470.1 269.3 470.1 269.3C470.1 269.3 469.8 269.7 469.5 271.3L468.2 271.1C468.2 271.1 468.3 269.5 467.7 268.7C467.3 268.1 466.8 266.8 467.8 265.7Z" fill="#292C3D"/>
<path d="M457.7 263L455.1 262.3C455.1 262.3 453.6 264.8 453.2 265.5C453.2 265.5 456.5 268.1 460.6 267.6C460.6 267.6 458.4 266 457.9 265.1C457.5 264.2 457.7 263 457.7 263Z" fill="#F9A57E"/>
<path d="M453.5 264.9C453.5 264.9 455.9 266.9 459.9 267C459.9 267 464.5 270 464.8 270.7C465.2 271.6 463 271.5 459.7 271.1C456.9 270.7 457.1 270.6 456.6 269.9C456.1 269.3 455.4 268.6 455.4 268.6C455.4 268.6 455.1 268.9 454.7 270.5L453.5 270.2C453.5 270.2 453.8 268.7 453.3 267.8C452.8 267.2 452.4 265.8 453.5 264.9Z" fill="#292C3D"/>
<path d="M445.9 216.3L452.6 221C452.6 221 474.3 225.2 477 227.2C479.7 229.3 459.5 265.8 459.5 265.8L453.2 263.7C453.2 263.7 468.3 231.3 466.9 230C465.5 228.6 443.2 226.6 441.8 226.2C440.5 225.8 442.4 220.8 445.9 216.3Z" fill="#FF4C6B"/>
<path d="M445.9 216.3L452.6 221C452.6 221 474.3 225.2 477 227.2C479.7 229.3 459.5 265.8 459.5 265.8L453.2 263.7C453.2 263.7 468.3 231.3 466.9 230C465.5 228.6 443.2 226.6 441.8 226.2C440.5 225.8 442.4 220.8 445.9 216.3Z" fill="#DA395B"/>
<path d="M443.8 218.4L452.5 219.1C452.5 219.1 474.9 224.7 477.6 226.8C480.3 228.9 473.6 265.4 473.6 265.4L466.8 263.7C466.8 263.7 470.7 231.3 469 230.3C467.6 229.5 444.1 229.5 442.6 229.5C440.5 229.5 439 223.3 443.8 218.4Z" fill="#FF4C6B"/>
<path d="M446.3 194.2C446.3 194.2 449.9 195.8 453.2 196.8C453.2 196.8 457.3 204.8 457.5 207.1C457.8 209.3 459.5 221.6 459.5 221.6C459.5 221.6 446.9 225.2 441.1 222.3C441.1 222.3 442.9 213.6 442.2 208.9C441.7 204.2 442.2 197.8 446.3 194.2Z" fill="#0254E4"/>
<path opacity="0.65" d="M447.8 207.9C447.8 211.9 450.4 213.9 453.1 216.5C454.7 218 456.2 220 457.1 222.3C458.5 221.9 459.6 221.7 459.6 221.7C459.6 221.7 458.7 215.1 458 210.7C455.3 209.5 453.9 207 453 204.2C452.4 202.6 452.1 201.6 451.2 200.4C448.2 200.5 448.1 203.9 447.9 207.2C447.8 207.5 447.8 207.7 447.8 207.9Z" fill="#00A1CC"/>
<path d="M428.1 197.1L436.8 232L440.4 231.1L432.9 195.9L428.1 197.1Z" fill="#AFEAF0"/>
<path d="M467.9 233H466.5V271.1H467.9V233Z" fill="#AFEAF0"/>
<path d="M441.1 233H439.7V271.1H441.1V233Z" fill="#AFEAF0"/>
<path d="M471.8 229.5H435.8V234.5H471.8V229.5Z" fill="#292C3D"/>
<path d="M457.4 181.7C459 181.1 458.3 178.5 457.2 177.8C455.2 176.4 452.7 175.4 450.3 175.5C447.3 175.6 444.6 177.8 442.9 180.1C441.7 181.7 441.7 183.4 440.8 185.1C440 186.7 438.2 187.5 437.2 188.9C436.2 190.2 436.2 192 436.6 193.5C436.9 194.7 437.2 195.8 437 197.1C436.7 198.7 435.5 199.8 435.1 201.3C434.7 202.7 434.9 204.2 435 205.6C435.2 207.4 436 209 437.6 210C440.7 212.1 444.9 209.6 445.4 206.1C445.6 204.5 445.2 203.2 445 201.7C444.8 199.8 445.5 198.7 447.1 197.7C448.5 196.8 449.1 196.3 449 194.6C448.9 193.4 448.8 192.3 449 191.1C449.2 189.8 449.8 189.5 448.8 188.6C448.1 187.9 447.5 187.2 448 186.2C448.5 185.4 449.2 185.1 449.9 185.9C450.1 186.1 450.9 187.8 451.1 186.8C451.2 186.5 450.8 186 450.8 185.7C450.7 185.2 450.8 184.9 451.1 184.6C451.6 184.1 452.4 183.8 452.9 183.2C453.6 182.5 453.6 181.6 454.6 181.2C455.1 181 455.6 181 456.1 181.1C456.3 181.1 457.2 181.8 457.4 181.7Z" fill="#292C3D"/>
<path d="M500.9 214.9H482.2V217.6H500.9V214.9Z" fill="#292C3D"/>
<path d="M506 197.5L499.9 216.4L498.9 216L505 197.2L506 197.5Z" fill="#292C3D"/>
<path d="M474.8 217.6H473.6V272.7H474.8V217.6Z" fill="#7695A8"/>
<path d="M598.6 217.6H597.4V272.7H598.6V217.6Z" fill="#7695A8"/>
<path d="M598.6 217.6H473.6V219.1H598.6V217.6Z" fill="#7695A8"/>
<path d="M479.9 214C479.9 214 481.5 213.9 481.9 213.8C482.2 213.7 486.1 210.4 486.7 210.7C487.2 210.9 492.3 213.2 492.3 213.8C492.3 214.4 491 214.3 488.2 212.8C488.2 212.8 491.8 214.4 491.3 215.1C490.8 215.8 487.6 213.8 487.6 213.8C487.6 213.8 490.8 215.4 490.3 216C489.7 216.6 486.7 214.6 486.7 214.6C486.7 214.6 489 216.1 488.8 216.5C488.6 216.9 487.3 216.6 485.7 215.6C485.7 215.6 485.4 215.5 484.8 216C484.2 216.5 479.6 216.6 479.6 216.6L479.9 214Z" fill="#F9A57E"/>
<path d="M481 213.1V217.4C481 217.4 465.8 218.3 461.6 216.9C457.3 215.5 448.4 204 447.6 202.1C446.7 199.8 450.2 194.2 453.7 199.3C457.2 204.4 463.5 211.3 463.8 211.5C464.1 211.7 481 213.1 481 213.1Z" fill="#0254E4"/>
<path d="M705.2 192.6C705.2 192.6 695.8 191.9 692.9 187.1C690 182.3 692.9 179 695.3 177.5C697.7 176 701.2 173.6 701.4 171.4C701.5 169.2 701.4 163.8 707 162C708.9 161.4 711.1 161.5 712.9 162.3C713.8 162.7 714.6 163.4 715.2 164.2C715.8 165 716 165.6 716.2 166.6C716.4 167.4 716.4 168.1 716.3 169C716.3 170.3 716 171.6 715.9 172.9C715.8 174 715.7 175.1 715.7 176.2C715.7 177 715.8 177.7 716.1 178.4C716.3 179.1 716.7 179.8 717 180.5C717.3 181.2 717.8 182.6 718 183.3C718.3 184.5 718.1 185.2 718 186.4C717.7 189.5 715.4 191.4 712.5 192.2C710.2 192.7 707.6 192.8 705.2 192.6Z" fill="#292C3D"/>
<path d="M711.9 174.9C710.2 174.7 708.9 173.9 708.1 172.8C708.3 174 708.4 176.7 706.4 179.6C706.4 179.6 706.4 185.8 710.4 185.2C714.4 184.6 713.9 179.9 713.9 179.9C713.9 179.9 711.6 178.4 711.9 174.9Z" fill="#E76F59"/>
<path d="M707.7 165C707.7 165 711.5 163.4 713 164.2C714.4 165 715.1 167.2 715.5 169.4C716 171.6 714.8 175.9 712.7 176.6C710.2 177.4 708 175.4 707.2 172.8C707.2 172.8 705 172.3 705.2 169.4C705.4 166.4 706.1 164.7 707.7 165Z" fill="#F9A57E"/>
<path d="M713.1 179.2C713.1 179.2 711.5 182.1 710.6 182.7C709.8 183.3 706.3 178.7 706.3 178.7C706.3 178.7 702.3 181.1 699 182C699 182 697.8 194.2 697.1 197C697.1 197 695.8 212.4 695.8 214.4H716.4C715.8 204 719.9 194.9 719.9 194.9C719.9 194.9 718.7 185.5 719.4 183.2C719.4 183.2 714.8 180.5 713.1 179.2Z" fill="#0254E4"/>
<path opacity="0.65" d="M720 194.9C720 194.9 719.7 192.6 719.5 190C718.1 192.8 717.3 195.8 716.1 198.7C714.8 202.2 710.9 208.8 706.1 207.3C702.3 206.1 701.1 201.7 700.5 198.2C700.2 196.3 699.9 194.3 699.7 192.4C699.5 190.8 699.5 188.2 698.6 186.8C698.1 187.2 697.9 188.8 697.8 189.5C697.7 190.5 697.7 191.5 697.6 192.5C697.6 193 697.6 193.5 697.5 194.1C697.5 194.6 697.4 195 697.3 195.4C697.3 195.7 697.2 196 697.2 196.3V196.4C697.2 196.5 697.1 196.6 697.1 196.7C697.1 196.7 695.8 212.1 695.8 214.1H716.4C715.9 203.9 720 194.9 720 194.9Z" fill="#00A1CC"/>
<path d="M706.5 178.4L704.3 179.8L707.7 185.4L710.6 182.9L713.5 185.2L714.8 180.2L712.8 178.8L710.7 182.3L706.5 178.4Z" fill="white"/>
<path d="M713.4 165.4C713.4 165.4 712.7 168 710.4 168.6C709.4 168.9 708.8 169.8 708.9 170.8C708.9 171.3 707.9 171.3 707.8 171C707.7 170.7 708 169.1 706.7 168.8C705.4 168.5 705.3 170.5 706.5 171.7C706.5 171.7 708.7 174.1 707.7 176.7C706.6 179.3 704.5 181.9 700.3 182.3C696.1 182.8 694.3 188.7 694.3 188.7C694.3 188.7 690.1 183.7 694.8 180.1C699.5 176.5 702.8 174.4 702.8 172.1C702.8 169.7 704.3 163.3 708.3 162.9C712.4 162.5 713.4 165.4 713.4 165.4Z" fill="#292C3D"/>
<path d="M716.1 169.1C716.1 169.1 714.3 169.4 712.5 166.7C710.6 164.1 710.6 162 710.6 162C710.6 162 717.3 163.1 716.1 169.1Z" fill="#292C3D"/>
<path d="M697.3 226.4H695.6V270.7H697.3V226.4Z" fill="#AFEAF0"/>
<path d="M728.5 226.4H726.8V270.7H728.5V226.4Z" fill="#AFEAF0"/>
<path d="M749 226.4H747.3V270.7H749V226.4Z" fill="#AFEAF0"/>
<path d="M780.1 226.4H778.4V270.7H780.1V226.4Z" fill="#AFEAF0"/>
<path d="M733 223.8H691.1V228.1H733V223.8Z" fill="#292C3D"/>
<path d="M718.4 253.1C718.4 253.1 714.6 257.3 714.7 257.8C714.8 258.3 723.5 269.8 724.7 269.7C726 269.6 726 267.4 725.7 266.6C725.4 265.8 721.7 254.4 721.7 254.4L718.4 253.1Z" fill="#292C3D"/>
<path d="M707.7 253.2C707.7 253.2 703.5 257 703.6 257.6C703.7 258.2 711.3 270.3 712.6 270.3C713.9 270.3 714.1 268.1 713.9 267.3C713.7 266.5 711 254.8 711 254.8L707.7 253.2Z" fill="#292C3D"/>
<path d="M724.5 226.9C723 233.9 718 253.4 718 253.4L722.4 256C722.4 256 729.9 236.9 732.3 226.8H724.5V226.9Z" fill="#E76F59"/>
<path d="M715.7 226.9C713.5 234.1 707.3 253.6 707.3 253.6L711.2 256.3C711.2 256.3 721.6 236.9 725.5 226.9H715.7Z" fill="#F9A57E"/>
<path d="M731.2 219.8C728 218 724.6 216.3 721.1 215.4C719.7 215 717.1 211.7 716.7 208.9C714.6 209.7 712.1 209.7 709.6 209.8C706.1 209.9 702 210.4 698.6 209.6C697.8 209.4 697.1 209.1 696.5 208.8C696.5 208.8 692.7 212.3 692.7 218.6C692.7 221.8 693.6 223.2 697.1 224.3C699 224.9 708.8 224 711.5 225.1C713.9 226.1 713.5 228.7 713.1 230.5C724.7 232.2 730.7 231 732.8 230.5C733.4 228.1 734.9 221.9 731.2 219.8Z" fill="url(#paint18_linear)"/>
<path d="M763 208.7C763 208.7 753.2 208.6 749.7 206.3C746.2 204 745.6 194.8 750.7 191.1C755.7 187.4 756.8 186.2 757 183.7C757.2 181.2 757.2 175.6 763.7 175.6C770.1 175.6 769.5 180.8 770 184.1C770.3 186.4 773.5 189.8 776.3 192C779.9 194.8 783.9 211 763 208.7Z" fill="#292C3D"/>
<path d="M766 185.5C765.5 185.7 764.9 185.8 764.3 185.8C763.1 185.8 762.2 185.5 761.4 185C761.1 186.9 762 189 760.2 189.5C760.2 189.5 760.3 197.5 763.5 197.5C766.7 197.5 767.1 189.5 767.1 189.5C767.1 189.5 765.5 189.1 766 185.5Z" fill="#E76F59"/>
<path d="M768 183.5C767.7 182.8 766.8 183.1 766.8 183.1C767 181.2 767 178.1 767 178.1L763.7 177.7L760.4 178.1C760.4 178.1 760.4 181.1 760.6 183.1C760.6 183.1 759.8 182.7 759.4 183.5C758.8 184.7 760.2 185.5 760.2 185.5C760.1 185.5 761.1 189.6 763.8 189.8C766.4 189.6 767.4 185.5 767.4 185.5C767.2 185.5 768.6 184.7 768 183.5Z" fill="#F9A57E"/>
<path d="M767.5 178.1C767.5 178.1 765.7 182.6 760.9 182.3C760.9 182.3 761.1 183.1 760.8 183.8C760.8 183.8 760.1 181.9 759.4 182.3C758.7 182.7 758.4 183.4 758.4 183.4C758.4 183.4 757.7 178 761.2 176.8C764.6 175.7 767.5 178.1 767.5 178.1Z" fill="#292C3D"/>
<path d="M765.9 177.7C765.9 178 765.8 178.2 765.8 178.5C765.8 179 765.8 179.6 765.8 180.1C766.5 180.9 766.8 182.4 766.7 182.6C766.7 182.9 766.7 183.4 766.9 183.9C766.9 183.9 767.6 182 768.3 182.4C769 182.8 769.3 183.5 769.3 183.5C769.3 183.5 769.1 177.6 765.9 177.7Z" fill="#292C3D"/>
<path d="M773 202.1C772 199.3 772.5 191.7 772.5 191.7C771.3 191.3 766.6 189.1 766.6 189.1L763.6 196.4L760.4 189.1C760.4 189.1 756.6 190.9 755.4 191.3C755.4 191.3 755.2 199.2 754.2 202C754.2 202 757.2 206.8 754.2 217.7H763.6H773C770 206.9 773 202.1 773 202.1Z" fill="#AFEAF0"/>
<path d="M773 202.1C772.8 201.4 772.7 198.9 772.6 197.7C772.2 198.9 771.6 201.5 771.2 202.7C769.7 206.7 768 208.3 763.5 208.4C759.9 208.5 756.6 202.7 756.2 201.6C755.8 200.4 755.2 199.2 754.8 198C754.7 199.6 754.6 201.1 754.3 202C754.3 202 757.3 206.8 754.3 217.7H773C770 206.9 773 202.1 773 202.1Z" fill="#5AC4E0"/>
<path d="M772.3 210.1C772.3 210.1 770.7 210.9 770.2 210.8C769.6 210.6 769.4 210.3 768.3 210.7C767.2 211.1 766.9 211.2 766.2 211.6C765.6 211.9 764.6 212.5 764.9 213.1C765.2 213.7 766.4 212.9 766.5 212.8C766.6 212.7 767 212.6 767 212.6C767 212.6 765.7 213.2 765.9 213.6C766.1 214 766.8 214 767.2 213.7C767.6 213.5 768 213.2 768 213.2C768 213.2 767.1 213.8 767.3 214C767.5 214.2 768.1 214.3 768.6 214C769.1 213.7 769.3 213.5 769.3 213.5C769.3 213.5 768.5 214 769.2 214.3C769.9 214.5 770.5 213.8 770.9 213.5C771.3 213.2 771.8 212.6 772 212.5C772.2 212.4 773.9 211.8 773.9 211.8L772.3 210.1Z" fill="#F9A57E"/>
<path d="M765 213.2L760.4 205.6C760.4 205.6 759 204.9 759.1 206.5L764.6 213.5C764.6 213.6 766.2 215.3 765 213.2Z" fill="#292C3D"/>
<path d="M754.7 210.1C754.7 210.1 756.3 211 756.6 210.9C756.8 210.8 760.3 208.8 761 209.2C761.7 209.6 762.2 210.4 762.5 210.8C762.9 211.3 764 212.7 763.5 213.2C762.9 213.7 762.2 212.1 761.9 211.8C761.6 211.5 760.7 210.5 760.2 210.6C760.2 210.6 761.2 211.1 761.6 211.7C762 212.3 763.1 213.2 762.7 213.8C762.3 214.4 761 212.6 760.9 212.5C760.8 212.4 759.9 211.7 759.5 211.6C759.5 211.6 760.6 212.4 760.7 212.5C760.8 212.6 762.1 213.6 761.9 214C761.7 214.3 761.3 214.5 760.3 213.4C759.9 213 759.2 212.6 759.2 212.6C759.2 212.6 760.1 213.1 760.3 213.3C760.5 213.5 761 214 760.6 214.1C760.2 214.2 759.7 213.9 759.2 213.6C758.7 213.3 758 213.1 757.4 213.2C756.8 213.4 753.8 212.3 753.8 212.3L754.7 210.1Z" fill="#F9A57E"/>
<path d="M762.7 209.4C762.7 209.4 764 209.8 764.2 210.4C764.4 210.9 764 211.3 763.7 211.1L762.7 209.4Z" fill="#F9A57E"/>
<path d="M755.5 191.4C754.4 191.7 751.8 192.7 749.4 199.3C747.2 205.3 746.3 210.2 746.5 211.7C746.8 214.2 756.6 214.1 756.6 214.1L757.3 210.2C757.3 210.2 752.9 208.8 753 208.2C753.1 207.5 754.4 204.8 754.9 203.2C754.9 203 756.2 191.2 755.5 191.4Z" fill="#AFEAF0"/>
<path d="M772.3 191.7C773.1 191.8 775.9 193.1 778.4 199.3C780.8 205.2 781.5 210.2 781.3 211.7C781 214.2 771.2 214.1 771.2 214.1L770.5 210.2C770.5 210.2 774.9 208.8 774.8 208.2C774.7 207.5 773.4 204.8 772.9 203.2C772.9 203 771.5 191.6 772.3 191.7Z" fill="#AFEAF0"/>
<path d="M741.9 208.3L740.7 210.5C740.7 210.5 742.5 211.6 742.9 212C743.3 212.4 743.9 213.9 745.8 214.3C747.7 214.7 748 215.1 748.5 214.6C749 214.1 747.7 213.4 746.9 213.2C746.1 213 745.5 212.9 745.6 212.7C745.7 212.5 746.4 212.5 747.8 212.7C749.2 212.9 751 213.5 751.4 213.3C751.8 213 750.3 211.8 748.7 211.7C747.5 211.6 746.9 211.4 746.9 211.4C746.9 211.4 748.5 211.5 748.8 211.6C749.2 211.7 751.5 212.4 752 211.9C752.5 211.5 750.5 210.7 749 210.5C747.6 210.3 747.1 210.5 747.1 210.5C747.1 210.5 748.7 210.4 749.2 210.4C749.7 210.5 751.2 210.9 751.4 210.5C751.6 210.1 750.3 209.6 749.2 209.5C748.1 209.5 747.1 209.6 747.1 209.6C747.1 209.6 748.6 209.3 749.1 209.3C749.7 209.3 750.5 209.5 750.5 209.2C750.6 208.9 750.2 208.5 748.3 208.5C747.3 208.5 746.4 208.7 745.7 208.9C744.9 209.1 742.2 208.3 741.9 208.3Z" fill="#F9A57E"/>
<path d="M679.7 213.8H678.4V271.1H679.7V213.8Z" fill="#7695A8"/>
<path d="M792.3 213.8H791V271.1H792.3V213.8Z" fill="#7695A8"/>
<path d="M794.5 213.8H676.2V215.3H794.5V213.8Z" fill="#7695A8"/>
<path d="M775.8 227.2C775.8 227 775.8 226.8 775.8 226.7C775.8 221.2 772.9 217.6 772.9 217.6H754.1C754.1 217.6 751.5 221.2 751.5 226.7C751.5 226.9 751.5 227 751.5 227.2H775.8Z" fill="url(#paint19_linear)"/>
<path d="M758.2 254.1C758.2 254.1 753.5 259.7 752.9 260.9C752.3 262.1 753.7 263.6 755.5 263C757.3 262.4 762.8 256.2 762.6 255.4C762.4 254.6 761.1 253.8 761.1 253.8L758.2 254.1Z" fill="#292C3D"/>
<path d="M784.1 223.8H742.8V228.1H784.1V223.8Z" fill="#292C3D"/>
<path d="M763.1 226.1C762.9 223.9 763.3 219.9 759.7 219.9C754.2 219.9 755.3 227.8 755.4 228.6C756.3 237.3 758.2 254 758.2 254L761.1 253.6C761.2 253.7 763.2 227.1 763.1 226.1Z" fill="#F9A57E"/>
<path d="M769.1 254.1C769.1 254.1 773.8 259.7 774.4 260.9C775 262.1 773.6 263.6 771.8 263C770 262.4 764.5 256.2 764.7 255.4C764.9 254.6 766.2 253.8 766.2 253.8L769.1 254.1Z" fill="#292C3D"/>
<path d="M764.3 226.1C764.5 223.9 764.1 219.9 767.7 219.9C773.2 219.9 772.1 227.8 772 228.6C771.1 237.3 769.2 254 769.2 254L766.3 253.6C766.2 253.7 764.2 227.1 764.3 226.1Z" fill="#F9A57E"/>
<path d="M743.1 207.5L741.9 212C741.9 212 725.9 209.1 724.4 206.9C722.9 204.7 719.1 195.2 719.1 195.2C719.1 195.2 716.9 188 719.4 183.2C719.4 183.2 721.8 184.1 723.1 187.8C724 190.2 728.2 200.4 729.1 201.4C729.9 202.5 743.1 207.5 743.1 207.5Z" fill="#0254E4"/>
<path d="M699.8 210.9C699.8 210.9 701.2 211.1 701.5 211.1C701.8 211.1 705.8 209 706.2 209.3C706.6 209.6 710.5 212.5 710.4 213C710.3 213.5 709.2 213.2 707.1 211.3C707.1 211.3 709.8 213.4 709.3 213.8C708.7 214.3 706.4 212 706.4 212C706.4 212 708.9 213.9 708.3 214.4C707.7 214.8 705.5 212.5 705.5 212.5C705.5 212.5 707.2 214.2 706.9 214.5C706.7 214.8 705.6 214.3 704.4 213.1C704.4 213.1 704.2 213 703.5 213.3C702.9 213.6 699 212.9 699 212.9L699.8 210.9Z" fill="#F9A57E"/>
<path d="M701.1 211L699.8 213.9C699.8 213.9 687.7 208.7 687.3 203.8C686.9 198.9 694.3 182.5 699.5 182.6C699.5 182.6 698.6 193.6 697.2 196.6C697.2 196.6 694.3 201.2 694.3 202.3C694.4 203.4 701.1 211 701.1 211Z" fill="#0254E4"/>
<path d="M350 177.9H347.3H344.6C344.6 177.9 343.8 185.3 342.4 186.2C342.4 186.2 340.7 194.9 347.3 194.9C355.4 194.9 352.2 186.2 352.2 186.2C350.8 185.3 350 177.9 350 177.9Z" fill="#E76F59"/>
<path d="M354.3 179.4C353.5 178.5 352.6 179.9 352.6 179.9C352.6 179.9 353.8 175 352.6 172.9C351.4 170.8 347.3 171.9 347.3 171.9C347.3 171.9 343.3 170.8 342 172.9C340.8 175 342 179.9 342 179.9C342 179.9 341.1 178.6 340.3 179.4C339.5 180.3 341.5 182.5 342 182.7C342 182.7 344.9 188.1 347.2 188.1C349.5 188.1 352.4 182.7 352.4 182.7C353.1 182.4 355.1 180.2 354.3 179.4Z" fill="#F9A57E"/>
<path d="M346.4 173.7C346.4 173.7 343.3 174.2 343 175.9C342.8 176.7 343 177.6 343.2 178.3C343.3 178.7 343.6 180.9 343.5 181C343.4 181.1 343.2 181 343.1 180.9C342.7 180.6 342.4 180.1 342.1 179.7C341.5 178.9 340.7 179 340.4 179.5C340.4 179.5 339.7 171.5 343.1 171.2C346.4 170.9 346.4 173.7 346.4 173.7Z" fill="#292C3D"/>
<path d="M348.4 173.7C348.4 173.7 351.5 174.2 351.8 175.9C352 176.7 351.8 177.6 351.6 178.3C351.5 178.7 351.2 180.9 351.3 181C351.4 181.1 351.6 181 351.7 180.9C352.1 180.6 352.4 180.1 352.7 179.7C353.3 178.9 354.1 179 354.4 179.5C354.4 179.5 355.1 171.5 351.7 171.2C348.4 170.9 348.4 173.7 348.4 173.7Z" fill="#292C3D"/>
<path d="M352.9 171.7C352.9 171.7 353 170.4 351.5 169.6C350 168.8 347 168.4 344.6 169.6C342.2 170.8 341.5 171.1 340.8 170.7C340.1 170.3 340.5 169.9 340.5 169.9C340.5 169.9 338.9 169.9 339 172.3C339.1 174.7 342 177.7 345.9 177.7C351.9 177.6 353.8 173.5 352.9 171.7Z" fill="#292C3D"/>
<path d="M352.2 186.2C351.9 193.6 347.3 192.9 347.3 192.9C347.3 192.9 342.7 193.7 342.4 186.2C342.4 186.2 335 188.2 331.4 190.7C331.4 190.7 332.9 197.2 333 204.4L337.2 220.8L347.3 221.3L357.4 220.8L361.6 204.4C361.7 197.2 363.2 190.7 363.2 190.7C359.6 188.2 352.2 186.2 352.2 186.2Z" fill="#AFEAF0"/>
<path d="M360.8 195C356.2 197.5 354 203.1 349.5 205.9C344.9 208.8 341.6 203 339.4 200C337.5 197.4 335 195.3 332 194.1C332.4 196.7 332.9 200.5 333 204.5L337.2 220.9L347.3 221.4L357.4 220.9L361.6 204.5C361.7 200.6 362.1 196.9 362.6 194.3C361.9 194.4 361.4 194.7 360.8 195Z" fill="#5AC4E0"/>
<path d="M365.9 227.4C365.9 221.6 358.8 217.9 358.8 217.9H334.8C334.8 217.9 327.7 221.7 327.7 227.4C327.7 228.3 327.9 229.9 328.3 231.8H336.3C336 232.4 335.7 232.9 335.5 233.4C335.4 233.5 335.3 233.7 335.3 233.8C336.5 233.8 337.7 233.8 338.9 233.8C339.6 233.8 340.4 233.8 341.1 233.8C341.5 233.8 342.4 234 342.2 233.3C342 232.4 341.5 231.9 342 230.9C342.4 230.1 343.6 229.5 344.5 229.5C344.7 229.5 344.9 229.5 345.1 229.5C346.4 229.5 347.6 229.5 348.9 229.5C349.4 229.5 349.8 229.6 350.3 229.7C350.7 229.8 351.2 229.8 351.5 230.2C351.8 230.7 351.8 231.5 351.9 232C351.9 232.2 351.8 233.7 351.8 233.7H359.9C359.3 233 358.9 232.3 358.5 231.7H365.6C365.7 229.9 365.9 228.3 365.9 227.4Z" fill="#0254E4"/>
<path opacity="0.65" d="M365.9 227.4C365.9 221.6 358.8 217.9 358.8 217.9H334.8C334.8 217.9 327.7 221.7 327.7 227.4C327.7 228.3 327.9 229.9 328.3 231.8H336.3C336 232.4 335.7 232.9 335.5 233.4C335.4 233.5 335.3 233.7 335.3 233.8H342.2C342.4 233.8 341.9 232.8 341.9 232.7C341.7 232.3 341.7 231.9 341.8 231.5C341.9 231.1 342.3 230.7 342.6 230.4C343.7 229.4 345.3 229.4 346.7 229.4C348.1 229.4 349.6 229.2 350.8 230.1C351.1 230.3 351.2 230.4 351.4 230.6C352.2 231.6 351.8 232.6 351.7 233.7H359.8C359.2 233 358.8 232.3 358.4 231.7H365.5C365.7 229.9 365.9 228.3 365.9 227.4Z" fill="#00A1CC"/>
<path d="M331.3 190.7C331.3 190.7 322.1 210.5 322.8 213.1C323 213.8 334.1 220.5 339.3 219.5L341.4 219.1C341.5 219.1 333.7 190.5 331.3 190.7Z" fill="#AFEAF0"/>
<path d="M363.2 190.7C363.2 190.7 372.4 210.5 371.7 213.1C371.5 213.8 360.4 220.5 355.2 219.5L353.1 219.1C353 219.1 360.8 190.5 363.2 190.7Z" fill="#AFEAF0"/>
<path d="M334.9 197.6C334.9 198.5 334.8 199.5 334.5 200.5C333.7 204.1 332.4 207.8 333.8 211.4C334.8 214.1 336.4 216.9 337.9 219.6C338.4 219.6 338.9 219.6 339.4 219.5L341.5 219.1C341.5 219.1 338 206 334.9 197.6Z" fill="#5AC4E0"/>
<path d="M358.2 219.4C358.9 217.7 359.3 216 359.2 214.1C359.1 210.4 359.1 206.8 359.1 203.1C359.1 201.5 359.2 200 359.3 198.5C356.3 206.9 353 219 353 219L355.1 219.4C356 219.6 357 219.6 358.2 219.4Z" fill="#5AC4E0"/>
<path d="M338.1 261.6C338.1 261.6 332.3 268.5 331.6 270C330.9 271.5 332.6 273.3 334.8 272.6C337.1 271.8 338.4 270.3 338.4 269.3C338.4 268.3 339.6 267.8 340.2 267.7C340.7 267.6 343.7 264.2 343.4 263.2C343.1 262.3 341.6 261.2 341.6 261.2L338.1 261.6Z" fill="#292C3D"/>
<path d="M355.5 261.6C355.5 261.6 361.3 268.5 362 270C362.7 271.5 361 273.3 358.8 272.6C356.5 271.8 355.2 270.3 355.2 269.3C355.2 268.3 354 267.8 353.4 267.7C352.9 267.6 349.9 264.2 350.2 263.2C350.5 262.3 352 261.2 352 261.2L355.5 261.6Z" fill="#292C3D"/>
<path d="M326.1 232.8H324.2V272.7H326.1V232.8Z" fill="#AFEAF0"/>
<path d="M369.8 232.8H367.9V272.7H369.8V232.8Z" fill="#AFEAF0"/>
<path d="M372.3 229.6H320.5V234.7H372.3V229.6Z" fill="#292C3D"/>
<path d="M340.2 227.1C339.5 225.5 339.4 222 334.7 222C325.7 222 327.8 229.2 328 230.3C329.4 241 335.9 262.3 335.9 262.3H344.9C344.9 262.3 341.6 236.1 341.1 232.1C340.9 231.5 340.6 228.2 340.2 227.1Z" fill="#0254E4"/>
<path d="M353.5 227.1C354.2 225.5 354.3 222 359 222C368 222 365.9 229.2 365.7 230.3C364.3 241 357.8 262.3 357.8 262.3H348.8C348.8 262.3 352.1 236.1 352.6 232.1C352.7 231.5 353 228.2 353.5 227.1Z" fill="#0254E4"/>
<path d="M360.5 219.3H334.1V220.9H360.5V219.3Z" fill="url(#paint20_linear)"/>
<path d="M364.3 201H330.2C330.2 201 328.4 201 328.7 203.1C329 205.2 333.3 219.5 334.2 219.5C335.8 219.5 347.3 219.5 347.3 219.5C347.3 219.5 358.8 219.5 360.4 219.5C361.2 219.5 365.6 205.1 365.9 203.1C366.2 201 364.3 201 364.3 201Z" fill="url(#paint21_linear)"/>
<path d="M347.3 212.4C348.073 212.4 348.7 211.773 348.7 211C348.7 210.227 348.073 209.6 347.3 209.6C346.527 209.6 345.9 210.227 345.9 211C345.9 211.773 346.527 212.4 347.3 212.4Z" fill="white"/>
<path d="M92 229.2V231.1H114.1V236.2H92V238.2H139.2V229.2H92Z" fill="#DA395B"/>
<path d="M144.9 239.5H146.3V238.2H96.7V244.4H146.3V243H144.9C144.4 243 144.1 242.2 144.1 241.2C144 240.3 144.4 239.6 144.9 239.5Z" fill="#0254E4"/>
<path d="M139.2 229.2H117.8V238.2H139.2V229.2Z" fill="#FF4C6B"/>
<path opacity="0.65" d="M124.1 238.2H96.7V244.4H124.1V238.2Z" fill="#00A1CC"/>
<path d="M92 231.1C92.7 231.2 93.2 232.3 93.2 233.6C93.2 235 92.7 236.1 92 236.1H115.8V231H92V231.1Z" fill="#F8F2ED"/>
<path d="M144.5 210.4V208.4H122.4V203.3H144.5V201.4H97.2999V210.4H144.5Z" fill="#FF4C6B"/>
<path d="M118.7 201.4H97.2999V210.4H118.7V201.4Z" fill="#DA395B"/>
<path d="M144.5 208.4C143.8 208.3 143.3 207.2 143.3 205.9C143.3 204.5 143.8 203.4 144.5 203.4H120.7V208.5H144.5V208.4Z" fill="#F8F2ED"/>
<path d="M150.1 269.5V268.1H117.7V264.5H150.1V263.2H81.1V269.5H150.1Z" fill="#FF4C6B"/>
<path d="M112.4 263.2H81.1V269.5H112.4V263.2Z" fill="#DA395B"/>
<path d="M150.1 268.1C149.1 268 148.3 267.3 148.3 266.3C148.3 265.3 149.1 264.6 150.1 264.5H115.3V268.1H150.1Z" fill="#F8F2ED"/>
<path d="M84.7999 244.4V246.3H108.5V251.4H84.7999V253.4H135.4V244.4H84.7999Z" fill="#48525B"/>
<path d="M141.5 244.4H112.4V253.4H141.5V244.4Z" fill="#B6B6B6"/>
<path d="M84.7999 246.3C85.4999 246.4 86.0999 247.5 86.0999 248.8C86.0999 250.2 85.4999 251.3 84.7999 251.3H138.2V246.2H84.7999V246.3Z" fill="#F8F2ED"/>
<path d="M112.5 246.3H84.7999C85.4999 246.4 86.0999 247.5 86.0999 248.8C86.0999 250.2 85.4999 251.3 84.7999 251.3H112.5V246.3Z" fill="#F8F2ED"/>
<path d="M87.3999 220.2V222.1H107.1V227.2H87.3999V229.2H129.3V220.2H87.3999Z" fill="#48525B"/>
<path d="M134.4 220.2H110.3V229.2H134.4V220.2Z" fill="#B6B6B6"/>
<path d="M87.3999 222.1C87.9999 222.2 88.4999 223.3 88.4999 224.6C88.4999 226 87.9999 227.1 87.3999 227.1H131.7V222H87.3999V222.1Z" fill="#F8F2ED"/>
<path d="M110.4 222.1H87.3999C87.9999 222.2 88.4999 223.3 88.4999 224.6C88.4999 226 87.9999 227.1 87.3999 227.1H110.4V222.1Z" fill="#F8F2ED"/>
<path d="M147.2 263.2V261.1H120.4V255.5H147.2V253.4H93.3999V263.2H147.2Z" fill="#AFEAF0"/>
<path d="M116.4 253.4H87.2V263.2H116.4V253.4Z" fill="#5AC4E0"/>
<path d="M147.2 261.1C146.5 261 145.9 259.8 145.9 258.3C145.9 256.8 146.5 255.6 147.2 255.5H90.6V261H147.2V261.1Z" fill="#F8F2ED"/>
<path d="M116.4 261.1H147.2C146.5 261 145.9 259.8 145.9 258.3C145.9 256.8 146.5 255.6 147.2 255.5H116.4V261.1Z" fill="#F8F2ED"/>
<path d="M138.2 220.2V218.1H117.3V212.5H138.2V210.4H96.3999V220.2H138.2Z" fill="#AFEAF0"/>
<path d="M114.2 210.4H91.5V220.2H114.2V210.4Z" fill="#5AC4E0"/>
<path d="M138.2 218.1C137.6 218 137.2 216.8 137.2 215.3C137.2 213.8 137.7 212.6 138.2 212.5H94.2V218H138.2V218.1Z" fill="#F8F2ED"/>
<path d="M114.2 218.1H138.1C137.5 218 137.1 216.8 137.1 215.3C137.1 213.8 137.6 212.6 138.1 212.5H114.2V218.1Z" fill="#F8F2ED"/>
<path d="M144 241.3C144 240.4 144.4 239.6 144.8 239.5H125.7V243H144.8C144.4 243 144 242.2 144 241.3Z" fill="#F8F2ED"/>
<path d="M139.6 194H140.7V191.9H104.2V201.4H140.7V199.3H139.6C139.3 199.2 139 198.1 139 196.6C139 195.2 139.2 194 139.6 194Z" fill="#0254E4"/>
<path opacity="0.65" d="M124.3 191.9H104.1V201.4H124.3V191.9Z" fill="#00A1CC"/>
<path d="M139 196.7C139 195.3 139.3 194.1 139.6 194H125.6V199.4H139.6C139.2 199.3 139 198.1 139 196.7Z" fill="#F8F2ED"/>
<path d="M522.1 97.8H495.8L481.7 109.3L488 97.8H481.5C480.4 97.8 479.5 96.9 479.5 95.8V69.7C479.5 68.6 480.4 67.7 481.5 67.7H522C523.1 67.7 524 68.6 524 69.7V95.8C524.1 96.8 523.2 97.8 522.1 97.8Z" fill="white"/>
<path d="M507.9 78.8C507.9 82.3 503.5 83.3 503.5 84.7V85.2H499.1V83.9C499.1 82 502.4 81 502.4 78.9C502.4 78 501.8 77.1 500.7 77.1C499.3 77.1 499 78.2 499 79.2C499 79.4 499 79.7 499 79.9H494.3C494.3 79.6 494.2 79.3 494.2 78.9C494.2 75.6 497.2 73.5 501.2 73.5C505.3 73.6 507.9 75.6 507.9 78.8ZM503.9 91.5H498.8V86.8H503.9V91.5Z" fill="#292C3D"/>
<path d="M42.2 94.4H37.4L41.5 103.3L32.5 94.4H16.8C16.1 94.4 15.5 93.8 15.5 93.1V76.7C15.5 76 16.1 75.4 16.8 75.4H42.3C43 75.4 43.6 76 43.6 76.7V93.1C43.5 93.9 42.9 94.4 42.2 94.4Z" fill="white"/>
<path d="M33.3 82.5C33.3 84.7 30.5 85.3 30.5 86.2V86.5H27.7V85.7C27.7 84.5 29.8 83.8 29.8 82.5C29.8 81.9 29.4 81.4 28.7 81.4C27.8 81.4 27.7 82.1 27.7 82.8C27.7 82.9 27.7 83.1 27.7 83.2H24.7C24.7 83 24.7 82.8 24.7 82.6C24.7 80.5 26.6 79.2 29.1 79.2C31.7 79.2 33.3 80.5 33.3 82.5ZM30.8 90.5H27.6V87.5H30.8V90.5Z" fill="#292C3D"/>
<path d="M291.7 100.3H271.6L260.8 109.1L265.6 100.3H260.7C259.8 100.3 259.2 99.6 259.2 98.8V78.9C259.2 78 259.9 77.4 260.7 77.4H291.6C292.5 77.4 293.1 78.1 293.1 78.9V98.8C293.3 99.6 292.6 100.3 291.7 100.3Z" fill="white"/>
<path d="M272 94.1H268.2V90.6H272V94.1Z" fill="black"/>
<path d="M278 94.1H274.2V90.6H278V94.1Z" fill="black"/>
<path d="M283.9 94.1H280.1V90.6H283.9V94.1Z" fill="black"/>
<path d="M899.4 103.4H883L874.2 110.6L878.1 103.4H874.1C873.4 103.4 872.8 102.8 872.8 102.1V85.9C872.8 85.2 873.4 84.6 874.1 84.6H899.3C900 84.6 900.6 85.2 900.6 85.9V102.1C900.6 102.8 900.1 103.4 899.4 103.4Z" fill="white"/>
<path d="M885.4 99.9V97.4H887.9V99.9H885.4ZM886.2 96.6L885.4 87.7H888.1L887.1 96.6H886.2Z" fill="black"/>
<path d="M450.7 77.8H446.3V73.3H443.8V77.8H439.3V80.3H443.8V84.7H446.3V80.3H450.7V77.8Z" fill="#FFF9FD"/>
<path d="M21.2 154.6H16.7V150.1H14.2V154.6H9.80005V157.1H14.2V161.5H16.7V157.1H21.2V154.6Z" fill="#FFF9FD"/>
<path d="M39 207H34.6V202.6H32.1V207H27.6V209.5H32.1V214H34.6V209.5H39V207Z" fill="#FFF9FD"/>
<path d="M242.3 94H237.8V89.6H235.3V94H230.9V96.5H235.3V101H237.8V96.5H242.3V94Z" fill="#FFF9FD"/>
<path d="M69.1001 66.3H64.7V61.8H62.2V66.3H57.8V68.8H62.2V73.2H64.7V68.8H69.1001V66.3Z" fill="#FFF9FD"/>
<path d="M642.6 60.6H638.1V56.1H635.6V60.6H631.2V63.1H635.6V67.5H638.1V63.1H642.6V60.6Z" fill="#FFF9FD"/>
<path d="M847.7 90.1H843.3V85.7H840.8V90.1H836.4V92.6H840.8V97.1H843.3V92.6H847.7V90.1Z" fill="#FFF9FD"/>
<path d="M896.8 162.7H892.3V158.3H889.8V162.7H885.4V165.2H889.8V169.6H892.3V165.2H896.8V162.7Z" fill="#FFF9FD"/>
<path d="M884.3 230.9H879.9V226.5H877.4V230.9H872.9V233.4H877.4V237.9H879.9V233.4H884.3V230.9Z" fill="#FFF9FD"/>
<path d="M475.3 41.1C484.081 41.1 491.2 33.9813 491.2 25.2C491.2 16.4187 484.081 9.29999 475.3 9.29999C466.519 9.29999 459.4 16.4187 459.4 25.2C459.4 33.9813 466.519 41.1 475.3 41.1Z" fill="white"/>
<path d="M850 234.9C847.9 234 846.3 233.2 846.7 229.8C846.9 228.2 847.4 227.1 848.6 226.1C849.5 225.3 850 225 850.3 223.7C850.7 221.7 850.2 220.1 851.1 218.2C852.1 216.2 854.3 216.4 855.4 214.6C856.3 213 856.7 211.3 858.7 210.7C860.5 210.2 861.6 211.7 861 213.2C860.6 214.1 859.9 214.9 859.7 215.8C859.5 216.7 859.9 217.4 860.4 218.2C861.5 220 862 222.2 859.9 224.1C858.7 225.2 857.7 226.2 858.3 228C859 230.1 859.4 231.4 857.5 233.2C856.1 234.6 854.8 234.5 853.2 234.6C851.8 234.7 849.9 235.3 848.7 234.4L850 234.9Z" fill="#8494AB"/>
<path d="M845.4 234.9C843.9 236.5 842.6 237.8 840.3 235.9C839.2 234.9 838.7 233.7 838.7 232C838.7 230.7 838.8 230.1 838 229C836.7 227.4 834.8 226.8 834 224.7C833.1 222.5 835.1 221 834.4 219C833.8 217.2 832.5 215.6 833.7 214.1C834.6 212.9 836.6 213.6 837.3 215C837.7 215.8 837.8 216.7 838.3 217.5C838.8 218.3 839.5 218.4 840.3 218.7C842 219.3 843.5 220.3 843.6 222.5C843.7 223.8 843.8 224.9 845.1 225.5C846.4 226.1 847.2 226.5 847.4 228.5C847.6 230 847.1 230.9 846.6 232.2C846.1 233.4 845.7 235.3 844.6 235.9L845.4 234.9Z" fill="#0254E4"/>
<path d="M851.5 232.7C851.4 232.7 851.4 232.7 851.3 232.7C851.2 232.7 851.1 232.6 851.2 232.5C851.2 232.4 851.3 232.3 851.4 232.4C852.5 232.5 853.6 231.5 854.2 230.7C854.7 230 854.6 229.4 854.6 228.6V228C854.5 226.3 854.4 224.9 855.7 223.5C857.2 222 857.5 221.1 857.4 219.1C857.4 218.9 857.4 218.8 857.4 218.6C857.4 217.9 857.3 217.2 857.4 216.6C857.5 216.3 857.6 215.9 857.8 215.6C858 215.2 858.2 214.8 858.2 214.4C858.2 214.3 858.3 214.2 858.4 214.2C858.5 214.2 858.6 214.3 858.6 214.4C858.6 214.9 858.4 215.3 858.2 215.8C858 216.1 857.9 216.4 857.8 216.7C857.7 217.3 857.7 218 857.8 218.6C857.8 218.8 857.8 219 857.8 219.1C857.9 221.2 857.5 222.2 856 223.7C854.8 224.9 854.9 226.2 855 227.9V228.5C855.1 229.3 855.1 230 854.6 230.8C853.8 231.8 852.7 232.7 851.5 232.7Z" fill="white"/>
<path d="M855.2 228.2C855 228.2 854.8 228.1 854.5 227.9C854.4 227.8 854.5 227.7 854.5 227.7C854.6 227.6 854.7 227.6 854.7 227.7C854.9 227.9 855 228 855.2 227.9C855.9 227.7 856.6 226.3 856.7 225.7C857.1 224.1 857.5 223.3 859 222.7C859.1 222.7 859.2 222.7 859.2 222.8C859.2 222.9 859.2 223 859.1 223C857.6 223.6 857.3 224.3 857 225.8C856.9 226.3 856.1 228 855.2 228.2C855.4 228.2 855.3 228.2 855.2 228.2Z" fill="white"/>
<path d="M845.5 234C845.2 234 844.9 233.9 844.6 233.8C843.5 233.2 843 231.5 842.5 229.9C842.3 229.1 842.1 228.4 841.8 228C841.1 226.7 840.4 225.9 839 224.9C837.4 223.7 837 222.9 836.8 221C836.6 219.5 836.3 217.9 835.6 217C835.5 216.9 835.6 216.8 835.6 216.8C835.7 216.7 835.8 216.8 835.8 216.8C836.5 217.8 836.9 219.4 837.1 221C837.4 222.8 837.7 223.6 839.2 224.7C840.3 225.5 841.3 226.4 842.1 227.9C842.4 228.4 842.6 229.1 842.8 229.9C843.2 231.4 843.7 233.1 844.7 233.6C845.1 233.8 845.5 233.8 846 233.7C846.1 233.7 846.2 233.7 846.2 233.8C846.2 233.9 846.2 234 846.1 234C846 234 845.7 234 845.5 234Z" fill="white"/>
<path d="M840.5 226.1C840.3 226 840.3 225.9 840.4 225.8C840.9 225.2 840.6 224.2 840.3 223.2C840 222.3 839.8 221.4 840 220.6C840 220.5 840.1 220.5 840.2 220.5C840.3 220.5 840.3 220.6 840.3 220.7C840.1 221.4 840.4 222.2 840.6 223.1C840.9 224.2 841.2 225.3 840.7 226C840.6 226.1 840.6 226.1 840.5 226.1Z" fill="white"/>
<path d="M842.2 228.3C842.1 228.3 842.1 228.3 842.2 228.3C841.9 228.2 841.7 228.1 841.6 228C841.3 227.8 841.1 227.7 840.7 227.7C840.5 227.7 840.3 227.7 840.1 227.7C839.7 227.7 839.3 227.8 838.8 227.5C838.1 227.1 837.4 226.5 836.6 225.6C836.5 225.5 836.4 225.3 836.2 225.1C836 224.8 835.6 224.2 835.5 224.2C835.4 224.2 835.4 224.1 835.4 224C835.4 223.9 835.5 223.9 835.6 223.9C835.9 223.9 836.1 224.3 836.5 225C836.6 225.2 836.8 225.4 836.9 225.5C837.4 226.1 838.2 226.9 839 227.3C839.4 227.5 839.7 227.5 840.1 227.5C840.3 227.5 840.5 227.5 840.7 227.5C841.2 227.5 841.5 227.7 841.8 227.9C842 228 842.1 228.1 842.3 228.2C842.4 228.2 842.4 228.3 842.4 228.4C842.3 228.2 842.2 228.3 842.2 228.3Z" fill="white"/>
<path d="M844.8 235.2C842.5 233.3 839.8 232 840.4 228.3C840.9 225.3 844.4 224.5 843.3 221.2C842.6 219.1 840.8 216.7 841.4 214.3C842.1 211.8 845.3 212.8 846 210.5C846.6 208.5 844.5 206.3 846.4 204.6C848 203.2 850.9 204.5 851.8 206.2C852.9 208.3 851.1 209.8 851.4 211.9C851.6 213.2 852.9 213.4 853.8 214.2C854.7 214.9 855.7 216.1 856 217.2C857.2 220.6 853.8 221.8 852.8 224.4C851.8 226.9 855.1 227.6 855.4 230.1C855.7 232.8 852.8 235 850.4 235.4C848.7 235.6 846.2 236.4 844.8 235.2Z" fill="#B3B2DA"/>
<path d="M847.4 236C847.3 236 847.2 235.9 847.2 235.8C847.2 235.7 849 229.5 847.5 222.8C846.5 218.6 847.4 215.6 848.1 213.3C848.5 211.9 848.9 210.7 848.7 209.6C848.7 209.5 848.7 209.4 848.8 209.4C848.9 209.4 849 209.4 849 209.5C849.2 210.7 848.8 211.9 848.4 213.4C847.7 215.7 846.8 218.6 847.8 222.8C849.4 229.6 847.5 235.9 847.5 236C847.5 236 847.5 236 847.4 236Z" fill="white"/>
<path d="M847.8 222.8C847.7 222.8 847.7 222.7 847.6 222.7C847.6 222.6 847.6 222.5 847.7 222.5C849 222.3 850.6 221.1 850.7 219.6C850.7 219.4 850.7 219.2 850.7 219C850.8 218 850.8 216.8 851.5 216.2C851.8 215.9 852.3 215.8 852.9 215.9C853 215.9 853.1 216 853 216.1C853 216.2 852.9 216.2 852.8 216.2C852.3 216.1 851.9 216.2 851.7 216.5C851.1 217 851 218.1 851 219.1C851 219.3 851 219.5 851 219.7C851 221.3 849.3 222.6 847.8 222.8Z" fill="white"/>
<path d="M846.8 222.8C846.2 222.8 845.6 222.6 845.2 222.2C844.5 221.6 844.2 220.6 844.3 219.3C844.3 219.2 844.3 219 844.3 218.9C844.3 218 844.4 216.6 843.8 215.9C843.6 215.7 843.4 215.6 843 215.6C842.9 215.6 842.8 215.5 842.8 215.4C842.8 215.3 842.9 215.2 843 215.2C843.4 215.2 843.7 215.4 844 215.6C844.7 216.3 844.6 217.8 844.5 218.8C844.5 219 844.5 219.1 844.5 219.2C844.5 220.4 844.8 221.3 845.3 221.8C845.8 222.2 846.5 222.4 847.4 222.2C847.5 222.2 847.6 222.2 847.6 222.3C847.6 222.4 847.6 222.5 847.5 222.5C847.3 222.8 847.1 222.8 846.8 222.8Z" fill="white"/>
<path d="M848.7 233.4C848.5 233.4 848.3 233.4 848.1 233.3C848 233.3 848 233.2 848 233.1C848 233 848.1 233 848.2 233C849.2 233.4 850.7 232.3 851.2 231.6C851.4 231.3 851.6 230.8 851.8 230.3C852.1 229.4 852.4 228.5 853.2 228.3C853.3 228.3 853.4 228.3 853.4 228.4C853.4 228.5 853.4 228.6 853.3 228.6C852.7 228.8 852.4 229.6 852.1 230.4C851.9 230.9 851.8 231.4 851.5 231.8C851 232.4 849.8 233.4 848.7 233.4Z" fill="white"/>
<path d="M847.3 233.3C847.1 233.3 846.9 233.3 846.7 233.2C845.5 232.8 844.5 231.3 844.1 230.4C843.9 229.9 843.9 229.3 843.9 228.5C843.9 227.4 843.8 226.2 843.1 225.8C843 225.8 843 225.7 843 225.6C843 225.5 843.1 225.5 843.2 225.5C844.1 226 844.2 227.3 844.2 228.4C844.2 229.1 844.2 229.7 844.4 230.1C844.7 230.9 845.7 232.3 846.8 232.7C847.2 232.8 847.6 232.8 848 232.6C848.1 232.6 848.2 232.6 848.2 232.7C848.2 232.8 848.2 232.9 848.1 232.9C847.9 233.2 847.6 233.3 847.3 233.3Z" fill="white"/>
<path d="M837.1 234.3C835.9 237.4 835.3 241 835.3 244.9C835.3 256.1 840.9 265.3 847.8 265.3C854.7 265.3 860.3 256.2 860.3 244.9C860.3 241 859.6 237.4 858.5 234.3H837.1Z" fill="#FF4C6B"/>
<path d="M859.6 239.1C859.3 237.4 858.8 235.8 858.3 234.3H837C836.4 235.8 836 237.4 835.7 239.1H859.6Z" fill="#0254E4"/>
<path opacity="0.65" d="M70.9884 37.654C70.2677 34.3249 68.4803 35.469 65.4822 34.4375C62.4841 33.4153 63.3585 29.7581 61.5039 28.6328C59.0247 27.1324 56.7473 28.5203 55.2098 30.4989C52.6441 33.781 50.8952 31.1085 47.8298 32.4401C46.0713 33.1996 46.8208 34.2687 44.4473 34.7C42.7848 35.0001 40.9975 34.2968 39.3543 34.7282C38.1435 35.047 37.2691 35.6097 37 36.7537C37.3459 36.9131 37.6919 37.0538 38.057 37.1851C42.6311 38.798 48.8772 38.2541 53.4993 38.4979C55.0849 38.5636 71.4977 40.0171 70.9884 37.654Z" fill="white"/>
<path opacity="0.65" d="M114.988 16.654C114.268 13.3249 112.48 14.469 109.482 13.4375C106.484 12.4153 107.359 8.75809 105.504 7.63279C103.025 6.13238 100.747 7.52026 99.2098 9.49891C96.6441 12.781 94.8952 10.1085 91.8298 11.4401C90.0713 12.1996 90.8208 13.2687 88.4473 13.7C86.7848 14.0001 84.9975 13.2968 83.3543 13.7282C82.1435 14.047 81.2691 14.6097 81 15.7537C81.3459 15.9131 81.6919 16.0538 82.057 16.1851C86.6311 17.798 92.8772 17.2541 97.4993 17.4979C99.0849 17.5636 115.498 19.0171 114.988 16.654Z" fill="white"/>
<path opacity="0.65" d="M577.991 12.0211C577.44 9.59996 576.073 10.432 573.781 9.6818C571.488 8.93842 572.157 6.27861 570.738 5.46021C568.842 4.36901 567.101 5.37837 565.925 6.81739C563.963 9.2044 562.626 7.26069 560.282 8.22913C558.937 8.78155 559.51 9.55904 557.695 9.87276C556.424 10.091 555.057 9.5795 553.8 9.89322C552.874 10.1251 552.206 10.5343 552 11.3663C552.265 11.4823 552.529 11.5846 552.808 11.6801C556.306 12.8531 561.083 12.4575 564.617 12.6349C565.83 12.6826 578.381 13.7397 577.991 12.0211Z" fill="white"/>
<path opacity="0.65" d="M835.981 15.7974C834.815 10.3499 831.924 12.222 827.074 10.534C822.224 8.86143 823.639 2.87687 820.639 1.03547C816.628 -1.41974 812.944 0.851328 810.457 4.08913C806.307 9.45989 803.477 5.08656 798.519 7.26555C795.674 8.5085 796.887 10.2578 793.047 10.9637C790.358 11.4547 787.467 10.3039 784.808 11.0097C782.85 11.5315 781.435 12.4522 781 14.3243C781.56 14.5851 782.119 14.8153 782.71 15.0301C790.109 17.6695 800.213 16.7795 807.69 17.1784C810.255 17.2859 836.805 19.6643 835.981 15.7974Z" fill="white"/>
<defs>
<linearGradient id="paint0_linear" x1="599.121" y1="64.3065" x2="580.14" y2="165.381" gradientUnits="userSpaceOnUse">
<stop stop-color="#DCD541"/>
<stop offset="1" stop-color="#D93C65"/>
</linearGradient>
<linearGradient id="paint1_linear" x1="590.208" y1="103.819" x2="600.3" y2="127.291" gradientUnits="userSpaceOnUse">
<stop stop-color="#2B3582"/>
<stop offset="1" stop-color="#150E42"/>
</linearGradient>
<linearGradient id="paint2_linear" x1="592.037" y1="63.3981" x2="571.076" y2="158.53" gradientUnits="userSpaceOnUse">
<stop stop-color="#FDF53F"/>
<stop offset="1" stop-color="#D93C65"/>
</linearGradient>
<linearGradient id="paint3_linear" x1="589.41" y1="69.8375" x2="569.599" y2="148.179" gradientUnits="userSpaceOnUse">
<stop stop-color="#DCD541"/>
<stop offset="1" stop-color="#D93C65"/>
</linearGradient>
<linearGradient id="paint4_linear" x1="595.729" y1="64.2312" x2="580.56" y2="166.814" gradientUnits="userSpaceOnUse">
<stop stop-color="#FDF53F"/>
<stop offset="1" stop-color="#D93C65"/>
</linearGradient>
<linearGradient id="paint5_linear" x1="221.877" y1="173.95" x2="205.587" y2="209.492" gradientUnits="userSpaceOnUse">
<stop stop-color="#CB236D"/>
<stop offset="1" stop-color="#4C246D"/>
</linearGradient>
<linearGradient id="paint6_linear" x1="261.653" y1="216.298" x2="260" y2="198.926" gradientUnits="userSpaceOnUse">
<stop stop-color="#2B3582"/>
<stop offset="1" stop-color="#150E42"/>
</linearGradient>
<linearGradient id="paint7_linear" x1="196.188" y1="204.233" x2="253.25" y2="270.238" gradientUnits="userSpaceOnUse">
<stop stop-color="#2B3582"/>
<stop offset="1" stop-color="#150E42"/>
</linearGradient>
<linearGradient id="paint8_linear" x1="191.352" y1="206.196" x2="247.021" y2="271.3" gradientUnits="userSpaceOnUse">
<stop stop-color="#2B3582"/>
<stop offset="1" stop-color="#150E42"/>
</linearGradient>
<linearGradient id="paint9_linear" x1="225.402" y1="168.856" x2="222.663" y2="178.125" gradientUnits="userSpaceOnUse">
<stop stop-color="#CB236D"/>
<stop offset="1" stop-color="#4C246D"/>
</linearGradient>
<linearGradient id="paint10_linear" x1="218.843" y1="170.708" x2="211.383" y2="183.665" gradientUnits="userSpaceOnUse">
<stop stop-color="#CB236D"/>
<stop offset="1" stop-color="#4C246D"/>
</linearGradient>
<linearGradient id="paint11_linear" x1="215.733" y1="179.109" x2="210.028" y2="191.62" gradientUnits="userSpaceOnUse">
<stop stop-color="#CB236D"/>
<stop offset="1" stop-color="#4C246D"/>
</linearGradient>
<linearGradient id="paint12_linear" x1="263.386" y1="214.933" x2="263.308" y2="210.136" gradientUnits="userSpaceOnUse">
<stop stop-color="#2B3582"/>
<stop offset="1" stop-color="#150E42"/>
</linearGradient>
<linearGradient id="paint13_linear" x1="528.317" y1="227.291" x2="527.023" y2="199.894" gradientUnits="userSpaceOnUse">
<stop stop-color="#2B3582"/>
<stop offset="1" stop-color="#150E42"/>
</linearGradient>
<linearGradient id="paint14_linear" x1="514.456" y1="227.391" x2="503.732" y2="205.09" gradientUnits="userSpaceOnUse">
<stop stop-color="#2B3582"/>
<stop offset="1" stop-color="#150E42"/>
</linearGradient>
<linearGradient id="paint15_linear" x1="554.439" y1="226.178" x2="549.994" y2="201.383" gradientUnits="userSpaceOnUse">
<stop stop-color="#2B3582"/>
<stop offset="1" stop-color="#150E42"/>
</linearGradient>
<linearGradient id="paint16_linear" x1="587.931" y1="221.029" x2="626.041" y2="253.986" gradientUnits="userSpaceOnUse">
<stop stop-color="#3D489E"/>
<stop offset="1" stop-color="#150E42"/>
</linearGradient>
<linearGradient id="paint17_linear" x1="586.664" y1="219.895" x2="626.574" y2="255.738" gradientUnits="userSpaceOnUse">
<stop stop-color="#2B3582"/>
<stop offset="1" stop-color="#150E42"/>
</linearGradient>
<linearGradient id="paint18_linear" x1="703.826" y1="210.676" x2="718.498" y2="240.139" gradientUnits="userSpaceOnUse">
<stop stop-color="#2B3582"/>
<stop offset="1" stop-color="#150E42"/>
</linearGradient>
<linearGradient id="paint19_linear" x1="758.109" y1="218.397" x2="763.053" y2="232.268" gradientUnits="userSpaceOnUse">
<stop stop-color="#2B3582"/>
<stop offset="1" stop-color="#150E42"/>
</linearGradient>
<linearGradient id="paint20_linear" x1="347.825" y1="221.715" x2="347.817" y2="219.582" gradientUnits="userSpaceOnUse">
<stop stop-color="#2B3582"/>
<stop offset="1" stop-color="#150E42"/>
</linearGradient>
<linearGradient id="paint21_linear" x1="348.041" y1="228.922" x2="347.242" y2="204.289" gradientUnits="userSpaceOnUse">
<stop stop-color="#2B3582"/>
<stop offset="1" stop-color="#150E42"/>
</linearGradient>
</defs>
</svg>
